<svg width="191" height="118" viewBox="0 0 191 118" fill="none" xmlns="http://www.w3.org/2000/svg">
<path d="M35.7681 50.9415H15.1753C6.82974 50.9415 0 44.1136 0 35.7662V15.1735C0 6.82797 6.82974 0 15.1753 0H35.7681C44.1136 0 50.9434 6.82797 50.9434 15.1735V35.7662C50.9434 44.1136 44.1136 50.9415 35.7681 50.9415Z" fill="#D0D0CE"/>
<path d="M35.7681 117.623H15.1753C6.82974 117.623 0 110.795 0 102.448V81.8551C0 73.5096 6.82974 66.6816 15.1753 66.6816H35.7681C44.1136 66.6816 50.9434 73.5096 50.9434 81.8551V102.448C50.9434 110.795 44.1136 117.623 35.7681 117.623Z" fill="#457AA5"/>
<path d="M105.768 50.9415H85.1753C76.8297 50.9415 70 44.1136 70 35.7662V15.1735C70 6.82797 76.8297 0 85.1753 0H105.768C114.114 0 120.943 6.82797 120.943 15.1735V35.7662C120.943 44.1136 114.114 50.9415 105.768 50.9415Z" fill="#A7A9AB"/>
<path d="M105.768 117.623H85.1753C76.8297 117.623 70 110.795 70 102.448V81.8551C70 73.5096 76.8297 66.6816 85.1753 66.6816H105.768C114.114 66.6816 120.943 73.5096 120.943 81.8551V102.448C120.943 110.795 114.114 117.623 105.768 117.623Z" fill="#154973"/>
<path d="M175.768 50.9415H155.175C146.83 50.9415 140 44.1136 140 35.7662V15.1735C140 6.82797 146.83 0 155.175 0H175.768C184.114 0 190.943 6.82797 190.943 15.1735V35.7662C190.943 44.1136 184.114 50.9415 175.768 50.9415Z" fill="#797C7F"/>
<path d="M175.768 117.623H155.175C146.83 117.623 140 110.795 140 102.448V81.8551C140 73.5096 146.83 66.6816 155.175 66.6816H175.768C184.114 66.6816 190.943 73.5096 190.943 81.8551V102.448C190.943 110.795 184.114 117.623 175.768 117.623Z" fill="#0E324F"/>
<path fill-rule="evenodd" clip-rule="evenodd" d="M95 11L107 18.0008V31.9962L95 39L83 31.9962V18.0008L95 11ZM86.0272 19.7655V30.2345L95 35.4675L103.973 30.2345V19.7624L95 14.5325L86.0272 19.7655Z" fill="white"/>
<path d="M98.0272 24.9985C98.0272 26.6898 96.671 28.0569 95 28.0569C93.329 28.0569 91.9728 26.6898 91.9728 24.9985C91.9728 23.3102 93.329 21.94 95 21.94C96.671 21.94 98.0272 23.3102 98.0272 24.9985Z" fill="white"/>
<path fill-rule="evenodd" clip-rule="evenodd" d="M95 78L107 85.0008V98.9962L95 106L83 98.9962V85.0008L95 78ZM86.0272 86.7655V97.2345L95 102.468L103.973 97.2345V86.7624L95 81.5325L86.0272 86.7655Z" fill="white"/>
<path d="M98.0272 91.9985C98.0272 93.6898 96.671 95.0569 95 95.0569C93.329 95.0569 91.9728 93.6898 91.9728 91.9985C91.9728 90.3102 93.329 88.94 95 88.94C96.671 88.94 98.0272 90.3102 98.0272 91.9985Z" fill="white"/>
<path fill-rule="evenodd" clip-rule="evenodd" d="M25 11L37 18.0008V31.9962L25 39L13 31.9962V18.0008L25 11ZM16.0272 19.7655V30.2345L25 35.4675L33.9728 30.2345V19.7624L25 14.5325L16.0272 19.7655Z" fill="white"/>
<path d="M28.0272 24.9985C28.0272 26.6898 26.671 28.0569 25 28.0569C23.329 28.0569 21.9728 26.6898 21.9728 24.9985C21.9728 23.3102 23.329 21.94 25 21.94C26.671 21.94 28.0272 23.3102 28.0272 24.9985Z" fill="white"/>
<path fill-rule="evenodd" clip-rule="evenodd" d="M25 78L37 85.0008V98.9962L25 106L13 98.9962V85.0008L25 78ZM16.0272 86.7655V97.2345L25 102.468L33.9728 97.2345V86.7624L25 81.5325L16.0272 86.7655Z" fill="white"/>
<path d="M28.0272 91.9985C28.0272 93.6898 26.671 95.0569 25 95.0569C23.329 95.0569 21.9728 93.6898 21.9728 91.9985C21.9728 90.3102 23.329 88.94 25 88.94C26.671 88.94 28.0272 90.3102 28.0272 91.9985Z" fill="white"/>
<path fill-rule="evenodd" clip-rule="evenodd" d="M165 11L177 18.0008V31.9962L165 39L153 31.9962V18.0008L165 11ZM156.027 19.7655V30.2345L165 35.4675L173.973 30.2345V19.7624L165 14.5325L156.027 19.7655Z" fill="white"/>
<path d="M168.027 24.9985C168.027 26.6898 166.671 28.0569 165 28.0569C163.329 28.0569 161.973 26.6898 161.973 24.9985C161.973 23.3102 163.329 21.94 165 21.94C166.671 21.94 168.027 23.3102 168.027 24.9985Z" fill="white"/>
<path fill-rule="evenodd" clip-rule="evenodd" d="M165 78L177 85.0008V98.9962L165 106L153 98.9962V85.0008L165 78ZM156.027 86.7655V97.2345L165 102.468L173.973 97.2345V86.7624L165 81.5325L156.027 86.7655Z" fill="white"/>
<path d="M168.027 91.9985C168.027 93.6898 166.671 95.0569 165 95.0569C163.329 95.0569 161.973 93.6898 161.973 91.9985C161.973 90.3102 163.329 88.94 165 88.94C166.671 88.94 168.027 90.3102 168.027 91.9985Z" fill="white"/>
</svg>
