<svg width="1552" height="601" viewBox="0 0 1552 601" fill="none" xmlns="http://www.w3.org/2000/svg">
<path d="M835 467.5C835 440.162 857.162 418 884.5 418C911.838 418 934 440.162 934 467.5C934 494.838 911.838 517 884.5 517C857.162 517 835 494.838 835 467.5Z" fill="#154973"/>
<mask id="mask0_462_1944" style="mask-type:alpha" maskUnits="userSpaceOnUse" x="855" y="438" width="59" height="59">
<rect x="855" y="438" width="59" height="59" fill="#D9D9D9"/>
</mask>
<g mask="url(#mask0_462_1944)">
<path d="M897.737 475.127V451.727C897.737 451.109 897.939 450.591 898.342 450.173C898.746 449.755 899.246 449.545 899.842 449.545C900.439 449.545 900.939 449.755 901.342 450.173C901.746 450.591 901.947 451.109 901.947 451.727V475.182C901.947 475.909 901.728 476.455 901.289 476.818C900.851 477.182 900.368 477.364 899.842 477.364C899.316 477.364 898.833 477.173 898.395 476.791C897.956 476.409 897.737 475.855 897.737 475.127ZM872.474 450.091V448.455C872.474 447.836 872.675 447.318 873.079 446.9C873.482 446.482 873.982 446.273 874.579 446.273C875.175 446.273 875.675 446.482 876.079 446.9C876.482 447.318 876.684 447.836 876.684 448.455V450.091C876.684 450.709 876.482 451.227 876.079 451.645C875.675 452.064 875.175 452.273 874.579 452.273C873.982 452.273 873.482 452.064 873.079 451.645C872.675 451.227 872.474 450.709 872.474 450.091ZM880.895 458.273V445.182C880.895 444.564 881.096 444.045 881.5 443.627C881.904 443.209 882.404 443 883 443C883.596 443 884.096 443.209 884.5 443.627C884.904 444.045 885.105 444.564 885.105 445.182V458.327C885.105 458.945 884.904 459.455 884.5 459.855C884.096 460.255 883.596 460.455 883 460.455C882.404 460.455 881.904 460.245 881.5 459.827C881.096 459.409 880.895 458.891 880.895 458.273ZM889.316 466.4V447.364C889.316 446.745 889.518 446.227 889.921 445.809C890.325 445.391 890.825 445.182 891.421 445.182C892.018 445.182 892.518 445.391 892.921 445.809C893.325 446.227 893.526 446.745 893.526 447.364V466.4C893.526 467.018 893.325 467.536 892.921 467.955C892.518 468.373 892.018 468.582 891.421 468.582C890.825 468.582 890.325 468.373 889.921 467.955C889.518 467.536 889.316 467.018 889.316 466.4ZM895.474 486.091L876.684 466.618V474.636C876.684 475.509 876.307 476.155 875.553 476.573C874.798 476.991 874.07 476.945 873.368 476.436L868.895 473.164L877.158 485.655C877.333 485.945 877.579 486.182 877.895 486.364C878.211 486.545 878.544 486.636 878.895 486.636H893.526C893.877 486.636 894.219 486.591 894.553 486.5C894.886 486.409 895.193 486.273 895.474 486.091ZM878.895 491C877.842 491 876.86 490.755 875.947 490.264C875.035 489.773 874.281 489.073 873.684 488.164L861.263 469.291C860.982 468.855 860.86 468.382 860.895 467.873C860.93 467.364 861.14 466.927 861.526 466.564C862.193 465.873 862.982 465.473 863.895 465.364C864.807 465.255 865.632 465.473 866.368 466.018L872.474 470.436V462.255L860.632 449.982C860.211 449.545 860 449.027 860 448.427C860 447.827 860.211 447.309 860.632 446.873C861.053 446.436 861.553 446.218 862.132 446.218C862.711 446.218 863.211 446.436 863.632 446.873L902.368 487.018C902.789 487.455 903 487.964 903 488.545C903 489.127 902.789 489.636 902.368 490.073C901.947 490.509 901.447 490.727 900.868 490.727C900.289 490.727 899.789 490.509 899.368 490.073L898.526 489.255C897.825 489.8 897.053 490.227 896.211 490.536C895.368 490.845 894.474 491 893.526 491H878.895Z" fill="white"/>
</g>
<path d="M1326 348.5C1326 321.162 1348.16 299 1375.5 299C1402.84 299 1425 321.162 1425 348.5C1425 375.838 1402.84 398 1375.5 398C1348.16 398 1326 375.838 1326 348.5Z" fill="#0E324F"/>
<path d="M1364.11 372C1366.28 372 1368.18 371.347 1369.81 370.041C1371.44 368.734 1372.62 367.005 1373.34 364.854C1373.98 362.933 1374.68 361.511 1375.42 360.589C1376.16 359.667 1377.38 358.591 1379.09 357.361C1381.63 355.517 1383.57 353.222 1384.9 350.474C1386.23 347.727 1386.89 344.913 1386.89 342.031C1386.89 337.498 1385.35 333.675 1382.28 330.563C1379.2 327.451 1375.43 325.894 1370.95 325.894C1366.92 325.894 1363.46 327.153 1360.56 329.669C1357.65 332.186 1355.88 335.385 1355.23 339.265C1355.12 339.918 1355.24 340.495 1355.6 340.994C1355.96 341.493 1356.47 341.801 1357.11 341.916C1357.76 342.031 1358.33 341.907 1358.82 341.542C1359.31 341.177 1359.62 340.667 1359.73 340.014C1360.19 337.248 1361.46 334.971 1363.54 333.185C1365.63 331.398 1368.1 330.505 1370.95 330.505C1374.17 330.505 1376.88 331.61 1379.06 333.819C1381.24 336.028 1382.33 338.766 1382.33 342.031C1382.33 344.298 1381.8 346.479 1380.74 348.573C1379.68 350.667 1378.18 352.405 1376.24 353.788C1374.42 355.095 1372.97 356.353 1371.89 357.563C1370.8 358.773 1369.94 360.416 1369.3 362.491C1368.88 363.835 1368.24 364.988 1367.39 365.949C1366.53 366.909 1365.44 367.389 1364.11 367.389C1362.9 367.389 1361.84 366.938 1360.93 366.035C1360.01 365.132 1359.56 364.047 1359.56 362.779C1359.56 361.78 1359.65 360.791 1359.84 359.811C1360.03 358.831 1360.34 357.938 1360.75 357.131L1362.58 358.572C1363.11 358.994 1363.72 359.148 1364.4 359.033C1365.08 358.918 1365.59 358.553 1365.94 357.938L1370.32 350.1C1372.64 350.292 1374.65 349.591 1376.36 347.996C1378.06 346.402 1378.92 344.414 1378.92 342.031C1378.92 339.803 1378.14 337.901 1376.58 336.326C1375.03 334.751 1373.15 333.963 1370.95 333.963C1368.48 333.963 1366.46 334.904 1364.88 336.787C1363.31 338.67 1362.71 340.821 1363.09 343.242L1355.74 349.696C1355.21 350.157 1354.97 350.743 1355 351.454C1355.04 352.165 1355.33 352.751 1355.86 353.212L1357.11 354.249C1356.35 355.479 1355.81 356.833 1355.49 358.312C1355.17 359.792 1355 361.28 1355 362.779C1355 365.315 1355.9 367.486 1357.68 369.291C1359.46 371.097 1361.61 372 1364.11 372ZM1391.44 342.031C1391.44 344.414 1391.06 346.7 1390.28 348.89C1389.5 351.08 1388.39 353.097 1386.95 354.941C1386.53 355.479 1386.33 356.065 1386.35 356.699C1386.37 357.333 1386.61 357.861 1387.06 358.284C1387.52 358.745 1388.06 358.956 1388.68 358.918C1389.31 358.879 1389.83 358.61 1390.25 358.111C1392.11 355.805 1393.53 353.279 1394.52 350.532C1395.51 347.785 1396 344.951 1396 342.031C1396 339.035 1395.51 336.153 1394.52 333.387C1393.53 330.62 1392.11 328.084 1390.25 325.779C1389.83 325.28 1389.31 325.02 1388.68 325.001C1388.06 324.982 1387.52 325.203 1387.06 325.664C1386.61 326.125 1386.37 326.672 1386.35 327.306C1386.33 327.94 1386.53 328.526 1386.95 329.064C1388.39 330.908 1389.5 332.926 1390.28 335.116C1391.06 337.306 1391.44 339.611 1391.44 342.031ZM1363.26 353.327L1360.87 351.368L1365.14 347.564L1365.57 347.996C1365.7 348.131 1365.84 348.256 1365.99 348.371L1363.26 353.327ZM1370.95 345.489C1370 345.489 1369.19 345.153 1368.53 344.481C1367.86 343.808 1367.53 342.992 1367.53 342.031C1367.53 341.071 1367.86 340.254 1368.53 339.582C1369.19 338.91 1370 338.573 1370.95 338.573C1371.9 338.573 1372.7 338.91 1373.37 339.582C1374.03 340.254 1374.36 341.071 1374.36 342.031C1374.36 342.992 1374.03 343.808 1373.37 344.481C1372.7 345.153 1371.9 345.489 1370.95 345.489Z" fill="white"/>
<path d="M1081 130.5C1081 104.266 1102.27 83 1128.5 83C1154.73 83 1176 104.266 1176 130.5C1176 156.734 1154.73 178 1128.5 178C1102.27 178 1081 156.734 1081 130.5Z" fill="#457AA5"/>
<mask id="mask1_462_1944" style="mask-type:alpha" maskUnits="userSpaceOnUse" x="1101" y="103" width="55" height="55">
<rect x="1101" y="103" width="55" height="55" fill="#D9D9D9"/>
</mask>
<g mask="url(#mask1_462_1944)">
<path d="M1126.41 134.375L1126.65 136.375C1126.69 136.708 1126.83 136.979 1127.06 137.188C1127.28 137.396 1127.56 137.5 1127.89 137.5H1130.61C1130.94 137.5 1131.22 137.396 1131.44 137.188C1131.67 136.979 1131.8 136.708 1131.85 136.375L1132.09 134.375C1132.42 134.25 1132.72 134.104 1132.99 133.938C1133.26 133.771 1133.49 133.583 1133.7 133.375L1135.55 134.188C1135.84 134.312 1136.13 134.333 1136.42 134.25C1136.71 134.167 1136.93 133.979 1137.1 133.688L1138.46 131.313C1138.62 131.021 1138.67 130.729 1138.61 130.438C1138.55 130.146 1138.4 129.896 1138.15 129.688L1136.54 128.5C1136.62 128.167 1136.67 127.833 1136.67 127.5C1136.67 127.167 1136.62 126.833 1136.54 126.5L1138.15 125.312C1138.4 125.104 1138.55 124.854 1138.61 124.562C1138.67 124.271 1138.62 123.979 1138.46 123.688L1137.1 121.312C1136.93 121.021 1136.71 120.833 1136.42 120.75C1136.13 120.667 1135.84 120.688 1135.55 120.813L1133.7 121.625C1133.49 121.417 1133.26 121.229 1132.99 121.062C1132.72 120.896 1132.42 120.75 1132.09 120.625L1131.85 118.625C1131.8 118.292 1131.67 118.021 1131.44 117.812C1131.22 117.604 1130.94 117.5 1130.61 117.5H1127.89C1127.56 117.5 1127.28 117.604 1127.06 117.812C1126.83 118.021 1126.69 118.292 1126.65 118.625L1126.41 120.625C1126.08 120.75 1125.78 120.896 1125.51 121.062C1125.24 121.229 1125.01 121.417 1124.8 121.625L1122.95 120.813C1122.66 120.688 1122.37 120.667 1122.08 120.75C1121.79 120.833 1121.57 121.021 1121.4 121.312L1120.04 123.688C1119.88 123.979 1119.82 124.271 1119.89 124.562C1119.95 124.854 1120.1 125.104 1120.35 125.312L1121.96 126.5C1121.87 126.833 1121.83 127.167 1121.83 127.5C1121.83 127.833 1121.87 128.167 1121.96 128.5L1120.35 129.688C1120.1 129.896 1119.95 130.146 1119.89 130.438C1119.82 130.729 1119.88 131.021 1120.04 131.313L1121.4 133.688C1121.57 133.979 1121.79 134.167 1122.08 134.25C1122.37 134.333 1122.66 134.312 1122.95 134.188L1124.8 133.375C1125.01 133.583 1125.24 133.771 1125.51 133.938C1125.78 134.104 1126.08 134.25 1126.41 134.375ZM1129.25 131.25C1128.22 131.25 1127.34 130.885 1126.62 130.156C1125.9 129.427 1125.54 128.542 1125.54 127.5C1125.54 126.458 1125.9 125.573 1126.62 124.844C1127.34 124.115 1128.22 123.75 1129.25 123.75C1130.28 123.75 1131.15 124.115 1131.88 124.844C1132.6 125.573 1132.96 126.458 1132.96 127.5C1132.96 128.542 1132.6 129.427 1131.88 130.156C1131.15 130.885 1130.28 131.25 1129.25 131.25ZM1114.42 144.25C1112.07 142.083 1110.24 139.552 1108.95 136.656C1107.65 133.76 1107 130.708 1107 127.5C1107 121.25 1109.16 115.938 1113.49 111.562C1117.82 107.188 1123.07 105 1129.25 105C1134.4 105 1138.96 106.531 1142.94 109.594C1146.91 112.656 1149.5 116.646 1150.7 121.562L1153.91 134.375C1154.12 135.167 1153.97 135.885 1153.48 136.531C1152.98 137.177 1152.32 137.5 1151.5 137.5H1146.55V145C1146.55 146.375 1146.07 147.552 1145.1 148.531C1144.13 149.51 1142.97 150 1141.61 150H1136.67V152.5C1136.67 153.208 1136.43 153.802 1135.96 154.281C1135.48 154.76 1134.89 155 1134.19 155C1133.49 155 1132.91 154.76 1132.43 154.281C1131.96 153.802 1131.72 153.208 1131.72 152.5V147.5C1131.72 146.792 1131.96 146.198 1132.43 145.719C1132.91 145.24 1133.49 145 1134.19 145H1141.61V135C1141.61 134.292 1141.85 133.698 1142.32 133.219C1142.79 132.74 1143.38 132.5 1144.08 132.5H1148.28L1145.94 122.812C1144.99 119.021 1142.97 115.938 1139.88 113.562C1136.79 111.188 1133.25 110 1129.25 110C1124.47 110 1120.39 111.688 1117.01 115.062C1113.63 118.438 1111.94 122.542 1111.94 127.375C1111.94 129.875 1112.45 132.25 1113.46 134.5C1114.47 136.75 1115.9 138.75 1117.75 140.5L1119.36 142V152.5C1119.36 153.208 1119.12 153.802 1118.65 154.281C1118.18 154.76 1117.59 155 1116.89 155C1116.19 155 1115.6 154.76 1115.13 154.281C1114.65 153.802 1114.42 153.208 1114.42 152.5V144.25Z" fill="white"/>
</g>
<path d="M434 132.5C434 105.162 456.162 83 483.5 83C510.838 83 533 105.162 533 132.5C533 159.838 510.838 182 483.5 182C456.162 182 434 159.838 434 132.5Z" fill="#154973"/>
<mask id="mask2_462_1944" style="mask-type:alpha" maskUnits="userSpaceOnUse" x="454" y="103" width="59" height="59">
<rect x="454" y="103" width="59" height="59" fill="#D9D9D9"/>
</mask>
<g mask="url(#mask2_462_1944)">
<path d="M490.309 122.842C491.43 123.964 492.252 125.241 492.774 126.673C493.296 128.105 493.48 129.575 493.325 131.084C493.325 131.665 493.112 132.158 492.687 132.565C492.261 132.971 491.759 133.174 491.179 133.174C490.599 133.174 490.106 132.971 489.7 132.565C489.294 132.158 489.09 131.665 489.09 131.084C489.284 130.078 489.226 129.111 488.916 128.182C488.607 127.253 488.124 126.46 487.466 125.802C486.809 125.144 486.016 124.641 485.088 124.293C484.16 123.945 483.174 123.867 482.13 124.061C481.55 124.061 481.057 123.848 480.651 123.422C480.245 122.996 480.042 122.493 480.042 121.913C480.042 121.332 480.245 120.839 480.651 120.433C481.057 120.026 481.55 119.823 482.13 119.823C483.599 119.668 485.049 119.852 486.48 120.375C487.911 120.897 489.187 121.719 490.309 122.842ZM482.942 117.443C482.207 117.443 481.492 117.472 480.796 117.53C480.1 117.588 479.404 117.695 478.708 117.85C478.05 117.966 477.461 117.869 476.939 117.559C476.416 117.25 476.059 116.785 475.865 116.166C475.672 115.547 475.74 114.947 476.068 114.367C476.397 113.786 476.871 113.438 477.49 113.322C478.379 113.128 479.278 112.993 480.187 112.916C481.096 112.838 482.014 112.799 482.942 112.799C488.24 112.799 493.083 114.193 497.472 116.979C501.861 119.765 505.216 123.519 507.536 128.24C507.691 128.55 507.807 128.869 507.884 129.198C507.961 129.527 508 129.865 508 130.214C508 130.562 507.971 130.901 507.913 131.23C507.855 131.558 507.749 131.878 507.594 132.187C506.898 133.735 506.038 135.186 505.013 136.541C503.988 137.895 502.857 139.134 501.619 140.256C501.155 140.682 500.614 140.856 499.995 140.778C499.377 140.701 498.874 140.391 498.487 139.85C498.101 139.308 497.936 138.718 497.994 138.079C498.052 137.441 498.313 136.909 498.777 136.483C499.705 135.593 500.556 134.625 501.329 133.58C502.103 132.536 502.78 131.413 503.36 130.214C501.426 126.305 498.632 123.2 494.978 120.897C491.324 118.595 487.312 117.443 482.942 117.443ZM482.942 147.628C477.76 147.628 473.023 146.225 468.731 143.42C464.439 140.614 461.055 136.928 458.58 132.361C458.387 132.052 458.242 131.713 458.145 131.346C458.048 130.978 458 130.601 458 130.214C458 129.827 458.039 129.459 458.116 129.111C458.193 128.763 458.329 128.414 458.522 128.066C459.295 126.518 460.195 125.038 461.219 123.625C462.244 122.213 463.414 120.926 464.729 119.765L459.914 114.889C459.489 114.425 459.286 113.873 459.305 113.235C459.324 112.596 459.547 112.064 459.972 111.639C460.398 111.213 460.939 111 461.596 111C462.254 111 462.795 111.213 463.22 111.639L502.664 151.111C503.089 151.536 503.311 152.069 503.331 152.707C503.35 153.346 503.128 153.897 502.664 154.361C502.238 154.787 501.697 155 501.039 155C500.382 155 499.841 154.787 499.415 154.361L491.295 146.351C489.941 146.777 488.568 147.096 487.176 147.309C485.784 147.522 484.373 147.628 482.942 147.628ZM467.977 123.016C466.855 124.022 465.831 125.125 464.903 126.325C463.974 127.524 463.182 128.821 462.524 130.214C464.458 134.122 467.252 137.228 470.906 139.53C474.56 141.833 478.572 142.984 482.942 142.984C483.715 142.984 484.469 142.936 485.204 142.839C485.939 142.742 486.693 142.636 487.466 142.52L485.378 140.314C484.953 140.43 484.547 140.517 484.16 140.575C483.773 140.633 483.367 140.662 482.942 140.662C480.042 140.662 477.577 139.646 475.546 137.615C473.516 135.583 472.501 133.116 472.501 130.214C472.501 129.788 472.53 129.382 472.588 128.995C472.646 128.608 472.733 128.201 472.849 127.776L467.977 123.016Z" fill="white"/>
</g>
<path d="M127 229.5C127 202.162 149.162 180 176.5 180C203.838 180 226 202.162 226 229.5C226 256.838 203.838 279 176.5 279C149.162 279 127 256.838 127 229.5Z" fill="#0E324F"/>
<mask id="mask3_462_1944" style="mask-type:alpha" maskUnits="userSpaceOnUse" x="147" y="200" width="59" height="59">
<rect x="147" y="200" width="59" height="59" fill="#D9D9D9"/>
</mask>
<g mask="url(#mask3_462_1944)">
<path d="M170.929 256C167.075 256 163.79 254.635 161.074 251.905C158.358 249.175 157 245.873 157 242C157 239.62 157.534 237.427 158.602 235.42C159.67 233.413 161.086 231.78 162.85 230.52C163.5 230.053 164.196 229.89 164.939 230.03C165.682 230.17 166.286 230.567 166.75 231.22C167.214 231.873 167.388 232.573 167.272 233.32C167.156 234.067 166.773 234.673 166.123 235.14C165.055 235.933 164.196 236.925 163.546 238.115C162.896 239.305 162.571 240.6 162.571 242C162.571 244.333 163.384 246.317 165.009 247.95C166.634 249.583 168.607 250.4 170.929 250.4C172.321 250.4 173.61 250.073 174.794 249.42C175.978 248.767 176.964 247.903 177.754 246.83C178.218 246.177 178.821 245.792 179.564 245.675C180.307 245.558 181.004 245.733 181.654 246.2C182.304 246.667 182.698 247.273 182.838 248.02C182.977 248.767 182.814 249.467 182.35 250.12C181.096 251.893 179.471 253.317 177.475 254.39C175.479 255.463 173.296 256 170.929 256ZM193.214 256C192.425 256 191.763 255.732 191.229 255.195C190.696 254.658 190.429 253.993 190.429 253.2V242H176.5C174.968 242 173.656 241.452 172.565 240.355C171.474 239.258 170.929 237.94 170.929 236.4V219.6C170.929 218.06 171.474 216.742 172.565 215.645C173.656 214.548 174.968 214 176.5 214C177.614 214 178.578 214.245 179.39 214.735C180.203 215.225 181.073 216.007 182.002 217.08C184.091 219.6 185.983 221.443 187.678 222.61C189.372 223.777 191.195 224.547 193.145 224.92C193.934 225.06 194.607 225.41 195.164 225.97C195.721 226.53 196 227.207 196 228C196 228.793 195.71 229.447 195.129 229.96C194.549 230.473 193.888 230.66 193.145 230.52C191.102 230.147 189.117 229.493 187.19 228.56C185.263 227.627 183.557 226.553 182.071 225.34V235H190.429C191.961 235 193.272 235.548 194.363 236.645C195.454 237.742 196 239.06 196 240.6V253.2C196 253.993 195.733 254.658 195.199 255.195C194.665 255.732 194.004 256 193.214 256ZM176.5 211.2C174.968 211.2 173.656 210.652 172.565 209.555C171.474 208.458 170.929 207.14 170.929 205.6C170.929 204.06 171.474 202.742 172.565 201.645C173.656 200.548 174.968 200 176.5 200C178.032 200 179.344 200.548 180.435 201.645C181.526 202.742 182.071 204.06 182.071 205.6C182.071 207.14 181.526 208.458 180.435 209.555C179.344 210.652 178.032 211.2 176.5 211.2Z" fill="white"/>
</g>
<path d="M677.115 331C677.115 326.858 680.473 323.5 684.615 323.5H948.615C952.757 323.5 956.115 326.858 956.115 331V366C956.115 370.142 952.757 373.5 948.615 373.5H684.615C680.473 373.5 677.115 370.142 677.115 366V331Z" fill="white"/>
<path d="M677.115 331C677.115 326.858 680.473 323.5 684.615 323.5H948.615C952.757 323.5 956.115 326.858 956.115 331V366C956.115 370.142 952.757 373.5 948.615 373.5H684.615C680.473 373.5 677.115 370.142 677.115 366V331Z" stroke="#A7A9AB"/>
<path d="M740.438 358.788L731.871 346.658V358.788H728.046V340.728H731.979L740.304 352.425V340.728H744.129V358.788H740.438Z" fill="#154973"/>
<path d="M751.673 358.788V351.396L744.749 340.728H749.113L753.585 347.985L758.004 340.728H762.368L755.498 351.396V358.788H751.673Z" fill="#154973"/>
<path d="M763.122 353.319C764.389 354.646 766.355 355.756 768.834 355.756C770.935 355.756 771.959 354.754 771.959 353.725C771.959 352.371 770.396 351.911 768.322 351.423C765.386 350.747 761.614 349.934 761.614 345.9C761.614 342.894 764.2 340.457 768.43 340.457C771.285 340.457 773.656 341.324 775.434 342.975L773.306 345.792C771.851 344.438 769.912 343.815 768.16 343.815C766.436 343.815 765.52 344.573 765.52 345.656C765.52 346.875 767.029 347.254 769.103 347.741C772.067 348.418 775.838 349.311 775.838 353.319C775.838 356.622 773.495 359.113 768.645 359.113C765.197 359.113 762.718 357.949 761.021 356.243L763.122 353.319Z" fill="#154973"/>
<path d="M782.347 358.788V341.053H788.379C793.856 341.053 797.427 344.908 797.427 349.934C797.427 354.986 793.856 358.788 788.379 358.788H782.347ZM784.543 356.821H788.379C792.665 356.821 795.152 353.736 795.152 349.934C795.152 346.105 792.744 343.02 788.379 343.02H784.543V356.821Z" fill="#154973"/>
<path d="M804.94 345.626C808.803 345.626 811.078 348.658 811.078 352.513V353.018H800.734C800.893 355.438 802.586 357.459 805.337 357.459C806.793 357.459 808.274 356.874 809.28 355.837L810.232 357.14C808.962 358.416 807.242 359.108 805.152 359.108C801.369 359.108 798.644 356.369 798.644 352.354C798.644 348.631 801.29 345.626 804.94 345.626ZM800.734 351.556H809.121C809.094 349.641 807.824 347.275 804.914 347.275C802.189 347.275 800.84 349.588 800.734 351.556Z" fill="#154973"/>
<path d="M812.877 355.651C813.724 356.634 815.337 357.485 817.084 357.485C819.041 357.485 820.099 356.608 820.099 355.358C820.099 353.949 818.539 353.497 816.819 353.071C814.649 352.566 812.189 351.981 812.189 349.322C812.189 347.328 813.909 345.626 816.951 345.626C819.121 345.626 820.655 346.45 821.687 347.487L820.761 348.87C819.994 347.939 818.591 347.248 816.951 347.248C815.205 347.248 814.12 348.046 814.12 349.189C814.12 350.439 815.576 350.838 817.242 351.237C819.465 351.742 822.031 352.38 822.031 355.225C822.031 357.379 820.311 359.108 817.004 359.108C814.914 359.108 813.141 358.469 811.845 357.087L812.877 355.651Z" fill="#154973"/>
<path d="M823.777 342.435C823.777 341.691 824.386 341.106 825.1 341.106C825.841 341.106 826.449 341.691 826.449 342.435C826.449 343.18 825.841 343.791 825.1 343.791C824.386 343.791 823.777 343.18 823.777 342.435ZM824.121 358.788V345.945H826.105V358.788H824.121Z" fill="#154973"/>
<path d="M829.756 360.596C830.814 361.873 832.084 362.351 833.909 362.351C836.026 362.351 838.01 361.314 838.01 358.496V356.661C837.084 357.964 835.523 358.948 833.724 358.948C830.391 358.948 828.036 356.448 828.036 352.3C828.036 348.179 830.364 345.626 833.724 345.626C835.444 345.626 836.979 346.477 838.01 347.886V345.945H839.995V358.416C839.995 362.671 837.031 364 833.909 364C831.74 364 830.259 363.575 828.751 362.086L829.756 360.596ZM838.01 349.482C837.322 348.365 835.788 347.408 834.2 347.408C831.634 347.408 830.1 349.455 830.1 352.3C830.1 355.119 831.634 357.193 834.2 357.193C835.788 357.193 837.322 356.209 838.01 355.092V349.482Z" fill="#154973"/>
<path d="M851.027 358.788V350.386C851.027 348.125 849.889 347.408 848.169 347.408C846.608 347.408 845.127 348.365 844.386 349.402V358.788H842.402V345.945H844.386V347.807C845.286 346.743 847.032 345.626 848.936 345.626C851.609 345.626 853.011 346.982 853.011 349.774V358.788H851.027Z" fill="#154973"/>
<path d="M859.889 354.614C861.053 355.917 862.958 357.14 865.445 357.14C868.593 357.14 869.598 355.438 869.598 354.082C869.598 351.954 867.456 351.37 865.127 350.732C862.296 349.987 859.148 349.189 859.148 345.706C859.148 342.781 861.741 340.787 865.207 340.787C867.905 340.787 869.995 341.691 871.477 343.26L870.154 344.882C868.831 343.419 866.979 342.754 865.048 342.754C862.932 342.754 861.424 343.898 861.424 345.573C861.424 347.354 863.461 347.886 865.709 348.498C868.593 349.269 871.874 350.173 871.874 353.896C871.874 356.475 870.128 359.108 865.365 359.108C862.296 359.108 860.048 357.937 858.593 356.289L859.889 354.614Z" fill="#154973"/>
<path d="M872.985 362.006C873.276 362.139 873.752 362.219 874.07 362.219C874.943 362.219 875.525 361.926 875.974 360.862L876.821 358.921L871.477 345.945H873.62L877.879 356.475L882.112 345.945H884.282L877.879 361.394C877.112 363.255 875.816 363.974 874.123 364C873.699 364 873.038 363.92 872.667 363.814L872.985 362.006Z" fill="#154973"/>
<path d="M885.181 355.651C886.027 356.634 887.642 357.485 889.388 357.485C891.345 357.485 892.404 356.608 892.404 355.358C892.404 353.949 890.843 353.497 889.123 353.071C886.954 352.566 884.493 351.981 884.493 349.322C884.493 347.328 886.213 345.626 889.255 345.626C891.425 345.626 892.959 346.45 893.991 347.487L893.065 348.87C892.298 347.939 890.896 347.248 889.255 347.248C887.509 347.248 886.424 348.046 886.424 349.189C886.424 350.439 887.88 350.838 889.546 351.237C891.769 351.742 894.335 352.38 894.335 355.225C894.335 357.379 892.615 359.108 889.308 359.108C887.218 359.108 885.446 358.469 884.149 357.087L885.181 355.651Z" fill="#154973"/>
<path d="M897.218 356.103V347.7H895.102V345.945H897.218V342.435H899.203V345.945H901.795V347.7H899.203V355.677C899.203 356.634 899.626 357.326 900.499 357.326C901.054 357.326 901.584 357.087 901.848 356.794L902.43 358.283C901.928 358.762 901.213 359.108 900.049 359.108C898.171 359.108 897.218 358.017 897.218 356.103Z" fill="#154973"/>
<path d="M908.938 345.626C912.801 345.626 915.076 348.658 915.076 352.513V353.018H904.732C904.89 355.438 906.584 357.459 909.335 357.459C910.79 357.459 912.272 356.874 913.277 355.837L914.23 357.14C912.96 358.416 911.24 359.108 909.15 359.108C905.367 359.108 902.642 356.369 902.642 352.354C902.642 348.631 905.287 345.626 908.938 345.626ZM904.732 351.556H913.118C913.092 349.641 911.822 347.275 908.912 347.275C906.187 347.275 904.838 349.588 904.732 351.556Z" fill="#154973"/>
<path d="M932.193 358.788V350.067C932.193 348.445 931.479 347.408 929.839 347.408C928.516 347.408 927.114 348.365 926.452 349.375V358.788H924.468V350.067C924.468 348.445 923.78 347.408 922.113 347.408C920.817 347.408 919.441 348.365 918.753 349.402V358.788H916.769V345.945H918.753V347.807C919.283 346.982 921.002 345.626 922.881 345.626C924.838 345.626 925.949 346.69 926.32 348.019C927.034 346.849 928.754 345.626 930.606 345.626C932.934 345.626 934.177 346.929 934.177 349.508V358.788H932.193Z" fill="#154973"/>
<path d="M708.109 349.813L708.113 349.817L701.476 356.491C699.954 354.455 699.052 351.924 699.052 349.181C699.052 342.454 704.476 337 711.168 337C717.375 337 722.491 341.694 723.198 347.744L723.197 347.742C723.252 348.211 723.283 348.688 723.283 349.172C723.283 355.9 717.859 361.353 711.168 361.353C708.444 361.353 705.93 360.449 703.907 358.924L714.484 348.29V356.213H717.92L717.92 342.402H704.174V345.848H712.052L708.109 349.813Z" fill="#154973"/>
<path d="M238.293 229.293C237.902 229.683 237.902 230.317 238.293 230.707L244.657 237.071C245.047 237.462 245.681 237.462 246.071 237.071C246.462 236.681 246.462 236.047 246.071 235.657L240.414 230L246.071 224.343C246.462 223.953 246.462 223.319 246.071 222.929C245.681 222.538 245.047 222.538 244.657 222.929L238.293 229.293ZM527.27 230L527.27 229L527.27 230ZM677 350L674.754 350L674.754 352L677 352L677 350ZM670.263 350L665.771 350L665.771 352L670.263 352L670.263 350ZM661.28 350L656.788 350L656.788 352L661.28 352L661.28 350ZM652.296 350L647.805 350L647.805 352L652.296 352L652.296 350ZM643.313 350L638.822 350L638.822 352L643.313 352L643.313 350ZM634.33 350L629.839 350L629.839 352L634.33 352L634.33 350ZM625.347 350L620.855 350L620.855 352L625.347 352L625.347 350ZM616.364 350L611.872 350L611.872 352L616.364 352L616.364 350ZM607.381 350L602.889 350L602.889 352L607.381 352L607.381 350ZM598.398 350L593.906 350L593.906 352L598.398 352L598.398 350ZM589.415 350L584.923 350L584.923 352L589.415 352L589.415 350ZM580.431 350L575.94 350L575.94 352L580.431 352L580.431 350ZM571.448 350L566.957 350L566.957 352L571.448 352L571.448 350ZM562.465 350L557.974 350L557.974 352L562.465 352L562.465 350ZM553.482 350L548.99 350L548.99 352L553.482 352L553.482 350ZM544.499 350L540.007 350L540.007 352L544.499 352L544.499 350ZM535.516 350L533.27 350L533.27 352L535.516 352L535.516 350ZM533.27 350C532.997 350 532.739 349.946 532.505 349.849L531.739 351.696C532.212 351.892 532.729 352 533.27 352L533.27 350ZM531.421 348.765C531.324 348.531 531.27 348.273 531.27 348L529.27 348C529.27 348.541 529.378 349.058 529.574 349.531L531.421 348.765ZM531.27 348L531.27 345.788L529.27 345.788L529.27 348L531.27 348ZM531.27 341.365L531.27 336.942L529.27 336.942L529.27 341.365L531.27 341.365ZM531.27 332.519L531.27 328.096L529.27 328.096L529.27 332.519L531.27 332.519ZM531.27 323.673L531.27 319.25L529.27 319.25L529.27 323.673L531.27 323.673ZM531.27 314.827L531.27 310.404L529.27 310.404L529.27 314.827L531.27 314.827ZM531.27 305.981L531.27 301.558L529.27 301.558L529.27 305.981L531.27 305.981ZM531.27 297.135L531.27 292.712L529.27 292.712L529.27 297.135L531.27 297.135ZM531.27 288.288L531.27 283.865L529.27 283.865L529.27 288.288L531.27 288.288ZM531.27 279.442L531.27 275.019L529.27 275.019L529.27 279.442L531.27 279.442ZM531.27 270.596L531.27 266.173L529.27 266.173L529.27 270.596L531.27 270.596ZM531.27 261.75L531.27 257.327L529.27 257.327L529.27 261.75L531.27 261.75ZM531.27 252.904L531.27 248.481L529.27 248.481L529.27 252.904L531.27 252.904ZM531.27 244.058L531.27 239.635L529.27 239.635L529.27 244.058L531.27 244.058ZM531.27 235.211L531.27 233L529.27 233L529.27 235.211L531.27 235.211ZM531.27 233C531.27 232.459 531.162 231.942 530.966 231.469L529.119 232.235C529.216 232.469 529.27 232.727 529.27 233L531.27 233ZM528.801 229.304C528.328 229.108 527.811 229 527.27 229L527.27 231C527.543 231 527.801 231.054 528.035 231.151L528.801 229.304ZM527.27 229L525.086 229L525.086 231L527.27 231L527.27 229ZM520.718 229L516.351 229L516.351 231L520.718 231L520.718 229ZM511.983 229L507.615 229L507.615 231L511.983 231L511.983 229ZM503.248 229L498.88 229L498.88 231L503.248 231L503.248 229ZM494.512 229L490.144 229L490.144 231L494.512 231L494.512 229ZM485.777 229L481.409 229L481.409 231L485.777 231L485.777 229ZM477.041 229L472.673 229L472.673 231L477.041 231L477.041 229ZM468.306 229L463.938 229L463.938 231L468.306 231L468.306 229ZM459.57 229L455.202 229L455.202 231L459.57 231L459.57 229ZM450.835 229L446.467 229L446.467 231L450.835 231L450.835 229ZM442.099 229L437.732 229L437.732 231L442.099 231L442.099 229ZM433.364 229L428.996 229L428.996 231L433.364 231L433.364 229ZM424.628 229L420.261 229L420.261 231L424.628 231L424.628 229ZM415.893 229L411.525 229L411.525 231L415.893 231L415.893 229ZM407.157 229L402.79 229L402.79 231L407.157 231L407.157 229ZM398.422 229L394.054 229L394.054 231L398.422 231L398.422 229ZM389.687 229L385.319 229L385.319 231L389.687 231L389.687 229ZM380.951 229L376.583 229L376.583 231L380.951 231L380.951 229ZM372.216 229L367.848 229L367.848 231L372.216 231L372.216 229ZM363.48 229L359.113 229L359.113 231L363.48 231L363.48 229ZM354.745 229L350.377 229L350.377 231L354.745 231L354.745 229ZM346.009 229L341.642 229L341.642 231L346.009 231L346.009 229ZM337.274 229L332.906 229L332.906 231L337.274 231L337.274 229ZM328.538 229L324.171 229L324.171 231L328.538 231L328.538 229ZM319.803 229L315.435 229L315.435 231L319.803 231L319.803 229ZM311.068 229L306.7 229L306.7 231L311.068 231L311.068 229ZM302.332 229L297.964 229L297.964 231L302.332 231L302.332 229ZM293.597 229L289.229 229L289.229 231L293.597 231L293.597 229ZM284.861 229L280.494 229L280.494 231L284.861 231L284.861 229ZM276.126 229L271.758 229L271.758 231L276.126 231L276.126 229ZM267.39 229L263.023 229L263.023 231L267.39 231L267.39 229ZM258.655 229L254.287 229L254.287 231L258.655 231L258.655 229ZM249.919 229L245.552 229L245.552 231L249.919 231L249.919 229ZM241.184 229L239 229L239 231L241.184 231L241.184 229Z" fill="#A7A9AB"/>
<path d="M1130.71 184.293C1130.32 183.902 1129.68 183.902 1129.29 184.293L1122.93 190.657C1122.54 191.047 1122.54 191.681 1122.93 192.071C1123.32 192.462 1123.95 192.462 1124.34 192.071L1130 186.414L1135.66 192.071C1136.05 192.462 1136.68 192.462 1137.07 192.071C1137.46 191.681 1137.46 191.047 1137.07 190.657L1130.71 184.293ZM1130 273.77L1131 273.77L1130 273.77ZM860 323L860 320.838L858 320.838L858 323L860 323ZM860 316.515L860 312.192L858 312.192L858 316.515L860 316.515ZM860 307.869L860 303.546L858 303.546L858 307.869L860 307.869ZM860 299.223L860 294.9L858 294.9L858 299.223L860 299.223ZM860 290.577L860 286.254L858 286.254L858 290.577L860 290.577ZM860 281.931L860 279.77L858 279.77L858 281.931L860 281.931ZM860 279.77C860 279.497 860.054 279.239 860.151 279.005L858.304 278.239C858.108 278.712 858 279.229 858 279.77L860 279.77ZM861.235 277.921C861.469 277.824 861.727 277.77 862 277.77L862 275.77C861.459 275.77 860.942 275.878 860.469 276.074L861.235 277.921ZM862 277.77L864.208 277.77L864.208 275.77L862 275.77L862 277.77ZM868.625 277.77L873.042 277.77L873.042 275.77L868.625 275.77L868.625 277.77ZM877.458 277.77L881.875 277.77L881.875 275.77L877.458 275.77L877.458 277.77ZM886.292 277.77L890.708 277.77L890.708 275.77L886.292 275.77L886.292 277.77ZM895.125 277.77L899.542 277.77L899.542 275.77L895.125 275.77L895.125 277.77ZM903.958 277.77L908.375 277.77L908.375 275.77L903.958 275.77L903.958 277.77ZM912.792 277.77L917.208 277.77L917.208 275.77L912.792 275.77L912.792 277.77ZM921.625 277.77L926.042 277.77L926.042 275.77L921.625 275.77L921.625 277.77ZM930.458 277.77L934.875 277.77L934.875 275.77L930.458 275.77L930.458 277.77ZM939.292 277.77L943.708 277.77L943.708 275.77L939.292 275.77L939.292 277.77ZM948.125 277.77L952.542 277.77L952.542 275.77L948.125 275.77L948.125 277.77ZM956.958 277.77L961.375 277.77L961.375 275.77L956.958 275.77L956.958 277.77ZM965.792 277.77L970.208 277.77L970.208 275.77L965.792 275.77L965.792 277.77ZM974.625 277.77L979.042 277.77L979.042 275.77L974.625 275.77L974.625 277.77ZM983.458 277.77L987.875 277.77L987.875 275.77L983.458 275.77L983.458 277.77ZM992.292 277.77L996.708 277.77L996.708 275.77L992.292 275.77L992.292 277.77ZM1001.12 277.77L1005.54 277.77L1005.54 275.77L1001.12 275.77L1001.12 277.77ZM1009.96 277.77L1014.37 277.77L1014.37 275.77L1009.96 275.77L1009.96 277.77ZM1018.79 277.77L1023.21 277.77L1023.21 275.77L1018.79 275.77L1018.79 277.77ZM1027.63 277.77L1032.04 277.77L1032.04 275.77L1027.63 275.77L1027.63 277.77ZM1036.46 277.77L1040.88 277.77L1040.88 275.77L1036.46 275.77L1036.46 277.77ZM1045.29 277.77L1049.71 277.77L1049.71 275.77L1045.29 275.77L1045.29 277.77ZM1054.13 277.77L1058.54 277.77L1058.54 275.77L1054.13 275.77L1054.13 277.77ZM1062.96 277.77L1067.38 277.77L1067.38 275.77L1062.96 275.77L1062.96 277.77ZM1071.79 277.77L1076.21 277.77L1076.21 275.77L1071.79 275.77L1071.79 277.77ZM1080.63 277.77L1085.04 277.77L1085.04 275.77L1080.63 275.77L1080.63 277.77ZM1089.46 277.77L1093.88 277.77L1093.88 275.77L1089.46 275.77L1089.46 277.77ZM1098.29 277.77L1102.71 277.77L1102.71 275.77L1098.29 275.77L1098.29 277.77ZM1107.13 277.77L1111.54 277.77L1111.54 275.77L1107.13 275.77L1107.13 277.77ZM1115.96 277.77L1120.38 277.77L1120.38 275.77L1115.96 275.77L1115.96 277.77ZM1124.79 277.77L1127 277.77L1127 275.77L1124.79 275.77L1124.79 277.77ZM1127 277.77C1127.54 277.77 1128.06 277.662 1128.53 277.466L1127.77 275.619C1127.53 275.716 1127.27 275.77 1127 275.77L1127 277.77ZM1130.7 275.301C1130.89 274.828 1131 274.311 1131 273.77L1129 273.77C1129 274.043 1128.95 274.301 1128.85 274.535L1130.7 275.301ZM1131 273.77L1131 271.551L1129 271.551L1129 273.77L1131 273.77ZM1131 267.112L1131 262.674L1129 262.674L1129 267.112L1131 267.112ZM1131 258.235L1131 253.797L1129 253.797L1129 258.235L1131 258.235ZM1131 249.358L1131 244.92L1129 244.92L1129 249.358L1131 249.358ZM1131 240.481L1131 236.043L1129 236.043L1129 240.481L1131 240.481ZM1131 231.604L1131 227.166L1129 227.166L1129 231.604L1131 231.604ZM1131 222.727L1131 218.289L1129 218.289L1129 222.727L1131 222.727ZM1131 213.85L1131 209.412L1129 209.412L1129 213.85L1131 213.85ZM1131 204.973L1131 200.535L1129 200.535L1129 204.973L1131 204.973ZM1131 196.096L1131 191.658L1129 191.658L1129 196.096L1131 196.096ZM1131 187.219L1131 185L1129 185L1129 187.219L1131 187.219Z" fill="#A7A9AB"/>
<path d="M552.293 132.293C551.902 132.683 551.902 133.317 552.293 133.707L558.657 140.071C559.047 140.462 559.681 140.462 560.071 140.071C560.462 139.681 560.462 139.047 560.071 138.657L554.414 133L560.071 127.343C560.462 126.953 560.462 126.319 560.071 125.929C559.681 125.538 559.047 125.538 558.657 125.929L552.293 132.293ZM805 323C805 323.552 805.448 324 806 324C806.552 324 807 323.552 807 323L805 323ZM803 133L803 132L803 133ZM807 323L807 320.774L805 320.774L805 323L807 323ZM807 316.321L807 311.869L805 311.869L805 316.321L807 316.321ZM807 307.417L807 302.964L805 302.964L805 307.417L807 307.417ZM807 298.512L807 294.06L805 294.06L805 298.512L807 298.512ZM807 289.607L807 285.155L805 285.155L805 289.607L807 289.607ZM807 280.702L807 276.25L805 276.25L805 280.702L807 280.702ZM807 271.798L807 267.345L805 267.345L805 271.798L807 271.798ZM807 262.893L807 258.44L805 258.44L805 262.893L807 262.893ZM807 253.988L807 249.536L805 249.536L805 253.988L807 253.988ZM807 245.083L807 240.631L805 240.631L805 245.083L807 245.083ZM807 236.179L807 231.726L805 231.726L805 236.179L807 236.179ZM807 227.274L807 222.821L805 222.821L805 227.274L807 227.274ZM807 218.369L807 213.917L805 213.917L805 218.369L807 218.369ZM807 209.464L807 205.012L805 205.012L805 209.464L807 209.464ZM807 200.559L807 196.107L805 196.107L805 200.559L807 200.559ZM807 191.655L807 187.202L805 187.202L805 191.655L807 191.655ZM807 182.75L807 178.298L805 178.298L805 182.75L807 182.75ZM807 173.845L807 169.393L805 169.393L805 173.845L807 173.845ZM807 164.94L807 160.488L805 160.488L805 164.94L807 164.94ZM807 156.036L807 151.583L805 151.583L805 156.036L807 156.036ZM807 147.131L807 142.679L805 142.679L805 147.131L807 147.131ZM807 138.226L807 136L805 136L805 138.226L807 138.226ZM807 136C807 135.459 806.892 134.942 806.696 134.469L804.849 135.235C804.946 135.469 805 135.727 805 136L807 136ZM804.531 132.304C804.058 132.108 803.541 132 803 132L803 134C803.273 134 803.531 134.054 803.765 134.151L804.531 132.304ZM803 132L800.845 132L800.845 134L803 134L803 132ZM796.534 132L792.224 132L792.224 134L796.534 134L796.534 132ZM787.914 132L783.603 132L783.603 134L787.914 134L787.914 132ZM779.293 132L774.983 132L774.983 134L779.293 134L779.293 132ZM770.672 132L766.362 132L766.362 134L770.672 134L770.672 132ZM762.052 132L757.741 132L757.741 134L762.052 134L762.052 132ZM753.431 132L749.121 132L749.121 134L753.431 134L753.431 132ZM744.81 132L740.5 132L740.5 134L744.81 134L744.81 132ZM736.19 132L731.879 132L731.879 134L736.19 134L736.19 132ZM727.569 132L723.259 132L723.259 134L727.569 134L727.569 132ZM718.948 132L714.638 132L714.638 134L718.948 134L718.948 132ZM710.328 132L706.017 132L706.017 134L710.328 134L710.328 132ZM701.707 132L697.397 132L697.397 134L701.707 134L701.707 132ZM693.086 132L688.776 132L688.776 134L693.086 134L693.086 132ZM684.465 132L680.155 132L680.155 134L684.465 134L684.465 132ZM675.845 132L671.534 132L671.534 134L675.845 134L675.845 132ZM667.224 132L662.914 132L662.914 134L667.224 134L667.224 132ZM658.603 132L654.293 132L654.293 134L658.603 134L658.603 132ZM649.983 132L645.672 132L645.672 134L649.983 134L649.983 132ZM641.362 132L637.052 132L637.052 134L641.362 134L641.362 132ZM632.741 132L628.431 132L628.431 134L632.741 134L632.741 132ZM624.121 132L619.81 132L619.81 134L624.121 134L624.121 132ZM615.5 132L611.19 132L611.19 134L615.5 134L615.5 132ZM606.879 132L602.569 132L602.569 134L606.879 134L606.879 132ZM598.259 132L593.948 132L593.948 134L598.259 134L598.259 132ZM589.638 132L585.327 132L585.327 134L589.638 134L589.638 132ZM581.017 132L576.707 132L576.707 134L581.017 134L581.017 132ZM572.396 132L568.086 132L568.086 134L572.396 134L572.396 132ZM563.776 132L559.465 132L559.465 134L563.776 134L563.776 132ZM555.155 132L553 132L553 134L555.155 134L555.155 132Z" fill="#A7A9AB"/>
<path d="M817.707 473.707C818.098 473.317 818.098 472.683 817.707 472.293L811.343 465.929C810.953 465.538 810.319 465.538 809.929 465.929C809.538 466.319 809.538 466.953 809.929 467.343L815.586 473L809.929 478.657C809.538 479.047 809.538 479.681 809.929 480.071C810.319 480.462 810.953 480.462 811.343 480.071L817.707 473.707ZM753 374C753 373.448 752.552 373 752 373C751.448 373 751 373.448 751 374L753 374ZM755 473L755 472L755 473ZM751 374L751 376.182L753 376.182L753 374L751 374ZM751 380.545L751 384.909L753 384.909L753 380.545L751 380.545ZM751 389.273L751 393.636L753 393.636L753 389.273L751 389.273ZM751 398L751 402.364L753 402.364L753 398L751 398ZM751 406.727L751 411.091L753 411.091L753 406.727L751 406.727ZM751 415.455L751 419.818L753 419.818L753 415.455L751 415.455ZM751 424.182L751 428.545L753 428.545L753 424.182L751 424.182ZM751 432.909L751 437.273L753 437.273L753 432.909L751 432.909ZM751 441.636L751 446L753 446L753 441.636L751 441.636ZM751 450.364L751 454.727L753 454.727L753 450.364L751 450.364ZM751 459.091L751 463.455L753 463.455L753 459.091L751 459.091ZM751 467.818L751 470L753 470L753 467.818L751 467.818ZM751 470C751 470.541 751.108 471.058 751.304 471.531L753.151 470.765C753.054 470.531 753 470.273 753 470L751 470ZM753.469 473.696C753.942 473.892 754.459 474 755 474L755 472C754.727 472 754.469 471.946 754.235 471.849L753.469 473.696ZM755 474L757.214 474L757.214 472L755 472L755 474ZM761.643 474L766.071 474L766.071 472L761.643 472L761.643 474ZM770.5 474L774.929 474L774.929 472L770.5 472L770.5 474ZM779.357 474L783.786 474L783.786 472L779.357 472L779.357 474ZM788.214 474L792.643 474L792.643 472L788.214 472L788.214 474ZM797.071 474L801.5 474L801.5 472L797.071 472L797.071 474ZM805.929 474L810.357 474L810.357 472L805.929 472L805.929 474ZM814.786 474L817 474L817 472L814.786 472L814.786 474Z" fill="#A7A9AB"/>
<path d="M957 350C956.448 350 956 350.448 956 351C956 351.552 956.448 352 957 352V350ZM1300.71 351.707C1301.1 351.317 1301.1 350.683 1300.71 350.293L1294.34 343.929C1293.95 343.538 1293.32 343.538 1292.93 343.929C1292.54 344.319 1292.54 344.953 1292.93 345.343L1298.59 351L1292.93 356.657C1292.54 357.047 1292.54 357.681 1292.93 358.071C1293.32 358.462 1293.95 358.462 1294.34 358.071L1300.71 351.707ZM957 352H959.199V350H957V352ZM963.596 352H967.994V350H963.596V352ZM972.391 352H976.788V350H972.391V352ZM981.186 352H985.583V350H981.186V352ZM989.981 352H994.378V350H989.981V352ZM998.776 352H1003.17V350H998.776V352ZM1007.57 352H1011.97V350H1007.57V352ZM1016.37 352H1020.76V350H1016.37V352ZM1025.16 352H1029.56V350H1025.16V352ZM1033.96 352H1038.35V350H1033.96V352ZM1042.75 352H1047.15V350H1042.75V352ZM1051.54 352H1055.94V350H1051.54V352ZM1060.34 352H1064.74V350H1060.34V352ZM1069.13 352H1073.53V350H1069.13V352ZM1077.93 352H1082.33V350H1077.93V352ZM1086.72 352H1091.12V350H1086.72V352ZM1095.52 352H1099.92V350H1095.52V352ZM1104.31 352H1108.71V350H1104.31V352ZM1113.11 352H1117.51V350H1113.11V352ZM1121.9 352H1126.3V350H1121.9V352ZM1130.7 352H1135.1V350H1130.7V352ZM1139.49 352H1143.89V350H1139.49V352ZM1148.29 352H1152.69V350H1148.29V352ZM1157.08 352H1161.48V350H1157.08V352ZM1165.88 352H1170.28V350H1165.88V352ZM1174.67 352H1179.07V350H1174.67V352ZM1183.47 352H1187.87V350H1183.47V352ZM1192.26 352H1196.66V350H1192.26V352ZM1201.06 352H1205.46V350H1201.06V352ZM1209.85 352H1214.25V350H1209.85V352ZM1218.65 352H1223.04V350H1218.65V352ZM1227.44 352H1231.84V350H1227.44V352ZM1236.24 352H1240.63V350H1236.24V352ZM1245.03 352H1249.43V350H1245.03V352ZM1253.83 352H1258.22V350H1253.83V352ZM1262.62 352H1267.02V350H1262.62V352ZM1271.42 352H1275.81V350H1271.42V352ZM1280.21 352H1284.61V350H1280.21V352ZM1289.01 352H1293.4V350H1289.01V352ZM1297.8 352H1300V350H1297.8V352Z" fill="#A7A9AB"/>
</svg>
