<svg width="580" height="145" fill="none" xmlns="http://www.w3.org/2000/svg"><path d="M395.125 145H290C290 64.9187 354.919 0 435 0v105.125C435 127.147 417.147 145 395.125 145Z" fill="#286AD8"/><path d="M39.875 0C17.8526 0 0 17.8525 0 39.8751V145h145V0H39.875Z" fill="url(#a)"/><g style="mix-blend-mode:multiply" opacity=".6"><mask id="b" style="mask-type:luminance" maskUnits="userSpaceOnUse" x="0" y="0" width="145" height="145"><path d="M39.875 0C17.8526 0 0 17.8525 0 39.8751V145h145V0H39.875Z" fill="#fff"/></mask><g mask="url(#b)"><path style="mix-blend-mode:multiply" opacity=".58" d="M197.519 181.054c-.05-.112-.133-.203-.263-.263-.05-.112-.134-.203-.263-.263-.05-.112-.134-.203-.264-.263-.049-.112-.133-.203-.263-.263-.05-.112-.133-.203-.263-.263-.05-.112-.133-.203-.263-.263-.05-.113-.133-.203-.263-.264-.05-.112-.133-.203-.263-.263-.05-.112-.133-.203-.263-.263-.05-.112-.133-.203-.263-.263-.05-.112-.134-.203-.263-.263-.05-.112-.134-.203-.264-.263-.049-.112-.133-.203-.263-.263-.05-.112-.133-.203-.263-.263-.05-.112-.133-.203-.263-.263-.05-.112-.133-.203-.263-.264-.05-.112-.133-.202-.263-.263-.05-.112-.133-.203-.263-.263-.05-.112-.133-.203-.263-.263-.05-.112-.134-.203-.263-.263-.05-.112-.134-.203-.264-.263-.049-.112-.133-.203-.263-.263-.05-.112-.133-.203-.263-.263-.05-.112-.133-.203-.263-.263-.05-.112-.133-.203-.263-.263-.05-.113-.133-.203-.263-.263-.05-.113-.133-.204-.263-.264-.05-.112-.133-.203-.263-.263-.05-.112-.134-.203-.263-.263-.05-.112-.134-.203-.263-.263-.05-.112-.134-.203-.264-.263-.05-.112-.133-.203-.263-.263-.05-.112-.133-.203-.263-.263-.05-.112-.133-.203-.263-.263-.05-.112-.133-.203-.263-.264-.05-.112-.133-.202-.263-.263-.05-.112-.133-.203-.263-.263-.05-.112-.133-.203-.263-.263-.05-.112-.134-.203-.263-.263-.05-.112-.134-.203-.264-.263-.049-.112-.133-.203-.263-.263-.05-.112-.133-.203-.263-.263-.05-.112-.133-.203-.263-.263-.05-.112-.133-.203-.263-.263-.05-.113-.133-.203-.263-.264-.05-.112-.133-.202-.263-.263-.05-.112-.133-.203-.263-.263-.05-.112-.134-.203-.263-.263-.05-.112-.134-.203-.264-.263-.049-.112-.133-.203-.263-.263-.05-.112-.133-.203-.263-.263-.05-.112-.133-.203-.263-.263-.05-.112-.133-.203-.263-.263-.05-.112-.133-.203-.263-.263-.05-.113-.133-.203-.263-.264-.05-.112-.133-.203-.263-.263-.05-.112-.134-.203-.263-.263-.05-.112-.134-.203-.263-.263-.05-.112-.134-.203-.264-.263-.05-.112-.133-.203-.263-.263-.05-.112-.133-.203-.263-.263-.02-.046-.04-.092-.074-.129.293-3.51 1.559-6.916 1.667-10.431.11-3.593.624-7.185.188-10.748-.387-3.163-1.597-6.919-1.346-10.105.061-.773.183-1.25.398-1.988.884-2.448.047-5.025.056-7.441.008-2.4.342-3.689-.483-4.299-.07-.1-.158-.186-.263-.263-.07-.1-.159-.186-.263-.263-.07-.1-.159-.186-.263-.263-.07-.1-.159-.186-.263-.263-.07-.1-.159-.186-.263-.263-.07-.1-.159-.187-.263-.264-.07-.099-.159-.186-.263-.263-.07-.1-.159-.186-.263-.263-.07-.1-.159-.186-.263-.263-.07-.1-.159-.186-.264-.263-.07-.1-.159-.186-.263-.263-.07-.1-.159-.186-.263-.263-.07-.1-.159-.186-.263-.263-.07-.1-.159-.186-.263-.264-.07-.099-.159-.186-.263-.263-.07-.099-.159-.186-.263-.263-.07-.099-.159-.186-.263-.263-.07-.1-.159-.186-.264-.263-.07-.1-.158-.186-.263-.263-.07-.1-.158-.186-.263-.263-.07-.1-.159-.186-.263-.263-.07-.1-.159-.186-.263-.263-.07-.1-.159-.186-.263-.263-.07-.1-.159-.186-.263-.264-.07-.099-.159-.186-.263-.263-.07-.099-.159-.186-.263-.263-.07-.1-.159-.186-.263-.263-.071-.1-.159-.186-.263-.263-.071-.1-.159-.186-.264-.263-.07-.1-.158-.186-.263-.263-.07-.1-.159-.186-.263-.263-.07-.1-.159-.186-.263-.263-.07-.1-.159-.186-.263-.264-.07-.099-.159-.185-.263-.263-.07-.099-.159-.186-.263-.263-.07-.099-.159-.186-.263-.263-.07-.1-.159-.186-.263-.263-.07-.1-.159-.186-.263-.263-.071-.1-.159-.186-.264-.263-.07-.1-.159-.186-.263-.263-.07-.1-.159-.186-.263-.263-.07-.1-.159-.186-.263-.263-.07-.1-.159-.186-.263-.264-.07-.099-.159-.186-.263-.263-.07-.099-.159-.186-.263-.263-.07-.099-.159-.186-.263-.263-.07-.1-.159-.186-.264-.263-.07-.1-.158-.186-.263-.263-.07-.1-.158-.186-.263-.263-.07-.1-.159-.186-.263-.263-.07-.1-.159-.186-.263-.263-.07-.1-.159-.186-.263-.264-.07-.099-.159-.186-.263-.263-.07-.099-.159-.186-.263-.263-.07-.099-.159-.186-.263-.263-.07-.1-.159-.186-.264-.263-.07-.1-.158-.186-.263-.263-.07-.1-.158-.186-.263-.263-.07-.1-.159-.186-.263-.263-.07-.1-.159-.186-.263-.263-.07-.1-.159-.186-.263-.263-.07-.1-.159-.186-.263-.264-.07-.099-.159-.185-.263-.263-.07-.099-.159-.186-.263-.263-.07-.1-.159-.186-.263-.263-.07-.1-.159-.186-.263-.263-.07-.1-.159-.186-.263-.263-.071-.1-.159-.186-.264-.263-.07-.1-.159-.186-.263-.263-.07-.1-.159-.186-.263-.263-.07-.1-.159-.186-.263-.263-.07-.1-.159-.186-.263-.264-.07-.099-.159-.186-.263-.263-.07-.099-.159-.186-.263-.263-.07-.099-.159-.186-.263-.263-.07-.1-.159-.1857-.263-.2629-.07-.0998-.159-.1861-.264-.2633-.07-.0996-.159-.1859-.263-.263-.07-.0997-.159-.1859-.263-.2631-.07-.0997-.159-.1859-.263-.263-.07-.0998-.159-.1861-.263-.2633-.07-.0996-.159-.1859-.263-.263-.07-.0997-.159-.186-.263-.2631-.07-.0997-.159-.1859-.263-.263-.07-.0998-.159-.1861-.264-.2633-.07-.0997-.158-.1859-.263-.263-.07-.0998-.158-.186-.263-.2631-.07-.0997-.159-.1859-.263-.263-.07-.0998-.159-.1862-.263-.2633-.07-.0997-.159-.1859-.263-.263-.07-.0998-.159-.186-.263-.2631-.07-.0997-.159-.1859-.263-.263-.07-.0999-.159-.1862-.263-.2633-.07-.0997-.159-.186-.263-.263-.07-.0998-.159-.186-.263-.2631-.07-.0997-.159-.1859-.263-.263-.071-.0999-.159-.1862-.264-.2634-.07-.0996-.159-.1859-.263-.263-.07-.0997-.159-.1859-.263-.2631-.07-.0997-.159-.1859-.263-.2631-.07-.0996-.159-.1858-.263-.263-.07-.0998-.159-.1861-.263-.2633-.07-.0996-.159-.1859-.263-.263-.07-.0997-.159-.1859-.263-.2631-.07-.0997-.159-.1859-.263-.263-.07-.0998-.159-.1861-.264-.2633-.07-.0996-.159-.1859-.263-.263-.07-.0997-.159-.186-.263-.2631-.07-.0997-.159-.1859-.263-.263-.07-.0998-.159-.1861-.263-.2633-.07-.0997-.159-.1859-.263-.263-.07-.0998-.159-.186-.263-.2631-.07-.0997-.159-.1859-.263-.263-.07-.0998-.159-.1862-.264-.2633-.07-.0997-.158-.186-.263-.263-.07-.0998-.158-.186-.263-.2631-.07-.0997-.159-.1859-.263-.263-.07-.0999-.159-.1862-.263-.2633-.07-.0997-.159-.186-.263-.2631-.07-.0997-.159-.1859-.263-.263-.07-.0997-.159-.1859-.263-.263-.07-.0999-.159-.1862-.263-.2634-.07-.0996-.159-.1859-.263-.263-.07-.0997-.159-.1859-.263-.2631-.071-.0997-.159-.1859-.264-.263-.07-.0997-.158-.1859-.263-.2631-.07-.0998-.159-.1861-.263-.2633-.07-.0996-.159-.1859-.263-.263-.07-.0997-.159-.1859-.263-.2631-.07-.0997-.159-.1858-.263-.263-.07-.0998-.159-.1861-.263-.2633-.07-.0996-.159-.1859-.263-.263-.07-.0997-.159-.186-.263-.2631-.07-.0997-.159-.1859-.263-.263-.071-.0998-.159-.1861-.264-.2633-.07-.0997-.159-.1859-.263-.263-.07-.0997-.159-.186-.263-.2631-.07-.0997-.159-.1859-.263-.263-.07-.0998-.159-.1862-.263-.2633-.07-.0997-.159-.1859-.263-.263-.07-.0997-.159-.186-.263-.2631-.07-.0997-.159-.1859-.263-.263-.07-.0998-.159-.1862-.264-.2633-.07-.0997-.158-.1859-.263-.263-.07-.0998-.158-.186-.263-.2631-.07-.0997-.159-.1859-.263-.263-.07-.0999-.159-.1862-.263-.2633-.07-.0997-.159-.186-.263-.263-.07-.0998-.159-.186-.263-.2631-.07-.0998-.159-.186-.263-.2632-.07-.0996-.159-.1858-.263-.2629-.07-.0999-.159-.1862-.263-.2634-.071-.0996-.159-.1859-.263-.263-.071-.0997-.159-.1859-.264-.263-.07-.0997-.158-.1859-.263-.2631-.07-.0998-.159-.1861-.263-.2633-.07-.0996-.159-.1859-.263-.263-.07-.0997-.159-.1859-.263-.2631-.07-.0997-.159-.1858-.263-.263-.07-.0998-.159-.1861-.263-.2633-.07-.0996-.159-.1859-.263-.263-.07-.0997-.159-.186-.263-.2631-.07-.0997-.159-.1859-.263-.263-.071-.0998-.159-.1861-.264-.2633-.07-.0997-.159-.1859-.263-.263-.07-.0997-.159-.186-.263-.2631-.07-.0997-.159-.1859-.263-.263-.07-.0998-.159-.1861-.263-.2633-.07-.0997-.159-.1859-.263-.263-.07-.0998-.159-.186-.263-.2631-.07-.0997-.159-.1859-.263-.263-.07-.0999-.159-.1862-.264-.2633-.07-.0997-.158-.186-.263-.263-.07-.0998-.158-.186-.263-.2631-.07-.0998-.159-.186-.263-.2631-.07-.0997-.159-.1859-.263-.263-.07-.0999-.159-.1862-.263-.2634-.07-.0996-.159-.1859-.263-.263-.07-.0997-.159-.1859-.263-.263-.07-.0997-.159-.1859-.263-.2631-.07-.0998-.159-.1861-.264-.2633-.07-.0996-.158-.1859-.263-.263-.07-.0997-.158-.1859-.263-.2631-.07-.0997-.159-.1858-.263-.263-.07-.0998-.159-.1861-.263-.2633-.07-.0996-.159-.1859-.263-.263-.07-.0997-.159-.186-.263-.2631-.07-.0997-.159-.1859-.263-.263-.07-.0998-.159-.1861-.263-.2633-.07-.0997-.159-.1859-.263-.263-.07-.0997-.159-.186-.263-.2631-.07-.0997-.159-.1859-.263-.263-.071-.0998-.159-.1862-.264-.2633-.07-.0997-.159-.1859-.263-.263-.07-.0998-.159-.186-.263-.2631-.07-.0997-.159-.1859-.263-.263-.07-.0999-.159-.1862-.263-.2633-.07-.0997-.159-.186-.263-.263-.07-.0998-.159-.186-.263-.2631-.07-.0998-.159-.186-.263-.2631-.07-.0997-.159-.1859-.263-.263-.07-.0999-.159-.1862-.264-.2634-.07-.0996-.159-.1859-.263-.263-.07-.0997-.159-.1859-.263-.263-.07-.0997-.159-.1859-.263-.2631-.07-.0998-.159-.1861-.263-.2633-.07-.0996-.159-.1859-.263-.263-.07-.0997-.159-.1859-.263-.2631-.07-.0997-.159-.1858-.263-.263-.07-.0998-.159-.1861-.264-.2633-.07-.0996-.158-.1859-.263-.263-.07-.0997-.158-.186-.263-.2631-.07-.0997-.159-.1859-.263-.263-.07-.0998-.159-.1861-.263-.2633-.07-.0997-.159-.1859-.263-.263-.07-.0997-.159-.186-.263-.2631-.07-.0997-.159-.1859-.263-.263-.07-.0998-.159-.1861-.263-.2633-.07-.0996-.159-.1859-.263-.263-.07-.0997-.159-.186-.263-.2631-.07-.0997-.159-.1859-.263-.263-.071-.0998-.159-.1861-.264-.2633-.07-.0997-.159-.1859-.263-.263-.07-.0998-.159-.186-.263-.2631-.07-.0998-.159-.186-.263-.2631-.07-.0997-.159-.1859-.263-.263-.07-.0998-.159-.1862-.263-.2633-.07-.0997-.159-.186-.263-.263-.07-.0998-.159-.186-.263-.2631-.07-.0997-.159-.1859-.263-.263-.07-.0999-.159-.1862-.264-.2633-.07-.0997-.159-.186-.263-.2631-.07-.0997-.159-.1859-.263-.263-.07-.0997-.159-.1859-.263-.263-.07-.0999-.159-.1862-.263-.2634-.07-.0996-.159-.1859-.263-.263-.07-.0997-.159-.1859-.263-.2631-.07-.0997-.159-.1858-.263-.263-.07-.0998-.159-.1861-.264-.2633-.07-.0996-.158-.1859-.263-.263-.07-.0997-.158-.186-.263-.2631-.07-.0997-.159-.1859-.263-.263-.07-.0998-.159-.1861-.263-.2633-.07-.0996-.159-.1859-.263-.263-.07-.0997-.159-.186-.263-.2631-.07-.0997-.159-.1859-.263-.263-.07-.0998-.159-.1861-.263-.2633-.07-.0997-.159-.1859-.263-.263-.07-.0998-.159-.186-.263-.2631-.071-.0998-.159-.186-.264-.2631-.07-.0997-.158-.1859-.263-.263-.07-.0998-.159-.1862-.263-.2633-.07-.0997-.159-.186-.263-.263-.07-.0998-.159-.186-.263-.2631-.07-.0997-.159-.1859-.263-.263-.07-.0999-.159-.1862-.263-.2633-.07-.0997-.159-.186-.263-.2631-.07-.0997-.159-.1859-.263-.263-.07-.0997-.159-.1859-.263-.263-.07-.0999-.159-.1862-.264-.2634-.07-.0996-.159-.1859-.263-.263-.07-.0997-.159-.1859-.263-.2631-.07-.0997-.159-.1858-.263-.263-.07-.0998-.159-.1861-.263-.2633-.07-.0996-.159-.1859-.263-.263-.07-.0997-.159-.186-.263-.2631-.07-.0997-.159-.1859-.263-.263-.07-.0998-.159-.1861-.264-.2633-.07-.0997-.158-.1859-.263-.263-.07-.0997-.158-.186-.263-.2631-.07-.0997-.159-.1859-.263-.263-.07-.0998-.159-.1861-.263-.2633-.07-.0997-.159-.1859-.263-.263-.07-.0998-.159-.186-.263-.2631-.07-.0998-.159-.186-.263-.2631-.07-.0997-.159-.1859-.263-.263-.07-.0998-.159-.1862-.263-.2633-.071-.0997-.159-.186-.264-.263-.07-.0998-.158-.186-.263-.2631-.07-.0997-.158-.1859-.263-.263-.07-.0999-.159-.1862-.263-.2633-.07-.0997-.159-.186-.263-.2631-.07-.0997-.159-.1859-.263-.263-.07-.0997-.159-.1859-.263-.263-.07-.0999-.159-.1862-.263-.2634-.07-.0996-.159-.1859-.263-.263-.07-.0997-.159-.1859-.263-.2631-.07-.0997-.159-.1858-.263-.263-.071-.0998-.159-.1861-.264-.2633-.07-.0996-.159-.1859-.263-.263-.07-.0997-.159-.186-.263-.2631-.07-.0997-.159-.1859-.263-.263-.07-.0998-.159-.1861-.263-.2633-.07-.0996-.159-.1859-.263-.263-.07-.0997-.159-.186-.263-.2631-.07-.0997-.159-.1859-.263-.263-.07-.0998-.159-.1861-.264-.2633-.07-.0996-.158-.1859-.263-.263-.07-.0997-.158-.186-.263-.2631-.215-.3061-.575-.5027-1.171-.6127-1.937-.3575-7.3653.1698-9.459.0321-2.9316.0789-5.9206-.0647-8.5888 1.1894-3.3155 1.5796-5.902 4.4392-8.0836 7.2805-1.1841 1.8967-3.5917 2.4858-4.8096 4.3361-1.2315 1.7046-.223 3.6023-.1515 5.4732.0756 5.7691-1.9276 4.9111-5.6297 7.8942-1.5987 1.288-3.7462 1.5346-5.7286 1.5802-1.5722.0359-3.7535.2922-5.276-.1039-1.5132-.3937-2.8687-1.5039-4.4974-1.5039-2.3181-.2663-5.8433-.1551-8.3314.3384-1.7624.3837-3.1798.7094-3.2354 2.6921-.0205 1.7499 2.1974 3.5355 1.836 5.3298-.7944 3.1703-4.8093 5.1219-7.3751 6.6923-.6638.3528-1.7312.8672-2.1781 1.4992-.7447 1.0529-.5801 4.2667.0018 4.2726h.0047c.0727.1619.1589.2621.2584.2631h.0047c.0727.1619.1589.2621.2584.2631h.0048c.0726.1619.1588.2621.2583.2631h.0047c.0727.1619.1589.2621.2584.2631h.0047c.0727.1619.1589.2621.2584.2631h.0048c.0726.1619.1588.2621.2583.2631h.0048c.0727.1619.1588.2621.2584.2631h.0046c.0727.1619.1589.2621.2584.2632h.0048c.0727.1618.1588.262.2584.2631h.0047c.0727.1618.1588.262.2583.263h.0048c.0727.1619.1589.2621.2584.2631h.0047c.0726.162.1588.2621.2584.2632h.0047c.0727.1619.1589.262.2584.2631h.0047c.0727.1619.1589.2621.2584.2631h.0048c.0726.1619.1588.262.2583.2631h.0047c.0727.1619.1589.2621.2584.2631h.0048c.0726.1619.1588.2621.2583.2631h.0047c.0727.1619.1589.2621.2584.2631h.0048c.0726.1619.1588.2621.2584.2631h.0046c.0727.1619.1589.2621.2585.2631h.0047c.0726.1619.1588.2621.2583.2632h.0048c.0726.1618.1588.262.2584.263h.0047c.0727.1619.1589.2621.2584.2631h.0047c.0726.162.1588.2621.2584.2632h.0047c.0727.1619.1589.262.2584.2631h.0047c.0727.1619.1589.262.2584.2631h.0047c.0727.1618.1589.262.2584.2631h.0047c.0727.1619.1589.262.2584.2631h.0047c.0727.1619.1589.2621.2584.2631h.0047c.0727.1619.1589.2621.2584.2631h.0047c.0727.1619.1589.2621.2584.2631h.0048c.0726.1619.1588.2621.2583.2631h.0047c.0727.1619.1589.2621.2584.2631h.0048c.0726.1619.1588.2621.2583.2631h.0048c.0726.1619.1588.2621.2583.2631h.0048c.0727.1619.1589.2621.2584.2631h.0047c.0726.162.1588.2621.2584.2632h.0047c.0727.1619.1589.262.2584.2631h.0047c.0727.1618.1588.262.2584.2631h.0047c.0727.1618.1589.262.2584.263h.0047c.0727.162.1588.2622.2584.2632h.0047c.0727.1619.1589.2621.2584.2631h.0047c.0727.1619.1589.2621.2584.2631h.0048c.0726.1619.1588.2621.2583.2631h.0047c.0727.1619.1589.2621.2584.2631h.0048c.0726.1619.1588.2621.2583.2631h.0048c.0726.1619.1588.2621.2583.2631h.0048c.0727.1615.1589.2625.2584.2635h.0047c.0726.162.1588.262.2584.263h.0047c.0727.162.1589.262.2584.263h.0047c.0727.162.1588.262.2584.263h.0047c.0727.162.1588.262.2584.263h.0047c.0727.162.1589.262.2584.263h.0047c.0727.162.1588.262.2584.263h.0047c.0727.162.1589.262.2584.263h.0047c.0727.162.1589.262.2584.263h.0048c.0726.162.1588.263.2583.264h.0047c.0727.162.1589.262.2584.263h.0048c.0726.162.1588.262.2583.263h.0048c.0726.162.1588.262.2583.263h.0048c.0727.162.1589.262.2584.263h.0047c.0726.162.1588.262.2584.263h.0047c.0727.162.1588.262.2584.263h.0047c.0727.162.1588.262.2584.263h.0047c.0727.162.1589.262.2584.263h.0047c.0727.162.1588.263.2584.264h.0047c.0727.161.1589.262.2584.263h.0047c.0727.162.1589.262.2584.263h.0048c.0726.162.1588.262.2583.263h.0047c.0727.162.1589.262.2584.263h.0048c.0726.162.1588.262.2583.263h.0048c.0726.162.1588.262.2583.263h.0048c.0727.162.1588.262.2584.263h.0046c.0727.162.1589.262.2585.263h.0047c.0727.162.1588.262.2584.264h.0047c.0727.161.1588.262.2584.263h.0047c.0727.162.1588.262.2583.263h.0048c.0727.162.1589.262.2584.263h.0047c.0726.162.1588.262.2584.263h.0047c.0727.162.1589.262.2584.263h.0047c.0727.162.1589.262.2584.263h.0048c.0726.162.1588.262.2583.263h.0047c.0727.162.1589.262.2584.263h.0047c.0727.162.1589.262.2584.264h.0047c.0727.161.1589.262.2584.263h.0048c.0727.161.1588.262.2584.263h.0046c.0727.162.1589.262.2585.263h.0047c.0726.162.1588.262.2584.263h.0047c.0727.162.1588.262.2583.263h.0048c.0727.162.1589.262.2584.263h.0047c.0726.162.1588.262.2584.263h.0047c.0727.162.1589.262.2584.263h.0047c.0727.162.1589.262.2584.263h.0048c.0726.162.1588.263.2583.264h.0047c.0727.161.1589.262.2584.263h.0048c.0726.162.1588.262.2583.263h.0047c.0727.162.1589.262.2584.263h.0048c.0727.162.1588.262.2583.263h.0047c.0727.162.1589.262.2585.263h.0047c.0726.162.1588.262.2583.263h.0048c.0726.162.1588.262.2583.263h.0048c.0726.162.1588.262.2583.263h.0048c.0727.162.1589.262.2584.263h.0047c.0726.162.1588.263.2584.264h.0047c.0727.162.1589.262.2584.263h.0047c.0727.162.1589.262.2584.263h.0047c.0727.162.1589.262.2584.263h.0047c.0727.162.1588.262.2584.263h.0047c.0727.162.1589.262.2584.263h.0047c.0727.162.1589.262.2584.263h.0048c.0726.162.1588.262.2583.263h.0047c.0727.162.1589.262.2584.264h.0048c.0726.161.1588.262.2583.263h.0048c.0726.161.1588.262.2583.263h.0048c.0727.162.1589.262.2584.263h.0047c.0726.162.1588.262.2584.263h.0047c.0727.162.1589.262.2584.263h.0047c.0727.162.1588.262.2584.263h.0047c.0727.162.1589.262.2584.263h.0047c.0727.162.1588.262.2584.263h.0047c.0727.162.1589.262.2584.263h.0047c.0727.162.1589.263.2584.264h.0048c.0726.161.1588.262.2583.263h.0047c.0727.162.1589.262.2584.263h.0048c.0726.162.1588.262.2583.263h.0048c.0726.162.1588.262.2583.263h.0048c.0726.162.1588.262.2583.263h.0048c.0727.162.1589.262.2584.263h.0047c.0726.162.1588.262.2584.263h.0047c.0727.162.1589.262.2584.263h.0047c.0727.162.1588.262.2584.264h.0047c.0727.161.1589.262.2584.263h.0047c.0727.162.1588.262.2584.263h.0047c.0727.162.1589.262.2584.263h.0047c.0727.162.1589.262.2584.263h.0048c.0726.162.1588.262.2583.263h.0047c.0727.162.1589.262.2584.263h.0048c.0726.162.1588.262.2583.263h.0048c.0726.162.1588.262.2583.263h.0048c.0727.162.1589.262.2584.263h.0047c.0726.162.1588.263.2584.264h.0047c.0727.162.1588.262.2584.263h.0047c.0727.162.1588.262.2584.263h.0047c.0727.162.1589.262.2584.263h.0047c.0727.162.1588.262.2584.263h.0047c.0727.162.1589.262.2584.263h.0047c.0727.162.1589.262.2584.263h.0048c.0726.162.1588.262.2583.263h.0047c.0727.162.1589.262.2584.263h.0048c.0726.162.1588.263.2583.264h.0048c.0726.161.1588.262.2583.263h.0048c.0726.162.1588.262.2583.263h.0048c.0727.162.1588.262.2584.263h.0046c.0727.162.1589.262.2585.263h.0047c.0727.162.1588.262.2584.263h.0047c.0727.162.1588.262.2583.263h.0048c.0727.162.1589.262.2584.263h.0047c.0727.162.1588.262.2584.263h.0047c.0727.162.1589.263.2584.264h.0047c.0727.161.1589.262.2584.263h.0048c.0726.162.1588.262.2583.263h.0047c.0727.162.1589.262.2584.263h.0047c.0727.162.1589.262.2584.263h.0047c.0727.162.1589.262.2584.263h.0048c.0727.162.1588.262.2584.263h.0046c.0727.162.1589.262.2585.263h.0047c.0727.162.1588.262.2583.263h.0048c.0726.162.1588.262.2584.263h.0047c.0727.162.1589.263.2584.264h.0047c.0726.162.1588.262.2584.263h.0047c.0727.162.1589.262.2584.263h.0047c.0727.162.1589.262.2584.263h.0048c.0726.162.1588.262.2583.263h.0047c.0727.162.1589.262.2584.263h.0047c.0727.162.1589.262.2584.263h.0047c.0727.162.1589.262.2584.263h.0047c.0727.162.1589.262.2584.263h.0048c.0726.162.1588.263.2584.264h.0046c.0727.161.1589.262.2584.263h.0048c.0726.162.1588.262.2583.263h.0048c.0726.162.1588.262.2583.263h.0048c.0727.162.1589.262.2584.263h.0047c.0726.162.1588.262.2584.263h.0047c.0727.162.1589.262.2584.263h.0047c.0727.162.1589.262.2584.263h.0048c.0726.162.1588.262.2583.263h.0047c.0727.162.1588.263.2584.264h.0047c.0727.161.1589.262.2584.263h.0047c.0727.162.1589.262.2584.263h.0048c.0726.162.1588.262.2583.263h.0047c.0727.162.1589.262.2584.263h.0048c.0726.162.1588.262.2583.263h.0048c.0726.162.1588.262.2583.263h.0048c.0727.162.1589.262.2584.263h.0047c.0726.162.1588.262.2584.263h.0047c.0727.162.1589.262.2584.264h.0047c.0727.161.1588.262.2584.263h.0047c.0727.161.1589.262.2584.263h.0047c.0727.162.1588.262.2584.263h.0047c.0727.162.1589.262.2584.263h.0047c.0727.162.1589.262.2584.263h.0047c.0727.162.1589.262.2584.263h.0048c.0726.162.1588.262.2583.263h.0047c.0727.162.1589.262.2584.263h.0048c.0726.162.1588.262.2583.263h.0048c.0726.162.1588.263.2583.264h.0048c.0727.161.1589.262.2584.263h.0047c.0726.162.1588.262.2584.263h.0047c.0727.162.1588.262.2584.263h.0047c.0727.162.1588.262.2584.263h.0047c.0727.162.1589.262.2584.263h.0047c.0727.162.1588.262.2584.263h.0047c.0727.162.1589.262.2584.263h.0047c.0727.162.1589.262.2584.263h.0048c.0726.162.1588.263.2583.264h.0047c.0727.161.1589.262.2584.263h.0048c.0726.162.1588.262.2583.263h.0048c.0726.162.1588.262.2583.263h.0048c.0727.162.1588.262.2584.263h.0046c.0727.162.1589.262.2585.263h.0047c.0727.162.1588.262.2584.263h.0047c.0727.162.1588.262.2584.263h.0047c.0727.162.1589.262.2584.263h.0047c.0727.162.1588.262.2584.264h.0047c.0727.161.1589.262.2584.263h.0047c.0727.162.1589.262.2584.263h.0047c.0727.162.1589.262.2584.263h.0048c.0726.162.1588.262.2583.263h.0047c.0727.162.1589.262.2584.263h.0047c.0727.162.1589.262.2584.263h.0048c.0726.162.1588.262.2583.263h.0048c.0727.162.1588.262.2584.263h.0046c.0727.162.1589.262.2585.263h.0047c.0726.162.1588.263.2584.264h.0047c.0727.161.1588.262.2584.263h.0047c.0727.162.1589.262.2584.263h.0047c.0726.162.1588.262.2584.263h.0047c.0727.162.1589.262.2584.263h.0047c.0727.162.1589.262.2584.263h.0048c.0726.162.1588.262.2583.263h.0047c.0727.162.1589.262.2584.263h.0048c.0726.162.1588.262.2583.263h.0047c.0727.162.1589.263.2584.264h.0048c.0727.161.1588.262.2584.263h.0046c.0727.162.1589.262.2585.263h.0047c.0726.162.1588.262.2584.263h.0047c.0726.162.1588.262.2583.263h.0048c.0727.162.1589.262.2584.263h.0047c.0726.162.1588.262.2584.263h.0047c.0727.162.1589.262.2584.263h.0047c.0727.162.1589.262.2584.263h.0047c.0727.162.1589.262.2584.263h.0047c.0727.162.1589.263.2584.264h.0047c.0727.162.1588.262.2584.263h.0047c.0727.162.1589.262.2584.263h.0047c.0727.162.1589.262.2584.263h.0048c.0726.162.1588.262.2583.263h.0047c.0727.162.1589.262.2584.263h.0048c.0726.162.1588.262.2583.263h.0048c.0726.162.1588.262.2583.263h.0048c.0727.162.1589.262.2584.263h.0047c.0726.162.1588.263.2584.264h.0047c.0727.161.1589.262.2584.263h.0047c.0727.162.1588.262.2584.263h.0047c.0723.162.1593.262.2583.263h.005c.072.162.159.262.258.263h.005c.073.162.159.262.258.263h.005c.073.162.159.262.258.263h.005c.073.162.159.262.259.263h.004c.073.162.159.262.259.263h.004c.073.162.159.263.259.264h.004c.073.161.159.262.259.263h.005c.072.162.158.262.258.263h.005c.072.162.159.262.258.263h.005c.072.162.159.262.258.263h.005c.073.162.159.262.258.263h.005c.073.162.159.262.258.263h.005c.073.162.159.262.259.263h.004c.073.162.159.262.259.263h.004c.073.162.159.262.259.264h.004c.073.161.159.262.259.263h.005c.072.161.158.262.258.263h.005c.072.162.158.262.258.263h.005c.072.162.159.262.258.263h.005c.073.162.159.262.258.263h.005c.073.162.159.262.258.263h.005c.073.162.159.262.258.263h.005c.073.162.159.262.259.263h.004c.073.162.159.262.259.263h.004c.073.162.159.263.259.264h.004c.073.161.159.262.259.263h.005c.072.162.158.262.258.263h.005c.072.162.159.262.258.263h.005c.073.162.159.262.258.263h.005c.073.162.159.262.258.263h.005c.073.162.159.262.258.263h.005c.073.162.159.262.259.263h.004c.073.162.159.262.259.263h.004c.073.162.159.263.259.264h.004c.073.161.159.262.259.263 7.697.026 28.397.039 42.336.037.056.068.122.127.199.173.004.007.004.016.008.023.065.102.153.178.255.24.004.007.004.016.008.023.065.102.153.179.255.24.004.008.004.016.008.023.065.102.153.179.255.24.004.008.004.016.009.024.064.101.152.178.254.239.004.008.004.016.009.024.064.101.152.178.254.24.004.007.004.015.009.023.064.102.152.178.254.24.004.007.004.016.009.023.064.102.153.178.254.24.005.007.004.016.009.023.064.102.153.178.254.24.005.007.004.016.009.023.064.102.153.178.254.24.005.007.005.016.009.023.064.102.153.178.255.24.004.007.004.016.008.023.064.102.153.178.255.24.004.007.004.016.008.023.065.102.153.178.255.24.004.008.004.016.008.023.065.102.153.179.255.24.004.008.004.016.009.024.064.101.152.178.254.239.004.008.004.016.009.024.064.101.152.178.254.24.004.007.004.016.009.023.064.102.152.178.254.24.004.007.004.016.009.023.064.102.153.178.254.24.005.007.004.016.009.023.064.102.153.178.254.24.005.007.004.016.009.023.064.102.153.178.254.24.005.007.005.016.009.023.064.102.153.178.254.24.005.007.005.016.009.023.065.102.153.179.255.24.004.008.004.016.008.023.065.102.153.179.255.24.004.008.004.016.008.024.065.101.153.178.255.239.004.008.004.016.009.024.064.101.152.178.254.239.004.008.004.016.009.024.064.102.152.178.254.24.004.007.004.016.009.023.064.102.152.178.254.24.004.007.004.016.009.023.064.102.153.178.254.24.005.007.004.016.009.023.064.102.153.178.254.24.005.007.004.016.009.023.064.102.153.178.254.24.005.007.005.016.009.023.064.102.153.178.255.24.004.008.004.016.008.023.065.102.153.179.255.24.004.008.004.016.008.023.065.102.153.179.255.24.004.008.004.016.008.024.065.101.153.178.255.24.004.007.004.016.009.023.064.102.152.178.254.24.004.007.004.016.009.023.064.102.152.178.254.24.004.007.004.016.009.023.064.102.152.178.254.24.004.007.004.016.009.023.064.102.153.178.254.24.005.007.004.016.009.023.064.102.153.178.254.24.005.007.004.016.009.023.064.102.153.178.254.24.005.007.005.016.009.023.064.102.153.179.255.24.004.008.004.016.008.023.065.102.153.179.255.24.004.008.004.016.008.024.065.101.153.178.255.239.004.008.004.016.008.024.065.101.153.178.255.24.004.007.004.016.009.023.064.102.152.178.254.24.004.007.004.016.009.023.064.102.152.178.254.24.004.007.004.016.009.023.064.102.152.178.254.24.004.007.004.016.009.023.064.102.153.178.254.24.005.007.004.016.009.023.064.102.153.178.254.24.005.007.005.016.009.023.064.102.153.178.254.24.005.008.005.016.009.023.064.102.153.179.255.24.004.008.004.016.008.024.065.101.153.178.255.239.004.008.004.016.008.024.065.101.153.178.255.24.004.007.004.015.008.023.065.102.153.178.255.24.004.007.004.016.009.023.064.102.152.178.254.24.004.007.004.016.009.023.064.102.152.178.254.24.004.007.004.016.009.023.064.102.152.178.254.24.005.007.004.016.009.023.064.102.153.178.254.24.005.007.004.016.009.023.064.102.153.179.254.24.005.008.004.016.009.023.064.102.153.179.254.24.005.008.005.016.009.023.064.102.153.179.255.24.004.008.004.016.008.024.065.101.153.178.255.24.004.007.004.015.008.023.065.101.153.178.255.24.004.007.004.016.008.023.065.102.153.178.255.24.004.007.004.016.009.023.064.102.152.178.254.24.004.007.004.016.009.023.064.102.152.178.254.24.004.007.004.016.009.023.064.102.152.178.254.24.004.007.004.016.009.023.064.102.153.178.254.24.005.007.004.016.009.023.064.102.153.179.254.24.005.008.004.016.009.023.064.102.153.179.254.24.005.008.005.016.009.024.064.101.153.178.255.239.004.008.004.016.008.024.065.101.153.178.255.24.004.007.004.016.008.023.065.102.153.178.255.24.004.007.004.016.008.023.065.102.153.178.255.24.004.007.004.016.009.023.064.102.152.178.254.24.004.007.004.016.009.023.064.102.152.178.254.24.004.007.004.016.009.023.064.102.152.178.254.24.004.007.004.016.009.023.064.102.153.179.254.24.005.008.004.016.009.023.064.102.153.179.254.24.005.008.004.016.009.024.064.101.153.178.254.239.005.008.005.016.009.024.064.101.153.178.255.24.004.007.004.016.008.023.065.102.153.178.255.24.004.007.004.016.008.023.065.102.153.178.255.24.004.007.004.016.008.023.065.102.153.178.255.24.004.007.004.016.009.023.595.943 2.978.03 3.785-.239 1.121-.372 2.257-.879 3.425-1.086 4.972-.884 10.054-1.629 14.517-3.993.632-.335 2.064-.871 2.24-1.564.083-.33-.038-.535-.291-.652v-.001Z" fill="#002971"/></g></g><path d="M113.575 102.898c-1.107.389-2.298.365-3.451.531-2.552.439-6.111 1.167-8.634 1.251-1.27.132-1.8804-.84-1.5842-2.093.3462-1.572 1.8072-2.535 1.7032-4.1865-.197-3.3504.864-7.0754.803-10.4602-.179-4.227 1.59-8.2491 1.719-12.427.11-3.5925.624-7.1842.188-10.7473-.388-3.1633-1.598-6.9188-1.346-10.1047.061-.7733.183-1.25.397-1.9883.885-2.4479.048-5.0253.057-7.4414.01-3.0267.547-4.2909-1.391-4.6484-1.937-.3575-7.3653.1698-9.4589.0321-2.9317.0789-5.9207-.0647-8.5889 1.1894-3.3155 1.5795-5.902 4.4391-8.0836 7.2804-1.1841 1.8968-3.5917 2.4859-4.8096 4.3362-1.2315 1.7046-.2231 3.6022-.1516 5.4731.0757 5.7692-1.9275 4.9111-5.6296 7.8943-1.5987 1.2879-3.7462 1.5345-5.7286 1.5801-1.5722.0359-3.7535.2922-5.276-.1038-1.5132-.3937-2.8687-1.504-4.4974-1.504-2.3181-.2663-5.8433-.155-8.3313.3384-1.7625.3837-3.1799.7095-3.2355 2.6922-.0205 1.7499 2.1975 3.5354 1.836 5.3298-.7944 3.1703-4.8093 5.1218-7.3751 6.6922-.6638.3528-1.7312.8672-2.1781 1.4993-.7447 1.0528-.5801 4.2667.0018 4.2725 9.1472.0309 36.6624.0442 49.366.0339 1.6616.1453 2.7543 1.3162 3.549 2.8543.8054 1.4015.8995 3.2421 1.5698 4.641.8541 1.475 3.0453 2.0874 4.4071 3.0019 1.7702 1.0555 3.4236 2.2335 5.3584 3.1165 1.064.486 2.4286 1.01 3.0771 2.052.3013.484.3945.971.3655 1.46-.0402.675-.9379 1.192-1.4132 1.548-.7465.559-1.3756 1.171-1.7967 2.019-.2092.422-.3531.947-.1019 1.345.5954.943 2.9781.029 3.7857-.239 1.1208-.373 2.2566-.879 3.4246-1.086 4.972-.884 10.054-1.629 14.517-3.993.632-.335 2.064-.871 2.24-1.565.437-1.724-4.686-.076-5.303.124Z" fill="#7AA5E7"/><path d="M474.875 145C452.853 145 435 127.148 435 105.125V2.4e-7h145V145H474.875Z" fill="#A3C2EE"/><path d="M290 0v145h-72.335C177.533 145 145 112.541 145 72.5 145 32.4594 177.533.00001526 217.665.00001526L290 0Z" fill="#003BA1"/><path d="M580 145c-91 0-145-54.5-145-145 92.5 0 145 52 145 145Z" fill="url(#c)"/><defs><linearGradient id="a" x1="-50" y1="-46" x2="140" y2="138" gradientUnits="userSpaceOnUse"><stop stop-color="#7AA5E7"/><stop offset=".99716" stop-color="#003BA1"/></linearGradient><linearGradient id="c" x1="507.5" y1="0" x2="507.5" y2="145" gradientUnits="userSpaceOnUse"><stop stop-color="#7AA5E7"/><stop offset="1" stop-color="#002971"/></linearGradient></defs></svg>