<svg width="579" height="145" fill="none" xmlns="http://www.w3.org/2000/svg"><path d="M539.025 145H433.9c0-80.0813 64.919-145 145-145v105.125c0 22.022-17.853 39.875-39.875 39.875Z" fill="#5187DF"/><path d="M144.739 145V.154907h72.164c40.036 0 72.492 32.424693 72.492 72.422493 0 39.9976-32.456 72.4226-72.492 72.4226h-72.164Z" fill="url(#a)"/><path d="M72.3282 145c39.9458 0 72.3278-32.425 72.3278-72.4226 0-39.9979-32.382-72.422554-72.3278-72.422554S0 32.5795 0 72.5774C0 112.575 32.3824 145 72.3282 145Z" fill="#154973"/><path d="M60.4034 93.5842 108.365 45.56c1.132-1.1334 2.45-1.7 3.962-1.7 1.511 0 2.829.5666 3.961 1.7 1.132 1.1333 1.698 2.4791 1.698 4.0374s-.566 2.9041-1.698 4.0374L64.3648 105.767c-1.1318 1.134-2.4504 1.7-3.9614 1.7-1.511 0-2.8296-.566-3.9614-1.7L32.1075 81.401c-1.1319-1.1333-1.6752-2.4791-1.6242-4.0374.0452-1.5583.6338-2.9041 1.7656-4.0374 1.1319-1.1333 2.4787-1.7 4.035-1.7 1.5563 0 2.8975.5667 4.0294 1.7l20.0901 20.258Z" fill="#7AA5E7"/><path d="M433.956.154755H289.3V145h144.656V.154755Z" fill="#004DD1"/><g style="mix-blend-mode:multiply"><mask id="b" style="mask-type:luminance" maskUnits="userSpaceOnUse" x="289" y="0" width="145" height="145"><path d="M433.956 0H289.3v144.845h144.656V0Z" fill="#fff"/></mask><g mask="url(#b)"><path opacity=".58" d="M508.52 160.925c-2.457-5.676-5.868-10.719-10.136-14.989-.044-.044-.091-.085-.135-.128-.043-.044-.084-.091-.128-.135-.043-.043-.09-.084-.134-.128-.044-.044-.084-.091-.128-.134-.044-.045-.091-.086-.135-.13-.044-.043-.084-.09-.128-.133-.044-.044-.09-.085-.134-.129-.044-.044-.084-.09-.128-.134-.044-.044-.091-.085-.135-.129-.043-.044-.084-.09-.128-.134-.043-.044-.09-.084-.134-.128-.043-.044-.084-.091-.128-.135-.044-.044-.091-.085-.135-.129-.043-.044-.084-.09-.128-.134-.043-.044-.09-.084-.134-.128-.044-.044-.084-.091-.128-.134-.044-.044-.091-.085-.135-.129-.043-.044-.084-.09-.127-.134-.044-.044-.091-.085-.135-.128-.043-.044-.084-.091-.128-.135-.044-.044-.091-.085-.135-.129-.043-.044-.084-.09-.127-.134-.044-.044-.091-.085-.135-.129-.044-.044-.084-.09-.128-.134-.044-.044-.091-.085-.134-.128-.044-.044-.085-.091-.128-.135-.044-.043-.091-.084-.134-.128-.044-.044-.085-.09-.129-.134-.044-.044-.09-.085-.134-.129-.044-.044-.085-.09-.128-.134-.044-.044-.091-.085-.135-.129-.044-.044-.084-.09-.128-.134-.044-.044-.09-.085-.134-.129-.044-.044-.085-.09-.128-.134-.044-.044-.091-.085-.135-.128-.044-.044-.084-.091-.128-.135-.044-.043-.09-.084-.134-.128-.044-.044-.084-.091-.128-.135-.044-.044-.091-.085-.135-.129-.044-.043-.084-.09-.128-.133-.044-.044-.09-.085-.134-.129-.044-.044-.084-.09-.128-.134-.044-.044-.091-.085-.135-.129-.043-.044-.084-.09-.128-.134-.043-.044-.09-.084-.134-.128-.044-.044-.084-.091-.128-.135-.044-.044-.091-.085-.135-.129-.044-.044-.084-.09-.128-.134-.044-.044-.09-.084-.134-.128-.044-.044-.084-.091-.128-.134-.044-.044-.091-.085-.135-.129-.043-.044-.084-.09-.128-.134-.043-.044-.09-.085-.134-.128-.043-.044-.084-.091-.128-.135-.044-.044-.091-.085-.135-.129-.044-.044-.084-.09-.128-.134-.043-.044-.09-.085-.134-.129-.044-.043-.084-.09-.128-.134-.044-.044-.091-.085-.135-.128-.043-.044-.084-.091-.128-.135-.043-.043-.09-.084-.134-.128-.043-.044-.084-.091-.128-.134-.044-.045-.091-.086-.135-.129-.043-.044-.084-.091-.127-.134-.044-.044-.091-.085-.135-.129-.044-.044-.084-.09-.128-.134-.044-.044-.091-.085-.135-.129-.043-.044-.084-.09-.127-.134-.044-.044-.091-.084-.135-.128-.043-.044-.084-.091-.128-.135-.044-.044-.09-.085-.135-.128-.043-.044-.084-.091-.127-.135-.044-.044-.091-.085-.135-.129-.044-.043-.084-.09-.128-.133-.044-.044-.091-.085-.134-.129-.044-.044-.085-.09-.128-.134-.044-.044-.091-.085-.135-.128-.043-.044-.084-.091-.128-.135-.044-.044-.09-.085-.134-.129-.044-.044-.085-.09-.128-.134-.044-.044-.091-.085-.135-.129-.044-.044-.084-.09-.128-.134-.044-.044-.09-.084-.134-.128-.044-.044-.085-.091-.128-.134-.044-.044-.091-.085-.135-.129-.044-.044-.084-.091-.128-.134-.044-.044-.09-.085-.134-.128-.044-.045-.084-.091-.128-.135-.044-.044-.091-.085-.135-.129-.044-.044-.084-.09-.128-.134-.044-.044-.09-.085-.134-.129-.044-.043-.084-.09-.128-.134-.044-.044-.091-.085-.135-.128-.043-.044-.084-.091-.128-.135-.043-.043-.09-.084-.134-.128-.044-.044-.084-.091-.128-.134-.044-.045-.091-.086-.135-.13-.044-.043-.084-.09-.128-.133-.044-.044-.09-.085-.134-.129-.044-.044-.084-.09-.128-.134-.044-.044-.091-.085-.135-.129-.043-.044-.084-.09-.128-.134-.043-.044-.09-.084-.134-.128-.043-.044-.084-.091-.128-.135-.044-.044-.091-.085-.135-.129-.044-.044-.084-.09-.128-.134-.043-.044-.09-.084-.134-.128-.044-.044-.084-.091-.128-.134-.044-.044-.091-.085-.135-.129-.043-.044-.084-.09-.128-.134-.043-.044-.09-.085-.134-.128-.043-.044-.084-.091-.128-.135-.044-.044-.091-.085-.135-.129-.043-.044-.084-.09-.127-.134-.044-.044-.091-.085-.135-.129-.044-.043-.084-.09-.128-.134-.044-.044-.091-.085-.135-.128-.043-.044-.084-.091-.127-.135-.044-.043-.091-.084-.135-.128-.043-.044-.084-.09-.128-.134-.044-.044-.091-.085-.135-.129-.043-.044-.084-.09-.127-.134-.045-.044-.091-.085-.135-.129-.044-.044-.084-.09-.128-.134-.044-.044-.091-.085-.135-.129-.043-.044-.084-.09-.127-.134-.044-.044-.091-.084-.135-.128-.043-.044-.084-.091-.128-.135-.044-.044-.09-.085-.134-.128-.044-.044-.085-.091-.128-.134-.044-.045-.091-.086-.135-.13-.044-.043-.084-.09-.128-.133-.044-.044-.09-.085-.134-.129-.044-.044-.085-.09-.128-.134-.044-.044-.091-.085-.135-.129-.044-.044-.084-.09-.128-.134-.044-.044-.09-.084-.134-.128-.044-.044-.084-.091-.128-.135-.044-.044-.091-.085-.135-.129-.044-.044-.084-.09-.128-.134-.044-.044-.09-.084-.134-.128-.044-.044-.084-.091-.128-.134-.044-.044-.091-.085-.135-.129-.043-.044-.084-.09-.128-.134-.043-.044-.09-.085-.134-.128-.044-.044-.084-.091-.128-.135-.044-.044-.091-.085-.135-.129-.044-.044-.084-.09-.128-.134-.044-.044-.09-.085-.134-.129-.044-.043-.084-.09-.128-.134-.044-.044-.091-.085-.135-.128-.043-.044-.084-.091-.128-.135-.043-.043-.09-.084-.134-.128-.044-.044-.084-.091-.128-.134-.044-.045-.091-.086-.135-.129-.044-.044-.084-.091-.128-.134-.043-.044-.09-.085-.134-.129-.044-.044-.084-.09-.128-.134-.044-.044-.091-.085-.135-.129-.043-.044-.084-.09-.128-.134-.043-.044-.09-.084-.134-.128-.043-.044-.084-.091-.128-.135-.044-.044-.091-.085-.135-.129-.043-.044-.084-.09-.127-.134-.044-.044-.091-.084-.135-.128-.044-.044-.084-.091-.128-.134-.044-.044-.091-.085-.135-.129-.043-.044-.084-.09-.127-.134-.044-.044-.091-.085-.135-.128-.043-.044-.084-.091-.128-.135-.044-.044-.091-.085-.135-.129-.043-.044-.084-.09-.127-.134-.045-.044-.091-.085-.135-.129-.044-.044-.084-.09-.128-.134-.044-.044-.091-.084-.135-.128-.043-.044-.084-.091-.127-.134-.044-.044-.091-.085-.135-.129-.043-.044-.084-.09-.128-.134-.044-.044-.09-.085-.134-.129-.044-.044-.085-.09-.128-.134-.044-.044-.091-.085-.135-.129-.044-.044-.084-.09-.128-.134-.044-.044-.09-.085-.134-.129-.044-.044-.085-.09-.128-.134-.044-.044-.091-.085-.135-.128-.044-.044-.084-.091-.128-.135-.044-.043-.09-.084-.134-.128-.044-.044-.084-.091-.128-.134-.044-.045-.091-.086-.135-.13-.044-.043-.084-.09-.128-.133-.044-.044-.09-.085-.134-.129-.044-.044-.084-.09-.128-.134-.044-.044-.091-.085-.135-.129-.043-.044-.084-.09-.128-.134-.043-.044-.09-.084-.134-.128-.044-.044-.084-.091-.128-.135-.044-.044-.091-.085-.135-.129-.044-.044-.084-.09-.128-.134-.044-.044-.09-.084-.134-.128-.044-.044-.084-.091-.128-.134-.044-.044-.091-.085-.135-.129-.043-.044-.084-.09-.128-.134-.043-.044-.09-.085-.134-.128-.044-.044-.084-.091-.128-.135-.044-.044-.091-.085-.135-.129-.044-.044-.084-.09-.128-.134-.044-.044-.09-.085-.134-.129-.044-.043-.084-.09-.128-.134-.044-.044-.091-.085-.135-.128-.043-.044-.084-.091-.128-.135-.043-.043-.09-.084-.134-.128-.043-.044-.084-.09-.128-.134-.044-.045-.091-.085-.135-.129-.043-.044-.084-.091-.128-.134-.043-.044-.09-.085-.134-.129-.044-.044-.084-.09-.128-.134-.044-.044-.091-.085-.135-.129-.043-.044-.084-.09-.127-.134-.044-.044-.091-.084-.135-.128-.043-.044-.084-.091-.128-.135-.044-.044-.091-.085-.135-.128-.043-.044-.084-.091-.127-.134-.045-.045-.091-.086-.136-.13-.043-.043-.083-.09-.127-.133-.044-.044-.091-.085-.135-.129-.043-.044-.084-.09-.127-.134-.044-.044-.091-.085-.135-.128-.043-.044-.084-.091-.128-.135-.044-.044-.091-.085-.134-.129-.044-.044-.085-.09-.128-.134-.044-.044-.091-.085-.135-.129-.044-.044-.084-.09-.128-.134-.044-.044-.09-.084-.135-.128-.043-.044-.084-.091-.127-.134-.044-.044-.091-.085-.135-.129-.044-.044-.084-.09-.128-.134-.044-.044-.09-.085-.134-.128-.044-.044-.084-.091-.128-.135-.044-.044-.091-.085-.135-.129-.044-.044-.084-.09-.128-.134-.044-.044-.09-.085-.134-.129-.044-.043-.084-.09-.128-.134-.044-.044-.091-.085-.135-.128-.043-.044-.084-.091-.128-.135-.043-.043-.09-.084-.134-.128-.044-.044-.084-.091-.128-.134-.044-.045-.091-.086-.135-.13-.044-.043-.084-.09-.128-.133-.044-.044-.09-.085-.134-.129-.044-.044-.084-.09-.128-.134-.044-.044-.091-.085-.135-.129-.043-.044-.084-.09-.128-.134-.043-.044-.09-.084-.134-.128-.044-.044-.084-.091-.128-.135-.044-.044-.091-.085-.135-.129-.044-.044-.084-.09-.128-.134-.044-.044-.09-.084-.134-.128-.044-.044-.084-.091-.128-.134-.044-.044-.091-.085-.135-.129-.043-.044-.084-.09-.128-.134-.043-.044-.09-.085-.134-.128-.043-.044-.084-.091-.128-.135-.044-.044-.091-.085-.135-.129-.044-.044-.084-.09-.128-.134-.043-.044-.09-.085-.134-.128-.044-.044-.084-.091-.128-.135-.044-.044-.091-.084-.135-.128-.043-.044-.084-.091-.127-.134-.044-.044-.091-.085-.135-.129-.043-.044-.084-.09-.128-.134-.044-.044-.091-.085-.135-.129-.043-.044-.084-.09-.127-.134-.045-.044-.091-.085-.136-.129-.043-.044-.083-.09-.127-.134-.044-.044-.091-.085-.135-.129-.043-.043-.084-.09-.127-.134-.044-.044-.091-.084-.135-.128-.043-.044-.084-.091-.128-.135-.044-.044-.091-.084-.134-.128-.044-.044-.085-.091-.128-.134-.044-.045-.091-.086-.135-.13-.044-.043-.084-.09-.128-.133-.044-.044-.09-.085-.135-.129-.043-.044-.084-.09-.127-.134-.044-.044-.091-.085-.135-.129-.044-.044-.084-.09-.128-.134-.044-.044-.09-.084-.134-.128-.044-.044-.084-.091-.128-.135-.044-.044-.091-.085-.135-.129-.044-.044-.084-.09-.128-.134-.044-.044-.09-.084-.134-.128-.044-.044-.085-.091-.128-.134-.044-.044-.091-.085-.135-.129-.043-.044-.084-.09-.128-.134-.043-.044-.09-.085-.134-.128-.044-.044-.084-.091-.128-.135-.044-.044-.091-.085-.135-.129-.044-.044-.084-.09-.128-.134-.044-.044-.09-.085-.134-.129-.044-.043-.084-.09-.128-.134-.044-.044-.091-.085-.135-.128-.043-.044-.084-.091-.128-.135-.043-.043-.09-.084-.134-.128-.044-.044-.084-.09-.128-.134-.044-.045-.091-.085-.135-.129-.044-.044-.084-.091-.128-.134-.044-.044-.09-.085-.134-.129-.044-.044-.084-.09-.128-.134-.044-.044-.091-.085-.135-.129-.043-.044-.084-.09-.128-.134-.043-.044-.09-.084-.134-.128-.043-.044-.084-.091-.128-.135-.044-.044-.091-.085-.135-.129-.044-.044-.084-.09-.128-.133-.044-.044-.09-.085-.134-.129-.044-.044-.084-.091-.128-.134-.044-.044-.091-.085-.135-.129-.043-.044-.084-.09-.127-.134-.044-.044-.091-.085-.135-.128-.043-.044-.084-.091-.128-.135-.044-.044-.091-.085-.135-.129-.043-.044-.084-.09-.127-.134-.045-.044-.091-.085-.135-.129-.044-.044-.084-.09-.128-.134-.044-.044-.091-.084-.135-.128-.043-.044-.084-.091-.127-.134-.044-.044-.091-.085-.135-.129-.043-.044-.084-.09-.128-.134-.044-.044-.091-.085-.135-.129-.043-.044-.084-.09-.127-.134-.044-.044-.091-.085-.136-.129-.043-.044-.083-.09-.127-.134-.044-.044-.09-.085-.134-.129-.044-.043-.085-.09-.128-.134-.044-.044-.091-.085-.135-.128-.044-.044-.084-.091-.128-.135-.044-.043-.09-.084-.134-.128-.044-.044-.084-.091-.128-.134-.044-.045-.091-.086-.135-.129-.044-.044-.084-.091-.128-.134-.044-.044-.09-.085-.134-.129-.044-.044-.084-.09-.128-.134-.044-.044-.091-.085-.135-.129-.043-.044-.084-.09-.128-.134-.043-.044-.09-.084-.134-.128-.044-.044-.084-.091-.128-.135-.044-.044-.091-.085-.135-.129-.044-.044-.084-.09-.128-.134-.044-.044-.09-.084-.134-.128-.044-.044-.084-.0906-.128-.1343-.044-.044-.091-.0849-.135-.1287-.043-.0439-.084-.0904-.128-.1342-.043-.0438-.09-.0844-.134-.1281-.044-.0441-.084-.0908-.128-.1347-.044-.0442-.091-.0851-.135-.1291-.044-.0438-.084-.0902-.128-.1337-.044-.044-.09-.0849-.134-.1287-.044-.0439-.084-.0904-.128-.1341-.044-.044-.091-.0849-.135-.1287-.043-.0439-.084-.0904-.128-.1342-.043-.0438-.09-.0844-.134-.1281-.043-.0441-.084-.0908-.128-.1347-.044-.0442-.091-.0851-.135-.1291-.043-.0438-.084-.0902-.128-.1337-.043-.044-.09-.0849-.134-.1287-.044-.0439-.084-.0904-.128-.1342-.044-.0439-.091-.0848-.135-.1286-.043-.0439-.084-.0904-.127-.1342-.044-.0438-.091-.0844-.135-.1281-.043-.0441-.084-.0908-.128-.1347-.044-.044-.091-.0849-.135-.1287-.043-.0439-.084-.0904-.127-.1341-.045-.0442-.091-.0852-.135-.1291-.044-.0438-.084-.0902-.128-.1338-.044-.0439-.091-.0848-.135-.1286-.043-.0439-.084-.0904-.127-.1342-.044-.0438-.091-.0845-.135-.1281-.043-.0441-.084-.0908-.128-.1347-.044-.044-.09-.0849-.134-.1287-.044-.0439-.085-.0904-.128-.1342-.044-.0441-.091-.0851-.135-.129-.044-.0438-.084-.0902-.128-.1338-.044-.0439-.09-.0848-.134-.1286-.044-.0439-.085-.0904-.128-.1342-.044-.044-.091-.0848-.135-.1286-.044-.0439-.084-.0904-.128-.1342-.044-.0438-.09-.0845-.134-.1282-.044-.044-.084-.0908-.128-.1347-.044-.0441-.091-.0851-.135-.129-.044-.0438-.084-.0902-.128-.1338-.044-.0439-.09-.0848-.134-.1286-.044-.0439-.084-.0904-.128-.1342-.044-.044-.091-.0848-.135-.1286-.043-.0439-.084-.0904-.128-.1342-.043-.0439-.09-.0845-.134-.1282-.044-.044-.084-.0908-.128-.1347-.044-.0441-.091-.0851-.135-.1291-.044-.0437-.084-.0901-.128-.1337-.044-.044-.09-.0848-.134-.1286-.044-.0439-.084-.0904-.128-.1342-.044-.044-.091-.0848-.135-.1286-.043-.0439-.084-.0904-.128-.1342-.043-.0439-.09-.0845-.134-.1282-.044-.044-.084-.0908-.128-.1347-.044-.0441-.091-.0851-.135-.1291-.044-.0437-.084-.0901-.128-.1337-.044-.044-.09-.0848-.134-.1286-.044-.0439-.084-.0904-.128-.1342-.044-.044-.091-.0848-.135-.1286-.043-.0439-.084-.0905-.128-.1342-.043-.0439-.09-.0845-.134-.1282-.043-.044-.084-.0908-.128-.1347-.044-.0441-.091-.0851-.135-.1291-.044-.0437-.084-.0901-.128-.1337-.043-.044-.09-.0848-.134-.1286-.044-.0439-.084-.0904-.128-.1342-.044-.044-.091-.0849-.135-.1287-.043-.0438-.084-.0904-.127-.1341-.044-.0439-.091-.0845-.135-.1282-.043-.044-.084-.0908-.128-.1347-.044-.044-.091-.0848-.135-.1286-.043-.0439-.084-.0904-.127-.1342-.045-.0442-.091-.0851-.136-.1291-.043-.0437-.083-.0901-.127-.1337-.044-.044-.091-.0849-.135-.1287-.043-.0438-.084-.0904-.127-.1341-.044-.0439-.091-.0845-.135-.1282-.043-.0441-.084-.0908-.128-.1347-.044-.044-.091-.0848-.134-.1286-.044-.0439-.085-.0904-.128-.1342-.044-.0442-.091-.0851-.135-.1291-.044-.0438-.084-.0901-.128-.1337-.044-.044-.09-.0849-.135-.1287-.043-.0439-.084-.0904-.127-.1341-.044-.044-.091-.0849-.135-.1287-.044-.0439-.084-.0904-.128-.1341-.044-.0439-.09-.0845-.134-.1282-.044-.0441-.084-.0908-.128-.1347-.044-.0442-.091-.0851-.135-.1291-.044-.0438-.084-.0901-.128-.1337-.044-.044-.09-.0849-.134-.1287-.044-.0439-.084-.0904-.128-.1341-.044-.044-.091-.0849-.135-.1287-.043-.0439-.084-.0904-.128-.1342-.043-.0438-.09-.0844-.134-.1281-.044-.0441-.084-.0908-.128-.1347-.044-.0442-.091-.0851-.135-.1291-.044-.0438-.084-.0901-.128-.1337-.044-.044-.09-.0849-.134-.1287-.044-.0439-.084-.0904-.128-.1341-.044-.044-.091-.0849-.135-.1287-.043-.0439-.084-.0904-.128-.1342-.043-.0438-.09-.0844-.134-.1281-.044-.0441-.084-.0908-.128-.1347-.044-.0442-.091-.0851-.135-.1291-.044-.0438-.084-.0902-.128-.1337-.044-.044-.09-.0849-.134-.1287-.044-.0439-.084-.0904-.128-.1342-.044-.0439-.091-.0848-.135-.1286-.043-.0439-.084-.0904-.128-.1342-.043-.0438-.09-.0845-.134-.1281-.043-.0441-.084-.0908-.128-.1347-.044-.0442-.091-.0851-.135-.1291-.044-.0438-.084-.0902-.128-.1337-.044-.044-.09-.0849-.134-.1287-.044-.0439-.084-.0904-.128-.1342-.044-.0439-.091-.0848-.135-.1286-.043-.0439-.084-.0904-.127-.1342-.044-.0438-.091-.0845-.135-.1281-.043-.0441-.084-.0908-.128-.1347-.044-.044-.091-.0849-.135-.1287-.043-.0439-.084-.0904-.127-.1342-.045-.0441-.091-.0851-.136-.129-.043-.0438-.083-.0902-.127-.1338-.044-.0439-.091-.0848-.135-.1286-.043-.0439-.084-.0904-.127-.1342-.044-.0438-.091-.0845-.135-.1281-.043-.0441-.084-.0908-.128-.1347-.044-.044-.091-.0849-.134-.1287-.044-.0439-.085-.0904-.128-.1342-.044-.0441-.091-.0851-.135-.129-.044-.0438-.084-.0902-.128-.1338-.044-.0439-.09-.0848-.135-.1286-.043-.0439-.084-.0904-.127-.1342-.044-.044-.091-.0848-.135-.1286-.044-.0439-.084-.0904-.128-.1342-.044-.0438-.09-.0845-.134-.1282-.044-.044-.084-.0908-.128-.1347-.044-.0441-.091-.0851-.135-.129-.044-.0438-.084-.0902-.128-.1338-.044-.044-.09-.0848-.134-.1286-.044-.0439-.085-.0904-.128-.1342-.044-.044-.091-.0848-.135-.1286-.043-.0439-.084-.0904-.128-.1342-.043-.0439-.09-.0845-.134-.1282-.044-.044-.084-.0908-.128-.1347-.044-.0441-.091-.0851-.135-.1291-.044-.0437-.084-.0901-.128-.1337-.044-.044-.09-.0848-.134-.1286-.044-.0439-.084-.0904-.128-.1342-.044-.044-.091-.0848-.135-.1286-.043-.0439-.084-.0905-.128-.1342-.043-.0439-.09-.0845-.134-.1282-.044-.044-.084-.0908-.128-.1347-.044-.0441-.091-.0851-.135-.1291-.044-.0437-.084-.0901-.128-.1337-.044-.044-.09-.0848-.134-.1286-.044-.0439-.084-.0904-.128-.1342-.044-.044-.091-.0848-.135-.1286-.043-.0439-.084-.0905-.128-.1342-.043-.0439-.09-.0845-.134-.1282-.043-.044-.084-.0908-.128-.1347-.044-.0441-.091-.0851-.135-.1291-.044-.0437-.084-.0901-.128-.1337-.044-.044-.09-.0848-.134-.1286-.044-.0439-.084-.0905-.128-.1342-.044-.044-.091-.0848-.135-.1287-.043-.0438-.084-.0904-.127-.1341-.044-.0439-.091-.0845-.135-.1282-.043-.044-.084-.0908-.128-.1347-.044-.044-.091-.0848-.135-.1286-.043-.0439-.084-.0904-.127-.1342-.045-.0442-.091-.0851-.136-.1291-.043-.0438-.083-.0901-.127-.1337-.044-.044-.091-.0849-.135-.1287-.043-.0439-.084-.0904-.127-.1341-.044-.0439-.091-.0845-.135-.1282-.043-.0441-.084-.0908-.128-.1347-.044-.044-.091-.0848-.135-.1286-.043-.0439-.084-.0904-.127-.1342-.044-.0442-.091-.0851-.136-.1291-.043-.0438-.083-.0901-.127-.1337-.044-.044-.09-.0849-.135-.1287-.043-.0439-.084-.0904-.127-.1341-.044-.044-.091-.0849-.135-.1287-.044-.0439-.084-.0904-.128-.1342-.044-.0438-.09-.0844-.134-.1281-.044-.0441-.084-.0908-.128-.1347-.044-.0442-.091-.0851-.135-.1291-.044-.0438-.084-.0901-.128-.1337-.044-.044-.09-.0849-.134-.1287-.044-.0439-.085-.0904-.128-.1341-.044-.044-.091-.0849-.135-.1287-.043-.0439-.084-.0904-.128-.1342-.043-.0438-.09-.0844-.134-.1281-.044-.0441-.084-.0908-.128-.1347-.044-.0442-.091-.0851-.135-.1291-.044-.0438-.084-.0901-.128-.1337-.044-.044-.09-.0849-.134-.1287-.044-.0439-.084-.0904-.128-.1342-.044-.0439-.091-.0848-.135-.1286-.043-.0439-.084-.0904-.128-.1342-.043-.0438-.09-.0844-.134-.1281-.044-.0441-.084-.0908-.128-.1347-.044-.0442-.091-.0851-.135-.1291-.044-.0438-.084-.0902-.128-.1337-.044-.044-.09-.0849-.134-.1287-.044-.0439-.084-.0904-.128-.1342-.044-.0439-.091-.0848-.135-.1286-.043-.0439-.084-.0904-.128-.1342-.043-.0438-.09-.0845-.134-.1281-.043-.0441-.084-.0908-.128-.1347-.044-.0442-.091-.0851-.135-.1291-.044-.0438-.084-.0902-.128-.1337-.044-.044-.09-.0849-.134-.1287-.044-.0439-.084-.0904-.128-.1342-.044-.0439-.091-.0848-.135-.1286-.043-.0439-.084-.0904-.128-.1342-.043-.0438-.09-.0845-.134-.1281-.043-.0441-.084-.0908-.128-.1347-.044-.044-.091-.0849-.135-.1287-.043-.0439-.084-.0904-.127-.1342-.045-.0441-.091-.0851-.136-.129-.043-.0438-.083-.0902-.127-.1338-.044-.0439-.091-.0848-.135-.1286-.043-.0439-.084-.0904-.127-.1342-.044-.0438-.091-.0845-.135-.1281-.043-.0441-.084-.0909-.128-.1347-.044-.044-.091-.0849-.135-.1287-.043-.0439-.084-.0904-.127-.1342-.044-.0441-.091-.0851-.136-.129-.043-.0438-.083-.0902-.127-.1338-.044-.044-.09-.0848-.135-.1286-.043-.0439-.084-.0904-.127-.1342-.044-.044-.091-.0848-.135-.1286-.044-.0439-.084-.0904-.128-.1342-.044-.0439-.09-.0845-.134-.1282-.044-.044-.084-.0908-.128-.1347-.044-.0441-.091-.0851-.135-.1291-.044-.0437-.084-.0901-.128-.1337-.044-.044-.09-.0848-.135-.1286-.043-.0439-.084-.0904-.127-.1342-.044-.044-.091-.0848-.135-.1286-.044-.0439-.084-.0905-.128-.1342-.043-.0439-.09-.0845-.134-.1282-.044-.044-.084-.0908-.128-.1347-.044-.0441-.091-.0851-.135-.1291-.044-.0437-.084-.0901-.128-.1337-.044-.044-.09-.0848-.134-.1286-.044-.0439-.085-.0904-.128-.1342-.044-.044-.091-.0848-.135-.1286-.043-.0439-.084-.0905-.128-.1342-.043-.0439-.09-.0845-.134-.1282-.044-.044-.084-.0908-.128-.1347-.044-.0441-.091-.0851-.135-.1291-.044-.0437-.084-.0901-.128-.1337-.044-.044-.09-.0848-.134-.1286-.044-.0439-.084-.0905-.128-.1342-.044-.044-.091-.0848-.135-.1287-.043-.0438-.084-.0904-.128-.1341-.043-.0439-.09-.0845-.134-.1282-.043-.044-.084-.0908-.128-.1347-.044-.0441-.091-.0851-.135-.1291-.044-.0437-.084-.0901-.128-.1337-.044-.044-.09-.0848-.134-.1286-.044-.0439-.084-.0905-.128-.1342-.044-.044-.091-.0849-.135-.1287-.043-.0438-.084-.0904-.128-.1341-.043-.0439-.09-.0845-.134-.1282-.043-.0441-.084-.0908-.128-.1347-.044-.044-.091-.0848-.135-.1286-.043-.0439-.084-.0904-.127-.1342-.045-.0442-.091-.0851-.136-.1291-.043-.0438-.083-.0901-.127-.1337-.044-.044-.091-.0849-.135-.1287-.043-.0439-.084-.0904-.127-.1341-.044-.0439-.091-.0845-.135-.1282-.043-.0441-.084-.0908-.128-.1347-.044-.044-.091-.0848-.135-.1286-.043-.0439-.084-.0904-.127-.1342-.044-.0442-.091-.0851-.136-.1291-.043-.0438-.083-.0901-.127-.1337-.044-.044-.091-.0849-.135-.1287-.043-.0439-.084-.0904-.127-.1341-.044-.044-.091-.0849-.135-.1287-.044-.0439-.084-.0904-.128-.1342-.044-.0438-.09-.0844-.134-.1281-.044-.0441-.084-.0908-.128-.1347-.044-.0442-.091-.0851-.136-.1291-.043-.0438-.083-.0901-.127-.1337-.044-.044-.09-.0849-.134-.1287-.044-.0439-.084-.0904-.128-.1342-.044-.0439-.091-.0848-.135-.1286-.043-.0439-.084-.0904-.128-.1342-.043-.0438-.09-.0844-.134-.1281-.044-.0441-.084-.0908-.128-.1347-.044-.0442-.091-.0851-.135-.1291-.044-.0438-.084-.0902-.128-.1337-.044-.044-.09-.0849-.134-.1287-.044-.0439-.084-.0904-.128-.1342-.044-.0439-.091-.0848-.135-.1286-.043-.0439-.084-.0904-.128-.1342-.043-.0438-.09-.0845-.134-.1281-.044-.0441-.084-.0908-.128-.1347-.044-.0442-.091-.0851-.135-.1291-.044-.0438-.084-.0902-.128-.1337-.044-.044-.09-.0849-.134-.1287-.044-.0439-.084-.0904-.128-.1342-.044-.0439-.091-.0848-.135-.1286-.043-.0439-.084-.0904-.128-.1342-.043-.0438-.09-.0845-.134-.1281-.043-.0441-.084-.0908-.128-.1347-.044-.0442-.091-.0851-.135-.1291-.044-.0438-.084-.0902-.128-.1338-.044-.0439-.09-.0848-.134-.1286-.044-.0439-.084-.0904-.128-.1342-.044-.0439-.091-.0848-.135-.1286-.043-.0439-.084-.0904-.127-.1342-.044-.0438-.091-.0845-.135-.1281-.043-.0441-.084-.0909-.128-.1347-.044-.044-.091-.0849-.135-.1287-.043-.0439-.084-.0904-.127-.1342-.045-.0441-.091-.0851-.136-.129-.043-.0438-.083-.0902-.127-.1338-.044-.044-.091-.0848-.135-.1286-.043-.0439-.084-.0904-.127-.1342-.044-.0438-.091-.0845-.135-.1281-.043-.0441-.084-.0909-.128-.1347-.044-.044-.091-.0849-.134-.1287-.044-.0439-.085-.0904-.128-.1342-.044-.0441-.091-.0851-.136-.1291-.043-.0437-.083-.0901-.127-.1337-.044-.044-.09-.0848-.135-.1286-.043-.0439-.084-.0904-.127-.1342-.044-.044-.091-.0848-.135-.1286-.044-.0439-.084-.0904-.128-.1342-.044-.0439-.09-.0845-.134-.1282-.044-.044-.084-.0908-.128-.1347-.044-.0441-.091-.0851-.135-.1291-.044-.0437-.084-.0901-.128-.1337-.044-.044-.09-.0848-.134-.1286-.044-.0439-.085-.0904-.128-.1342-.044-.044-.091-.0848-.135-.1286-.043-.0439-.084-.0905-.128-.1342-.043-.0439-.09-.0845-.134-.1282-.044-.044-.084-.0908-.128-.1347-.044-.0441-.091-.0851-.135-.1291-.044-.0437-.084-.0901-.128-.1337-.044-.044-.09-.0848-.134-.1286-.044-.0439-.084-.0904-.128-.1342-.044-.044-.091-.0848-.135-.1287-.043-.0438-.084-.0904-.128-.1341-.043-.0439-.09-.0845-.134-.1282-.044-.044-.084-.0908-.128-.1347-.044-.0441-.091-.0851-.135-.1291-.044-.0437-.084-.0901-.128-.1337-.044-.044-.09-.0848-.134-.1286-.044-.0439-.084-.0905-.128-.1342-.044-.044-.091-.0849-.135-.1287-.043-.0438-.084-.0904-.128-.1341-.043-.0439-.09-.0845-.134-.1282-.043-.0441-.084-.0908-.128-.1347-.044-.0441-.091-.0851-.135-.1291-.044-.0437-.084-.0901-.128-.1337-.044-.044-.09-.0848-.134-.1286-.044-.0439-.084-.0905-.128-.1342-.044-.044-.091-.0849-.135-.1287-.043-.0439-.084-.0904-.128-.1341-.043-.0439-.09-.0845-.134-.1282-.043-.0441-.084-.0908-.128-.1347-.044-.044-.091-.0848-.135-.1286-.043-.0439-.084-.0905-.127-.1342-.045-.0442-.091-.0851-.136-.1291-.043-.0438-.083-.0901-.127-.1337-.044-.044-.091-.0849-.135-.1287-.043-.0439-.084-.0904-.127-.1341-.044-.0439-.091-.0845-.135-.1282-.043-.0441-.084-.0908-.128-.1347-.044-.044-.091-.0848-.135-.1286-.043-.0439-.084-.0905-.127-.1342-.044-.0442-.091-.0851-.136-.1291-.043-.0438-.083-.0901-.127-.1337-.044-.044-.09-.0849-.135-.1287-.043-.0439-.084-.0904-.127-.1341-.044-.044-.091-.0849-.135-.1287-.044-.0439-.084-.0904-.128-.1342-.044-.0438-.09-.0844-.134-.1281-.044-.0441-.084-.0908-.128-.1347-.044-.0442-.091-.0851-.135-.1291-.044-.0438-.084-.0902-.128-.1337-.044-.044-.09-.0849-.135-.1287-.043-.0439-.084-.0904-.127-.1341-.044-.044-.091-.0849-.135-.1287-.043-.0439-.084-.0904-.128-.1342-.043-.0438-.09-.0844-.134-.1281-.044-.0441-.084-.0908-.128-.1347-.044-.0442-.091-.0851-.135-.1291-.044-.0438-.084-.0902-.128-.1337-.044-.044-.09-.0849-.134-.1287-.044-.0439-.085-.0904-.128-.1342-.044-.0439-.091-.0848-.135-.1286-.043-.0439-.084-.0904-.128-.1342-.043-.0438-.09-.0845-.134-.1281-.044-.0441-.084-.0908-.128-.1347-.044-.0442-.091-.0851-.135-.1291-.044-.0438-.084-.0902-.128-.1337-.044-.044-.09-.0849-.134-.1287-.044-.0439-.084-.0904-.128-.1342-.044-.0439-.091-.0848-.135-.1286-.043-.0439-.084-.0904-.128-.1342-.043-.0438-.09-.0845-.134-.1281-.043-.0441-.084-.0908-.128-.1347-.044-.0442-.091-.0852-.135-.1291-.044-.0438-.084-.0902-.128-.1338-.044-.0439-.09-.0848-.134-.1286-.044-.0439-.084-.0904-.128-.1342-.044-.0439-.091-.0848-.135-.1286-.043-.0439-.084-.0904-.128-.1342-.043-.0438-.09-.0845-.134-.1281-.043-.0441-.084-.0909-.128-.1347-.044-.044-.091-.0849-.135-.1287-.043-.0439-.084-.0904-.127-.1342-.045-.0441-.091-.0851-.136-.129-.043-.0438-.083-.0902-.127-.1338-.044-.044-.091-.0848-.135-.1286-.043-.0439-.084-.0904-.127-.1342-.044-.0438-.091-.0845-.135-.1281-.043-.0441-.084-.0909-.128-.1348-.044-.0439-.091-.0848-.135-.1286-.043-.0439-.084-.0904-.127-.1342-.044-.0441-.091-.0851-.136-.1291-.043-.0437-.083-.0901-.127-.1337-.044-.044-.091-.0848-.135-.1286-.043-.0439-.084-.0904-.127-.1342-.044-.044-.091-.0848-.135-.1286-.044-.0439-.084-.0905-.128-.1342-.044-.0439-.09-.0845-.134-.1282-.044-.044-.084-.0908-.128-.1347-.044-.0441-.091-.0851-.136-.1291-.043-.0437-.083-.0901-.127-.1337-.044-.044-.09-.0848-.135-.1286-.043-.0439-.084-.0904-.127-.1342-.044-.044-.091-.0848-.135-.1286-.044-.0439-.084-.0905-.128-.1342-.044-.0439-.09-.0845-.134-.1282-.044-.044-.084-.0908-.128-.1347-.044-.0441-.091-.0851-.135-.1291-.044-.0437-.084-.0901-.128-.1337-.044-.044-.09-.0848-.134-.1286-.044-.0439-.085-.0904-.128-.1342-4.263-4.2734-9.299-7.6878-14.971-10.1485-5.65-2.464-11.808-3.7135-18.303-3.7135-6.414 0-12.554 1.2499-18.25 3.7152-5.706 2.4597-10.761 5.8733-15.025 10.1475-4.268 4.2695-7.678 9.3122-10.135 14.9895C314.247 61.4543 313 67.6207 313 74.1238c0 6.4227 1.247 12.5705 3.709 18.2741 2.457 5.7132 5.866 10.7741 10.135 15.0441.043.044.09.084.134.128.044.044.084.091.128.135.044.044.091.084.135.128.043.044.084.091.128.135.043.043.09.084.134.127.043.044.084.091.128.135.044.044.091.085.134.129.044.044.085.09.129.134.043.044.09.085.134.128.044.044.084.091.128.135.044.044.091.085.135.129.043.043.084.09.128.134.043.044.09.084.133.128.044.044.085.091.129.135.044.044.091.084.134.128.044.044.085.091.129.135.043.043.09.084.134.128.043.044.084.09.128.134.044.044.091.085.135.129.043.044.084.09.128.134.043.044.09.085.134.128.044.044.084.091.128.135.044.044.09.084.134.128.044.044.085.091.129.135.043.044.09.084.134.128.043.044.084.091.128.135.044.044.091.084.135.128.043.044.084.091.128.134.043.044.09.085.134.129.043.044.084.09.128.134.044.044.09.084.134.128.044.044.084.091.129.135.043.044.09.085.134.128.043.044.084.091.128.135.044.044.09.084.134.128.044.044.085.091.129.135.043.044.09.085.134.128.044.044.084.091.128.135.044.043.09.084.134.127.044.044.084.091.129.135.043.044.09.085.134.129.043.044.084.09.128.134.044.044.09.085.134.128.044.044.085.091.128.135.044.044.091.085.135.129.044.044.084.09.128.134.044.044.09.084.134.128.043.044.084.091.128.135.044.044.091.084.135.128.043.044.084.091.128.135.044.043.09.084.134.128.044.044.085.09.128.134.044.044.091.085.135.129.044.044.084.09.128.134.044.044.09.084.134.128.043.044.084.091.128.135.044.044.091.085.135.128.043.044.084.091.128.135.044.044.09.084.134.128.044.044.084.091.128.135.044.044.091.084.135.128.043.044.084.091.128.134.043.044.09.085.133.128.044.044.085.091.129.135.044.044.091.085.134.128.044.045.085.091.129.135.044.044.09.085.134.128.044.044.084.091.128.135.044.044.091.085.135.129.043.043.084.09.128.134.043.044.09.084.134.128.044.044.084.091.128.135.044.043.09.084.134.127.044.044.085.091.129.135.043.044.09.085.134.129.044.044.084.09.128.134.044.044.091.085.135.129.043.044.084.09.128.134.043.044.09.085.134.128.044.044.084.091.128.135.044.044.09.084.134.128.044.044.085.091.129.135.043.044.09.084.134.128.044.044.084.091.128.135.044.043.09.084.134.128.044.044.085.091.129.134.043.044.09.085.134.129.044.044.084.09.128.134.044.044.09.084.134.128.044.044.085.091.129.135.043.044.09.085.134.128.043.044.084.091.128.135.044.044.09.084.134.128.044.044.085.091.129.135.043.044.09.084.134.128.044.044.084.091.128.135.044.043.09.084.134.127.044.044.084.091.128.135.044.044.091.085.135.129.043.044.084.09.128.134.044.044.09.085.134.128.044.044.085.091.128.135.044.044.091.085.135.129.044.043.084.09.128.134.044.044.09.084.134.128.044.044.084.091.128.135.044.043.091.084.135.128.043.044.084.091.128.135.044.043.09.084.134.128.044.044.085.09.128.134.044.044.091.085.135.129.044.044.084.09.128.134.043.044.09.084.134.128.044.044.084.091.128.135.044.044.091.084.134.128.044.044.085.091.129.135.044.044.09.084.134.128.044.044.084.091.128.135.044.044.091.084.135.128.044.044.084.091.128.134.044.044.09.085.134.129.044.044.084.09.128.134.044.044.09.084.134.128.044.044.085.091.129.135.043.044.09.085.134.128.044.044.084.091.128.135.044.044.091.085.135.129.043.043.084.09.128.134.043.044.09.084.134.128.044.044.084.091.128.135.044.043.09.084.134.127.044.044.085.091.129.135.043.044.09.085.134.129.044.044.084.09.128.134.044.044.09.085.134.128.044.044.085.091.129.135.044.044.09.085.134.129.044.044.084.09.128.134.044.044.09.084.134.128.044.044.085.091.129.135.043.044.09.084.134.128.043.044.084.091.128.135.044.043.09.084.134.128.044.044.085.09.129.134.043.044.09.085.134.129.044.044.084.09.128.134.044.044.09.084.134.128.044.044.085.091.129.135.043.044.09.085.134.128.043.044.084.091.128.135.044.044.09.084.134.128.044.044.085.091.129.135.043.044.09.084.134.128.044.044.084.091.128.134.044.044.09.085.134.128.044.044.084.091.129.135.043.044.09.085.134.128.043.045.084.091.128.135.044.044.09.085.134.128.044.044.085.091.128.135.044.044.091.085.135.129.044.043.084.09.128.134.044.043.09.084.134.127.044.045.084.092.129.136.043.043.09.084.134.128.043.044.084.091.128.134.044.044.09.085.134.129.044.044.084.09.128.134.044.044.091.085.135.129.044.044.084.09.128.134.044.044.09.085.134.128.044.044.085.091.128.135.044.044.09.084.134.128.044.044.085.091.129.135.044.044.09.084.134.128.044.044.084.091.128.135.044.044.091.084.135.128.044.044.084.091.128.134.044.044.09.085.134.129.044.044.084.09.128.134.044.044.09.084.134.128.044.044.085.091.129.135.043.044.09.085.134.128.044.044.084.091.128.135.044.044.09.084.134.128.044.044.085.091.129.135.044.044.09.084.134.128.044.044.085.091.128.135.044.043.09.084.134.127.044.044.085.091.129.135.043.044.09.085.134.129.044.044.084.09.128.134.044.044.09.085.134.128.044.044.085.091.129.135.044.044.09.085.134.129.044.043.084.09.128.134.044.044.09.084.134.128.044.044.085.091.129.135.043.044.09.084.134.128.043.044.084.091.128.135.044.043.09.084.134.128.044.044.085.09.129.134.044.044.09.085.134.129.044.044.084.09.128.134.044.044.09.084.134.128.044.044.085.091.129.135.043.044.09.084.134.128.043.044.084.091.128.135.044.044.09.084.134.128.044.044.085.091.129.135.043.044.09.084.134.128.044.044.084.091.128.134.044.044.09.085.134.128.044.044.084.091.129.135.043.044.09.085.134.128.043.044.084.091.128.135.044.044.09.085.134.128.044.044.085.091.129.135.043.044.09.085.134.128.044.044.084.091.128.135.044.044.09.084.134.128.044.044.085.091.128.135.044.043.09.084.134.127.044.044.085.091.129.135.044.044.09.085.134.129.044.044.085.09.128.134.044.044.091.085.135.129.044.044.084.09.128.134.044.044.09.085.134.128.044.044.085.091.128.135.044.044.09.084.134.128.044.044.085.091.129.135.044.044.09.084.134.128.044.044.085.091.128.135.044.043.091.084.135.128.043.044.084.09.128.134.044.044.09.085.134.129.044.044.085.09.128.134.044.044.09.084.134.128.044.044.085.091.129.135.044.044.09.085.134.128.044.044.084.091.128.135.044.044.091.084.134.128.044.044.085.091.129.135.044.044.09.084.134.128.044.044.085.091.128.134.044.044.09.085.134.128.044.044.085.091.129.135.043.044.09.085.134.128.044.045.084.091.128.135.044.044.091.085.134.128.044.044.085.091.129.135.044.044.09.085.134.129.044.043.084.09.128.134.044.043.09.084.134.127.044.045.085.092.129.136.043.043.09.084.134.128.044.044.084.091.128.134.044.044.09.085.134.129.044.044.085.09.129.134.044.044.09.085.134.129.044.044.084.09.128.134.044.044.09.084.134.128.044.044.085.091.129.135.043.044.09.084.134.128.043.044.084.091.128.135.044.044.09.084.134.128.044.044.085.091.129.135.043.044.09.084.134.128.044.044.084.091.128.134.044.044.09.085.134.129.044.044.085.09.129.134.043.044.09.084.133.128.044.044.085.091.129.135.044.044.09.085.134.128.044.044.085.091.129.135.043.044.09.085.134.128.044.044.084.091.128.135.044.044.09.084.134.128.044.044.085.091.128.135.044.043.091.084.134.127.044.044.085.091.129.135.044.044.09.085.134.129.044.044.085.09.128.134.044.044.091.085.135.128.043.044.084.091.128.135.044.044.091.085.135.129.043.043.084.09.127.134.044.044.09.084.134.128.044.044.085.091.129.135.044.043.09.084.134.128.044.044.084.091.128.135.044.043.091.084.135.128.043.044.084.09.128.134.044.044.09.085.134.129.044.044.085.09.128.134.044.044.09.084.134.128.044.044.085.091.129.135.044.044.09.084.134.128.044.044.084.091.128.135.044.044.091.084.134.128.044.044.085.091.129.135.044.044.09.084.134.128.044.044.085.091.128.134.044.044.09.085.134.128.044.044.085.091.129.135.043.044.09.085.134.128.044.044.084.091.128.135.044.044.09.085.134.128.044.044.085.091.129.135.044.044.09.085.134.128.044.044.084.091.128.135.044.043.09.084.134.127.044.045.085.092.129.136.043.043.09.084.134.128.044.044.084.091.128.134.044.044.09.085.134.129.044.044.085.09.129.134.043.044.09.085.134.129.044.044.084.09.128.134.044.044.09.085.134.128.044.044.085.091.129.135.043.044.09.084.133.128.044.044.085.091.129.135.044.044.09.084.134.128.044.044.085.091.129.135.043.044.09.084.134.128.044.044.084.091.128.134.044.044.09.085.134.128.044.045.085.091.129.135.043.044.09.084.133.128.044.044.085.091.129.135.044.044.09.085.134.128.044.044.085.091.128.135.044.044.091.084.135.128.043.044.084.091.128.135.044.044.091.084.135.128.043.044.084.091.128.134.043.044.089.085.133.128.044.044.085.091.129.135.044.044.09.085.134.128.044.045.085.091.128.135.044.044.091.085.135.128.043.044.084.091.128.135.044.044.091.085.134.129.044.043.085.09.128.134.044.043.09.084.134.127.044.045.085.092.129.136.044.043.09.084.134.128.044.044.084.091.128.134.044.044.091.085.134.129.044.044.085.09.129.134.044.044.09.085.134.129.044.044.085.09.128.134.044.044.09.084.134.128.044.044.085.091.129.135.044.044.09.084.134.128.044.044.084.091.128.135.044.044.091.084.134.128.044.044.085.091.129.135.044.044.09.084.134.128.044.044.085.091.128.134.044.044.09.085.134.128.044.044.085.091.129.135.043.044.09.085.134.128.044.044.084.091.128.135.044.044.09.085.134.128.044.044.085.091.129.135.044.044.09.085.134.128.044.044.085.091.128.135.044.044.091.084.134.128.044.044.085.091.129.135.043.043.09.084.133.127.044.044.085.091.129.135.044.044.09.085.134.128.044.045.085.091.129.135.044.044.09.085.134.129.044.044.084.09.128.134.044.044.09.085.134.128.044.044.085.091.129.135.043.044.09.084.133.128.044.044.085.091.129.135.044.044.09.084.134.128.044.044.085.091.129.135.043.043.09.084.134.128.043.044.084.09.128.134.044.044.091.085.135.129.043.044.084.09.128.134.043.044.09.084.133.128.044.044.085.091.129.135.044.044.09.084.134.128.044.044.085.091.129.135.043.044.09.084.134.128.043.044.084.091.128.135.044.044.091.084.135.128.043.044.084.091.128.134.043.044.089.085.133.128.044.044.085.091.129.135.044.044.09.085.134.128.044.044.085.091.129.135.043.044.09.085.134.128.043.044.084.091.128.135.044.044.091.085.135.128.043.044.084.091.127.135.044.043.09.084.134.127.044.045.085.092.129.136.044.043.09.084.134.128.044.044.085.091.128.134.044.044.091.085.135.129.043.044.084.09.128.134.044.044.09.085.135.129.043.044.084.09.127.134.044.044.09.084.134.128.044.044.085.091.129.135.044.044.09.084.134.128.044.044.084.091.128.135.044.044.091.084.135.128.043.044.084.091.128.135.044.044.09.084.134.128.044.044.085.091.128.134.044.044.091.085.134.128.044.045.085.091.129.135.043.044.09.084.133.128.044.044.085.091.129.135.044.044.091.085.134.128.044.044.085.091.129.135.044.044.09.085.134.128.044.044.084.091.128.135.044.043.091.084.134.128.044.044.085.091.129.134.043.044.09.085.133.128.044.044.085.091.129.135.044.044.091.085.134.128.044.045.085.091.129.135.043.044.09.085.134.128.043.044.084.091.128.135.044.044.091.085.135.129.043.043.084.09.128.134.043.043.09.084.133.127.044.045.085.092.129.136.044.043.09.084.134.128.044.044.085.091.129.134.043.044.09.085.134.129.043.044.084.09.128.134.044.044.091.085.135.129.043.044.084.09.128.134.043.044.09.084.133.128.044.044.085.091.129.135.044.044.09.084.134.128.044.044.085.091.129.135.043.044.09.084.134.128.043.044.084.091.128.135.044.044.091.084.135.128.043.044.084.091.128.134.043.044.09.085.133.128.044.044.085.091.129.135.044.044.09.085.134.128.044.044.085.091.128.135.044.044.091.085.135.128.043.044.084.091.128.135.044.044.091.085.135.128.043.044.084.091.127.135.044.043.09.084.134.127.044.045.085.092.129.136.044.043.09.084.134.128.044.044.085.09.128.134.044.044.091.085.135.129.043.044.084.09.128.134.044.044.091.085.135.129.043.044.084.09.127.134.044.044.091.084.135.128.043.044.084.091.128.135.043.043.09.084.134.127.043.045.084.092.128.136.044.043.091.084.134.128.044.044.085.091.129.135.044.043.09.084.134.128.044.044.085.091.128.134.044.044.091.085.134.128.044.044.085.091.129.135.043.044.09.084.133.128.044.044.085.091.129.135.044.044.091.084.134.128.044.044.085.091.129.135.043.044.09.084.134.128.044.044.084.091.128.135.044.044.091.084.135.128.043.044.084.091.128.134.043.044.09.085.133.128.044.044.085.091.129.135.044.044.09.085.134.128.044.044.085.091.129.135.043.044.09.085.134.128.044.044.084.091.128.135.044.044.091.085.135.128.043.044.084.091.128.135.043.043.09.084.133.127.044.045.085.092.129.136.044.043.09.084.134.128.044.044.085.091.129.134.043.044.09.085.134.129.044.044.084.09.128.134.044.044.091.085.135.129.043.044.084.09.128.134.043.044.09.084.133.128.044.044.085.091.129.135.044.044.09.084.134.128.044.044.085.091.129.135.043.044.09.084.134.128.043.044.084.091.128.135.044.044.091.084.135.128.043.044.084.091.128.134.043.044.09.085.133.128.044.044.085.091.129.135.044.044.09.085.134.128.044.044.085.091.128.135.044.044.091.085.135.128.043.044.084.091.128.135.044.044.091.085.135.128.043.044.084.091.127.135.044.043.091.084.135.128.043.044.084.091.128.134.044.044.09.085.134.128.044.044.084.091.128.135.044.044.091.085.135.128.043.045.084.091.128.135.044.044.09.085.134.129.044.044.085.09.128.134.044.044.091.084.134.128.044.044.085.091.129.135.043.043.09.084.134.127.043.045.084.092.128.136.044.043.091.084.134.128.044.044.085.091.129.134.044.044.09.085.134.129.044.044.084.09.128.134.044.044.091.085.135.129.044.044.084.09.128.134.043.044.09.084.134.128.043.044.084.091.128.135.044.044.091.084.134.128.044.044.085.091.129.135.043.044.09.084.134.128.044.044.084.091.128.135.044.044.091.084.135.128.043.044.084.091.128.134.043.044.09.085.133.128.044.044.085.091.129.135.044.044.09.085.134.128.044.044.085.091.129.135.043.044.09.085.134.128.044.044.084.091.128.135.044.044.091.085.135.128.043.044.084.091.128.135.043.043.09.084.133.127.044.045.085.092.129.136.044.043.09.084.134.128.044.044.085.091.129.134.043.044.09.085.134.128.043.045.084.091.128.135.044.044.091.085.135.129.043.044.084.09.128.134.043.044.09.084.133.128.044.044.085.091.129.135.044.044.09.084.134.128.044.044.085.091.129.135.043.043.09.084.134.128.043.044.084.091.128.135.044.043.091.084.135.128.043.044.084.091.128.134.043.044.09.085.134.128.043.045.084.091.128.135.044.044.09.084.134.128.044.044.084.091.129.135.043.044.09.084.134.128.043.044.084.091.128.135.044.044.091.085.135.128.043.044.084.091.128.135.043.043.09.084.134.128.043.044.084.091.128.134.044.044.09.085.134.128.044.044.084.091.128.135.044.044.091.085.135.128.043.044.084.091.128.135.044.044.09.085.134.128.044.044.084.091.128.135.044.044.091.085.135.128.044.044.084.091.128.135.043.043.09.084.134.127.043.045.084.092.128.136.044.043.091.084.134.128.044.044.085.091.129.134.044.044.09.085.134.129.044.044.084.09.128.134.044.044.091.085.135.129.043.044.084.09.128.134.043.044.09.084.134.128.043.044.084.091.128.135.044.044.09.084.134.128.044.044.085.091.129.135.043.044.09.084.134.128.044.044.084.091.128.135.044.044.091.084.135.128.043.044.084.091.128.134.043.044.09.085.133.128.044.044.085.091.129.135.044.044.091.085.134.128.044.044.085.091.129.135.043.044.09.085.134.128.044.044.084.091.128.135.044.044.091.085.135.128.043.044.084.091.128.135.043.043.09.084.133.127.044.045.085.091.129.136.044.043.09.084.134.128.044.044.085.09.129.134.043.044.09.085.134.128.043.045.084.091.128.135.044.044.091.085.135.129.043.044.084.09.128.134.043.044.09.084.134.128.043.044.084.091.128.135.044.043.09.084.134.127.044.045.085.092.129.136.043.043.09.084.134.128.043.044.084.091.128.134.044.044.091.085.135.129.043.044.084.091.128.134.043.044.09.085.134.128.043.044.084.091.128.135.044.044.09.084.134.128.044.044.084.091.129.135.043.044.09.084.134.128.043.044.084.091.128.135.044.044.09.084.134.128.044.044.085.091.129.135.043.044.09.084.134.128.044.044.084.091.128.134.044.044.09.085.134.128.044.044.084.091.128.135.044.044.091.085.135.128.043.044.084.091.128.135.044.044.09.085.134.128.044.044.085.091.128.135.044.044.091.085.135.128.044.044.084.091.128.135.043.043.09.084.134.127.043.045.084.091.128.136.044.043.091.084.135.128.043.044.084.09.128.134.044.044.09.085.134.128.044.045.084.091.128.135.044.044.091.085.135.129.043.044.084.09.128.134.043.044.09.084.134.128.043.044.084.091.128.135.044.044.091.084.134.128.044.044.085.091.129.135.043.044.09.084.134.128.044.044.084.091.128.135.044.043.091.084.135.128.043.044.084.091.128.134.043.044.09.084.133.128.044.044.085.091.129.135.044.044.091.085.134.128.044.044.085.091.129.135.043.044.09.084.134.128.043.044.084.091.128.135.044.044.091.085.135.128.043.044.084.091.128.135.043.043.09.084.134.128.044.044.084.091.128.134.044.044.09.085.134.128.044.044.085.091.129.135.043.044.09.085.134.128.044.044.084.091.128.135.044.044.091.085.135.129.043.044.084.09.128.134.043.044.09.084.134.128.044.044.084.091.128.135.044.043.09.084.134.127.044.045.084.092.129.136.043.043.09.084.134.128.043.044.084.091.128.134.044.044.09.085.134.129.044.044.085.09.129.134.043.044.09.085.134.129.044.044.084.09.128.134.044.044.09.084.134.128.044.044.084.091.129.135.043.044.09.084.134.128.043.044.084.091.128.135.044.044.09.084.134.128.044.044.085.091.128.135.044.044.091.084.135.128.044.044.084.091.128.134.044.044.09.085.134.128.044.044.084.091.128.135.044.044.091.085.135.128.043.044.084.091.128.135.044.044.09.085.134.128.044.044.085.091.128.135.044.044.091.085.135.128.044.044.084.091.128.135.044.043.09.084.134.127.044.045.084.091.128.136.044.043.091.084.135.128.043.044.084.09.128.134.044.044.09.085.134.128.044.045.084.091.128.135.044.044.091.085.135.129.044.044.084.09.128.134.043.044.09.084.134.128.043.044.084.091.128.135.044.044.091.084.134.128.044.044.085.091.129.135.044.043.09.084.134.128.044.044.084.091.128.134.044.044.091.085.135.129.044.044.084.091.128.134.044.044.09.085.134.128.044.044.084.091.128.135.044.044.09.084.134.128.044.044.085.091.129.135.043.044.09.084.134.128.044.044.084.091.128.135.044.044.091.085.135.128.043.044.084.091.128.135.043.043.09.084.134.128.044.044.084.091.128.134.044.044.09.085.134.128.044.044.085.091.129.135.043.044.09.085.134.128.044.044.084.091.128.135.044.044.09.085.134.128.044.044.085.091.129.135.043.044.09.085.134.128.044.044.084.091.128.135.044.043.09.084.134.127.044.045.085.091.129.136.043.043.09.084.134.128.043.044.084.09.128.134.044.044.09.085.134.128.044.045.085.091.129.135.043.044.09.085.134.129.044.044.084.09.128.134.044.044.09.084.134.128.044.044.085.091.129.135.043.044.09.084.134.128.043.044.084.091.128.135.044.043.09.084.134.128.044.044.085.091.128.134.044.044.091.085.135.129.044.044.084.091.128.134.044.044.09.084.134.128.044.044.084.091.128.135.044.044.091.085.135.128.043.044.084.091.128.135.044.044.09.084.134.128.044.044.085.091.128.135.044.044.091.085.135.128.044.044.084.091.128.135.043.043.09.084.134.127.044.044.084.091.128.135.044.044.091.085.134.129.044.044.085.09.129.134.044.044.09.085.134.128.044.044.084.091.128.135.044.044.091.085.135.129.044.044.084.09.128.134.044.044.09.084.134.128.044.044.084.091.128.135.044.043.09.084.134.127.044.045.085.092.129.136.044.043.09.084.134.128.044.044.084.091.128.134.044.044.091.085.135.129.043.044.084.09.128.134.043.044.09.085.134.128.044.044.084.091.128.135.044.044.09.084.134.128.044.044.085.091.129.135.043.044.09.084.134.128.044.044.084.091.128.135.044.044.09.084.134.128.044.044.085.091.129.135.044.044.09.084.134.128.044.044.085.091.128.134.044.044.09.085.134.128.044.044.085.091.129.135.043.044.09.085.134.128.044.044.084.091.128.135.044.044.09.084.134.128.044.044.085.091.129.135.044.044.09.085.134.128.044.044.084.091.128.135.044.043.09.084.134.127.044.045.085.091.129.136.043.043.09.084.134.128.043.044.084.09.128.134 4.264 4.273 9.318 7.687 15.025 10.148 5.706 2.464 11.846 3.714 18.249 3.714 6.484 0 12.642-1.249 18.306-3.713 5.669-2.461 10.705-5.876 14.969-10.149 4.268-4.269 7.677-9.33 10.134-15.044 2.461-5.714 3.71-11.862 3.71-18.274 0-6.492-1.248-12.659-3.709-18.329h-.001Z" fill="#002971"/></g></g><path d="M360.309 121.305c-6.403 0-12.544-1.25-18.25-3.714-5.706-2.461-10.761-5.875-15.024-10.148-4.269-4.269-7.678-9.3306-10.135-15.0438-2.462-5.7037-3.709-11.8514-3.709-18.2741 0-6.5032 1.247-12.6695 3.707-18.3278 2.458-5.6773 5.868-10.72 10.136-14.9895 4.264-4.2742 9.319-7.6878 15.025-10.1475 5.696-2.4654 11.836-3.7152 18.25-3.7152 6.494 0 12.653 1.2495 18.303 3.7134 5.672 2.4608 10.708 5.8751 14.971 10.1486 4.268 4.2702 7.679 9.3129 10.135 14.9887 2.462 5.6701 3.709 11.8368 3.709 18.3293 0 6.412-1.248 12.5598-3.709 18.2734-2.458 5.7139-5.867 10.7755-10.135 15.0435-4.263 4.274-9.299 7.689-14.968 10.149-5.664 2.465-11.822 3.714-18.306 3.714Zm-10.165-27.6107c.979 3.5907 2.257 7.0197 3.802 10.1917 1.548 3.178 3.402 6.272 5.512 9.198l.851 1.181.852-1.181c2.112-2.93 3.966-6.024 5.51-9.198 1.544-3.168 2.823-6.5978 3.803-10.1917l.362-1.3279h-21.054l.362 1.3279Zm-23.98.2506c2.371 4.0941 5.384 7.7151 8.955 10.7631 3.578 3.049 7.731 5.347 12.345 6.833l2.502.805-1.259-2.309c-1.408-2.585-2.663-5.32-3.731-8.128-1.065-2.8031-1.963-5.7415-2.672-8.7338l-.191-.8088H325.25l.914 1.5785Zm52.149-.7693c-.714 3.0193-1.612 5.9574-2.67 8.7314-1.066 2.806-2.322 5.541-3.732 8.13l-1.258 2.309 2.501-.805c4.613-1.486 8.766-3.784 12.344-6.832 3.567-3.04 6.58-6.6615 8.956-10.7641l.913-1.5785h-16.862l-.192.8092Zm1.911-28.5402c.238 1.5895.419 3.1673.536 4.6894.116 1.5072.174 3.122.174 4.8003 0 1.6783-.058 3.2932-.174 4.8003-.117 1.5229-.298 3.1003-.536 4.6895l-.182 1.2077h18.417l.199-.7967c.41-1.6458.722-3.2896.928-4.8848.204-1.6127.308-3.2995.308-5.016 0-1.7164-.104-3.4033-.307-5.0131-.207-1.5977-.519-3.2411-.929-4.8876l-.199-.7968h-18.417l.182 1.2078Zm-32.273-.3127c-.245 1.6398-.432 3.2682-.553 4.8406-.12 1.5607-.182 3.2301-.182 4.9618 0 1.7318.062 3.4012.182 4.9622.121 1.5728.308 3.2011.553 4.8402l.134.8951h24.447l.134-.8947c.247-1.6391.433-3.2678.554-4.841.12-1.5603.181-3.23.181-4.9618 0-1.7321-.061-3.4015-.181-4.9618-.121-1.5724-.307-3.2011-.554-4.8409l-.134-.8948h-24.447l-.134.8951Zm-25.992-.0984c-.41 1.6466-.722 3.2903-.927 4.8852-.205 1.6148-.308 3.3013-.308 5.0156 0 1.7143.103 3.4008.307 5.0132.206 1.598.518 3.2418.928 4.8876l.199.7967h18.417l-.181-1.2074c-.238-1.5895-.419-3.1673-.536-4.6898-.116-1.5071-.175-3.1223-.175-4.8003 0-1.6783.059-3.2931.175-4.7999.117-1.5222.298-3.1003.536-4.6902l.181-1.2074h-18.417l-.199.7967Zm49.952-26.0102c1.41 2.5873 2.665 5.3218 3.732 8.1276 1.058 2.7759 1.956 5.714 2.67 8.7333l.192.8089h16.862l-.913-1.5785c-2.377-4.1031-5.39-7.7245-8.956-10.7638-3.578-3.0475-7.73-5.3461-12.344-6.8319l-2.501-.8053 1.258 2.3097Zm-12.453-3.0479c-2.11 2.9259-3.964 6.0202-5.512 9.1974-1.544 3.172-2.823 6.6013-3.802 10.1924l-.362 1.3279h21.054l-.362-1.3279c-.98-3.5947-2.259-7.0237-3.803-10.1924-1.545-3.173-3.399-6.2672-5.51-9.1974l-.852-1.181-.851 1.181Zm-11.994 1.5435c-4.614 1.4855-8.767 3.784-12.344 6.8319-3.572 3.0482-6.584 6.6693-8.956 10.7634l-.914 1.5789h16.863l.191-.8089c.709-2.9919 1.607-5.9303 2.672-8.7336 1.068-2.8098 2.324-5.5443 3.731-8.127l1.259-2.31-2.502.8053Z" fill="#7AA5E7"/><defs><linearGradient id="a" x1="145" y1="7.8e-7" x2="306" y2="171" gradientUnits="userSpaceOnUse"><stop stop-color="#7AA5E7"/><stop offset=".99716" stop-color="#003BA1"/></linearGradient></defs></svg>