<svg width="577" height="145" viewBox="0 0 577 145" fill="none" xmlns="http://www.w3.org/2000/svg">
<path d="M105.125 145H0C0 64.9187 64.9186 0 145 0V105.125C145 127.147 127.147 145 105.125 145Z" fill="#286AD8"/>
<path d="M289 0V145H216.665C176.533 145 144 112.541 144 72.5C144 32.4594 176.533 2.23036e-05 216.665 2.23036e-05L289 0Z" fill="#286AD8"/>
<path d="M360.5 145C400.541 145 433 112.541 433 72.5C433 32.4594 400.541 0 360.5 0C320.459 0 288 32.4594 288 72.5C288 112.541 320.459 145 360.5 145Z" fill="#286AD8"/>
<path style="mix-blend-mode:multiply" opacity="0.58" d="M432.517 80.8632L404.227 52.573C404.141 52.4841 404.051 52.3978 403.964 52.3093C403.877 52.2211 403.789 52.1355 403.702 52.0477C403.615 51.9585 403.526 51.8721 403.438 51.7836C403.351 51.6951 403.262 51.6088 403.175 51.5206C403.088 51.4318 402.999 51.3454 402.911 51.2569C399.537 47.8029 395.78 44.7268 391.641 42.0293C382.218 35.8892 371.792 32.8192 360.364 32.8192C348.936 32.8192 338.511 35.8892 329.088 42.0293C319.664 48.1697 312.224 56.2693 306.766 66.3345C306.339 67.1017 306.019 67.89 305.806 68.7033C305.593 69.5119 305.486 70.3409 305.486 71.1952C305.486 72.0499 305.593 72.8789 305.806 73.6925C306.019 74.5008 306.339 75.2887 306.766 76.0563C309.887 81.8132 313.661 86.9244 318.081 91.3969C318.167 91.4851 318.256 91.5711 318.342 91.6588L369.244 143.07L369.911 143.227C369.998 143.316 370.087 143.402 370.174 143.491C370.261 143.579 370.35 143.665 370.438 143.754C370.603 143.923 370.781 144.08 370.948 144.248C403.317 139.575 428.766 113.521 432.517 80.8632Z" fill="url(#paint0_linear_616_720)"/>
<path d="M344.054 86.5077C339.576 82.0253 337.338 76.5913 337.338 70.1953C337.338 63.7992 339.577 58.3652 344.054 53.8828C348.531 49.4107 353.967 47.1696 360.363 47.1696C366.76 47.1696 372.196 49.4107 376.673 53.8828C381.151 58.3652 383.389 63.7992 383.389 70.1953C383.389 76.5913 381.151 82.0253 376.673 86.5077C372.196 90.9798 366.76 93.2209 360.363 93.2209C353.967 93.2209 348.531 90.9798 344.054 86.5077ZM370.149 79.9837C372.836 77.2974 374.179 74.0329 374.179 70.1953C374.179 66.3576 372.836 63.0983 370.149 60.4119C367.463 57.7204 364.201 56.3799 360.363 56.3799C356.526 56.3799 353.264 57.7204 350.578 60.4119C347.891 63.0983 346.548 66.3576 346.548 70.1953C346.548 74.0329 347.891 77.2974 350.578 79.9837C353.264 82.6701 356.526 84.0107 360.363 84.0107C364.201 84.0107 367.463 82.6701 370.149 79.9837Z" fill="#5187DF"/>
<path d="M359.878 108.752C348.45 108.752 338.025 105.682 328.601 99.542C319.178 93.4019 311.5 85 306.279 75.2371C305.853 74.4696 305.533 73.6816 305.32 72.8732C305.107 72.0596 305 71.2307 305 70.3762C305 69.5216 305.107 68.6927 305.32 67.8843C305.533 67.0707 305.853 66.2827 306.279 65.5152C311.737 55.4503 319.178 47.3505 328.601 41.2103C338.025 35.0701 348.45 32 359.878 32C371.305 32 381.731 35.0701 391.154 41.2103C400.578 47.3505 408.019 55.4503 413.477 65.5152C413.903 66.2827 414.223 67.0707 414.436 67.8843C414.649 68.6927 414.756 69.5216 414.756 70.3762C414.756 71.2307 414.649 72.0596 414.436 72.8732C414.223 73.6816 413.903 74.4696 413.477 75.2371C408.019 85.302 400.578 93.4019 391.154 99.542C381.731 105.682 371.306 108.752 359.878 108.752ZM359.878 98.5187C369.515 98.5187 378.362 95.9807 386.421 90.9048C394.48 85.8341 400.642 78.9878 404.906 70.3762C400.642 61.7646 394.48 54.9183 386.421 49.8424C378.362 44.7716 369.515 42.2337 359.878 42.2337C350.241 42.2337 341.393 44.7716 333.334 49.8424C325.275 54.9183 319.114 61.7646 314.85 70.3762C319.114 78.9878 325.275 85.8341 333.334 90.9048C341.393 95.9807 350.241 98.5187 359.878 98.5187Z" fill="#5187DF"/>
<path d="M360.364 108.571C348.937 108.571 338.511 105.501 329.088 99.3611C319.664 93.2209 312.223 85.1211 306.766 75.0562C306.339 74.2887 306.019 73.5007 305.806 72.6923C305.593 71.8787 305.486 71.0498 305.486 70.1952C305.486 69.3407 305.593 68.5118 305.806 67.7034C306.019 66.8898 306.339 66.1018 306.766 65.3343C312.223 55.2694 319.664 47.1696 329.088 41.0294C338.511 34.8892 348.937 31.8191 360.364 31.8191C371.792 31.8191 382.218 34.8892 391.641 41.0294C401.064 47.1696 408.5 55.5 413.963 65.3343C414.39 66.1018 414.709 66.8898 414.922 67.7034C415.136 68.5118 415.242 69.3407 415.242 70.1952C415.242 71.0498 415.136 71.8787 414.922 72.6923C414.709 73.5007 414.39 74.2887 413.963 75.0562C408.505 85.1211 401.064 93.2209 391.641 99.3611C382.218 105.501 371.792 108.571 360.364 108.571ZM360.364 98.3378C370.001 98.3378 378.849 95.7998 386.908 90.7239C394.967 85.6532 401.128 78.8069 405.392 70.1953C401.128 61.5837 394.967 54.7374 386.908 49.6615C378.849 44.5907 370.001 42.0527 360.364 42.0527C350.728 42.0527 341.88 44.5907 333.821 49.6615C325.762 54.7374 319.6 61.5837 315.336 70.1953C319.6 78.8069 325.762 85.648 333.821 90.7239C341.88 95.7998 350.728 98.3378 360.364 98.3378Z" fill="#5187DF"/>
<path d="M531.344 74.2496C549.362 74.2496 563.969 59.6429 563.969 41.6247C563.969 23.6064 549.362 8.99969 531.344 8.99969C513.325 8.99969 498.719 23.6064 498.719 41.6247C498.719 59.6429 513.325 74.2496 531.344 74.2496Z" fill="#286AD8"/>
<path d="M577 145H432V0L577 145Z" fill="#286AD8"/>
<defs>
<linearGradient id="paint0_linear_616_720" x1="305.486" y1="88.5335" x2="432.517" y2="88.5335" gradientUnits="userSpaceOnUse">
<stop stop-color="#7AA5E7"/>
<stop offset="1" stop-color="#003BA1"/>
</linearGradient>
</defs>
</svg>
