<svg width="578" height="145" viewBox="0 0 578 145" fill="none" xmlns="http://www.w3.org/2000/svg">
<path d="M216.34 145C256.381 145 288.84 112.541 288.84 72.5C288.84 32.4594 256.381 0 216.34 0C176.299 0 143.84 32.4594 143.84 72.5C143.84 112.541 176.299 145 216.34 145Z" fill="#286AD8"/>
<g style="mix-blend-mode:multiply">
<mask id="mask0_574_94" style="mask-type:alpha" maskUnits="userSpaceOnUse" x="143" y="0" width="146" height="145">
<path d="M216.34 145C256.381 145 288.84 112.541 288.84 72.5C288.84 32.4594 256.381 0 216.34 0C176.299 0 143.84 32.4594 143.84 72.5C143.84 112.541 176.299 145 216.34 145Z" fill="#286AD8"/>
</mask>
<g mask="url(#mask0_574_94)">
<g style="mix-blend-mode:multiply">
<mask id="mask1_574_94" style="mask-type:luminance" maskUnits="userSpaceOnUse" x="145" y="0" width="145" height="145">
<path d="M290 0H145V145H290V0Z" fill="white"/>
</mask>
<g mask="url(#mask1_574_94)">
</g>
<mask id="mask2_574_94" style="mask-type:luminance" maskUnits="userSpaceOnUse" x="145" y="0" width="145" height="145">
<path d="M290 0H145V145H290V0Z" fill="white"/>
</mask>
<g mask="url(#mask2_574_94)">
<path opacity="0.58" d="M367.792 162.998C365.363 157.394 361.991 152.415 357.772 148.199C357.728 148.156 357.682 148.116 357.638 148.072C357.595 148.029 357.555 147.983 357.512 147.94C357.469 147.896 357.423 147.856 357.379 147.813C357.336 147.77 357.296 147.724 357.253 147.68C357.209 147.637 357.163 147.596 357.119 147.553C357.076 147.51 357.036 147.464 356.993 147.421C356.95 147.377 356.903 147.337 356.86 147.294C356.817 147.25 356.777 147.204 356.734 147.161C356.69 147.118 356.644 147.078 356.6 147.034C356.557 146.991 356.517 146.945 356.474 146.902C356.431 146.859 356.385 146.818 356.341 146.775C356.298 146.732 356.258 146.686 356.215 146.642C356.171 146.599 356.125 146.558 356.081 146.515C356.038 146.472 355.998 146.426 355.955 146.383C355.912 146.339 355.866 146.299 355.822 146.256C355.779 146.212 355.739 146.167 355.696 146.123C355.652 146.08 355.606 146.04 355.562 145.996C355.519 145.953 355.479 145.907 355.436 145.864C355.393 145.821 355.347 145.78 355.303 145.737C355.26 145.694 355.22 145.648 355.177 145.604C355.133 145.561 355.087 145.521 355.044 145.477C355 145.434 354.96 145.388 354.917 145.345C354.874 145.301 354.827 145.261 354.784 145.217C354.741 145.174 354.701 145.128 354.658 145.085C354.614 145.042 354.568 145.002 354.525 144.958C354.481 144.915 354.441 144.869 354.398 144.826C354.355 144.783 354.309 144.742 354.266 144.699C354.222 144.656 354.182 144.61 354.139 144.566C354.095 144.523 354.049 144.483 354.006 144.439C353.962 144.396 353.922 144.35 353.879 144.307C353.836 144.263 353.789 144.223 353.746 144.179C353.703 144.136 353.663 144.09 353.62 144.047C353.576 144.004 353.53 143.964 353.487 143.92C353.444 143.877 353.403 143.831 353.36 143.788C353.317 143.744 353.271 143.704 353.227 143.661C353.184 143.618 353.144 143.572 353.101 143.528C353.057 143.485 353.012 143.445 352.968 143.402C352.925 143.358 352.885 143.312 352.841 143.269C352.798 143.225 352.751 143.185 352.708 143.141C352.665 143.098 352.625 143.052 352.582 143.009C352.538 142.966 352.492 142.926 352.449 142.882C352.406 142.839 352.366 142.793 352.322 142.75C352.279 142.707 352.233 142.666 352.189 142.623C352.146 142.58 352.106 142.534 352.063 142.49C352.02 142.447 351.974 142.407 351.93 142.364C351.887 142.32 351.847 142.274 351.803 142.231C351.76 142.187 351.713 142.147 351.67 142.103C351.627 142.06 351.587 142.014 351.544 141.971C351.5 141.928 351.454 141.888 351.411 141.844C351.368 141.801 351.328 141.755 351.284 141.712C351.241 141.669 351.195 141.628 351.151 141.585C351.108 141.542 351.068 141.496 351.025 141.452C350.982 141.409 350.936 141.369 350.892 141.326C350.849 141.282 350.809 141.236 350.765 141.193C350.722 141.149 350.675 141.109 350.632 141.065C350.589 141.022 350.549 140.976 350.506 140.933C350.462 140.89 350.416 140.85 350.373 140.806C350.33 140.763 350.29 140.717 350.246 140.674C350.203 140.631 350.157 140.59 350.113 140.547C350.07 140.504 350.03 140.458 349.987 140.414C349.944 140.371 349.898 140.331 349.854 140.288C349.811 140.244 349.771 140.198 349.727 140.155C349.684 140.111 349.638 140.071 349.594 140.028C349.551 139.984 349.511 139.939 349.468 139.895C349.424 139.852 349.378 139.812 349.335 139.768C349.292 139.725 349.252 139.679 349.208 139.636C349.165 139.593 349.119 139.552 349.075 139.509C349.032 139.466 348.992 139.42 348.949 139.377C348.906 139.333 348.86 139.293 348.816 139.25C348.773 139.206 348.733 139.16 348.689 139.117C348.646 139.074 348.6 139.033 348.556 138.99C348.513 138.947 348.473 138.901 348.43 138.858C348.386 138.814 348.34 138.773 348.296 138.73C348.253 138.687 348.214 138.641 348.17 138.598C348.127 138.555 348.081 138.514 348.037 138.471C347.994 138.428 347.954 138.382 347.911 138.339C347.868 138.295 347.822 138.255 347.778 138.212C347.735 138.169 347.695 138.122 347.651 138.079C347.608 138.036 347.562 137.995 347.518 137.952C347.475 137.909 347.435 137.863 347.392 137.82C347.348 137.776 347.302 137.736 347.258 137.692C347.216 137.649 347.176 137.603 347.132 137.56C347.089 137.517 347.043 137.476 346.999 137.433C346.956 137.39 346.916 137.344 346.873 137.301C346.83 137.257 346.783 137.217 346.74 137.174C346.697 137.13 346.657 137.084 346.614 137.041C346.57 136.998 346.524 136.958 346.481 136.915C346.438 136.871 346.397 136.825 346.354 136.782C346.311 136.738 346.264 136.698 346.22 136.654C346.178 136.611 346.138 136.565 346.094 136.522C346.051 136.479 346.005 136.438 345.961 136.395C345.918 136.352 345.878 136.306 345.835 136.263C345.792 136.219 345.745 136.179 345.702 136.136C345.659 136.092 345.619 136.046 345.576 136.003C345.532 135.96 345.486 135.92 345.443 135.877C345.4 135.833 345.359 135.787 345.316 135.744C345.272 135.7 345.226 135.66 345.182 135.616C345.14 135.573 345.1 135.527 345.056 135.484C345.013 135.441 344.967 135.4 344.923 135.357C344.88 135.314 344.84 135.268 344.797 135.225C344.754 135.181 344.708 135.141 344.664 135.098C344.621 135.054 344.581 135.008 344.538 134.965C344.494 134.922 344.448 134.882 344.405 134.839C344.362 134.795 344.321 134.749 344.278 134.706C344.234 134.662 344.188 134.622 344.145 134.578C344.102 134.535 344.062 134.489 344.019 134.446C343.975 134.403 343.929 134.362 343.886 134.319C343.842 134.276 343.802 134.23 343.759 134.187C343.716 134.143 343.67 134.103 343.626 134.06C343.583 134.016 343.543 133.97 343.5 133.927C343.456 133.884 343.41 133.844 343.367 133.801C343.324 133.757 343.284 133.711 343.24 133.668C343.197 133.624 343.15 133.584 343.107 133.54C343.064 133.497 343.024 133.451 342.981 133.408C342.937 133.365 342.891 133.324 342.848 133.281C342.804 133.238 342.764 133.192 342.721 133.149C342.678 133.105 342.632 133.065 342.588 133.022C342.545 132.978 342.505 132.932 342.462 132.889C342.418 132.846 342.372 132.806 342.329 132.763C342.286 132.719 342.246 132.673 342.202 132.63C342.159 132.586 342.113 132.546 342.069 132.503C342.026 132.459 341.986 132.413 341.943 132.37C341.899 132.327 341.853 132.286 341.809 132.243C341.766 132.2 341.726 132.154 341.683 132.111C341.64 132.067 341.594 132.027 341.55 131.984C341.507 131.94 341.467 131.894 341.424 131.851C341.38 131.808 341.334 131.768 341.291 131.725C341.248 131.681 341.208 131.635 341.164 131.592C341.121 131.548 341.075 131.508 341.031 131.465C340.988 131.421 340.948 131.375 340.905 131.332C340.861 131.289 340.815 131.248 340.771 131.205C340.728 131.162 340.688 131.116 340.645 131.073C340.602 131.029 340.556 130.989 340.512 130.946C340.469 130.902 340.429 130.856 340.386 130.813C340.342 130.77 340.296 130.73 340.253 130.686C340.21 130.643 340.169 130.597 340.126 130.554C340.083 130.51 340.037 130.47 339.994 130.427C339.95 130.384 339.91 130.338 339.867 130.294C339.823 130.251 339.777 130.21 339.733 130.167C339.69 130.124 339.65 130.078 339.607 130.035C339.564 129.991 339.518 129.951 339.474 129.908C339.431 129.864 339.391 129.819 339.348 129.775C339.304 129.732 339.258 129.692 339.215 129.648C339.172 129.605 339.131 129.559 339.088 129.516C339.045 129.473 338.999 129.432 338.956 129.389C338.912 129.346 338.872 129.3 338.829 129.256C338.785 129.213 338.739 129.172 338.695 129.129C338.652 129.086 338.612 129.04 338.569 128.997C338.526 128.953 338.48 128.913 338.436 128.87C338.393 128.826 338.353 128.781 338.31 128.737C338.266 128.694 338.22 128.654 338.177 128.61C338.134 128.567 338.094 128.521 338.05 128.478C338.007 128.435 337.961 128.394 337.918 128.351C337.874 128.308 337.834 128.262 337.791 128.218C337.747 128.175 337.701 128.134 337.657 128.091C337.614 128.048 337.574 128.002 337.531 127.959C337.488 127.915 337.442 127.875 337.398 127.832C337.355 127.788 337.315 127.743 337.272 127.699C337.228 127.656 337.182 127.616 337.139 127.572C337.096 127.529 337.056 127.483 337.012 127.44C336.969 127.397 336.923 127.356 336.88 127.313C336.837 127.27 336.796 127.224 336.753 127.18C336.709 127.137 336.663 127.096 336.619 127.053C336.576 127.01 336.536 126.964 336.493 126.921C336.45 126.877 336.404 126.837 336.36 126.794C336.317 126.751 336.277 126.705 336.234 126.661C336.191 126.618 336.144 126.578 336.101 126.534C336.058 126.491 336.018 126.445 335.974 126.402C335.931 126.359 335.885 126.318 335.842 126.275C335.799 126.232 335.758 126.186 335.715 126.142C335.672 126.099 335.625 126.059 335.582 126.015C335.539 125.972 335.499 125.926 335.455 125.883C335.412 125.839 335.366 125.799 335.322 125.755C335.279 125.712 335.239 125.666 335.196 125.623C335.153 125.58 335.106 125.54 335.063 125.496C335.02 125.453 334.98 125.407 334.936 125.364C334.893 125.321 334.847 125.281 334.804 125.237C334.761 125.194 334.72 125.148 334.677 125.104C334.634 125.061 334.587 125.021 334.544 124.977C334.501 124.934 334.461 124.888 334.417 124.845C334.374 124.801 334.328 124.761 334.284 124.717C334.241 124.674 334.201 124.628 334.158 124.585C334.115 124.542 334.068 124.502 334.025 124.458C333.982 124.415 333.942 124.369 333.898 124.326C333.855 124.283 333.809 124.242 333.765 124.199C333.722 124.156 333.682 124.11 333.639 124.066C333.596 124.023 333.55 123.983 333.506 123.94C333.463 123.896 333.423 123.85 333.379 123.807C333.336 123.763 333.29 123.723 333.246 123.68C333.203 123.636 333.163 123.59 333.12 123.547C333.077 123.504 333.031 123.464 332.987 123.42C332.944 123.377 332.904 123.331 332.861 123.288C332.817 123.245 332.771 123.204 332.727 123.161C332.684 123.118 332.644 123.072 332.601 123.029C332.558 122.985 332.512 122.945 332.468 122.902C332.425 122.858 332.385 122.812 332.342 122.769C332.298 122.725 332.252 122.685 332.208 122.642C332.165 122.598 332.125 122.553 332.082 122.509C332.039 122.466 331.993 122.426 331.949 122.382C331.906 122.339 331.866 122.293 331.823 122.25C331.779 122.207 331.733 122.166 331.689 122.123C331.646 122.08 331.606 122.034 331.563 121.991C331.52 121.947 331.474 121.907 331.431 121.864C331.387 121.82 331.347 121.774 331.304 121.731C331.26 121.687 331.214 121.647 331.17 121.604C331.127 121.56 331.087 121.515 331.044 121.472C331.001 121.428 330.954 121.388 330.911 121.345C330.868 121.301 330.828 121.255 330.785 121.212C330.741 121.169 330.695 121.128 330.651 121.085C330.608 121.042 330.568 120.996 330.525 120.953C330.482 120.909 330.436 120.869 330.393 120.826C330.349 120.783 330.309 120.736 330.266 120.693C330.222 120.649 330.176 120.609 330.132 120.566C330.089 120.522 330.049 120.477 330.006 120.434C329.963 120.39 329.917 120.35 329.873 120.307C329.83 120.263 329.79 120.217 329.747 120.174C329.703 120.131 329.657 120.09 329.614 120.047C329.57 120.004 329.53 119.958 329.487 119.915C329.444 119.871 329.398 119.831 329.355 119.788C329.311 119.745 329.271 119.698 329.228 119.655C329.184 119.612 329.138 119.571 329.095 119.528C329.051 119.485 329.011 119.439 328.968 119.396C328.925 119.352 328.878 119.312 328.835 119.268C328.792 119.225 328.752 119.179 328.709 119.136C328.665 119.093 328.619 119.052 328.576 119.009C328.533 118.966 328.492 118.92 328.449 118.877C328.406 118.833 328.36 118.793 328.317 118.75C328.273 118.707 328.233 118.66 328.19 118.617C328.146 118.574 328.1 118.533 328.057 118.49C328.014 118.447 327.973 118.401 327.93 118.358C327.887 118.314 327.84 118.274 327.797 118.23C327.754 118.187 327.714 118.141 327.671 118.098C327.627 118.055 327.581 118.014 327.538 117.971C327.495 117.928 327.454 117.882 327.411 117.839C327.368 117.795 327.322 117.755 327.278 117.712C327.235 117.668 327.195 117.622 327.152 117.579C327.109 117.536 327.063 117.496 327.019 117.453C326.976 117.409 326.936 117.363 326.892 117.32C326.849 117.276 326.802 117.236 326.759 117.192C326.716 117.149 326.676 117.103 326.633 117.06C326.589 117.017 326.543 116.976 326.5 116.933C326.457 116.89 326.417 116.844 326.373 116.801C326.33 116.757 326.284 116.717 326.24 116.674C326.197 116.63 326.157 116.584 326.114 116.541C326.071 116.498 326.025 116.458 325.981 116.415C325.938 116.371 325.898 116.325 325.854 116.282C325.811 116.238 325.764 116.198 325.721 116.154C325.678 116.111 325.638 116.065 325.595 116.022C325.551 115.979 325.505 115.938 325.462 115.895C325.419 115.852 325.379 115.806 325.335 115.763C325.292 115.719 325.246 115.679 325.202 115.636C325.159 115.592 325.119 115.546 325.076 115.503C325.033 115.46 324.987 115.42 324.943 115.377C324.9 115.333 324.86 115.287 324.816 115.244C324.773 115.2 324.726 115.16 324.683 115.116C324.64 115.073 324.6 115.027 324.557 114.984C324.513 114.941 324.467 114.9 324.424 114.857C324.381 114.814 324.341 114.768 324.297 114.725C324.254 114.681 324.208 114.641 324.164 114.598C324.121 114.554 324.081 114.508 324.038 114.465C323.995 114.422 323.949 114.382 323.905 114.339C323.862 114.295 323.822 114.249 323.778 114.206C323.735 114.162 323.689 114.122 323.645 114.078C323.602 114.035 323.562 113.989 323.519 113.946C323.475 113.903 323.429 113.862 323.386 113.819C323.343 113.776 323.303 113.73 323.259 113.687C323.216 113.643 323.17 113.603 323.126 113.56C323.083 113.516 323.043 113.47 323 113.427C322.957 113.384 322.911 113.344 322.867 113.301C322.824 113.257 322.784 113.211 322.74 113.168C322.697 113.124 322.651 113.084 322.607 113.041C322.564 112.997 322.524 112.951 322.481 112.908C322.437 112.865 322.391 112.824 322.347 112.781C322.304 112.738 322.265 112.692 322.221 112.649C322.178 112.605 322.132 112.565 322.088 112.522C322.045 112.478 322.005 112.433 321.962 112.389C321.919 112.346 321.873 112.306 321.829 112.263C321.786 112.219 321.746 112.173 321.702 112.13C321.659 112.086 321.613 112.046 321.569 112.003C321.526 111.959 321.486 111.914 321.443 111.87C321.399 111.827 321.353 111.786 321.309 111.743C321.267 111.7 321.227 111.654 321.184 111.611C321.14 111.567 321.094 111.527 321.05 111.484C321.007 111.44 320.967 111.395 320.924 111.351C320.881 111.308 320.834 111.268 320.791 111.224C320.748 111.181 320.708 111.135 320.665 111.092C320.621 111.049 320.575 111.008 320.532 110.965C320.489 110.922 320.448 110.876 320.405 110.832C320.362 110.789 320.315 110.748 320.271 110.705C320.229 110.662 320.189 110.616 320.146 110.573C320.102 110.529 320.056 110.489 320.012 110.446C319.969 110.403 319.929 110.357 319.886 110.313C319.843 110.27 319.796 110.23 319.753 110.186C319.71 110.143 319.67 110.097 319.627 110.054C319.583 110.011 319.537 109.97 319.494 109.927C319.451 109.884 319.41 109.838 319.367 109.794C319.324 109.751 319.277 109.71 319.234 109.667C319.191 109.624 319.151 109.578 319.107 109.535C319.064 109.491 319.018 109.451 318.974 109.408C318.931 109.365 318.891 109.319 318.848 109.275C318.805 109.232 318.759 109.192 318.715 109.148C318.672 109.105 318.632 109.059 318.589 109.016C318.545 108.973 318.499 108.933 318.456 108.889C318.413 108.846 318.372 108.8 318.329 108.756C318.286 108.713 318.239 108.672 318.196 108.629C318.153 108.586 318.113 108.54 318.07 108.497C318.026 108.453 317.98 108.413 317.937 108.37C317.893 108.327 317.853 108.281 317.81 108.237C317.767 108.194 317.721 108.154 317.677 108.11C317.634 108.067 317.594 108.021 317.551 107.978C317.507 107.935 317.461 107.895 317.418 107.851C317.375 107.808 317.335 107.762 317.291 107.718C317.248 107.675 317.201 107.634 317.158 107.591C317.115 107.548 317.075 107.502 317.032 107.459C316.988 107.416 316.942 107.375 316.899 107.332C316.856 107.289 316.815 107.243 316.772 107.199C316.729 107.156 316.683 107.116 316.639 107.072C316.596 107.029 316.556 106.983 316.513 106.94C316.469 106.897 316.424 106.857 316.38 106.813C316.337 106.77 316.297 106.724 316.253 106.68C316.21 106.637 316.164 106.597 316.12 106.553C316.077 106.51 316.037 106.464 315.994 106.421C315.95 106.377 315.904 106.337 315.86 106.294C315.817 106.25 315.777 106.205 315.734 106.161C315.691 106.118 315.645 106.078 315.601 106.034C315.558 105.991 315.518 105.945 315.475 105.902C315.432 105.859 315.386 105.819 315.342 105.775C315.299 105.732 315.259 105.686 315.215 105.642C315.172 105.599 315.126 105.559 315.082 105.515C315.039 105.472 314.999 105.426 314.956 105.383C314.912 105.339 314.866 105.299 314.822 105.256C314.779 105.212 314.739 105.167 314.696 105.124C314.653 105.08 314.607 105.04 314.563 104.997C314.52 104.953 314.48 104.907 314.437 104.864C314.393 104.821 314.347 104.78 314.304 104.737C314.261 104.694 314.221 104.648 314.177 104.605C314.134 104.561 314.088 104.521 314.045 104.478C314.002 104.435 313.961 104.388 313.918 104.345C313.874 104.301 313.828 104.261 313.784 104.218C313.741 104.174 313.701 104.129 313.658 104.086C313.615 104.042 313.569 104.002 313.525 103.959C313.482 103.915 313.442 103.869 313.399 103.826C313.355 103.783 313.309 103.742 313.266 103.699C313.223 103.656 313.183 103.61 313.139 103.567C313.096 103.523 313.05 103.483 313.007 103.44C312.964 103.397 312.923 103.35 312.88 103.307C312.836 103.263 312.79 103.223 312.746 103.18C312.703 103.136 312.663 103.091 312.62 103.048C312.577 103.004 312.531 102.964 312.487 102.921C312.444 102.877 312.404 102.831 312.361 102.788C312.317 102.745 312.271 102.704 312.228 102.661C312.185 102.618 312.145 102.572 312.101 102.529C312.058 102.485 312.012 102.445 311.969 102.402C311.926 102.359 311.885 102.312 311.842 102.269C311.798 102.225 311.752 102.185 311.708 102.142C311.665 102.098 311.626 102.053 311.582 102.01C311.539 101.966 311.493 101.926 311.449 101.883C311.406 101.839 311.366 101.793 311.323 101.75C311.28 101.707 311.233 101.666 311.19 101.623C311.147 101.58 311.107 101.534 311.063 101.491C311.02 101.447 310.974 101.407 310.931 101.364C310.888 101.321 310.847 101.274 310.804 101.231C310.76 101.188 310.714 101.147 310.67 101.104C310.628 101.06 310.587 101.015 310.544 100.972C310.501 100.928 310.455 100.888 310.411 100.845C310.368 100.801 310.328 100.755 310.285 100.712C310.242 100.669 310.195 100.628 310.152 100.585C310.109 100.542 310.069 100.496 310.026 100.453C309.982 100.409 309.936 100.369 309.893 100.326C309.85 100.283 309.809 100.236 309.766 100.193C309.723 100.15 309.676 100.109 309.633 100.066C309.59 100.023 309.55 99.9769 309.507 99.9337C309.463 99.8901 309.417 99.8496 309.373 99.8062C309.33 99.763 309.29 99.7172 309.247 99.6742C309.204 99.6308 309.157 99.5904 309.114 99.5472C309.071 99.5038 309.031 99.4579 308.988 99.4147C308.944 99.3714 308.898 99.3313 308.855 99.2882C308.812 99.2447 308.771 99.1985 308.728 99.1552C308.685 99.1117 308.638 99.0714 308.595 99.0282C308.552 98.9848 308.512 98.9389 308.469 98.8957C308.425 98.8521 308.379 98.8117 308.335 98.7682C308.292 98.725 308.252 98.6792 308.209 98.6362C308.166 98.5928 308.119 98.5524 308.076 98.5092C308.033 98.4659 307.993 98.4199 307.95 98.3767C307.906 98.3333 307.86 98.293 307.816 98.2497C307.773 98.2064 307.733 98.1604 307.69 98.1172C307.647 98.074 307.601 98.0338 307.557 97.9907C307.514 97.9472 307.474 97.9011 307.431 97.8577C307.387 97.8141 307.341 97.7737 307.297 97.7303C307.254 97.6871 307.214 97.6413 307.171 97.5982C307.128 97.5548 307.082 97.5145 307.038 97.4712C306.995 97.4279 306.955 97.382 306.912 97.3388C306.868 97.2953 306.822 97.255 306.779 97.2117C306.735 97.1684 306.695 97.1225 306.652 97.0793C306.609 97.036 306.563 96.9959 306.52 96.9527C306.476 96.9092 306.436 96.8631 306.393 96.8197C306.349 96.7761 306.303 96.7357 306.259 96.6923C306.216 96.6491 306.176 96.6033 306.133 96.5603C306.09 96.5168 306.044 96.4765 306 96.4333C305.957 96.3899 305.917 96.344 305.874 96.3008C305.83 96.2574 305.784 96.217 305.741 96.1738C305.698 96.1304 305.657 96.0845 305.614 96.0413C305.571 95.998 305.525 95.9579 305.482 95.9148C305.438 95.8713 305.398 95.8251 305.355 95.7818C305.311 95.7382 305.265 95.6977 305.221 95.6543C305.178 95.6111 305.138 95.5653 305.095 95.5223C305.052 95.4789 305.006 95.4385 304.962 95.3953C304.919 95.3519 304.879 95.306 304.836 95.2628C304.792 95.2194 304.746 95.179 304.703 95.1358C304.66 95.0925 304.619 95.0465 304.576 95.0033C304.533 94.96 304.487 94.9199 304.444 94.8768C304.4 94.8333 304.36 94.7871 304.317 94.7438C304.273 94.7002 304.227 94.6598 304.183 94.6164C304.14 94.5731 304.1 94.5274 304.057 94.4843C304.014 94.4409 303.968 94.4006 303.924 94.3573C303.881 94.314 303.841 94.268 303.798 94.2248C303.754 94.1814 303.708 94.1411 303.665 94.0978C303.622 94.0545 303.581 94.0086 303.538 93.9654C303.495 93.9221 303.449 93.882 303.406 93.8388C303.362 93.7953 303.322 93.7492 303.279 93.7058C303.235 93.6624 303.189 93.6221 303.146 93.5788C303.103 93.5355 303.063 93.4896 303.019 93.4464C302.976 93.4027 302.929 93.3623 302.886 93.3189C302.843 93.2757 302.803 93.2299 302.76 93.1869C302.716 93.1434 302.67 93.1031 302.627 93.0599C302.584 93.0165 302.543 92.9706 302.5 92.9274C302.457 92.8841 302.411 92.844 302.368 92.8009C302.324 92.7573 302.284 92.7112 302.241 92.6679C302.197 92.6244 302.151 92.5841 302.108 92.5408C302.065 92.4975 302.025 92.4516 301.981 92.4084C301.938 92.3648 301.891 92.3243 301.848 92.2809C301.805 92.2377 301.765 92.1919 301.722 92.1489C301.678 92.1055 301.632 92.0651 301.589 92.0219C301.546 91.9785 301.506 91.9326 301.462 91.8894C301.419 91.846 301.373 91.8056 301.329 91.7624C301.286 91.7191 301.246 91.6731 301.203 91.6299C301.16 91.5866 301.114 91.5465 301.07 91.5034C301.027 91.4599 300.987 91.4137 300.943 91.3704C300.9 91.3268 300.853 91.2864 300.81 91.243C300.767 91.1997 300.727 91.154 300.684 91.1109C300.64 91.0675 300.594 91.0272 300.551 90.9839C300.508 90.9406 300.468 90.8946 300.424 90.8514C300.381 90.808 300.335 90.7677 300.291 90.7244C300.248 90.6811 300.208 90.6352 300.165 90.592C300.122 90.5487 300.076 90.5085 300.032 90.4654C299.989 90.4219 299.949 90.3758 299.905 90.3324C299.862 90.2888 299.815 90.2484 299.772 90.205C299.729 90.1618 299.689 90.116 299.646 90.073C299.603 90.0295 299.556 89.9892 299.513 89.9459C299.47 89.9026 299.43 89.8567 299.386 89.8135C299.343 89.7701 299.297 89.7297 299.253 89.6865C299.21 89.6431 299.17 89.5972 299.127 89.554C299.084 89.5107 299.038 89.4706 298.994 89.4275C298.951 89.384 298.911 89.3378 298.867 89.2945C298.824 89.2509 298.778 89.2104 298.734 89.167C298.691 89.1238 298.651 89.078 298.608 89.035C298.565 88.9916 298.518 88.9512 298.475 88.908C298.432 88.8646 298.392 88.8187 298.348 88.7755C298.305 88.7321 298.259 88.6917 298.215 88.6485C298.172 88.6052 298.132 88.5592 298.089 88.516C298.046 88.4727 298 88.4326 297.956 88.3895C297.913 88.346 297.873 88.2998 297.829 88.2565C297.786 88.2129 297.74 88.1725 297.696 88.129C297.653 88.0858 297.613 88.04 297.57 87.997C297.527 87.9536 297.48 87.9132 297.437 87.87C297.394 87.8267 297.354 87.7807 297.31 87.7375C297.267 87.6941 297.221 87.6538 297.177 87.6105C297.134 87.5672 297.094 87.5213 297.051 87.4781C297.008 87.4348 296.962 87.3946 296.918 87.3515C296.875 87.308 296.835 87.2619 296.791 87.2185C296.748 87.1751 296.702 87.1348 296.658 87.0915C296.615 87.0482 296.575 87.0022 296.532 86.959C296.488 86.9154 296.442 86.875 296.399 86.8316C296.356 86.7884 296.316 86.7426 296.272 86.6996C296.229 86.6561 296.183 86.6158 296.139 86.5725C296.096 86.5292 296.056 86.4833 296.013 86.4401C295.97 86.3968 295.924 86.3567 295.88 86.3135C295.837 86.27 295.797 86.2239 295.754 86.1806C295.71 86.1371 295.664 86.0968 295.621 86.0535C295.577 86.0102 295.537 85.9643 295.494 85.9211C295.451 85.8775 295.404 85.837 295.36 85.7936C295.318 85.7504 295.278 85.7046 295.235 85.6616C295.191 85.6182 295.145 85.5778 295.101 85.5346C295.058 85.4912 295.018 85.4453 294.975 85.4021C294.932 85.3587 294.886 85.3183 294.842 85.2751C294.799 85.2318 294.759 85.1858 294.716 85.1426C294.672 85.0993 294.626 85.0592 294.583 85.0161C294.54 84.9726 294.5 84.9264 294.456 84.8831C294.413 84.8395 294.366 84.7991 294.322 84.7556C294.28 84.7124 294.24 84.6666 294.197 84.6236C294.153 84.5802 294.107 84.5399 294.063 84.4966C294.02 84.4533 293.98 84.4073 293.937 84.3641C293.894 84.3207 293.848 84.2804 293.804 84.2371C293.761 84.1938 293.721 84.1479 293.678 84.1047C293.634 84.0614 293.588 84.0212 293.545 83.9781C293.502 83.9346 293.462 83.8885 293.418 83.8451C293.375 83.8015 293.328 83.7611 293.285 83.7177C293.242 83.6745 293.202 83.6287 293.159 83.5856C293.115 83.5422 293.069 83.5019 293.026 83.4586C292.982 83.4153 292.942 83.3694 292.899 83.3262C292.856 83.2827 292.81 83.2424 292.766 83.1992C292.723 83.1558 292.683 83.1099 292.64 83.0667C292.596 83.0234 292.55 82.9833 292.507 82.9401C292.464 82.8966 292.424 82.8505 292.38 82.8072C292.337 82.7636 292.29 82.7231 292.247 82.6797C292.204 82.6365 292.164 82.5907 292.121 82.5477C292.077 82.5043 292.031 82.4639 291.988 82.4207C291.945 82.3773 291.904 82.3314 291.861 82.2882C291.818 82.2448 291.772 82.2044 291.728 82.1612C291.685 82.1178 291.645 82.0719 291.602 82.0287C291.558 81.9854 291.512 81.9453 291.469 81.9022C291.426 81.8587 291.386 81.8125 291.342 81.7692C291.299 81.7256 291.252 81.6852 291.209 81.6417C291.166 81.5985 291.126 81.5527 291.083 81.5097C291.039 81.4663 290.993 81.4259 290.95 81.3827C290.907 81.3394 290.866 81.2934 290.823 81.2502C290.78 81.2068 290.734 81.1665 290.69 81.1232C290.647 81.0799 290.607 81.0339 290.564 80.9907C290.52 80.9474 290.475 80.9073 290.431 80.8642C290.388 80.8207 290.348 80.7746 290.304 80.7312C290.261 80.6878 290.215 80.6474 290.171 80.6042C290.128 80.5609 290.088 80.5149 290.045 80.4717C290.001 80.4281 289.955 80.3877 289.911 80.3443C289.868 80.3011 289.828 80.2553 289.785 80.2122C289.742 80.1688 289.696 80.1285 289.652 80.0852C289.609 80.0419 289.569 79.996 289.526 79.9528C289.483 79.9095 289.437 79.8694 289.393 79.8262C289.35 79.7827 289.31 79.7366 289.266 79.6932C289.223 79.6498 289.177 79.6095 289.133 79.5662C289.09 79.5229 289.05 79.477 289.007 79.4338C288.963 79.3902 288.917 79.3497 288.873 79.3063C288.83 79.2631 288.79 79.2173 288.747 79.1743C288.704 79.1309 288.658 79.0905 288.614 79.0473C288.571 79.0039 288.531 78.958 288.488 78.9148C288.444 78.8714 288.398 78.831 288.355 78.7878C288.312 78.7444 288.272 78.6985 288.228 78.6553C288.185 78.612 288.139 78.5719 288.096 78.5288C288.053 78.4853 288.012 78.4391 287.969 78.3958C287.925 78.3522 287.879 78.3118 287.835 78.2683C287.792 78.2251 287.752 78.1793 287.709 78.1363C287.666 78.0929 287.62 78.0525 287.576 78.0093C287.533 77.966 287.493 77.92 287.45 77.8768C287.406 77.8334 287.36 77.7931 287.317 77.7498C287.274 77.7065 287.234 77.6605 287.19 77.6173C287.147 77.5741 287.101 77.5339 287.058 77.4908C287.015 77.4473 286.974 77.4011 286.931 77.3578C286.887 77.3142 286.841 77.2738 286.797 77.2304C286.754 77.1872 286.714 77.1414 286.671 77.0983C286.628 77.0549 286.582 77.0146 286.538 76.9713C286.495 76.928 286.455 76.8821 286.412 76.8389C286.368 76.7954 286.322 76.7551 286.279 76.7118C286.236 76.6685 286.196 76.6226 286.152 76.5794C286.109 76.5361 286.063 76.496 286.02 76.4528C285.977 76.4093 285.936 76.3632 285.893 76.3198C285.849 76.2762 285.803 76.2358 285.759 76.1924C285.716 76.1492 285.677 76.1034 285.633 76.0604C285.59 76.0169 285.544 75.9766 285.5 75.9333C285.457 75.89 285.417 75.8441 285.374 75.8009C285.331 75.7575 285.284 75.7171 285.241 75.6739C285.198 75.6305 285.158 75.5846 285.114 75.5414C285.071 75.4981 285.025 75.458 284.982 75.4149C284.939 75.3714 284.898 75.3252 284.855 75.2819C284.811 75.2383 284.765 75.1978 284.721 75.1544C284.679 75.1112 284.639 75.0654 284.595 75.0224C284.552 74.979 284.506 74.9386 284.462 74.8954C284.419 74.852 284.379 74.8061 284.336 74.7629C284.293 74.7195 284.246 74.6791 284.203 74.6359C284.16 74.5926 284.12 74.5466 284.077 74.5034C284.033 74.4601 283.987 74.42 283.944 74.3769C283.901 74.3334 283.86 74.2872 283.817 74.2439C283.774 74.2005 283.727 74.1601 283.684 74.1169C283.641 74.0736 283.601 74.0276 283.558 73.9844C283.514 73.9408 283.468 73.9004 283.424 73.857C283.381 73.8138 283.341 73.768 283.298 73.7249C283.255 73.6815 283.208 73.6412 283.165 73.5979C283.122 73.5546 283.082 73.5087 283.039 73.4655C282.995 73.4222 282.949 73.382 282.906 73.3389C282.863 73.2954 282.822 73.2493 282.779 73.2059C282.736 73.1625 282.689 73.1222 282.646 73.0789C282.603 73.0356 282.563 72.9897 282.52 72.9464C282.476 72.9028 282.43 72.8624 282.386 72.819C282.343 72.7758 282.303 72.73 282.26 72.687C282.217 72.6435 282.171 72.6032 282.127 72.56C282.084 72.5166 282.044 72.4707 282.001 72.4275C281.957 72.3841 281.911 72.3437 281.867 72.3005C281.824 72.2571 281.784 72.2112 281.741 72.168C281.698 72.1247 281.652 72.0846 281.608 72.0415C281.565 71.998 281.525 71.9518 281.482 71.9085C281.438 71.8649 281.392 71.8244 281.348 71.781C281.305 71.7378 281.265 71.692 281.222 71.649C281.179 71.6056 281.133 71.5652 281.089 71.522C281.046 71.4786 281.006 71.4327 280.963 71.3895C280.919 71.3461 280.873 71.3058 280.83 71.2625C280.786 71.2192 280.746 71.1732 280.703 71.13C280.66 71.0867 280.614 71.0466 280.571 71.0035C280.527 70.96 280.487 70.9138 280.444 70.8705C280.4 70.8269 280.354 70.7865 280.31 70.7431C280.267 70.6999 280.227 70.6541 280.184 70.611C280.141 70.5676 280.095 70.5273 280.051 70.484C280.008 70.4407 279.968 70.3948 279.925 70.3515C279.881 70.3081 279.835 70.2678 279.792 70.2245C279.749 70.1812 279.708 70.1353 279.665 70.0921C279.622 70.0488 279.576 70.0087 279.533 69.9655C279.489 69.922 279.449 69.8759 279.406 69.8325C279.362 69.7889 279.316 69.7485 279.272 69.7051C279.229 69.6619 279.189 69.6161 279.146 69.5731C279.103 69.5296 279.057 69.4893 279.013 69.446C278.97 69.4027 278.93 69.3568 278.887 69.3136C278.843 69.2701 278.797 69.2298 278.754 69.1866C278.711 69.1432 278.671 69.0973 278.627 69.0541C278.584 69.0108 278.538 68.9707 278.495 68.9276C278.451 68.8841 278.411 68.8379 278.368 68.7946C278.324 68.751 278.278 68.7105 278.234 68.6671C278.191 68.6239 278.151 68.5781 278.108 68.5351C278.065 68.4917 278.019 68.4513 277.975 68.4081C277.932 68.3647 277.892 68.3188 277.849 68.2756C277.805 68.2322 277.759 68.1918 277.716 68.1486C277.673 68.1053 277.632 68.0593 277.589 68.0161C277.546 67.9728 277.5 67.9327 277.457 67.8896C277.413 67.8461 277.373 67.7999 277.33 67.7566C277.286 67.7132 277.24 67.6728 277.197 67.6296C277.154 67.5862 277.114 67.5403 277.07 67.4971C277.027 67.4535 276.98 67.4131 276.937 67.3697C276.894 67.3265 276.854 67.2807 276.811 67.2376C276.767 67.1942 276.721 67.1539 276.678 67.1106C276.635 67.0673 276.595 67.0214 276.551 66.9781C276.508 66.9349 276.462 66.8947 276.419 66.8516C276.376 66.8081 276.335 66.762 276.292 66.7186C276.248 66.6752 276.202 66.6349 276.159 66.5916C276.116 66.5483 276.076 66.5023 276.032 66.4591C275.989 66.4155 275.942 66.3751 275.899 66.3317C275.856 66.2885 275.816 66.2427 275.773 66.1997C275.729 66.1562 275.683 66.1159 275.64 66.0726C275.597 66.0293 275.557 65.9834 275.513 65.9402C275.47 65.8968 275.424 65.8564 275.38 65.8132C275.337 65.7698 275.297 65.7239 275.254 65.6807C275.211 65.6374 275.165 65.5973 275.121 65.5542C275.078 65.5107 275.038 65.4645 274.994 65.4212C274.951 65.3776 274.904 65.3371 274.861 65.2937C274.818 65.2505 274.778 65.2047 274.735 65.1617C274.692 65.1183 274.645 65.0779 274.602 65.0347C274.559 64.9913 274.519 64.9454 274.475 64.9022C274.432 64.8588 274.386 64.8184 274.342 64.7752C274.299 64.7319 274.259 64.6859 274.216 64.6427C274.173 64.5994 274.127 64.5593 274.083 64.5162C274.04 64.4727 274 64.4265 273.956 64.3832C273.913 64.3396 273.866 64.2992 273.823 64.2557C273.78 64.2125 273.74 64.1667 273.697 64.1237C273.654 64.0803 273.607 64.0399 273.564 63.9967C273.521 63.9534 273.481 63.9074 273.438 63.8642C273.394 63.8208 273.348 63.7805 273.304 63.7372C273.261 63.6939 273.221 63.648 273.178 63.6047C273.135 63.5615 273.089 63.5213 273.045 63.4782C273.002 63.4347 272.962 63.3886 272.918 63.3452C272.875 63.3016 272.829 63.2612 272.785 63.2178C272.742 63.1746 272.702 63.1288 272.659 63.0857C272.616 63.0423 272.569 63.002 272.526 62.9587C272.483 62.9154 272.443 62.8695 272.399 62.8263C272.356 62.7828 272.31 62.7425 272.266 62.6993C272.223 62.6559 272.183 62.61 272.14 62.5668C272.097 62.5235 272.051 62.4834 272.007 62.4403C271.964 62.3967 271.924 62.3506 271.881 62.3073C271.837 62.2637 271.791 62.2232 271.747 62.1798C271.704 62.1366 271.664 62.0908 271.621 62.0478C271.578 62.0044 271.531 61.964 271.488 61.9208C271.445 61.8774 271.405 61.8315 271.361 61.7883C271.318 61.7449 271.272 61.7045 271.228 61.6613C271.185 61.6179 271.145 61.572 271.102 61.5288C271.059 61.4855 271.013 61.4454 270.969 61.4023C270.926 61.3588 270.886 61.3126 270.843 61.2693C270.799 61.2259 270.753 61.1855 270.709 61.1423C270.666 61.0989 270.626 61.053 270.583 61.0098C270.539 60.9662 270.493 60.9258 270.45 60.8824C270.407 60.8391 270.367 60.7934 270.324 60.7503C270.28 60.7069 270.234 60.6666 270.191 60.6233C270.147 60.58 270.107 60.534 270.064 60.4908C270.021 60.4475 269.975 60.4074 269.931 60.3643C269.888 60.3208 269.848 60.2746 269.805 60.2313C269.761 60.1879 269.715 60.1475 269.672 60.1043C269.628 60.061 269.588 60.015 269.545 59.9718C269.502 59.9282 269.455 59.8878 269.412 59.8444C269.369 59.8012 269.329 59.7554 269.286 59.7123C269.242 59.6689 269.196 59.6286 269.153 59.5853C269.11 59.542 269.069 59.4961 269.026 59.4529C268.983 59.4094 268.937 59.3691 268.893 59.3259C268.85 59.2825 268.81 59.2366 268.767 59.1934C268.723 59.1501 268.677 59.11 268.634 59.0669C268.591 59.0233 268.551 58.9772 268.507 58.9339C268.464 58.8903 268.417 58.8498 268.374 58.8064C268.331 58.7632 268.291 58.7174 268.248 58.6744C268.204 58.631 268.158 58.5906 268.115 58.5474C268.072 58.504 268.031 58.4581 267.988 58.4149C267.945 58.3715 267.899 58.3311 267.855 58.2879C267.812 58.2445 267.772 58.1986 267.729 58.1554C267.685 58.1121 267.639 58.072 267.596 58.0289C267.553 57.9854 267.513 57.9392 267.469 57.8959C267.426 57.8523 267.379 57.8119 267.336 57.7684C267.293 57.7252 267.253 57.6794 267.21 57.6364C267.166 57.593 267.12 57.5526 267.077 57.5094C267.033 57.4661 266.993 57.4201 266.95 57.3769C266.907 57.3335 266.861 57.2932 266.817 57.2499C266.774 57.2066 266.734 57.1606 266.691 57.1174C266.647 57.0742 266.601 57.034 266.558 56.9909C266.515 56.9474 266.475 56.9013 266.431 56.8579C266.388 56.8143 266.341 56.7739 266.298 56.7305C266.255 56.6873 266.215 56.6415 266.172 56.5984C266.128 56.555 266.082 56.5147 266.039 56.4714C265.996 56.4281 265.955 56.3822 265.912 56.339C265.869 56.2955 265.823 56.2552 265.779 56.2119C265.736 56.1686 265.696 56.1227 265.653 56.0795C265.609 56.0362 265.564 55.9961 265.52 55.9529C265.477 55.9094 265.437 55.8633 265.393 55.8199C265.35 55.7763 265.303 55.7359 265.26 55.6925C265.217 55.6493 265.177 55.6035 265.134 55.5605C265.09 55.517 265.044 55.4767 265.001 55.4334C264.958 55.3901 264.918 55.3442 264.874 55.301C264.831 55.2576 264.785 55.2172 264.741 55.174C264.698 55.1306 264.658 55.0847 264.615 55.0415C264.572 54.9982 264.526 54.9581 264.482 54.915C264.439 54.8715 264.399 54.8253 264.355 54.782C264.312 54.7386 264.266 54.6982 264.222 54.655C264.179 54.6116 264.139 54.5657 264.096 54.5225C264.052 54.4789 264.006 54.4385 263.962 54.395C263.919 54.3518 263.879 54.306 263.836 54.263C263.793 54.2196 263.747 54.1792 263.703 54.136C263.66 54.0927 263.62 54.0467 263.577 54.0035C263.534 53.9602 263.488 53.9201 263.444 53.877C263.401 53.8335 263.361 53.7873 263.317 53.744C263.274 53.7006 263.228 53.6602 263.184 53.617C263.141 53.5737 263.101 53.5277 263.058 53.4845C263.014 53.4409 262.968 53.4005 262.924 53.3571C262.881 53.3139 262.841 53.2681 262.798 53.225C262.755 53.1816 262.709 53.1413 262.665 53.098C262.622 53.0547 262.582 53.0088 262.539 52.9656C262.496 52.9221 262.449 52.8818 262.406 52.8385C262.363 52.7952 262.323 52.7493 262.279 52.7061C262.236 52.6628 262.19 52.6227 262.147 52.5795C262.104 52.536 262.063 52.4899 262.02 52.4466C261.976 52.403 261.93 52.3625 261.886 52.3191C261.843 52.2759 261.803 52.2301 261.76 52.1871C261.717 52.1436 261.671 52.1033 261.627 52.0601C261.584 52.0167 261.544 51.9708 261.501 51.9276C261.458 51.8842 261.411 51.8438 261.368 51.8006C261.325 51.7572 261.285 51.7113 261.241 51.6681C261.198 51.6248 261.152 51.5847 261.109 51.5416C261.066 51.4981 261.025 51.4519 260.982 51.4086C260.938 51.365 260.892 51.3245 260.848 51.2811C260.805 51.2379 260.766 51.1921 260.722 51.1491C260.679 51.1057 260.633 51.0653 260.589 51.0221C260.546 50.9788 260.506 50.9328 260.463 50.8896C260.42 50.8462 260.373 50.8058 260.33 50.7626C260.287 50.7193 260.247 50.6733 260.203 50.6301C260.16 50.5868 260.114 50.5467 260.071 50.5036C260.028 50.4601 259.987 50.4139 259.944 50.3706C259.9 50.327 259.854 50.2866 259.81 50.2432C259.768 50.1999 259.728 50.1542 259.684 50.1111C259.641 50.0677 259.595 50.0274 259.551 49.9841C259.508 49.9408 259.468 49.8948 259.425 49.8516C259.382 49.8082 259.336 49.7679 259.292 49.7246C259.249 49.6813 259.209 49.6354 259.166 49.5922C259.122 49.5489 259.076 49.5087 259.033 49.4656C258.99 49.4221 258.949 49.376 258.906 49.3326C258.862 49.289 258.816 49.2486 258.772 49.2052C258.73 49.162 258.69 49.1162 258.647 49.0732C258.603 49.0297 258.557 48.9894 258.513 48.9461C258.47 48.9028 258.43 48.8569 258.387 48.8137C258.344 48.7703 258.298 48.7299 258.254 48.6867C258.211 48.6433 258.171 48.5974 258.128 48.5542C258.084 48.5109 258.038 48.4708 257.995 48.4277C257.952 48.3842 257.912 48.338 257.868 48.2947C257.825 48.2512 257.779 48.2109 257.735 48.1677C257.692 48.1243 257.652 48.0784 257.609 48.0352C257.565 47.9916 257.519 47.9512 257.475 47.9077C257.432 47.8645 257.392 47.8187 257.349 47.7757C257.306 47.7323 257.26 47.6919 257.216 47.6487C257.173 47.6054 257.133 47.5594 257.09 47.5162C257.046 47.4729 257 47.4328 256.957 47.3897C256.914 47.3462 256.874 47.3 256.83 47.2567C256.787 47.2133 256.741 47.1729 256.697 47.1297C256.654 47.0863 256.614 47.0404 256.571 46.9972C256.527 46.9536 256.481 46.9132 256.437 46.8698C256.394 46.8266 256.354 46.7808 256.311 46.7377C256.268 46.6943 256.222 46.654 256.178 46.6107C256.135 46.5674 256.095 46.5215 256.052 46.4782C256.008 46.4348 255.962 46.3945 255.919 46.3512C255.875 46.3079 255.835 46.262 255.792 46.2188C255.749 46.1755 255.703 46.1354 255.66 46.0922C255.616 46.0487 255.576 46.0026 255.533 45.9592C255.489 45.9156 255.443 45.8752 255.399 45.8318C255.356 45.7886 255.316 45.7428 255.273 45.6998C255.23 45.6563 255.184 45.616 255.14 45.5727C255.097 45.5294 255.057 45.4835 255.014 45.4403C254.97 45.3969 254.924 45.3565 254.881 45.3133C254.838 45.2699 254.797 45.224 254.754 45.1808C254.711 45.1375 254.665 45.0974 254.622 45.0543C254.578 45.0108 254.538 44.9646 254.495 44.9213C254.451 44.8777 254.405 44.8372 254.361 44.7938C254.318 44.7506 254.278 44.7048 254.235 44.6618C254.192 44.6184 254.146 44.578 254.102 44.5348C254.059 44.4914 254.019 44.4455 253.976 44.4023C249.761 40.1831 244.783 36.812 239.176 34.3825C233.59 31.9498 227.502 30.7162 221.081 30.7162C214.74 30.7162 208.67 31.9501 203.039 34.3843C197.398 36.8127 192.401 40.1831 188.185 44.403C183.966 48.6184 180.595 53.5971 178.165 59.2024C175.733 64.7889 174.5 70.877 174.5 77.2978C174.5 83.6389 175.733 89.7087 178.167 95.34C180.596 100.981 183.966 105.978 188.186 110.193C188.229 110.236 188.275 110.277 188.319 110.32C188.362 110.363 188.402 110.409 188.446 110.453C188.489 110.496 188.535 110.536 188.579 110.58C188.622 110.623 188.662 110.669 188.705 110.712C188.748 110.755 188.794 110.795 188.837 110.838C188.881 110.882 188.921 110.928 188.965 110.972C189.008 111.015 189.054 111.055 189.097 111.098C189.14 111.142 189.181 111.188 189.224 111.231C189.267 111.274 189.313 111.315 189.357 111.358C189.4 111.401 189.44 111.447 189.484 111.491C189.527 111.534 189.573 111.574 189.617 111.618C189.66 111.661 189.7 111.707 189.743 111.75C189.786 111.793 189.832 111.833 189.875 111.876C189.919 111.92 189.959 111.966 190.003 112.01C190.046 112.053 190.092 112.093 190.135 112.136C190.178 112.18 190.219 112.226 190.262 112.269C190.305 112.312 190.351 112.353 190.395 112.396C190.438 112.439 190.478 112.485 190.522 112.529C190.565 112.572 190.611 112.612 190.655 112.656C190.698 112.699 190.738 112.745 190.781 112.788C190.824 112.831 190.87 112.872 190.914 112.915C190.957 112.958 190.997 113.004 191.041 113.048C191.084 113.091 191.129 113.131 191.173 113.174C191.216 113.217 191.256 113.264 191.3 113.307C191.343 113.35 191.389 113.391 191.433 113.434C191.476 113.477 191.516 113.523 191.559 113.567C191.603 113.61 191.649 113.65 191.693 113.694C191.736 113.737 191.776 113.783 191.819 113.826C191.862 113.869 191.908 113.909 191.952 113.953C191.995 113.996 192.035 114.042 192.078 114.086C192.122 114.129 192.168 114.169 192.211 114.212C192.254 114.255 192.294 114.302 192.338 114.345C192.381 114.388 192.427 114.429 192.471 114.472C192.514 114.515 192.554 114.561 192.597 114.605C192.641 114.648 192.687 114.688 192.73 114.731C192.773 114.775 192.814 114.821 192.857 114.864C192.9 114.907 192.947 114.948 192.99 114.991C193.033 115.034 193.073 115.08 193.116 115.124C193.159 115.167 193.205 115.207 193.249 115.25C193.292 115.293 193.332 115.34 193.376 115.383C193.419 115.426 193.465 115.466 193.509 115.51C193.552 115.553 193.592 115.599 193.635 115.643C193.679 115.686 193.725 115.726 193.768 115.769C193.811 115.813 193.852 115.859 193.895 115.902C193.938 115.945 193.984 115.986 194.028 116.029C194.071 116.072 194.111 116.118 194.154 116.162C194.198 116.205 194.243 116.245 194.287 116.288C194.33 116.331 194.37 116.378 194.414 116.421C194.457 116.464 194.503 116.504 194.547 116.548C194.59 116.591 194.63 116.637 194.673 116.681C194.717 116.724 194.763 116.764 194.806 116.807C194.849 116.851 194.89 116.897 194.933 116.94C194.976 116.983 195.022 117.024 195.066 117.067C195.109 117.11 195.149 117.156 195.192 117.199C195.236 117.243 195.281 117.283 195.325 117.326C195.368 117.369 195.408 117.415 195.452 117.459C195.495 117.502 195.541 117.542 195.584 117.585C195.628 117.629 195.668 117.675 195.711 117.718C195.755 117.762 195.801 117.802 195.844 117.845C195.887 117.888 195.927 117.935 195.971 117.978C196.014 118.021 196.06 118.062 196.104 118.105C196.147 118.148 196.187 118.194 196.23 118.237C196.273 118.281 196.319 118.321 196.362 118.363C196.406 118.407 196.446 118.453 196.49 118.497C196.533 118.54 196.579 118.58 196.622 118.623C196.666 118.667 196.706 118.713 196.749 118.756C196.793 118.8 196.839 118.84 196.882 118.883C196.925 118.926 196.965 118.973 197.009 119.016C197.052 119.059 197.098 119.1 197.142 119.143C197.185 119.186 197.225 119.232 197.268 119.275C197.312 119.319 197.358 119.359 197.401 119.402C197.444 119.445 197.484 119.492 197.528 119.535C197.571 119.578 197.617 119.618 197.66 119.661C197.703 119.705 197.744 119.751 197.787 119.794C197.831 119.838 197.877 119.878 197.92 119.921C197.963 119.964 198.003 120.011 198.047 120.054C198.09 120.097 198.136 120.138 198.18 120.181C198.223 120.224 198.263 120.27 198.306 120.313C198.349 120.357 198.396 120.397 198.439 120.44C198.482 120.483 198.522 120.53 198.566 120.573C198.609 120.616 198.655 120.656 198.698 120.699C198.741 120.743 198.782 120.789 198.825 120.832C198.868 120.876 198.915 120.916 198.958 120.959C199.001 121.002 199.041 121.049 199.085 121.092C199.128 121.135 199.174 121.175 199.217 121.218C199.261 121.262 199.301 121.308 199.344 121.351C199.388 121.395 199.434 121.435 199.477 121.478C199.52 121.522 199.561 121.568 199.604 121.611C199.647 121.654 199.693 121.694 199.736 121.737C199.779 121.781 199.82 121.827 199.863 121.87C199.906 121.914 199.952 121.954 199.996 121.997C200.039 122.04 200.079 122.087 200.123 122.13C200.166 122.173 200.212 122.213 200.255 122.256C200.299 122.3 200.339 122.346 200.382 122.389C200.426 122.433 200.472 122.473 200.515 122.516C200.558 122.56 200.599 122.606 200.642 122.649C200.685 122.692 200.731 122.732 200.774 122.775C200.817 122.819 200.858 122.865 200.901 122.908C200.944 122.952 200.99 122.992 201.034 123.035C201.077 123.078 201.117 123.124 201.161 123.168C201.204 123.211 201.25 123.251 201.293 123.294C201.337 123.338 201.377 123.384 201.42 123.427C201.464 123.471 201.51 123.511 201.553 123.554C201.596 123.598 201.636 123.644 201.68 123.687C201.723 123.73 201.769 123.77 201.812 123.813C201.855 123.856 201.896 123.903 201.939 123.946C201.982 123.99 202.028 124.03 202.072 124.073C202.115 124.116 202.155 124.162 202.199 124.206C202.242 124.249 202.288 124.289 202.331 124.332C202.374 124.376 202.415 124.422 202.458 124.465C202.502 124.509 202.548 124.549 202.591 124.592C202.634 124.636 202.674 124.682 202.718 124.725C202.761 124.768 202.807 124.808 202.85 124.851C202.893 124.894 202.934 124.941 202.977 124.984C203.02 125.028 203.066 125.068 203.11 125.111C203.153 125.154 203.193 125.2 203.237 125.244C203.28 125.287 203.326 125.327 203.369 125.37C203.412 125.414 203.453 125.46 203.496 125.503C203.539 125.547 203.586 125.587 203.629 125.63C203.672 125.674 203.712 125.72 203.756 125.763C203.799 125.806 203.845 125.846 203.888 125.889C203.931 125.933 203.972 125.979 204.015 126.022C204.058 126.065 204.104 126.105 204.147 126.148C204.191 126.192 204.231 126.238 204.275 126.282C204.318 126.325 204.364 126.365 204.407 126.408C204.45 126.452 204.491 126.498 204.534 126.541C204.577 126.585 204.624 126.625 204.667 126.668C204.71 126.711 204.75 126.758 204.794 126.801C204.837 126.844 204.883 126.884 204.926 126.927C204.969 126.971 205.01 127.017 205.053 127.06C205.096 127.103 205.142 127.143 205.185 127.186C205.229 127.23 205.269 127.276 205.313 127.32C205.356 127.363 205.402 127.403 205.445 127.446C205.488 127.49 205.529 127.536 205.572 127.579C205.615 127.622 205.661 127.663 205.705 127.706C205.748 127.749 205.788 127.795 205.832 127.839C205.875 127.882 205.921 127.922 205.965 127.966C206.008 128.009 206.048 128.055 206.091 128.098C206.134 128.141 206.18 128.181 206.223 128.224C206.267 128.268 206.307 128.314 206.351 128.358C206.394 128.401 206.44 128.441 206.483 128.484C206.526 128.528 206.567 128.574 206.61 128.617C206.653 128.66 206.699 128.701 206.743 128.744C206.786 128.787 206.826 128.833 206.87 128.877C206.913 128.92 206.959 128.96 207.003 129.004C207.046 129.047 207.086 129.093 207.129 129.136C207.172 129.179 207.218 129.219 207.261 129.262C207.305 129.306 207.345 129.352 207.388 129.396C207.432 129.439 207.478 129.479 207.521 129.522C207.564 129.566 207.605 129.612 207.648 129.655C207.691 129.698 207.737 129.739 207.781 129.782C207.824 129.825 207.864 129.871 207.907 129.915C207.951 129.958 207.997 129.998 208.041 130.042C208.084 130.085 208.124 130.131 208.167 130.174C208.21 130.217 208.256 130.257 208.299 130.3C208.343 130.344 208.383 130.39 208.427 130.434C208.47 130.477 208.516 130.517 208.559 130.56C208.602 130.604 208.643 130.65 208.686 130.693C208.729 130.736 208.775 130.777 208.819 130.82C208.862 130.863 208.902 130.909 208.945 130.953C208.989 130.996 209.035 131.036 209.079 131.08C209.122 131.123 209.162 131.169 209.205 131.212C209.248 131.255 209.294 131.295 209.337 131.338C209.381 131.382 209.421 131.428 209.465 131.472C209.508 131.515 209.554 131.555 209.597 131.598C209.64 131.642 209.681 131.688 209.724 131.731C209.767 131.774 209.813 131.814 209.857 131.858C209.9 131.901 209.94 131.947 209.983 131.991C210.027 132.034 210.073 132.074 210.117 132.117C210.16 132.161 210.2 132.207 210.243 132.25C210.286 132.293 210.332 132.333 210.376 132.377C210.419 132.42 210.459 132.466 210.502 132.51C210.546 132.553 210.591 132.593 210.635 132.636C210.678 132.679 210.718 132.726 210.762 132.769C210.805 132.812 210.851 132.852 210.895 132.896C210.938 132.939 210.978 132.985 211.021 133.029C211.065 133.072 211.111 133.112 211.154 133.155C211.198 133.199 211.238 133.245 211.281 133.288C211.324 133.331 211.37 133.371 211.413 133.414C211.457 133.458 211.497 133.504 211.54 133.547C211.583 133.591 211.629 133.631 211.673 133.674C211.716 133.717 211.756 133.764 211.8 133.807C211.843 133.85 211.889 133.89 211.932 133.934C211.976 133.977 212.016 134.023 212.059 134.067C212.103 134.11 212.149 134.15 212.192 134.193C212.235 134.236 212.275 134.283 212.319 134.326C212.362 134.369 212.408 134.41 212.452 134.453C212.495 134.496 212.535 134.542 212.578 134.585C212.621 134.629 212.667 134.669 212.711 134.712C212.754 134.755 212.794 134.801 212.838 134.845C212.881 134.888 212.927 134.928 212.97 134.971C213.014 135.015 213.054 135.061 213.097 135.104C213.141 135.148 213.187 135.188 213.23 135.231C213.273 135.274 213.313 135.321 213.357 135.364C213.4 135.407 213.446 135.448 213.49 135.491C213.533 135.534 213.573 135.58 213.616 135.623C213.659 135.667 213.705 135.707 213.749 135.749C213.792 135.793 213.832 135.839 213.876 135.883C213.919 135.926 213.965 135.966 214.008 136.009C214.052 136.053 214.092 136.099 214.135 136.142C214.178 136.186 214.225 136.226 214.268 136.269C214.311 136.312 214.351 136.359 214.395 136.402C214.438 136.445 214.484 136.486 214.528 136.529C214.571 136.572 214.611 136.618 214.654 136.661C214.697 136.705 214.743 136.745 214.786 136.787C214.83 136.831 214.87 136.877 214.914 136.921C214.957 136.964 215.003 137.004 215.046 137.047C215.09 137.091 215.13 137.137 215.173 137.18C215.216 137.224 215.263 137.264 215.306 137.307C215.349 137.35 215.389 137.397 215.433 137.44C215.476 137.483 215.522 137.524 215.566 137.567C215.609 137.61 215.649 137.656 215.692 137.699C215.735 137.742 215.781 137.782 215.824 137.825C215.868 137.869 215.908 137.915 215.952 137.959C215.995 138.002 216.041 138.042 216.084 138.085C216.128 138.129 216.168 138.175 216.211 138.218C216.255 138.262 216.3 138.302 216.344 138.345C216.387 138.388 216.427 138.435 216.471 138.478C216.514 138.521 216.56 138.562 216.604 138.605C216.647 138.648 216.687 138.694 216.73 138.737C216.773 138.781 216.819 138.821 216.863 138.864C216.906 138.907 216.946 138.953 216.99 138.997C217.033 139.04 217.079 139.08 217.122 139.123C217.165 139.167 217.206 139.213 217.249 139.256C217.292 139.3 217.338 139.34 217.382 139.383C217.425 139.426 217.465 139.473 217.509 139.516C217.552 139.559 217.598 139.6 217.642 139.643C217.685 139.686 217.725 139.732 217.768 139.775C217.811 139.819 217.858 139.859 217.901 139.902C217.944 139.945 217.984 139.991 218.028 140.035C218.071 140.078 218.117 140.118 218.16 140.161C218.203 140.204 218.244 140.251 218.287 140.294C218.33 140.338 218.376 140.378 218.42 140.421C218.463 140.464 218.503 140.51 218.547 140.554C218.59 140.597 218.636 140.637 218.679 140.68C218.722 140.724 218.763 140.77 218.806 140.813C218.85 140.857 218.896 140.897 218.939 140.94C218.982 140.984 219.022 141.03 219.066 141.073C219.109 141.116 219.155 141.156 219.198 141.199C219.241 141.242 219.282 141.289 219.325 141.332C219.368 141.376 219.414 141.416 219.458 141.459C219.501 141.502 219.541 141.548 219.585 141.592C219.628 141.635 219.674 141.675 219.717 141.718C219.76 141.762 219.801 141.808 219.844 141.851C219.888 141.895 219.934 141.935 219.977 141.978C220.02 142.022 220.06 142.068 220.104 142.111C220.147 142.154 220.193 142.194 220.236 142.237C220.279 142.28 220.32 142.327 220.363 142.37C220.406 142.414 220.452 142.454 220.496 142.497C220.539 142.54 220.579 142.586 220.623 142.63C220.666 142.673 220.712 142.713 220.755 142.756C220.798 142.8 220.839 142.846 220.882 142.889C220.926 142.933 220.972 142.973 221.015 143.016C221.058 143.06 221.098 143.106 221.142 143.149C221.185 143.192 221.231 143.232 221.274 143.275C221.317 143.318 221.358 143.365 221.401 143.408C221.444 143.451 221.49 143.492 221.534 143.535C221.577 143.578 221.617 143.624 221.661 143.668C221.704 143.711 221.75 143.751 221.793 143.794C221.836 143.838 221.877 143.884 221.92 143.927C221.963 143.971 222.01 144.011 222.053 144.054C222.096 144.097 222.136 144.143 222.18 144.187C222.223 144.23 222.269 144.27 222.312 144.313C222.355 144.356 222.395 144.403 222.439 144.446C222.482 144.489 222.528 144.53 222.572 144.573C222.615 144.616 222.655 144.662 222.699 144.706C222.742 144.749 222.788 144.789 222.831 144.832C222.874 144.876 222.915 144.922 222.958 144.965C223.001 145.009 223.048 145.049 223.091 145.092C223.134 145.135 223.174 145.181 223.218 145.225C223.261 145.268 223.307 145.308 223.35 145.351C223.393 145.395 223.434 145.441 223.477 145.484C223.52 145.527 223.566 145.567 223.609 145.61C223.653 145.654 223.693 145.7 223.737 145.744C223.78 145.787 223.826 145.827 223.869 145.87C223.912 145.914 223.953 145.96 223.996 146.003C224.039 146.047 224.086 146.087 224.129 146.13C224.172 146.173 224.212 146.219 224.256 146.263C224.299 146.306 224.345 146.346 224.388 146.389C224.431 146.433 224.472 146.479 224.515 146.522C224.558 146.565 224.604 146.605 224.647 146.648C224.691 146.692 224.731 146.738 224.775 146.782C224.818 146.825 224.864 146.865 224.907 146.908C224.95 146.952 224.991 146.998 225.034 147.041C225.077 147.084 225.123 147.125 225.167 147.168C225.21 147.211 225.25 147.257 225.294 147.301C225.337 147.344 225.383 147.384 225.427 147.428C225.47 147.471 225.51 147.517 225.553 147.56C225.596 147.603 225.642 147.643 225.685 147.686C225.729 147.73 225.769 147.776 225.812 147.82C225.856 147.863 225.902 147.903 225.945 147.946C225.988 147.99 226.029 148.036 226.072 148.079C226.115 148.122 226.161 148.163 226.205 148.206C226.248 148.249 226.288 148.295 226.331 148.339C226.375 148.382 226.421 148.422 226.464 148.466C226.508 148.509 226.548 148.555 226.591 148.598C226.634 148.641 226.68 148.681 226.723 148.724C226.766 148.768 226.807 148.814 226.85 148.858C226.894 148.901 226.94 148.941 226.983 148.984C227.026 149.028 227.067 149.074 227.11 149.117C227.153 149.16 227.199 149.2 227.242 149.244C227.286 149.287 227.326 149.333 227.369 149.377C227.413 149.42 227.459 149.46 227.502 149.503C227.546 149.547 227.586 149.593 227.629 149.636C227.672 149.679 227.718 149.719 227.761 149.762C227.804 149.806 227.845 149.852 227.888 149.896C227.932 149.939 227.978 149.979 228.021 150.022C228.064 150.066 228.105 150.112 228.148 150.155C228.191 150.198 228.237 150.238 228.281 150.282C228.324 150.325 228.364 150.371 228.407 150.415C228.451 150.458 228.497 150.498 228.541 150.541C228.584 150.585 228.624 150.631 228.667 150.674C228.71 150.717 228.756 150.757 228.799 150.8C228.842 150.844 228.883 150.89 228.926 150.934C228.97 150.977 229.016 151.017 229.059 151.06C229.102 151.104 229.143 151.15 229.186 151.193C229.229 151.236 229.275 151.276 229.319 151.319C229.362 151.363 229.402 151.409 229.445 151.452C229.489 151.496 229.535 151.536 229.578 151.579C229.622 151.623 229.662 151.669 229.705 151.712C229.748 151.755 229.794 151.795 229.837 151.838C229.881 151.882 229.921 151.928 229.964 151.971C230.007 152.015 230.053 152.055 230.097 152.098C230.14 152.141 230.18 152.187 230.224 152.231C230.267 152.274 230.313 152.314 230.356 152.357C230.4 152.401 230.44 152.447 230.483 152.49C230.527 152.534 230.573 152.574 230.616 152.617C230.659 152.661 230.7 152.707 230.743 152.75C230.786 152.793 230.832 152.833 230.875 152.876C230.919 152.92 230.959 152.966 231.002 153.009C231.045 153.053 231.091 153.093 231.134 153.135C231.178 153.179 231.218 153.225 231.262 153.269C231.305 153.312 231.351 153.352 231.394 153.395C231.438 153.439 231.478 153.485 231.521 153.528C231.565 153.572 231.61 153.612 231.654 153.655C231.697 153.698 231.737 153.745 231.781 153.788C231.824 153.831 231.87 153.872 231.914 153.915C231.957 153.958 231.997 154.004 232.04 154.047C232.083 154.091 232.129 154.131 232.172 154.173C232.216 154.217 232.256 154.263 232.3 154.307C232.343 154.35 232.389 154.39 232.432 154.433C232.476 154.477 232.516 154.523 232.559 154.566C232.602 154.61 232.648 154.65 232.692 154.693C232.735 154.736 232.775 154.783 232.819 154.826C232.862 154.869 232.908 154.91 232.952 154.953C232.995 154.996 233.035 155.042 233.078 155.085C233.121 155.128 233.167 155.168 233.21 155.211C233.254 155.255 233.294 155.301 233.338 155.345C233.381 155.388 233.427 155.428 233.47 155.471C233.514 155.515 233.554 155.561 233.597 155.604C233.64 155.648 233.687 155.688 233.73 155.731C233.773 155.774 233.813 155.821 233.857 155.864C233.9 155.907 233.946 155.948 233.99 155.991C234.033 156.034 234.073 156.08 234.116 156.123C234.159 156.166 234.205 156.206 234.248 156.249C234.292 156.293 234.332 156.339 234.376 156.383C234.419 156.426 234.465 156.466 234.508 156.509C234.552 156.553 234.592 156.599 234.635 156.642C234.678 156.686 234.724 156.726 234.768 156.769C234.811 156.812 234.851 156.858 234.895 156.902C234.938 156.945 234.984 156.986 235.028 157.029C235.071 157.072 235.111 157.118 235.154 157.161C235.197 157.204 235.243 157.244 235.286 157.287C235.33 157.331 235.37 157.377 235.414 157.421C235.457 157.464 235.503 157.504 235.546 157.547C235.59 157.591 235.63 157.637 235.673 157.68C235.716 157.724 235.762 157.764 235.806 157.807C235.849 157.85 235.889 157.896 235.933 157.94C235.976 157.983 236.022 158.023 236.066 158.067C236.109 158.11 236.149 158.156 236.192 158.199C236.235 158.243 236.281 158.283 236.325 158.326C236.368 158.369 236.408 158.415 236.452 158.459C236.495 158.502 236.541 158.542 236.584 158.585C236.627 158.628 236.668 158.675 236.711 158.718C236.754 158.762 236.8 158.802 236.844 158.845C236.887 158.888 236.927 158.934 236.971 158.978C237.014 159.021 237.06 159.061 237.104 159.105C237.147 159.148 237.187 159.194 237.23 159.237C237.273 159.281 237.319 159.321 237.363 159.364C237.406 159.407 237.446 159.453 237.49 159.497C237.533 159.54 237.579 159.58 237.622 159.623C237.665 159.666 237.706 159.713 237.749 159.756C237.792 159.799 237.838 159.84 237.882 159.883C237.925 159.926 237.965 159.972 238.009 160.016C238.052 160.059 238.098 160.099 238.141 160.142C238.184 160.186 238.225 160.232 238.268 160.275C238.311 160.319 238.358 160.359 238.401 160.402C238.444 160.445 238.484 160.492 238.528 160.535C238.571 160.578 238.617 160.618 238.66 160.661C238.703 160.704 238.744 160.751 238.787 160.794C238.83 160.837 238.876 160.878 238.92 160.921C238.963 160.964 239.003 161.01 239.047 161.054C239.09 161.097 239.136 161.137 239.179 161.18C239.222 161.224 239.263 161.27 239.306 161.313C239.349 161.357 239.396 161.397 239.439 161.44C239.482 161.483 239.522 161.529 239.566 161.573C239.609 161.616 239.655 161.656 239.698 161.699C239.741 161.742 239.782 161.789 239.825 161.832C239.868 161.875 239.914 161.916 239.958 161.959C240.001 162.002 240.041 162.048 240.085 162.092C240.128 162.135 240.174 162.175 240.217 162.218C240.26 162.262 240.301 162.308 240.344 162.351C240.387 162.395 240.434 162.435 240.477 162.478C240.52 162.521 240.56 162.567 240.604 162.611C240.647 162.654 240.693 162.694 240.736 162.737C240.779 162.78 240.819 162.827 240.863 162.87C240.906 162.913 240.952 162.954 240.996 162.997C241.039 163.04 241.079 163.086 241.123 163.13C241.166 163.173 241.212 163.213 241.255 163.256C241.298 163.3 241.339 163.346 241.382 163.389C241.425 163.433 241.472 163.473 241.515 163.516C241.558 163.559 241.598 163.605 241.641 163.649C241.685 163.692 241.731 163.732 241.774 163.775C241.817 163.818 241.857 163.865 241.901 163.908C241.944 163.951 241.99 163.992 242.034 164.035C242.077 164.078 242.117 164.124 242.16 164.168C242.204 164.211 242.25 164.251 242.293 164.294C242.336 164.338 242.377 164.384 242.42 164.427C242.463 164.471 242.51 164.511 242.553 164.554C242.596 164.597 242.636 164.643 242.679 164.687C242.723 164.73 242.769 164.77 242.812 164.813C242.855 164.857 242.896 164.903 242.939 164.946C242.982 164.989 243.028 165.029 243.071 165.072C243.115 165.116 243.155 165.162 243.198 165.206C243.242 165.249 243.288 165.289 243.331 165.332C243.374 165.376 243.415 165.422 243.458 165.465C243.501 165.509 243.548 165.549 243.591 165.592C243.634 165.635 243.674 165.681 243.717 165.725C243.761 165.768 243.807 165.808 243.85 165.851C243.893 165.895 243.934 165.941 243.977 165.984C244.02 166.027 244.066 166.067 244.109 166.11C244.153 166.154 244.193 166.2 244.237 166.244C244.28 166.287 244.326 166.327 244.369 166.37C244.412 166.414 244.453 166.46 244.496 166.503C244.539 166.546 244.585 166.586 244.629 166.63C244.672 166.673 244.712 166.719 244.755 166.763C244.799 166.806 244.845 166.846 244.888 166.889C244.932 166.933 244.972 166.979 245.015 167.022C245.058 167.065 245.104 167.105 245.147 167.148C245.19 167.192 245.231 167.238 245.274 167.282C245.318 167.325 245.364 167.365 245.407 167.408C245.45 167.452 245.491 167.498 245.534 167.541C245.577 167.584 245.623 167.624 245.666 167.668C245.71 167.711 245.75 167.757 245.793 167.801C245.837 167.844 245.883 167.884 245.926 167.927C245.97 167.971 246.01 168.017 246.053 168.06C246.096 168.103 246.142 168.143 246.185 168.186C246.228 168.23 246.269 168.276 246.312 168.32C246.356 168.363 246.402 168.403 246.445 168.446C246.488 168.49 246.528 168.536 246.572 168.579C246.615 168.622 246.661 168.662 246.704 168.705C246.748 168.749 246.788 168.795 246.831 168.838C246.875 168.882 246.921 168.922 246.964 168.965C247.007 169.009 247.048 169.055 247.091 169.098C247.134 169.141 247.18 169.181 247.223 169.224C247.266 169.268 247.307 169.314 247.35 169.357C247.394 169.401 247.44 169.441 247.483 169.484C247.526 169.527 247.566 169.574 247.61 169.617C247.653 169.66 247.699 169.7 247.742 169.743C247.786 169.787 247.826 169.833 247.869 169.876C247.913 169.92 247.959 169.96 248.002 170.003C248.045 170.047 248.086 170.093 248.129 170.136C248.172 170.179 248.218 170.219 248.261 170.262C248.304 170.306 248.345 170.352 248.388 170.395C248.431 170.439 248.478 170.479 248.521 170.522C248.564 170.565 248.604 170.612 248.648 170.655C248.691 170.698 248.737 170.738 248.78 170.781C248.824 170.825 248.864 170.871 248.907 170.914C248.951 170.958 248.997 170.998 249.04 171.041C249.083 171.085 249.124 171.131 249.167 171.174C249.21 171.217 249.256 171.257 249.299 171.3C249.343 171.344 249.383 171.39 249.426 171.433C249.469 171.476 249.515 171.516 249.558 171.559C249.602 171.603 249.642 171.649 249.686 171.693C249.729 171.736 249.775 171.776 249.818 171.819C249.862 171.863 249.902 171.909 249.945 171.952C249.989 171.996 250.035 172.036 250.078 172.079C250.121 172.123 250.162 172.169 250.205 172.212C250.248 172.255 250.294 172.295 250.337 172.338C250.381 172.382 250.421 172.428 250.464 172.471C250.507 172.514 250.553 172.554 250.596 172.597C250.64 172.641 250.68 172.687 250.724 172.731C250.767 172.774 250.813 172.814 250.856 172.857C250.9 172.901 250.94 172.947 250.983 172.99C251.026 173.034 251.072 173.074 251.116 173.117C251.159 173.16 251.199 173.207 251.243 173.25C251.286 173.293 251.332 173.334 251.376 173.377C251.419 173.42 251.459 173.466 251.502 173.509C251.545 173.552 251.591 173.592 251.634 173.635C251.678 173.679 251.718 173.725 251.762 173.769C251.805 173.812 251.851 173.852 251.894 173.895C251.938 173.939 251.978 173.985 252.021 174.028C252.064 174.072 252.11 174.112 252.154 174.155C252.197 174.198 252.237 174.244 252.281 174.288C252.324 174.331 252.37 174.371 252.414 174.415C252.457 174.458 252.497 174.504 252.54 174.547C252.583 174.59 252.629 174.63 252.672 174.673C252.716 174.717 252.756 174.763 252.8 174.807C252.843 174.85 252.889 174.89 252.932 174.933C252.975 174.977 253.016 175.023 253.059 175.066C253.102 175.11 253.148 175.15 253.192 175.193C253.235 175.236 253.275 175.282 253.319 175.326C253.362 175.369 253.408 175.409 253.452 175.453C253.495 175.496 253.535 175.542 253.578 175.585C253.621 175.628 253.667 175.668 253.71 175.711C253.754 175.755 253.794 175.801 253.838 175.845C253.881 175.888 253.927 175.928 253.97 175.971C254.013 176.015 254.054 176.061 254.097 176.104C254.14 176.148 254.186 176.188 254.23 176.231C254.273 176.274 254.313 176.32 254.357 176.364C254.4 176.407 254.446 176.447 254.49 176.491C254.533 176.534 254.573 176.58 254.616 176.623C254.659 176.666 254.705 176.706 254.748 176.749C254.792 176.793 254.832 176.839 254.876 176.883C254.919 176.926 254.965 176.966 255.008 177.009C255.051 177.053 255.092 177.099 255.135 177.142C255.178 177.186 255.224 177.226 255.268 177.269C255.311 177.312 255.351 177.358 255.395 177.402C255.438 177.445 255.484 177.485 255.528 177.529C255.571 177.572 255.611 177.618 255.654 177.661C255.697 177.704 255.743 177.745 255.787 177.788C255.83 177.831 255.87 177.877 255.914 177.921C255.957 177.964 256.003 178.004 256.046 178.047C256.089 178.09 256.13 178.137 256.173 178.18C256.216 178.223 256.262 178.264 256.306 178.307C256.349 178.35 256.389 178.396 256.433 178.44C256.476 178.483 256.522 178.523 256.566 178.567C256.609 178.61 256.649 178.656 256.692 178.699C256.735 178.742 256.781 178.783 256.825 178.826C256.868 178.869 256.908 178.915 256.952 178.959C256.995 179.002 257.041 179.042 257.084 179.085C257.127 179.128 257.167 179.175 257.211 179.218C257.254 179.261 257.3 179.302 257.344 179.345C257.387 179.388 257.427 179.434 257.471 179.478C257.514 179.521 257.56 179.561 257.603 179.604C257.646 179.648 257.687 179.694 257.73 179.737C257.773 179.781 257.82 179.821 257.863 179.864C257.906 179.907 257.946 179.953 257.99 179.997C258.033 180.04 258.079 180.08 258.122 180.123C258.165 180.166 258.205 180.213 258.249 180.256C258.292 180.299 258.338 180.34 258.382 180.383C258.425 180.426 258.465 180.472 258.509 180.516C258.552 180.559 258.598 180.599 258.641 180.642C258.684 180.686 258.725 180.732 258.768 180.775C258.811 180.819 258.858 180.859 258.901 180.902C258.944 180.945 258.984 180.991 259.028 181.035C259.071 181.078 259.116 181.118 259.16 181.161C259.203 181.204 259.243 181.251 259.287 181.294C259.33 181.337 259.376 181.378 259.42 181.421C259.463 181.464 259.503 181.51 259.547 181.554C259.59 181.597 259.636 181.637 259.679 181.68C259.722 181.724 259.763 181.77 259.806 181.813C259.849 181.857 259.895 181.897 259.939 181.94C259.982 181.983 260.022 182.029 260.065 182.073C260.109 182.116 260.154 182.156 260.198 182.199C260.241 182.242 260.281 182.289 260.325 182.332C260.368 182.375 260.414 182.416 260.458 182.459C260.501 182.502 260.541 182.548 260.584 182.592C260.628 182.635 260.674 182.675 260.717 182.718C260.76 182.762 260.801 182.808 260.844 182.851C260.887 182.894 260.933 182.935 260.977 182.978C261.02 183.021 261.06 183.067 261.103 183.111C261.147 183.154 261.192 183.194 261.236 183.237C261.279 183.28 261.319 183.327 261.363 183.37C261.406 183.413 261.452 183.453 261.495 183.497C261.539 183.54 261.579 183.586 261.622 183.63C261.666 183.673 261.712 183.713 261.755 183.756C261.798 183.8 261.838 183.846 261.882 183.889C261.925 183.932 261.972 183.973 262.015 184.016C262.058 184.059 262.098 184.105 262.141 184.149C262.185 184.192 262.231 184.232 262.274 184.275C262.317 184.319 262.358 184.365 262.401 184.408C262.444 184.451 262.49 184.491 262.533 184.534C262.576 184.578 262.617 184.624 262.66 184.668C262.704 184.711 262.75 184.751 262.793 184.794C262.836 184.838 262.876 184.884 262.92 184.927C262.963 184.97 263.009 185.011 263.053 185.054C263.096 185.097 263.136 185.143 263.179 185.186C263.223 185.23 263.269 185.27 263.312 185.313C263.355 185.356 263.396 185.403 263.439 185.446C263.482 185.489 263.528 185.529 263.571 185.572C263.614 185.616 263.655 185.662 263.698 185.706C263.742 185.749 263.788 185.789 263.831 185.832C263.874 185.875 263.915 185.922 263.958 185.965C264.001 186.008 264.047 186.048 264.09 186.091C264.134 186.135 264.174 186.181 264.217 186.224C264.261 186.268 264.307 186.308 264.35 186.351C264.394 186.395 264.434 186.441 264.477 186.484C264.52 186.527 264.566 186.567 264.609 186.61C264.652 186.654 264.693 186.7 264.736 186.743C264.78 186.787 264.826 186.827 264.869 186.87C264.912 186.913 264.952 186.96 264.996 187.003C265.039 187.046 265.085 187.086 265.128 187.129C265.172 187.173 265.212 187.219 265.255 187.262C265.299 187.306 265.345 187.346 265.388 187.389C265.431 187.433 265.472 187.479 265.515 187.522C265.558 187.565 265.604 187.605 265.647 187.648C265.69 187.692 265.731 187.738 265.774 187.781C265.818 187.825 265.863 187.865 265.907 187.908C265.95 187.951 265.99 187.998 266.034 188.041C266.077 188.084 266.123 188.124 266.166 188.167C266.21 188.211 266.25 188.257 266.293 188.3C266.337 188.344 266.383 188.384 266.426 188.427C266.469 188.471 266.51 188.517 266.553 188.56C266.596 188.603 266.642 188.643 266.685 188.686C266.728 188.73 266.769 188.776 266.812 188.819C266.855 188.863 266.902 188.903 266.945 188.946C266.988 188.989 267.028 189.036 267.072 189.079C267.115 189.122 267.161 189.162 267.204 189.205C267.248 189.249 267.288 189.295 267.331 189.338C267.375 189.382 267.421 189.422 267.464 189.465C267.507 189.509 267.548 189.555 267.591 189.598C267.634 189.641 267.68 189.681 267.723 189.724C267.766 189.768 267.807 189.814 267.85 189.857C267.893 189.901 267.94 189.941 267.983 189.984C268.026 190.027 268.066 190.074 268.11 190.117C268.153 190.16 268.199 190.2 268.242 190.243C268.285 190.287 268.326 190.333 268.369 190.376C268.413 190.42 268.459 190.46 268.502 190.503C268.545 190.547 268.586 190.593 268.629 190.636C268.672 190.679 268.718 190.719 268.761 190.762C268.805 190.806 268.845 190.852 268.888 190.895C268.931 190.938 268.977 190.978 269.02 191.021C269.064 191.065 269.104 191.111 269.148 191.155C269.191 191.198 269.237 191.238 269.28 191.281C269.323 191.325 269.364 191.371 269.407 191.414C269.451 191.458 269.497 191.498 269.54 191.541C269.583 191.585 269.623 191.631 269.667 191.674C269.71 191.717 269.756 191.757 269.799 191.8C269.843 191.844 269.883 191.89 269.926 191.933C269.969 191.976 270.015 192.016 270.058 192.059C270.102 192.103 270.142 192.149 270.186 192.193C270.229 192.236 270.275 192.276 270.318 192.319C270.362 192.363 270.402 192.409 270.445 192.452C270.488 192.496 270.534 192.536 270.578 192.579C270.621 192.622 270.661 192.668 270.705 192.712C270.748 192.755 270.794 192.795 270.838 192.839C270.881 192.882 270.921 192.928 270.964 192.971C271.007 193.014 271.053 193.054 271.096 193.097C271.14 193.141 271.18 193.187 271.224 193.231C271.267 193.274 271.313 193.314 271.356 193.357C271.399 193.401 271.44 193.447 271.483 193.49C271.526 193.534 271.572 193.574 271.616 193.617C271.659 193.66 271.699 193.706 271.743 193.75C271.786 193.793 271.832 193.833 271.876 193.877C271.919 193.92 271.959 193.966 272.002 194.009C272.045 194.052 272.091 194.092 272.134 194.135C272.178 194.179 272.218 194.225 272.262 194.269C272.305 194.312 272.351 194.352 272.394 194.395C272.437 194.439 272.478 194.485 272.521 194.528C272.564 194.571 272.61 194.612 272.654 194.655C272.697 194.698 272.737 194.744 272.781 194.788C272.824 194.831 272.87 194.871 272.914 194.915C272.957 194.958 272.997 195.004 273.04 195.047C273.083 195.09 273.129 195.13 273.172 195.173C273.216 195.217 273.256 195.263 273.3 195.307C273.343 195.35 273.389 195.39 273.432 195.433C273.475 195.477 273.516 195.523 273.559 195.566C273.602 195.609 273.648 195.65 273.692 195.693C273.735 195.736 273.775 195.782 273.819 195.826C273.862 195.869 273.908 195.909 273.952 195.953C273.995 195.996 274.035 196.042 274.078 196.085C274.121 196.128 274.167 196.168 274.21 196.211C274.254 196.255 274.294 196.301 274.338 196.345C274.381 196.388 274.427 196.428 274.47 196.471C274.513 196.515 274.554 196.561 274.597 196.604C274.64 196.647 274.686 196.688 274.73 196.731C274.773 196.774 274.813 196.82 274.857 196.864C274.9 196.907 274.946 196.947 274.99 196.991C275.033 197.034 275.073 197.08 275.116 197.123C275.159 197.166 275.205 197.207 275.249 197.25C275.292 197.293 275.332 197.339 275.376 197.383C275.419 197.426 275.464 197.466 275.508 197.509C275.551 197.552 275.591 197.599 275.635 197.642C275.678 197.685 275.724 197.726 275.768 197.769C275.811 197.812 275.851 197.858 275.895 197.902C275.938 197.945 275.984 197.985 276.028 198.029C276.071 198.072 276.111 198.118 276.154 198.161C276.197 198.204 276.243 198.245 276.287 198.288C276.33 198.331 276.37 198.377 276.413 198.421C276.457 198.464 276.503 198.504 276.546 198.547C276.589 198.59 276.629 198.637 276.673 198.68C276.716 198.723 276.762 198.764 276.806 198.807C276.849 198.85 276.889 198.896 276.932 198.94C276.976 198.983 277.022 199.023 277.065 199.066C277.108 199.11 277.149 199.156 277.192 199.199C277.235 199.243 277.282 199.283 277.325 199.326C277.368 199.369 277.408 199.415 277.451 199.459C277.494 199.502 277.54 199.542 277.584 199.585C277.627 199.628 277.667 199.675 277.711 199.718C277.754 199.761 277.8 199.801 277.844 199.845C277.887 199.888 277.927 199.934 277.97 199.978C278.014 200.021 278.06 200.061 278.103 200.104C278.146 200.148 278.187 200.194 278.23 200.237C278.273 200.28 278.319 200.321 278.363 200.364C278.406 200.407 278.446 200.453 278.489 200.497C278.532 200.54 278.578 200.58 278.622 200.623C278.665 200.666 278.705 200.713 278.749 200.756C278.792 200.799 278.838 200.839 278.882 200.883C278.925 200.926 278.965 200.972 279.008 201.016C279.052 201.059 279.098 201.099 279.141 201.142C279.184 201.186 279.225 201.232 279.268 201.275C279.311 201.318 279.357 201.359 279.401 201.402C279.444 201.445 279.484 201.491 279.527 201.535C279.571 201.578 279.616 201.618 279.66 201.661C279.703 201.704 279.743 201.751 279.787 201.794C279.83 201.837 279.876 201.877 279.92 201.921C279.963 201.964 280.003 202.01 280.046 202.054C280.09 202.097 280.136 202.137 280.179 202.18C280.222 202.224 280.262 202.27 280.306 202.313C280.349 202.356 280.395 202.397 280.439 202.44C280.482 202.483 280.522 202.529 280.565 202.572C280.608 202.616 280.654 202.656 280.698 202.699C280.741 202.742 280.781 202.789 280.825 202.832C280.868 202.875 280.914 202.915 280.957 202.958C281.001 203.002 281.041 203.048 281.084 203.091C281.128 203.135 281.174 203.175 281.217 203.218C281.26 203.261 281.3 203.308 281.344 203.351C281.387 203.394 281.433 203.435 281.477 203.478C281.52 203.521 281.56 203.567 281.603 203.61C281.647 203.654 281.693 203.694 281.736 203.737C281.779 203.78 281.819 203.827 281.863 203.87C281.906 203.913 281.952 203.953 281.995 203.996C282.038 204.04 282.079 204.086 282.122 204.129C282.166 204.173 282.212 204.213 282.255 204.256C282.298 204.299 282.338 204.346 282.382 204.389C282.425 204.432 282.471 204.473 282.515 204.516C282.558 204.559 282.598 204.605 282.641 204.648C282.684 204.692 282.731 204.732 282.774 204.775C282.817 204.818 282.857 204.865 282.901 204.908C282.944 204.951 282.99 204.991 283.033 205.034C283.076 205.078 283.117 205.124 283.16 205.167C283.203 205.211 283.25 205.251 283.293 205.294C283.336 205.337 283.376 205.384 283.42 205.427C283.463 205.47 283.509 205.51 283.552 205.553C283.596 205.597 283.636 205.643 283.679 205.686C283.723 205.73 283.769 205.77 283.812 205.813C283.855 205.857 283.896 205.903 283.939 205.946C283.982 205.989 284.028 206.029 284.071 206.072C284.114 206.116 284.155 206.162 284.198 206.205C284.241 206.249 284.287 206.289 284.331 206.332C284.374 206.375 284.414 206.422 284.458 206.465C284.501 206.508 284.547 206.548 284.59 206.591C284.634 206.635 284.674 206.681 284.717 206.724C284.761 206.768 284.807 206.808 284.85 206.851C284.893 206.895 284.934 206.941 284.977 206.984C285.02 207.027 285.066 207.067 285.109 207.11C285.152 207.154 285.193 207.2 285.236 207.243C285.279 207.287 285.325 207.327 285.369 207.37C285.412 207.413 285.452 207.46 285.496 207.503C285.539 207.546 285.585 207.586 285.628 207.629C285.672 207.673 285.712 207.719 285.755 207.762C285.799 207.806 285.845 207.846 285.888 207.889C285.931 207.933 285.971 207.979 286.015 208.022C286.058 208.065 286.104 208.105 286.147 208.148C286.19 208.192 286.231 208.238 286.274 208.281C286.317 208.325 286.363 208.365 286.407 208.408C286.45 208.451 286.49 208.497 286.534 208.541C286.577 208.584 286.623 208.624 286.666 208.667C286.709 208.711 286.75 208.757 286.793 208.8C286.837 208.844 286.883 208.884 286.926 208.927C286.969 208.971 287.009 209.017 287.053 209.06C287.096 209.103 287.142 209.143 287.185 209.186C287.228 209.229 287.269 209.276 287.312 209.319C287.355 209.363 287.401 209.403 287.445 209.446C287.488 209.489 287.528 209.535 287.572 209.579C287.615 209.622 287.661 209.662 287.704 209.705C287.747 209.749 287.788 209.795 287.831 209.838C287.874 209.882 287.921 209.922 287.964 209.965C288.007 210.009 288.047 210.055 288.091 210.098C288.134 210.141 288.18 210.181 288.223 210.224C288.266 210.268 288.307 210.314 288.35 210.357C288.393 210.4 288.439 210.44 288.482 210.483C288.526 210.527 288.566 210.573 288.61 210.617C288.653 210.66 288.699 210.7 288.742 210.743C288.785 210.787 288.826 210.833 288.869 210.876C288.912 210.92 288.959 210.96 289.002 211.003C289.045 211.047 289.085 211.093 289.129 211.136C289.172 211.179 289.218 211.219 289.261 211.262C289.304 211.306 289.345 211.352 289.388 211.395C289.431 211.438 289.477 211.478 289.52 211.521C289.564 211.565 289.604 211.611 289.648 211.655C289.691 211.698 289.737 211.738 289.78 211.781C289.823 211.825 289.864 211.871 289.907 211.914C289.95 211.957 289.996 211.998 290.04 212.041C290.083 212.084 290.123 212.13 290.167 212.174C290.21 212.217 290.256 212.257 290.3 212.301C290.343 212.344 290.383 212.39 290.426 212.433C290.469 212.476 290.515 212.516 290.558 212.559C290.602 212.603 290.642 212.649 290.686 212.693C290.729 212.736 290.775 212.776 290.818 212.819C290.861 212.863 290.902 212.909 290.945 212.952C290.988 212.995 291.034 213.036 291.078 213.079C291.121 213.122 291.161 213.168 291.205 213.212C291.248 213.255 291.294 213.295 291.338 213.339C291.381 213.382 291.421 213.428 291.464 213.471C291.507 213.514 291.553 213.554 291.596 213.597C291.64 213.641 291.68 213.687 291.723 213.731C291.767 213.774 291.813 213.814 291.856 213.857C291.899 213.901 291.94 213.947 291.983 213.99C296.198 218.209 301.195 221.58 306.836 224.009C312.477 226.442 318.548 227.676 324.878 227.676C331.288 227.676 337.376 226.443 342.975 224.01C348.58 221.58 353.558 218.209 357.773 213.989C361.993 209.775 365.363 204.778 367.792 199.136C370.226 193.495 371.46 187.425 371.46 181.095C371.46 174.685 370.226 168.596 367.793 162.998L367.792 162.998Z" fill="url(#paint0_linear_574_94)"/>
</g>
</g>
</g>
</g>
<path d="M45.6562 74.2497C27.6379 74.2497 13.0312 59.643 13.0312 41.6247C13.0312 23.6065 27.6379 8.99976 45.6562 8.99976C63.6745 8.99976 78.2812 23.6065 78.2812 41.6247C78.2812 59.643 63.6745 74.2497 45.6562 74.2497Z" fill="#286AD8"/>
<path d="M0 145H145V0L0 145Z" fill="#286AD8"/>
<path d="M327.555 145H432.68C432.68 64.9187 367.761 0 287.68 0V105.125C287.68 127.147 305.533 145 327.555 145Z" fill="#286AD8"/>
<path d="M216.84 113.95C239.241 113.95 257.4 95.7901 257.4 73.3894C257.4 50.9886 239.241 32.8292 216.84 32.8292C194.439 32.8292 176.28 50.9886 176.28 73.3894C176.28 95.7901 194.439 113.95 216.84 113.95Z" fill="#1443B5"/>
<path d="M432.17 0V145H504.505C544.637 145 577.17 112.541 577.17 72.5C577.17 32.4594 544.637 1.52588e-05 504.505 1.52588e-05L432.17 0Z" fill="#286AD8"/>
<path d="M216.34 95.75C217.658 95.75 218.762 95.3044 219.653 94.4131C220.544 93.5219 220.99 92.4175 220.99 91.1C220.99 89.7825 220.544 88.6781 219.653 87.7869C218.762 86.8956 217.658 86.45 216.34 86.45C215.023 86.45 213.918 86.8956 213.027 87.7869C212.136 88.6781 211.69 89.7825 211.69 91.1C211.69 92.4175 212.136 93.5219 213.027 94.4131C213.918 95.3044 215.023 95.75 216.34 95.75ZM216.34 77.15C217.658 77.15 218.762 76.7044 219.653 75.8131C220.544 74.9219 220.99 73.8175 220.99 72.5V53.9C220.99 52.5825 220.544 51.4781 219.653 50.5869C218.762 49.6956 217.658 49.25 216.34 49.25C215.023 49.25 213.918 49.6956 213.027 50.5869C212.136 51.4781 211.69 52.5825 211.69 53.9V72.5C211.69 73.8175 212.136 74.9219 213.027 75.8131C213.918 76.7044 215.023 77.15 216.34 77.15ZM216.34 119C209.908 119 203.863 117.779 198.205 115.338C192.548 112.897 187.626 109.584 183.441 105.399C179.256 101.214 175.943 96.2925 173.502 90.635C171.061 84.9775 169.84 78.9325 169.84 72.5C169.84 66.0675 171.061 60.0225 173.502 54.365C175.943 48.7075 179.256 43.7863 183.441 39.6012C187.626 35.4163 192.548 32.1031 198.205 29.6619C203.863 27.2206 209.908 26 216.34 26C222.773 26 228.818 27.2206 234.475 29.6619C240.133 32.1031 245.054 35.4163 249.239 39.6012C253.424 43.7863 256.737 48.7075 259.178 54.365C261.619 60.0225 262.84 66.0675 262.84 72.5C262.84 78.9325 261.619 84.9775 259.178 90.635C256.737 96.2925 253.424 101.214 249.239 105.399C245.054 109.584 240.133 112.897 234.475 115.338C228.818 117.779 222.773 119 216.34 119ZM216.34 109.7C226.725 109.7 235.521 106.096 242.729 98.8887C249.936 91.6813 253.54 82.885 253.54 72.5C253.54 62.115 249.936 53.3188 242.729 46.1112C235.521 38.9038 226.725 35.3 216.34 35.3C205.955 35.3 197.159 38.9038 189.951 46.1112C182.744 53.3188 179.14 62.115 179.14 72.5C179.14 82.885 182.744 91.6813 189.951 98.8887C197.159 106.096 205.955 109.7 216.34 109.7Z" fill="#5187DF"/>
<defs>
<linearGradient id="paint0_linear_574_94" x1="151" y1="41.5" x2="344" y2="182.5" gradientUnits="userSpaceOnUse">
<stop stop-color="#7AA5E7"/>
<stop offset="1" stop-color="#003BA1"/>
</linearGradient>
</defs>
</svg>
