<svg width="577" height="145" viewBox="0 0 577 145" fill="none" xmlns="http://www.w3.org/2000/svg">
<path d="M145 0.000244141V145H72.6646C32.5331 145 0 112.541 0 72.5002C0 32.4596 32.5331 0.000266444 72.6646 0.000266444L145 0.000244141Z" fill="#286AD8"/>
<path d="M577 0.000244141C496.979 0.000244141 432.11 64.9064 432.11 144.972L432 145H577V0.000244141Z" fill="#286AD8"/>
<path d="M327.875 145H433C433 64.9188 368.081 0 288 0V105.125C288 127.148 305.853 145 327.875 145Z" fill="#286AD8"/>
<path d="M54.302 96.1979C41.2142 96.1979 30.6045 85.5881 30.6045 72.5003C30.6045 59.4125 41.2142 48.8027 54.302 48.8027C67.3899 48.8027 77.9996 59.4125 77.9996 72.5003C77.9996 85.5881 67.3899 96.1979 54.302 96.1979Z" fill="#004DD1"/>
<path d="M216.5 145C256.541 145 289 112.541 289 72.5002C289 32.4596 256.541 0.000244141 216.5 0.000244141C176.459 0.000244141 144 32.4596 144 72.5002C144 112.541 176.459 145 216.5 145Z" fill="#286AD8"/>
<g style="mix-blend-mode:multiply">
<mask id="mask0_574_212" style="mask-type:alpha" maskUnits="userSpaceOnUse" x="144" y="0" width="145" height="146">
<path d="M216.5 145C256.541 145 289 112.541 289 72.5002C289 32.4596 256.541 0.000244141 216.5 0.000244141C176.459 0.000244141 144 32.4596 144 72.5002C144 112.541 176.459 145 216.5 145Z" fill="#286AD8"/>
</mask>
<g mask="url(#mask0_574_212)">
<g style="mix-blend-mode:multiply">
<mask id="mask1_574_212" style="mask-type:luminance" maskUnits="userSpaceOnUse" x="145" y="0" width="146" height="146">
<path d="M290.16 0.000244141H145.16V145H290.16V0.000244141Z" fill="white"/>
</mask>
<g mask="url(#mask1_574_212)">
</g>
<mask id="mask2_574_212" style="mask-type:luminance" maskUnits="userSpaceOnUse" x="145" y="0" width="146" height="146">
<path d="M290.16 0.000244141H145.16V145H290.16V0.000244141Z" fill="white"/>
</mask>
<g mask="url(#mask2_574_212)">
<path opacity="0.58" d="M367.952 162.998C365.523 157.394 362.151 152.416 357.931 148.2C357.888 148.156 357.842 148.116 357.798 148.072C357.755 148.029 357.715 147.983 357.672 147.94C357.629 147.897 357.583 147.857 357.539 147.813C357.496 147.77 357.456 147.724 357.412 147.68C357.369 147.637 357.323 147.596 357.279 147.553C357.236 147.51 357.196 147.464 357.153 147.421C357.11 147.378 357.063 147.337 357.02 147.294C356.977 147.251 356.937 147.205 356.893 147.162C356.85 147.118 356.804 147.078 356.76 147.035C356.717 146.991 356.677 146.945 356.634 146.902C356.591 146.859 356.545 146.819 356.501 146.776C356.458 146.732 356.418 146.686 356.374 146.643C356.331 146.599 356.285 146.558 356.241 146.515C356.198 146.472 356.158 146.426 356.115 146.383C356.072 146.34 356.025 146.299 355.982 146.256C355.939 146.213 355.899 146.167 355.855 146.124C355.812 146.08 355.766 146.04 355.722 145.997C355.679 145.953 355.639 145.907 355.596 145.864C355.553 145.821 355.507 145.781 355.463 145.738C355.42 145.694 355.38 145.648 355.336 145.605C355.293 145.561 355.247 145.521 355.203 145.478C355.16 145.434 355.12 145.388 355.077 145.345C355.033 145.301 354.987 145.261 354.944 145.218C354.901 145.174 354.861 145.129 354.818 145.086C354.774 145.042 354.728 145.002 354.685 144.959C354.641 144.915 354.601 144.869 354.558 144.826C354.515 144.783 354.469 144.743 354.425 144.7C354.382 144.656 354.342 144.61 354.299 144.567C354.255 144.523 354.209 144.483 354.166 144.44C354.122 144.396 354.082 144.35 354.039 144.307C353.996 144.263 353.949 144.223 353.906 144.18C353.863 144.136 353.823 144.091 353.78 144.048C353.736 144.004 353.69 143.964 353.647 143.921C353.603 143.877 353.563 143.831 353.52 143.788C353.477 143.745 353.431 143.704 353.387 143.661C353.344 143.618 353.304 143.572 353.261 143.529C353.217 143.485 353.171 143.445 353.128 143.402C353.085 143.359 353.045 143.312 353.001 143.269C352.958 143.226 352.911 143.185 352.868 143.142C352.825 143.098 352.785 143.053 352.742 143.01C352.698 142.966 352.652 142.926 352.609 142.883C352.565 142.839 352.525 142.793 352.482 142.75C352.439 142.707 352.393 142.666 352.349 142.623C352.306 142.58 352.266 142.534 352.223 142.491C352.179 142.447 352.133 142.407 352.09 142.364C352.047 142.321 352.007 142.274 351.963 142.231C351.92 142.188 351.873 142.147 351.83 142.104C351.787 142.061 351.747 142.015 351.704 141.972C351.66 141.928 351.614 141.888 351.571 141.845C351.527 141.801 351.487 141.755 351.444 141.712C351.401 141.669 351.355 141.628 351.311 141.585C351.268 141.542 351.228 141.496 351.185 141.453C351.141 141.409 351.095 141.369 351.052 141.326C351.009 141.283 350.969 141.237 350.925 141.193C350.882 141.15 350.835 141.109 350.792 141.066C350.749 141.023 350.709 140.977 350.666 140.934C350.622 140.89 350.576 140.85 350.533 140.807C350.49 140.763 350.449 140.717 350.406 140.674C350.363 140.631 350.317 140.59 350.273 140.547C350.23 140.504 350.19 140.458 350.147 140.415C350.103 140.371 350.058 140.331 350.014 140.288C349.971 140.245 349.931 140.199 349.887 140.155C349.844 140.112 349.797 140.071 349.754 140.028C349.711 139.985 349.671 139.939 349.628 139.896C349.584 139.852 349.538 139.812 349.495 139.769C349.452 139.725 349.412 139.679 349.368 139.636C349.325 139.593 349.279 139.552 349.235 139.509C349.192 139.466 349.152 139.42 349.109 139.377C349.066 139.333 349.02 139.293 348.976 139.25C348.933 139.207 348.893 139.161 348.849 139.117C348.806 139.074 348.76 139.033 348.716 138.99C348.673 138.947 348.633 138.901 348.59 138.858C348.546 138.814 348.5 138.774 348.456 138.73C348.413 138.687 348.373 138.641 348.33 138.598C348.287 138.555 348.241 138.515 348.197 138.471C348.154 138.428 348.114 138.382 348.071 138.339C348.028 138.296 347.982 138.255 347.938 138.212C347.895 138.169 347.855 138.123 347.811 138.079C347.768 138.036 347.722 137.996 347.678 137.952C347.635 137.909 347.595 137.863 347.552 137.82C347.508 137.776 347.462 137.736 347.418 137.692C347.375 137.649 347.335 137.603 347.292 137.56C347.249 137.517 347.203 137.477 347.159 137.433C347.116 137.39 347.076 137.344 347.033 137.301C346.99 137.257 346.943 137.217 346.9 137.174C346.857 137.13 346.817 137.085 346.773 137.041C346.73 136.998 346.684 136.958 346.641 136.915C346.598 136.871 346.557 136.825 346.514 136.782C346.47 136.738 346.424 136.698 346.38 136.654C346.337 136.611 346.297 136.565 346.254 136.522C346.211 136.479 346.165 136.439 346.121 136.395C346.078 136.352 346.038 136.306 345.995 136.263C345.952 136.219 345.905 136.179 345.862 136.136C345.819 136.093 345.779 136.047 345.735 136.003C345.692 135.96 345.646 135.92 345.603 135.877C345.56 135.833 345.519 135.787 345.476 135.744C345.432 135.7 345.386 135.66 345.342 135.616C345.299 135.573 345.26 135.527 345.216 135.484C345.173 135.441 345.127 135.401 345.083 135.357C345.04 135.314 345 135.268 344.957 135.225C344.914 135.181 344.867 135.141 344.824 135.098C344.781 135.055 344.741 135.009 344.697 134.965C344.654 134.922 344.608 134.882 344.565 134.839C344.522 134.795 344.481 134.749 344.438 134.706C344.394 134.662 344.348 134.622 344.304 134.578C344.262 134.535 344.222 134.489 344.178 134.446C344.135 134.403 344.089 134.363 344.045 134.319C344.002 134.276 343.962 134.23 343.919 134.187C343.876 134.143 343.829 134.103 343.786 134.06C343.743 134.017 343.703 133.971 343.66 133.927C343.616 133.884 343.57 133.844 343.527 133.801C343.484 133.757 343.443 133.711 343.4 133.668C343.356 133.624 343.31 133.584 343.266 133.54C343.224 133.497 343.184 133.451 343.141 133.408C343.097 133.365 343.051 133.325 343.007 133.281C342.964 133.238 342.924 133.192 342.881 133.149C342.838 133.106 342.792 133.065 342.748 133.022C342.705 132.979 342.665 132.933 342.622 132.889C342.578 132.846 342.532 132.806 342.489 132.763C342.446 132.719 342.406 132.673 342.362 132.63C342.319 132.587 342.273 132.546 342.229 132.503C342.186 132.46 342.146 132.414 342.103 132.37C342.059 132.327 342.013 132.286 341.969 132.243C341.926 132.2 341.886 132.154 341.843 132.111C341.8 132.068 341.753 132.027 341.71 131.984C341.667 131.941 341.627 131.895 341.584 131.851C341.54 131.808 341.494 131.768 341.451 131.725C341.408 131.681 341.368 131.635 341.324 131.592C341.281 131.549 341.235 131.508 341.191 131.465C341.148 131.422 341.108 131.376 341.065 131.332C341.021 131.289 340.975 131.248 340.931 131.205C340.888 131.162 340.848 131.116 340.805 131.073C340.762 131.03 340.716 130.989 340.672 130.946C340.629 130.903 340.589 130.857 340.546 130.814C340.502 130.77 340.456 130.73 340.413 130.687C340.369 130.643 340.329 130.597 340.286 130.554C340.243 130.511 340.197 130.471 340.154 130.428C340.11 130.384 340.07 130.338 340.027 130.295C339.983 130.251 339.937 130.21 339.893 130.167C339.85 130.124 339.81 130.078 339.767 130.035C339.724 129.992 339.678 129.951 339.634 129.908C339.591 129.865 339.551 129.819 339.508 129.776C339.464 129.732 339.418 129.692 339.375 129.649C339.332 129.605 339.291 129.559 339.248 129.516C339.205 129.473 339.159 129.433 339.116 129.39C339.072 129.346 339.032 129.3 338.989 129.257C338.945 129.213 338.899 129.173 338.855 129.129C338.812 129.086 338.772 129.04 338.729 128.997C338.686 128.954 338.64 128.913 338.596 128.87C338.553 128.827 338.513 128.781 338.47 128.738C338.426 128.694 338.38 128.654 338.337 128.611C338.294 128.567 338.253 128.521 338.21 128.478C338.167 128.435 338.121 128.395 338.078 128.352C338.034 128.308 337.994 128.262 337.951 128.219C337.907 128.175 337.861 128.135 337.817 128.091C337.774 128.048 337.734 128.002 337.691 127.959C337.648 127.916 337.602 127.875 337.558 127.832C337.515 127.789 337.475 127.743 337.432 127.7C337.388 127.656 337.342 127.616 337.299 127.573C337.256 127.529 337.216 127.483 337.172 127.44C337.129 127.397 337.083 127.357 337.04 127.314C336.996 127.27 336.956 127.224 336.913 127.181C336.869 127.137 336.823 127.097 336.779 127.053C336.736 127.01 336.696 126.964 336.653 126.921C336.61 126.878 336.564 126.837 336.52 126.794C336.477 126.751 336.437 126.705 336.394 126.662C336.35 126.618 336.304 126.578 336.261 126.535C336.218 126.491 336.178 126.445 336.134 126.402C336.091 126.359 336.045 126.319 336.002 126.276C335.959 126.232 335.918 126.186 335.875 126.143C335.831 126.099 335.785 126.059 335.742 126.016C335.699 125.972 335.659 125.926 335.615 125.883C335.572 125.84 335.525 125.799 335.482 125.756C335.439 125.712 335.399 125.667 335.356 125.624C335.312 125.58 335.266 125.54 335.223 125.497C335.18 125.453 335.14 125.407 335.096 125.364C335.053 125.321 335.007 125.281 334.964 125.238C334.921 125.194 334.88 125.148 334.837 125.105C334.793 125.061 334.747 125.021 334.704 124.978C334.661 124.934 334.621 124.888 334.577 124.845C334.534 124.802 334.488 124.761 334.444 124.718C334.401 124.675 334.361 124.629 334.318 124.586C334.274 124.542 334.228 124.502 334.185 124.459C334.142 124.415 334.102 124.369 334.058 124.326C334.015 124.283 333.969 124.242 333.925 124.199C333.882 124.156 333.842 124.11 333.799 124.067C333.756 124.023 333.71 123.983 333.666 123.94C333.623 123.897 333.583 123.851 333.539 123.807C333.496 123.764 333.45 123.723 333.406 123.68C333.363 123.637 333.323 123.591 333.28 123.548C333.237 123.504 333.19 123.464 333.147 123.421C333.104 123.377 333.064 123.331 333.02 123.288C332.977 123.245 332.931 123.204 332.887 123.161C332.844 123.118 332.804 123.072 332.761 123.029C332.718 122.985 332.672 122.945 332.628 122.902C332.585 122.859 332.545 122.813 332.501 122.769C332.458 122.726 332.412 122.685 332.368 122.642C332.325 122.599 332.285 122.553 332.242 122.51C332.199 122.466 332.152 122.426 332.109 122.383C332.066 122.339 332.026 122.293 331.983 122.25C331.939 122.207 331.893 122.167 331.849 122.123C331.806 122.08 331.766 122.034 331.723 121.991C331.68 121.947 331.634 121.907 331.59 121.864C331.547 121.821 331.507 121.775 331.464 121.731C331.42 121.688 331.374 121.647 331.33 121.604C331.287 121.561 331.247 121.515 331.204 121.472C331.161 121.428 331.114 121.388 331.071 121.345C331.028 121.301 330.988 121.256 330.945 121.212C330.901 121.169 330.855 121.129 330.811 121.085C330.768 121.042 330.728 120.996 330.685 120.953C330.642 120.91 330.596 120.869 330.552 120.826C330.509 120.783 330.469 120.737 330.426 120.693C330.382 120.65 330.336 120.609 330.292 120.566C330.249 120.523 330.209 120.477 330.166 120.434C330.123 120.39 330.076 120.35 330.033 120.307C329.99 120.263 329.95 120.218 329.907 120.174C329.863 120.131 329.817 120.091 329.773 120.047C329.73 120.004 329.69 119.958 329.647 119.915C329.604 119.872 329.558 119.831 329.514 119.788C329.471 119.745 329.431 119.699 329.388 119.655C329.344 119.612 329.298 119.572 329.255 119.528C329.211 119.485 329.171 119.439 329.128 119.396C329.085 119.352 329.038 119.312 328.995 119.268C328.952 119.225 328.912 119.179 328.869 119.136C328.825 119.093 328.779 119.053 328.736 119.009C328.692 118.966 328.652 118.92 328.609 118.877C328.566 118.834 328.52 118.793 328.477 118.75C328.433 118.707 328.393 118.661 328.35 118.617C328.306 118.574 328.26 118.534 328.217 118.49C328.173 118.447 328.133 118.401 328.09 118.358C328.047 118.314 328 118.274 327.957 118.23C327.914 118.187 327.874 118.141 327.831 118.098C327.787 118.055 327.741 118.015 327.698 117.971C327.655 117.928 327.614 117.882 327.571 117.839C327.528 117.795 327.482 117.755 327.438 117.712C327.395 117.669 327.355 117.623 327.312 117.579C327.268 117.536 327.222 117.496 327.179 117.453C327.136 117.409 327.096 117.363 327.052 117.32C327.009 117.276 326.962 117.236 326.919 117.192C326.876 117.149 326.836 117.103 326.793 117.06C326.749 117.017 326.703 116.977 326.66 116.933C326.617 116.89 326.576 116.844 326.533 116.801C326.49 116.758 326.444 116.717 326.4 116.674C326.357 116.631 326.317 116.585 326.274 116.541C326.23 116.498 326.184 116.458 326.141 116.415C326.098 116.371 326.058 116.325 326.014 116.282C325.971 116.238 325.924 116.198 325.881 116.154C325.838 116.111 325.798 116.065 325.755 116.022C325.711 115.979 325.665 115.939 325.622 115.895C325.579 115.852 325.538 115.806 325.495 115.763C325.452 115.72 325.406 115.679 325.362 115.636C325.319 115.593 325.279 115.547 325.236 115.503C325.193 115.46 325.146 115.42 325.103 115.377C325.06 115.333 325.02 115.287 324.976 115.244C324.933 115.2 324.886 115.16 324.843 115.116C324.8 115.073 324.76 115.027 324.717 114.984C324.673 114.941 324.627 114.901 324.584 114.857C324.541 114.814 324.5 114.768 324.457 114.725C324.414 114.682 324.368 114.641 324.324 114.598C324.281 114.555 324.241 114.509 324.198 114.465C324.154 114.422 324.109 114.382 324.065 114.339C324.022 114.295 323.982 114.249 323.938 114.206C323.895 114.162 323.848 114.122 323.805 114.079C323.762 114.035 323.722 113.99 323.679 113.946C323.635 113.903 323.589 113.863 323.546 113.819C323.503 113.776 323.463 113.73 323.419 113.687C323.376 113.644 323.33 113.603 323.286 113.56C323.243 113.517 323.203 113.471 323.16 113.428C323.117 113.384 323.071 113.344 323.027 113.301C322.984 113.257 322.944 113.211 322.9 113.168C322.857 113.125 322.811 113.084 322.767 113.041C322.724 112.998 322.684 112.952 322.641 112.909C322.597 112.865 322.551 112.824 322.507 112.781C322.464 112.738 322.424 112.692 322.381 112.649C322.338 112.606 322.292 112.565 322.248 112.522C322.205 112.479 322.165 112.433 322.122 112.39C322.079 112.346 322.033 112.306 321.989 112.263C321.946 112.22 321.906 112.173 321.862 112.13C321.819 112.087 321.773 112.046 321.729 112.003C321.686 111.96 321.646 111.914 321.603 111.871C321.559 111.827 321.513 111.787 321.469 111.743C321.426 111.7 321.386 111.654 321.343 111.611C321.3 111.568 321.254 111.527 321.21 111.484C321.167 111.441 321.127 111.395 321.084 111.352C321.041 111.308 320.994 111.268 320.951 111.225C320.908 111.181 320.868 111.135 320.824 111.092C320.781 111.049 320.735 111.009 320.692 110.966C320.649 110.922 320.608 110.876 320.565 110.833C320.521 110.789 320.475 110.749 320.431 110.705C320.388 110.662 320.348 110.616 320.305 110.573C320.262 110.53 320.216 110.489 320.172 110.446C320.129 110.403 320.089 110.357 320.046 110.314C320.003 110.27 319.956 110.23 319.913 110.187C319.87 110.143 319.83 110.097 319.786 110.054C319.743 110.011 319.697 109.971 319.654 109.928C319.611 109.884 319.57 109.838 319.527 109.795C319.483 109.751 319.437 109.711 319.393 109.667C319.35 109.624 319.311 109.578 319.267 109.535C319.224 109.492 319.178 109.451 319.134 109.408C319.091 109.365 319.051 109.319 319.008 109.276C318.965 109.232 318.918 109.192 318.875 109.149C318.832 109.105 318.792 109.059 318.748 109.016C318.705 108.973 318.659 108.933 318.616 108.89C318.573 108.846 318.532 108.8 318.489 108.757C318.445 108.713 318.399 108.673 318.355 108.629C318.313 108.586 318.273 108.54 318.23 108.497C318.186 108.454 318.14 108.413 318.096 108.37C318.053 108.327 318.013 108.281 317.97 108.238C317.927 108.194 317.881 108.154 317.837 108.111C317.794 108.067 317.754 108.021 317.711 107.978C317.667 107.935 317.621 107.895 317.578 107.852C317.535 107.808 317.494 107.762 317.451 107.719C317.408 107.675 317.361 107.635 317.317 107.591C317.275 107.548 317.235 107.502 317.192 107.459C317.148 107.416 317.102 107.375 317.059 107.332C317.015 107.289 316.975 107.243 316.932 107.2C316.889 107.156 316.843 107.116 316.799 107.073C316.756 107.029 316.716 106.983 316.673 106.94C316.629 106.897 316.583 106.857 316.54 106.814C316.497 106.77 316.457 106.724 316.413 106.681C316.37 106.637 316.324 106.597 316.28 106.554C316.237 106.51 316.197 106.464 316.154 106.421C316.11 106.378 316.064 106.337 316.02 106.294C315.977 106.251 315.937 106.205 315.894 106.162C315.851 106.118 315.805 106.078 315.761 106.035C315.718 105.991 315.678 105.945 315.635 105.902C315.591 105.859 315.545 105.819 315.502 105.776C315.459 105.732 315.419 105.686 315.375 105.643C315.332 105.599 315.286 105.559 315.242 105.516C315.199 105.472 315.159 105.426 315.116 105.383C315.072 105.34 315.026 105.299 314.982 105.256C314.939 105.213 314.899 105.167 314.856 105.124C314.813 105.08 314.767 105.04 314.723 104.997C314.68 104.953 314.64 104.907 314.597 104.864C314.553 104.821 314.507 104.781 314.464 104.737C314.42 104.694 314.38 104.648 314.337 104.605C314.294 104.562 314.248 104.521 314.205 104.478C314.161 104.435 314.121 104.389 314.078 104.345C314.034 104.302 313.988 104.261 313.944 104.218C313.901 104.175 313.861 104.129 313.818 104.086C313.775 104.042 313.729 104.002 313.685 103.959C313.642 103.915 313.602 103.87 313.559 103.826C313.515 103.783 313.469 103.743 313.426 103.699C313.383 103.656 313.342 103.61 313.299 103.567C313.256 103.524 313.21 103.483 313.167 103.44C313.123 103.397 313.083 103.351 313.04 103.307C312.996 103.264 312.95 103.223 312.906 103.18C312.863 103.137 312.823 103.091 312.78 103.048C312.737 103.004 312.691 102.964 312.647 102.921C312.604 102.877 312.564 102.832 312.521 102.788C312.477 102.745 312.431 102.705 312.388 102.661C312.345 102.618 312.305 102.572 312.261 102.529C312.218 102.486 312.172 102.445 312.129 102.402C312.085 102.359 312.045 102.313 312.002 102.269C311.958 102.226 311.912 102.185 311.868 102.142C311.825 102.099 311.785 102.053 311.742 102.01C311.699 101.966 311.653 101.926 311.609 101.883C311.566 101.839 311.526 101.794 311.483 101.75C311.439 101.707 311.393 101.667 311.35 101.623C311.307 101.58 311.267 101.534 311.223 101.491C311.18 101.448 311.134 101.407 311.091 101.364C311.048 101.321 311.007 101.275 310.964 101.231C310.92 101.188 310.874 101.147 310.83 101.104C310.787 101.061 310.747 101.015 310.704 100.972C310.661 100.928 310.615 100.888 310.571 100.845C310.528 100.802 310.488 100.756 310.445 100.712C310.402 100.669 310.355 100.629 310.312 100.585C310.269 100.542 310.229 100.496 310.185 100.453C310.142 100.41 310.096 100.37 310.053 100.326C310.01 100.283 309.969 100.237 309.926 100.193C309.883 100.15 309.836 100.11 309.793 100.066C309.75 100.023 309.71 99.9771 309.666 99.9339C309.623 99.8903 309.577 99.8499 309.533 99.8064C309.49 99.7632 309.45 99.7175 309.407 99.6744C309.364 99.631 309.317 99.5907 309.274 99.5474C309.231 99.5041 309.191 99.4582 309.147 99.4149C309.104 99.3717 309.058 99.3315 309.015 99.2884C308.972 99.2449 308.931 99.1987 308.888 99.1554C308.845 99.112 308.798 99.0716 308.755 99.0284C308.712 98.9851 308.672 98.9391 308.628 98.8959C308.585 98.8523 308.539 98.8119 308.495 98.7685C308.452 98.7253 308.412 98.6795 308.369 98.6365C308.326 98.593 308.279 98.5527 308.236 98.5094C308.193 98.4661 308.153 98.4202 308.109 98.377C308.066 98.3335 308.02 98.2932 307.976 98.25C307.933 98.2066 307.893 98.1607 307.85 98.1175C307.807 98.0742 307.761 98.0341 307.717 97.991C307.674 97.9474 307.634 97.9013 307.59 97.858C307.547 97.8144 307.501 97.7739 307.457 97.7305C307.414 97.6873 307.374 97.6415 307.331 97.5985C307.288 97.5551 307.241 97.5147 307.198 97.4715C307.155 97.4281 307.115 97.3822 307.072 97.339C307.028 97.2956 306.982 97.2552 306.938 97.212C306.895 97.1686 306.855 97.1227 306.812 97.0795C306.769 97.0362 306.723 96.9961 306.679 96.953C306.636 96.9095 306.596 96.8633 306.553 96.82C306.509 96.7764 306.463 96.736 306.419 96.6925C306.376 96.6493 306.336 96.6035 306.293 96.5605C306.25 96.5171 306.203 96.4767 306.16 96.4335C306.117 96.3902 306.077 96.3442 306.034 96.301C305.99 96.2576 305.944 96.2173 305.9 96.174C305.857 96.1307 305.817 96.0848 305.774 96.0415C305.731 95.9983 305.685 95.9581 305.642 95.915C305.598 95.8715 305.558 95.8254 305.515 95.782C305.471 95.7384 305.425 95.698 305.381 95.6546C305.338 95.6114 305.298 95.5656 305.255 95.5225C305.212 95.4791 305.165 95.4388 305.122 95.3955C305.079 95.3522 305.039 95.3063 304.996 95.2631C304.952 95.2196 304.906 95.1793 304.862 95.136C304.819 95.0927 304.779 95.0468 304.736 95.0036C304.693 94.9603 304.647 94.9202 304.604 94.877C304.56 94.8335 304.52 94.7874 304.477 94.744C304.433 94.7004 304.387 94.66 304.343 94.6166C304.3 94.5734 304.26 94.5276 304.217 94.4846C304.174 94.4411 304.128 94.4008 304.084 94.3576C304.041 94.3142 304.001 94.2683 303.958 94.2251C303.914 94.1817 303.868 94.1413 303.825 94.0981C303.781 94.0547 303.741 94.0088 303.698 93.9656C303.655 93.9223 303.609 93.8822 303.565 93.8391C303.522 93.7956 303.482 93.7494 303.439 93.7061C303.395 93.6627 303.349 93.6223 303.306 93.5791C303.262 93.5357 303.222 93.4898 303.179 93.4466C303.136 93.403 303.089 93.3626 303.046 93.3191C303.003 93.2759 302.963 93.2301 302.92 93.1871C302.876 93.1437 302.83 93.1033 302.787 93.0601C302.743 93.0168 302.703 92.9708 302.66 92.9276C302.617 92.8843 302.571 92.8442 302.528 92.8011C302.484 92.7576 302.444 92.7114 302.401 92.6681C302.357 92.6247 302.311 92.5843 302.268 92.5411C302.225 92.4978 302.184 92.4518 302.141 92.4086C302.098 92.365 302.051 92.3246 302.008 92.2812C301.965 92.238 301.925 92.1922 301.882 92.1491C301.838 92.1057 301.792 92.0654 301.749 92.0221C301.706 91.9788 301.665 91.9329 301.622 91.8897C301.579 91.8462 301.533 91.8059 301.489 91.7626C301.446 91.7193 301.406 91.6734 301.363 91.6302C301.319 91.5869 301.274 91.5468 301.23 91.5036C301.187 91.4601 301.147 91.414 301.103 91.3707C301.06 91.327 301.013 91.2866 300.97 91.2432C300.927 91.2 300.887 91.1542 300.844 91.1112C300.8 91.0677 300.754 91.0274 300.711 90.9842C300.668 90.9408 300.628 90.8949 300.584 90.8517C300.541 90.8083 300.495 90.7679 300.451 90.7247C300.408 90.6813 300.368 90.6354 300.325 90.5922C300.282 90.5489 300.236 90.5088 300.192 90.4657C300.149 90.4222 300.109 90.376 300.065 90.3327C300.022 90.2891 299.975 90.2486 299.932 90.2052C299.889 90.162 299.849 90.1162 299.806 90.0732C299.762 90.0298 299.716 89.9894 299.673 89.9462C299.63 89.9029 299.59 89.8569 299.546 89.8137C299.503 89.7703 299.457 89.73 299.413 89.6867C299.37 89.6434 299.33 89.5974 299.287 89.5542C299.244 89.5109 299.198 89.4708 299.154 89.4277C299.111 89.3842 299.071 89.338 299.027 89.2947C298.984 89.2511 298.937 89.2107 298.894 89.1673C298.851 89.1241 298.811 89.0783 298.768 89.0352C298.724 88.9918 298.678 88.9515 298.635 88.9082C298.592 88.8649 298.552 88.8189 298.508 88.7757C298.465 88.7323 298.419 88.692 298.375 88.6487C298.332 88.6054 298.292 88.5595 298.249 88.5163C298.206 88.473 298.16 88.4328 298.116 88.3897C298.073 88.3462 298.033 88.3001 297.989 88.2567C297.946 88.2131 297.9 88.1727 297.856 88.1293C297.813 88.0861 297.773 88.0403 297.73 87.9973C297.686 87.9538 297.64 87.9135 297.597 87.8702C297.554 87.8269 297.514 87.781 297.47 87.7378C297.427 87.6944 297.381 87.654 297.337 87.6108C297.294 87.5674 297.254 87.5215 297.211 87.4783C297.168 87.435 297.122 87.3949 297.078 87.3518C297.035 87.3083 296.995 87.2621 296.951 87.2188C296.908 87.1753 296.862 87.135 296.818 87.0918C296.775 87.0484 296.735 87.0025 296.692 86.9593C296.648 86.9157 296.602 86.8753 296.558 86.8318C296.515 86.7886 296.476 86.7428 296.432 86.6998C296.389 86.6564 296.343 86.616 296.299 86.5728C296.256 86.5295 296.216 86.4835 296.173 86.4403C296.13 86.397 296.084 86.3569 296.04 86.3138C295.997 86.2703 295.957 86.2241 295.913 86.1808C295.87 86.1374 295.824 86.097 295.78 86.0538C295.737 86.0104 295.697 85.9645 295.654 85.9213C295.61 85.8777 295.564 85.8373 295.52 85.7939C295.478 85.7507 295.438 85.7049 295.395 85.6618C295.351 85.6184 295.305 85.5781 295.261 85.5348C295.218 85.4915 295.178 85.4456 295.135 85.4024C295.092 85.3589 295.045 85.3186 295.002 85.2753C294.959 85.232 294.919 85.1861 294.876 85.1429C294.832 85.0996 294.786 85.0595 294.743 85.0163C294.7 84.9728 294.659 84.9267 294.616 84.8833C294.573 84.8397 294.526 84.7993 294.482 84.7559C294.44 84.7127 294.4 84.6669 294.356 84.6239C294.313 84.5804 294.267 84.5401 294.223 84.4968C294.18 84.4535 294.14 84.4076 294.097 84.3644C294.054 84.321 294.007 84.2806 293.964 84.2374C293.921 84.194 293.881 84.1481 293.838 84.1049C293.794 84.0616 293.748 84.0215 293.705 83.9784C293.662 83.9349 293.621 83.8887 293.578 83.8454C293.535 83.8018 293.488 83.7613 293.444 83.7179C293.402 83.6747 293.362 83.6289 293.318 83.5859C293.275 83.5425 293.229 83.5021 293.185 83.4589C293.142 83.4155 293.102 83.3696 293.059 83.3264C293.016 83.283 292.97 83.2426 292.926 83.1994C292.883 83.1561 292.843 83.1101 292.8 83.0669C292.756 83.0236 292.71 82.9835 292.667 82.9404C292.624 82.8969 292.583 82.8507 292.54 82.8074C292.496 82.7638 292.45 82.7234 292.407 82.6799C292.364 82.6367 292.324 82.591 292.281 82.5479C292.237 82.5045 292.191 82.4641 292.148 82.4209C292.104 82.3776 292.064 82.3316 292.021 82.2884C291.978 82.245 291.932 82.2047 291.888 82.1614C291.845 82.1181 291.805 82.0722 291.762 82.0289C291.718 81.9857 291.672 81.9455 291.629 81.9024C291.586 81.8589 291.546 81.8128 291.502 81.7694C291.459 81.7258 291.412 81.6854 291.369 81.642C291.326 81.5988 291.286 81.553 291.243 81.5099C291.199 81.4665 291.153 81.4262 291.11 81.3829C291.067 81.3396 291.026 81.2937 290.983 81.2505C290.94 81.207 290.894 81.1667 290.85 81.1235C290.807 81.0801 290.767 81.0342 290.724 80.991C290.68 80.9477 290.634 80.9076 290.591 80.8645C290.548 80.8209 290.508 80.7748 290.464 80.7315C290.421 80.688 290.375 80.6477 290.331 80.6044C290.288 80.5611 290.248 80.5152 290.205 80.472C290.161 80.4284 290.115 80.3879 290.071 80.3445C290.028 80.3013 289.988 80.2555 289.945 80.2125C289.902 80.1691 289.856 80.1287 289.812 80.0855C289.769 80.0421 289.729 79.9962 289.686 79.953C289.642 79.9097 289.596 79.8696 289.553 79.8265C289.51 79.783 289.47 79.7368 289.426 79.6935C289.383 79.6501 289.337 79.6097 289.293 79.5665C289.25 79.5231 289.21 79.4772 289.167 79.434C289.123 79.3904 289.077 79.35 289.033 79.3066C288.99 79.2633 288.95 79.2176 288.907 79.1745C288.864 79.1311 288.818 79.0908 288.774 79.0475C288.731 79.0042 288.691 78.9582 288.648 78.915C288.604 78.8716 288.558 78.8313 288.515 78.788C288.472 78.7447 288.431 78.6988 288.388 78.6556C288.345 78.6123 288.299 78.5721 288.256 78.529C288.212 78.4855 288.172 78.4394 288.129 78.396C288.085 78.3524 288.039 78.312 287.995 78.2686C287.952 78.2254 287.912 78.1796 287.869 78.1366C287.826 78.0931 287.78 78.0528 287.736 78.0095C287.693 77.9662 287.653 77.9203 287.61 77.8771C287.566 77.8336 287.52 77.7933 287.477 77.7501C287.434 77.7067 287.393 77.6608 287.35 77.6176C287.307 77.5743 287.261 77.5342 287.218 77.4911C287.174 77.4475 287.134 77.4014 287.091 77.3581C287.047 77.3145 287.001 77.274 286.957 77.2306C286.914 77.1874 286.874 77.1416 286.831 77.0986C286.788 77.0552 286.742 77.0148 286.698 76.9716C286.655 76.9282 286.615 76.8823 286.572 76.8391C286.528 76.7957 286.482 76.7553 286.439 76.7121C286.396 76.6688 286.356 76.6228 286.312 76.5796C286.269 76.5363 286.223 76.4962 286.18 76.4531C286.136 76.4096 286.096 76.3634 286.053 76.3201C286.009 76.2765 285.963 76.2361 285.919 76.1926C285.876 76.1494 285.836 76.1036 285.793 76.0606C285.75 76.0172 285.704 75.9768 285.66 75.9336C285.617 75.8903 285.577 75.8443 285.534 75.8011C285.49 75.7577 285.444 75.7174 285.401 75.6741C285.358 75.6308 285.318 75.5849 285.274 75.5416C285.231 75.4984 285.185 75.4582 285.142 75.4151C285.099 75.3716 285.058 75.3255 285.015 75.2821C284.971 75.2385 284.925 75.1981 284.881 75.1547C284.838 75.1115 284.798 75.0657 284.755 75.0226C284.712 74.9792 284.666 74.9389 284.622 74.8956C284.579 74.8523 284.539 74.8064 284.496 74.7632C284.453 74.7197 284.406 74.6794 284.363 74.6361C284.32 74.5928 284.28 74.5469 284.236 74.5037C284.193 74.4604 284.147 74.4203 284.104 74.3771C284.061 74.3336 284.02 74.2875 283.977 74.2441C283.934 74.2007 283.887 74.1604 283.844 74.1171C283.801 74.0738 283.761 74.0279 283.717 73.9847C283.674 73.9411 283.628 73.9006 283.584 73.8572C283.541 73.814 283.501 73.7682 283.458 73.7252C283.415 73.6818 283.368 73.6414 283.325 73.5982C283.282 73.5548 283.242 73.5089 283.198 73.4657C283.155 73.4224 283.109 73.3823 283.066 73.3392C283.023 73.2957 282.982 73.2495 282.939 73.2062C282.896 73.1628 282.849 73.1224 282.806 73.0792C282.763 73.0358 282.723 72.9899 282.679 72.9467C282.636 72.9031 282.59 72.8627 282.546 72.8192C282.503 72.776 282.463 72.7302 282.42 72.6872C282.377 72.6438 282.33 72.6035 282.287 72.5602C282.244 72.5169 282.204 72.4709 282.16 72.4277C282.117 72.3843 282.071 72.344 282.027 72.3007C281.984 72.2574 281.944 72.2114 281.901 72.1682C281.858 72.125 281.812 72.0848 281.768 72.0417C281.725 71.9982 281.685 71.9521 281.641 71.9087C281.598 71.8651 281.552 71.8247 281.508 71.7813C281.465 71.7381 281.425 71.6923 281.382 71.6492C281.339 71.6058 281.293 71.5655 281.249 71.5222C281.206 71.4789 281.166 71.433 281.123 71.3898C281.079 71.3463 281.033 71.306 280.989 71.2627C280.946 71.2194 280.906 71.1735 280.863 71.1303C280.82 71.087 280.774 71.0469 280.73 71.0037C280.687 70.9602 280.647 70.9141 280.604 70.8708C280.56 70.8272 280.514 70.7867 280.47 70.7433C280.427 70.7001 280.387 70.6543 280.344 70.6113C280.301 70.5678 280.255 70.5275 280.211 70.4843C280.168 70.4409 280.128 70.395 280.085 70.3518C280.041 70.3084 279.995 70.268 279.951 70.2248C279.908 70.1814 279.868 70.1355 279.825 70.0923C279.782 70.049 279.736 70.0089 279.693 69.9658C279.649 69.9223 279.609 69.8761 279.566 69.8328C279.522 69.7892 279.476 69.7487 279.432 69.7053C279.389 69.6621 279.349 69.6163 279.306 69.5733C279.263 69.5299 279.217 69.4895 279.173 69.4463C279.13 69.403 279.09 69.357 279.047 69.3138C279.003 69.2704 278.957 69.2301 278.913 69.1868C278.87 69.1435 278.83 69.0975 278.787 69.0543C278.744 69.011 278.698 68.9709 278.655 68.9278C278.611 68.8843 278.571 68.8381 278.528 68.7948C278.484 68.7512 278.438 68.7108 278.394 68.6674C278.351 68.6242 278.311 68.5784 278.268 68.5353C278.225 68.4919 278.179 68.4516 278.135 68.4083C278.092 68.365 278.052 68.319 278.009 68.2758C277.965 68.2324 277.919 68.1921 277.876 68.1488C277.832 68.1055 277.792 68.0596 277.749 68.0164C277.706 67.9731 277.66 67.933 277.617 67.8898C277.573 67.8463 277.533 67.8002 277.49 67.7568C277.446 67.7134 277.4 67.6731 277.357 67.6298C277.313 67.5865 277.273 67.5406 277.23 67.4974C277.187 67.4538 277.14 67.4133 277.097 67.3699C277.054 67.3267 277.014 67.2809 276.971 67.2379C276.927 67.1945 276.881 67.1541 276.838 67.1109C276.795 67.0675 276.754 67.0216 276.711 66.9784C276.668 66.9351 276.622 66.895 276.579 66.8519C276.535 66.8084 276.495 66.7622 276.452 66.7189C276.408 66.6754 276.362 66.6351 276.319 66.5919C276.276 66.5485 276.235 66.5026 276.192 66.4594C276.149 66.4158 276.102 66.3754 276.059 66.3319C276.016 66.2887 275.976 66.2429 275.933 66.1999C275.889 66.1565 275.843 66.1161 275.8 66.0729C275.757 66.0296 275.716 65.9836 275.673 65.9404C275.63 65.897 275.584 65.8567 275.54 65.8134C275.497 65.7701 275.457 65.7241 275.414 65.6809C275.371 65.6376 275.325 65.5975 275.281 65.5544C275.238 65.5109 275.198 65.4647 275.154 65.4214C275.111 65.3778 275.064 65.3374 275.021 65.294C274.978 65.2508 274.938 65.205 274.895 65.1619C274.851 65.1185 274.805 65.0782 274.762 65.0349C274.719 64.9916 274.679 64.9457 274.635 64.9024C274.592 64.859 274.546 64.8187 274.502 64.7754C274.459 64.7321 274.419 64.6862 274.376 64.643C274.333 64.5997 274.287 64.5596 274.243 64.5164C274.2 64.4729 274.16 64.4268 274.116 64.3834C274.073 64.3398 274.026 64.2994 273.983 64.256C273.94 64.2128 273.9 64.167 273.857 64.124C273.814 64.0805 273.767 64.0402 273.724 63.9969C273.681 63.9536 273.641 63.9077 273.597 63.8645C273.554 63.8211 273.508 63.7807 273.464 63.7375C273.421 63.6941 273.381 63.6482 273.338 63.605C273.295 63.5617 273.249 63.5216 273.205 63.4785C273.162 63.435 273.122 63.3888 273.078 63.3455C273.035 63.3019 272.989 63.2614 272.945 63.218C272.902 63.1748 272.862 63.129 272.819 63.086C272.776 63.0426 272.729 63.0022 272.686 62.959C272.643 62.9156 272.603 62.8697 272.559 62.8265C272.516 62.7831 272.47 62.7427 272.426 62.6995C272.383 62.6562 272.343 62.6102 272.3 62.567C272.257 62.5237 272.211 62.4836 272.167 62.4405C272.124 62.397 272.084 62.3508 272.04 62.3075C271.997 62.2639 271.951 62.2235 271.907 62.18C271.864 62.1368 271.824 62.091 271.781 62.048C271.738 62.0046 271.691 61.9643 271.648 61.921C271.605 61.8777 271.565 61.8317 271.521 61.7885C271.478 61.7451 271.432 61.7048 271.388 61.6615C271.345 61.6182 271.305 61.5723 271.262 61.5291C271.219 61.4858 271.173 61.4456 271.129 61.4025C271.086 61.359 271.046 61.3129 271.002 61.2695C270.959 61.2261 270.913 61.1858 270.869 61.1425C270.826 61.0992 270.786 61.0533 270.743 61.01C270.699 60.9664 270.653 60.926 270.609 60.8826C270.567 60.8394 270.527 60.7936 270.483 60.7506C270.44 60.7071 270.394 60.6668 270.35 60.6236C270.307 60.5802 270.267 60.5343 270.224 60.4911C270.181 60.4478 270.135 60.4077 270.091 60.3646C270.048 60.321 270.008 60.2749 269.965 60.2316C269.921 60.1881 269.875 60.1478 269.831 60.1045C269.788 60.0612 269.748 60.0153 269.705 59.9721C269.661 59.9285 269.615 59.888 269.571 59.8446C269.529 59.8014 269.489 59.7556 269.446 59.7126C269.402 59.6692 269.356 59.6288 269.312 59.5856C269.269 59.5422 269.229 59.4963 269.186 59.4531C269.143 59.4097 269.097 59.3693 269.053 59.3261C269.01 59.2828 268.97 59.2368 268.927 59.1936C268.883 59.1503 268.837 59.1102 268.794 59.0671C268.751 59.0236 268.711 58.9774 268.667 58.9341C268.624 58.8905 268.577 58.8501 268.533 58.8067C268.491 58.7634 268.451 58.7177 268.408 58.6746C268.364 58.6312 268.318 58.5909 268.274 58.5476C268.231 58.5043 268.191 58.4583 268.148 58.4151C268.105 58.3717 268.059 58.3314 268.015 58.2881C267.972 58.2448 267.932 58.1989 267.889 58.1557C267.845 58.1124 267.799 58.0722 267.756 58.0291C267.713 57.9856 267.673 57.9395 267.629 57.8961C267.586 57.8525 267.539 57.8121 267.496 57.7687C267.453 57.7255 267.413 57.6797 267.37 57.6366C267.326 57.5932 267.28 57.5529 267.237 57.5096C267.193 57.4663 267.153 57.4204 267.11 57.3772C267.067 57.3337 267.021 57.2934 266.977 57.2502C266.934 57.2068 266.894 57.1609 266.851 57.1177C266.807 57.0744 266.761 57.0343 266.718 56.9912C266.675 56.9477 266.634 56.9015 266.591 56.8582C266.548 56.8146 266.501 56.7741 266.458 56.7307C266.415 56.6875 266.375 56.6417 266.332 56.5987C266.288 56.5553 266.242 56.5149 266.199 56.4717C266.155 56.4283 266.115 56.3824 266.072 56.3392C266.029 56.2958 265.983 56.2554 265.939 56.2122C265.896 56.1688 265.856 56.1229 265.813 56.0797C265.769 56.0364 265.723 55.9963 265.68 55.9532C265.637 55.9097 265.597 55.8635 265.553 55.8202C265.51 55.7766 265.463 55.7362 265.42 55.6927C265.377 55.6495 265.337 55.6037 265.294 55.5607C265.25 55.5173 265.204 55.4769 265.161 55.4337C265.118 55.3904 265.077 55.3444 265.034 55.3012C264.991 55.2578 264.945 55.2175 264.901 55.1742C264.858 55.1309 264.818 55.0849 264.775 55.0417C264.731 54.9984 264.686 54.9583 264.642 54.9152C264.599 54.8717 264.559 54.8256 264.515 54.7822C264.472 54.7388 264.426 54.6985 264.382 54.6552C264.339 54.6119 264.299 54.5659 264.256 54.5227C264.212 54.4791 264.166 54.4387 264.122 54.3953C264.079 54.3521 264.039 54.3063 263.996 54.2633C263.953 54.2198 263.907 54.1795 263.863 54.1362C263.82 54.0929 263.78 54.047 263.737 54.0038C263.694 53.9605 263.648 53.9204 263.604 53.8772C263.561 53.8337 263.521 53.7876 263.477 53.7442C263.434 53.7008 263.388 53.6605 263.344 53.6172C263.301 53.5739 263.261 53.528 263.218 53.4848C263.174 53.4412 263.128 53.4007 263.084 53.3573C263.041 53.3141 263.001 53.2683 262.958 53.2253C262.915 53.1819 262.869 53.1415 262.825 53.0983C262.782 53.0549 262.742 53.009 262.699 52.9658C262.655 52.9224 262.609 52.882 262.566 52.8388C262.523 52.7955 262.483 52.7495 262.439 52.7063C262.396 52.663 262.35 52.6229 262.307 52.5798C262.264 52.5363 262.223 52.4901 262.18 52.4468C262.136 52.4032 262.09 52.3628 262.046 52.3193C262.003 52.2761 261.963 52.2303 261.92 52.1873C261.877 52.1439 261.831 52.1035 261.787 52.0603C261.744 52.017 261.704 51.971 261.661 51.9278C261.617 51.8844 261.571 51.8441 261.528 51.8008C261.485 51.7575 261.445 51.7116 261.401 51.6683C261.358 51.6251 261.312 51.5849 261.269 51.5418C261.226 51.4983 261.185 51.4522 261.142 51.4088C261.098 51.3652 261.052 51.3248 261.008 51.2814C260.965 51.2382 260.925 51.1924 260.882 51.1493C260.839 51.1059 260.793 51.0656 260.749 51.0223C260.706 50.979 260.666 50.9331 260.623 50.8899C260.579 50.8464 260.533 50.8061 260.49 50.7628C260.447 50.7195 260.407 50.6736 260.363 50.6304C260.32 50.5871 260.274 50.547 260.231 50.5038C260.188 50.4603 260.147 50.4142 260.104 50.3708C260.06 50.3272 260.014 50.2868 259.97 50.2434C259.927 50.2002 259.888 50.1544 259.844 50.1114C259.801 50.0679 259.755 50.0276 259.711 49.9844C259.668 49.941 259.628 49.8951 259.585 49.8519C259.542 49.8085 259.495 49.7681 259.452 49.7249C259.409 49.6815 259.369 49.6356 259.325 49.5924C259.282 49.5491 259.236 49.509 259.193 49.4659C259.15 49.4224 259.109 49.3762 259.066 49.3329C259.022 49.2893 258.976 49.2488 258.932 49.2054C258.89 49.1622 258.85 49.1164 258.806 49.0734C258.763 49.03 258.717 48.9896 258.673 48.9464C258.63 48.903 258.59 48.8571 258.547 48.8139C258.504 48.7705 258.457 48.7302 258.414 48.6869C258.371 48.6436 258.331 48.5976 258.288 48.5544C258.244 48.5111 258.198 48.471 258.155 48.4279C258.112 48.3844 258.071 48.3382 258.028 48.2949C257.985 48.2515 257.938 48.2111 257.895 48.1679C257.852 48.1246 257.812 48.0786 257.769 48.0354C257.725 47.9918 257.679 47.9514 257.635 47.908C257.592 47.8648 257.552 47.819 257.509 47.7759C257.466 47.7325 257.419 47.6922 257.376 47.6489C257.333 47.6056 257.293 47.5597 257.25 47.5165C257.206 47.4732 257.16 47.4331 257.117 47.3899C257.074 47.3464 257.033 47.3003 256.99 47.2569C256.947 47.2135 256.9 47.1732 256.857 47.1299C256.814 47.0866 256.774 47.0407 256.731 46.9975C256.687 46.9539 256.641 46.9134 256.597 46.87C256.554 46.8268 256.514 46.781 256.471 46.738C256.428 46.6946 256.382 46.6542 256.338 46.611C256.295 46.5676 256.255 46.5217 256.212 46.4785C256.168 46.4351 256.122 46.3947 256.078 46.3515C256.035 46.3081 255.995 46.2622 255.952 46.219C255.909 46.1757 255.863 46.1356 255.819 46.0925C255.776 46.049 255.736 46.0028 255.693 45.9595C255.649 45.9159 255.603 45.8755 255.559 45.832C255.516 45.7888 255.476 45.743 255.433 45.7C255.39 45.6566 255.344 45.6162 255.3 45.573C255.257 45.5297 255.217 45.4837 255.174 45.4405C255.13 45.3971 255.084 45.3568 255.041 45.3135C254.997 45.2702 254.957 45.2242 254.914 45.181C254.871 45.1377 254.825 45.0976 254.782 45.0545C254.738 45.011 254.698 44.9648 254.655 44.9215C254.611 44.8779 254.565 44.8375 254.521 44.7941C254.478 44.7509 254.438 44.7051 254.395 44.662C254.352 44.6186 254.306 44.5783 254.262 44.535C254.219 44.4917 254.179 44.4458 254.136 44.4025C249.921 40.1833 244.943 36.8123 239.336 34.3827C233.75 31.95 227.662 30.7164 221.241 30.7164C214.9 30.7164 208.83 31.9504 203.199 34.3845C197.558 36.813 192.561 40.1833 188.345 44.4032C184.126 48.6186 180.755 53.5974 178.325 59.2026C175.893 64.7892 174.66 70.8773 174.66 77.298C174.66 83.6392 175.893 89.709 178.327 95.3403C180.756 100.981 184.126 105.978 188.346 110.193C188.389 110.237 188.435 110.277 188.479 110.32C188.522 110.363 188.562 110.41 188.605 110.453C188.649 110.496 188.695 110.537 188.739 110.58C188.782 110.623 188.822 110.669 188.865 110.712C188.908 110.756 188.954 110.796 188.997 110.838C189.041 110.882 189.081 110.928 189.124 110.972C189.168 111.015 189.214 111.055 189.257 111.098C189.3 111.142 189.341 111.188 189.384 111.231C189.427 111.275 189.473 111.315 189.517 111.358C189.56 111.401 189.6 111.448 189.643 111.491C189.687 111.534 189.733 111.575 189.777 111.618C189.82 111.661 189.86 111.707 189.903 111.75C189.946 111.794 189.992 111.833 190.035 111.876C190.079 111.92 190.119 111.966 190.162 112.01C190.206 112.053 190.252 112.093 190.295 112.136C190.338 112.18 190.379 112.226 190.422 112.269C190.465 112.313 190.511 112.353 190.555 112.396C190.598 112.439 190.638 112.486 190.681 112.529C190.725 112.572 190.771 112.613 190.815 112.656C190.858 112.699 190.898 112.745 190.941 112.788C190.984 112.832 191.03 112.872 191.074 112.915C191.117 112.958 191.157 113.005 191.2 113.048C191.244 113.091 191.289 113.131 191.333 113.174C191.376 113.218 191.416 113.264 191.46 113.307C191.503 113.351 191.549 113.391 191.593 113.434C191.636 113.477 191.676 113.524 191.719 113.567C191.763 113.61 191.809 113.651 191.852 113.694C191.896 113.737 191.936 113.783 191.979 113.826C192.022 113.87 192.068 113.91 192.111 113.953C192.155 113.996 192.195 114.042 192.238 114.086C192.281 114.129 192.327 114.169 192.371 114.212C192.414 114.256 192.454 114.302 192.498 114.345C192.541 114.389 192.587 114.429 192.63 114.472C192.674 114.515 192.714 114.561 192.757 114.605C192.801 114.648 192.847 114.688 192.89 114.731C192.933 114.775 192.973 114.821 193.017 114.864C193.06 114.908 193.106 114.948 193.15 114.991C193.193 115.035 193.233 115.081 193.276 115.124C193.319 115.167 193.365 115.207 193.409 115.25C193.452 115.293 193.492 115.34 193.536 115.383C193.579 115.427 193.625 115.467 193.668 115.51C193.712 115.553 193.752 115.599 193.795 115.643C193.839 115.686 193.885 115.726 193.928 115.769C193.971 115.813 194.011 115.859 194.055 115.902C194.098 115.946 194.144 115.986 194.188 116.029C194.231 116.073 194.271 116.119 194.314 116.162C194.357 116.205 194.403 116.245 194.447 116.288C194.49 116.331 194.53 116.378 194.574 116.421C194.617 116.465 194.663 116.505 194.706 116.548C194.75 116.591 194.79 116.637 194.833 116.681C194.876 116.724 194.923 116.764 194.966 116.807C195.009 116.851 195.049 116.897 195.093 116.94C195.136 116.984 195.182 117.024 195.226 117.067C195.269 117.111 195.309 117.157 195.352 117.2C195.395 117.243 195.441 117.283 195.484 117.326C195.528 117.369 195.568 117.416 195.612 117.459C195.655 117.502 195.701 117.543 195.744 117.586C195.788 117.629 195.828 117.675 195.871 117.719C195.914 117.762 195.961 117.802 196.004 117.845C196.047 117.889 196.087 117.935 196.131 117.978C196.174 118.022 196.22 118.062 196.264 118.105C196.307 118.148 196.347 118.194 196.39 118.238C196.433 118.281 196.479 118.321 196.522 118.364C196.566 118.407 196.606 118.454 196.65 118.497C196.693 118.54 196.739 118.581 196.782 118.624C196.826 118.667 196.866 118.713 196.909 118.757C196.952 118.8 196.998 118.84 197.042 118.883C197.085 118.927 197.125 118.973 197.169 119.016C197.212 119.06 197.258 119.1 197.302 119.143C197.345 119.186 197.385 119.232 197.428 119.276C197.471 119.319 197.517 119.359 197.561 119.402C197.604 119.446 197.644 119.492 197.688 119.535C197.731 119.578 197.777 119.618 197.82 119.661C197.863 119.705 197.904 119.751 197.947 119.795C197.99 119.838 198.036 119.878 198.08 119.921C198.123 119.965 198.163 120.011 198.207 120.054C198.25 120.098 198.296 120.138 198.34 120.181C198.383 120.224 198.423 120.27 198.466 120.314C198.509 120.357 198.555 120.397 198.599 120.44C198.642 120.484 198.682 120.53 198.726 120.573C198.769 120.616 198.815 120.656 198.858 120.699C198.901 120.743 198.942 120.789 198.985 120.833C199.028 120.876 199.074 120.916 199.118 120.959C199.161 121.003 199.201 121.049 199.245 121.092C199.288 121.135 199.334 121.176 199.377 121.219C199.42 121.262 199.461 121.308 199.504 121.352C199.547 121.395 199.594 121.435 199.637 121.479C199.68 121.522 199.72 121.568 199.764 121.611C199.807 121.654 199.853 121.694 199.896 121.737C199.939 121.781 199.98 121.827 200.023 121.871C200.066 121.914 200.112 121.954 200.156 121.997C200.199 122.041 200.239 122.087 200.283 122.13C200.326 122.173 200.372 122.214 200.415 122.257C200.458 122.3 200.499 122.346 200.542 122.39C200.586 122.433 200.632 122.473 200.675 122.517C200.718 122.56 200.758 122.606 200.802 122.649C200.845 122.692 200.891 122.732 200.934 122.775C200.977 122.819 201.018 122.865 201.061 122.909C201.104 122.952 201.15 122.992 201.194 123.035C201.237 123.079 201.277 123.125 201.321 123.168C201.364 123.211 201.41 123.251 201.453 123.295C201.496 123.338 201.537 123.384 201.58 123.428C201.624 123.471 201.67 123.511 201.713 123.554C201.756 123.598 201.796 123.644 201.84 123.687C201.883 123.73 201.929 123.77 201.972 123.813C202.015 123.857 202.056 123.903 202.099 123.947C202.142 123.99 202.188 124.03 202.232 124.073C202.275 124.117 202.315 124.163 202.359 124.206C202.402 124.249 202.448 124.289 202.491 124.333C202.534 124.376 202.575 124.422 202.618 124.466C202.661 124.509 202.708 124.549 202.751 124.592C202.794 124.636 202.834 124.682 202.878 124.725C202.921 124.768 202.967 124.808 203.01 124.851C203.053 124.895 203.093 124.941 203.137 124.985C203.18 125.028 203.226 125.068 203.27 125.111C203.313 125.155 203.353 125.201 203.397 125.244C203.44 125.287 203.486 125.327 203.529 125.37C203.572 125.414 203.613 125.46 203.656 125.503C203.699 125.547 203.746 125.587 203.789 125.63C203.832 125.674 203.872 125.72 203.916 125.763C203.959 125.806 204.005 125.846 204.048 125.889C204.091 125.933 204.132 125.979 204.175 126.022C204.218 126.066 204.264 126.106 204.307 126.149C204.351 126.192 204.391 126.238 204.435 126.282C204.478 126.325 204.524 126.365 204.567 126.408C204.61 126.452 204.651 126.498 204.694 126.541C204.737 126.585 204.784 126.625 204.827 126.668C204.87 126.712 204.91 126.758 204.954 126.801C204.997 126.844 205.043 126.884 205.086 126.927C205.129 126.971 205.17 127.017 205.213 127.06C205.256 127.104 205.302 127.144 205.345 127.186C205.389 127.23 205.429 127.276 205.473 127.32C205.516 127.363 205.562 127.403 205.605 127.446C205.648 127.49 205.689 127.536 205.732 127.579C205.775 127.623 205.821 127.663 205.865 127.706C205.908 127.749 205.948 127.796 205.992 127.839C206.035 127.882 206.081 127.923 206.125 127.966C206.168 128.009 206.208 128.055 206.251 128.098C206.294 128.142 206.34 128.182 206.383 128.224C206.427 128.268 206.467 128.314 206.51 128.358C206.554 128.401 206.6 128.441 206.643 128.484C206.686 128.528 206.727 128.574 206.77 128.617C206.813 128.661 206.859 128.701 206.903 128.744C206.946 128.787 206.986 128.834 207.029 128.877C207.073 128.92 207.119 128.961 207.162 129.004C207.206 129.047 207.246 129.093 207.289 129.136C207.332 129.179 207.378 129.219 207.421 129.262C207.464 129.306 207.505 129.352 207.548 129.396C207.592 129.439 207.638 129.479 207.681 129.522C207.724 129.566 207.764 129.612 207.808 129.655C207.851 129.699 207.897 129.739 207.94 129.782C207.984 129.825 208.024 129.872 208.067 129.915C208.111 129.958 208.157 129.999 208.201 130.042C208.244 130.085 208.284 130.131 208.327 130.174C208.37 130.217 208.416 130.257 208.459 130.3C208.502 130.344 208.543 130.39 208.586 130.434C208.63 130.477 208.676 130.517 208.719 130.56C208.762 130.604 208.803 130.65 208.846 130.693C208.889 130.737 208.935 130.777 208.978 130.82C209.022 130.863 209.062 130.91 209.105 130.953C209.149 130.996 209.195 131.037 209.239 131.08C209.282 131.123 209.322 131.169 209.365 131.212C209.408 131.255 209.454 131.295 209.497 131.338C209.54 131.382 209.581 131.428 209.624 131.472C209.668 131.515 209.714 131.555 209.757 131.598C209.8 131.642 209.841 131.688 209.884 131.731C209.927 131.775 209.973 131.815 210.017 131.858C210.06 131.901 210.1 131.947 210.143 131.991C210.187 132.034 210.233 132.074 210.276 132.118C210.32 132.161 210.36 132.207 210.403 132.25C210.446 132.294 210.492 132.334 210.535 132.377C210.579 132.42 210.619 132.466 210.662 132.51C210.705 132.553 210.751 132.593 210.795 132.636C210.838 132.679 210.878 132.726 210.922 132.769C210.965 132.813 211.011 132.853 211.054 132.896C211.098 132.939 211.138 132.985 211.181 133.029C211.225 133.072 211.271 133.112 211.314 133.156C211.357 133.199 211.398 133.245 211.441 133.288C211.484 133.332 211.53 133.372 211.573 133.415C211.617 133.458 211.657 133.504 211.7 133.548C211.743 133.591 211.789 133.631 211.832 133.674C211.876 133.717 211.916 133.764 211.96 133.807C212.003 133.851 212.049 133.891 212.092 133.934C212.136 133.977 212.176 134.023 212.219 134.067C212.263 134.11 212.308 134.15 212.352 134.193C212.395 134.237 212.435 134.283 212.479 134.326C212.522 134.37 212.568 134.41 212.612 134.453C212.655 134.496 212.695 134.543 212.738 134.586C212.781 134.629 212.827 134.669 212.87 134.712C212.914 134.755 212.954 134.802 212.998 134.845C213.041 134.888 213.087 134.929 213.13 134.972C213.174 135.015 213.214 135.061 213.257 135.105C213.3 135.148 213.346 135.188 213.39 135.231C213.433 135.275 213.473 135.321 213.517 135.364C213.56 135.408 213.606 135.448 213.65 135.491C213.693 135.534 213.733 135.58 213.776 135.624C213.819 135.667 213.865 135.707 213.908 135.75C213.952 135.793 213.992 135.84 214.036 135.883C214.079 135.926 214.125 135.967 214.168 136.01C214.211 136.053 214.252 136.099 214.295 136.143C214.338 136.186 214.384 136.226 214.428 136.269C214.471 136.313 214.511 136.359 214.555 136.402C214.598 136.446 214.644 136.486 214.688 136.529C214.731 136.572 214.771 136.618 214.814 136.662C214.857 136.705 214.903 136.745 214.946 136.788C214.99 136.831 215.03 136.878 215.074 136.921C215.117 136.964 215.163 137.005 215.206 137.048C215.25 137.091 215.29 137.137 215.333 137.181C215.376 137.224 215.422 137.264 215.466 137.307C215.509 137.351 215.549 137.397 215.593 137.44C215.636 137.484 215.682 137.524 215.726 137.567C215.769 137.61 215.809 137.656 215.852 137.7C215.895 137.743 215.941 137.783 215.984 137.826C216.028 137.869 216.068 137.916 216.112 137.959C216.155 138.002 216.201 138.043 216.244 138.086C216.288 138.129 216.328 138.175 216.371 138.219C216.414 138.262 216.46 138.302 216.504 138.345C216.547 138.389 216.587 138.435 216.631 138.478C216.674 138.522 216.72 138.562 216.764 138.605C216.807 138.648 216.847 138.694 216.89 138.738C216.933 138.781 216.979 138.821 217.023 138.864C217.066 138.908 217.106 138.954 217.15 138.997C217.193 139.04 217.239 139.08 217.282 139.123C217.325 139.167 217.366 139.213 217.409 139.257C217.452 139.3 217.498 139.34 217.542 139.383C217.585 139.427 217.625 139.473 217.669 139.516C217.712 139.56 217.758 139.6 217.802 139.643C217.845 139.686 217.885 139.732 217.928 139.776C217.971 139.819 218.017 139.859 218.061 139.902C218.104 139.946 218.144 139.992 218.188 140.035C218.231 140.078 218.277 140.118 218.32 140.161C218.363 140.205 218.404 140.251 218.447 140.295C218.49 140.338 218.536 140.378 218.58 140.421C218.623 140.465 218.663 140.511 218.707 140.554C218.75 140.597 218.796 140.637 218.839 140.681C218.882 140.724 218.923 140.77 218.966 140.814C219.009 140.857 219.056 140.897 219.099 140.94C219.142 140.984 219.182 141.03 219.226 141.073C219.269 141.116 219.315 141.156 219.358 141.199C219.401 141.243 219.442 141.289 219.485 141.333C219.528 141.376 219.574 141.416 219.618 141.459C219.661 141.503 219.701 141.549 219.745 141.592C219.788 141.635 219.834 141.675 219.877 141.719C219.92 141.762 219.961 141.808 220.004 141.852C220.047 141.895 220.094 141.935 220.137 141.978C220.18 142.022 220.22 142.068 220.264 142.111C220.307 142.154 220.352 142.194 220.396 142.237C220.439 142.281 220.48 142.327 220.523 142.371C220.566 142.414 220.612 142.454 220.656 142.497C220.699 142.541 220.739 142.587 220.783 142.63C220.826 142.673 220.872 142.713 220.915 142.756C220.958 142.8 220.999 142.846 221.042 142.889C221.085 142.933 221.132 142.973 221.175 143.016C221.218 143.06 221.258 143.106 221.302 143.149C221.345 143.192 221.391 143.232 221.434 143.275C221.477 143.319 221.517 143.365 221.561 143.408C221.604 143.452 221.65 143.492 221.694 143.535C221.737 143.578 221.777 143.625 221.821 143.668C221.864 143.711 221.91 143.751 221.953 143.794C221.996 143.838 222.037 143.884 222.08 143.927C222.123 143.971 222.17 144.011 222.213 144.054C222.256 144.098 222.296 144.144 222.339 144.187C222.383 144.23 222.429 144.27 222.472 144.313C222.515 144.357 222.555 144.403 222.599 144.446C222.642 144.49 222.688 144.53 222.732 144.573C222.775 144.616 222.815 144.663 222.858 144.706C222.902 144.749 222.948 144.789 222.991 144.832C223.034 144.876 223.075 144.922 223.118 144.965C223.161 145.009 223.208 145.049 223.251 145.092C223.294 145.136 223.334 145.182 223.377 145.225C223.421 145.268 223.467 145.308 223.51 145.351C223.553 145.395 223.594 145.441 223.637 145.484C223.68 145.527 223.726 145.567 223.769 145.61C223.813 145.654 223.853 145.7 223.896 145.744C223.94 145.787 223.986 145.827 224.029 145.87C224.072 145.914 224.113 145.96 224.156 146.003C224.199 146.047 224.246 146.087 224.289 146.13C224.332 146.174 224.372 146.22 224.416 146.263C224.459 146.306 224.505 146.346 224.548 146.389C224.591 146.433 224.632 146.479 224.675 146.522C224.718 146.565 224.764 146.605 224.807 146.648C224.851 146.692 224.891 146.738 224.934 146.782C224.978 146.825 225.024 146.865 225.067 146.908C225.11 146.952 225.151 146.998 225.194 147.041C225.237 147.085 225.283 147.125 225.327 147.168C225.37 147.211 225.41 147.258 225.453 147.301C225.497 147.344 225.543 147.385 225.586 147.428C225.63 147.471 225.67 147.517 225.713 147.56C225.756 147.603 225.802 147.643 225.845 147.686C225.888 147.73 225.929 147.776 225.972 147.82C226.016 147.863 226.062 147.903 226.105 147.946C226.148 147.99 226.188 148.036 226.232 148.079C226.275 148.123 226.321 148.163 226.364 148.206C226.408 148.249 226.448 148.295 226.491 148.339C226.535 148.382 226.581 148.423 226.624 148.466C226.668 148.509 226.708 148.555 226.751 148.598C226.794 148.641 226.84 148.681 226.883 148.724C226.926 148.768 226.967 148.814 227.01 148.858C227.054 148.901 227.1 148.941 227.143 148.984C227.186 149.028 227.226 149.074 227.27 149.117C227.313 149.161 227.359 149.201 227.402 149.244C227.446 149.287 227.486 149.333 227.529 149.377C227.573 149.42 227.619 149.46 227.662 149.504C227.705 149.547 227.746 149.593 227.789 149.636C227.832 149.679 227.878 149.719 227.921 149.762C227.964 149.806 228.005 149.852 228.048 149.896C228.092 149.939 228.138 149.979 228.181 150.022C228.224 150.066 228.264 150.112 228.308 150.155C228.351 150.199 228.397 150.239 228.44 150.282C228.484 150.325 228.524 150.371 228.567 150.415C228.611 150.458 228.657 150.498 228.7 150.542C228.743 150.585 228.784 150.631 228.827 150.674C228.87 150.717 228.916 150.757 228.959 150.8C229.002 150.844 229.043 150.89 229.086 150.934C229.129 150.977 229.176 151.017 229.219 151.06C229.262 151.104 229.302 151.15 229.346 151.193C229.389 151.237 229.435 151.277 229.478 151.32C229.522 151.363 229.562 151.409 229.605 151.453C229.649 151.496 229.695 151.536 229.738 151.58C229.781 151.623 229.822 151.669 229.865 151.712C229.908 151.755 229.954 151.796 229.997 151.839C230.041 151.882 230.081 151.928 230.124 151.972C230.167 152.015 230.213 152.055 230.256 152.098C230.3 152.141 230.34 152.188 230.384 152.231C230.427 152.274 230.473 152.315 230.516 152.358C230.56 152.401 230.6 152.447 230.643 152.491C230.687 152.534 230.733 152.574 230.776 152.618C230.819 152.661 230.86 152.707 230.903 152.75C230.946 152.793 230.992 152.834 231.035 152.877C231.079 152.92 231.119 152.966 231.162 153.01C231.205 153.053 231.251 153.093 231.294 153.136C231.338 153.179 231.378 153.226 231.422 153.269C231.465 153.312 231.511 153.353 231.554 153.396C231.598 153.439 231.638 153.485 231.681 153.529C231.724 153.572 231.77 153.612 231.814 153.655C231.857 153.699 231.897 153.745 231.941 153.788C231.984 153.832 232.03 153.872 232.074 153.915C232.117 153.958 232.157 154.004 232.2 154.048C232.243 154.091 232.289 154.131 232.332 154.174C232.376 154.217 232.416 154.264 232.46 154.307C232.503 154.35 232.549 154.391 232.592 154.434C232.636 154.477 232.676 154.523 232.719 154.567C232.762 154.61 232.808 154.65 232.852 154.693C232.895 154.737 232.935 154.783 232.979 154.826C233.022 154.87 233.068 154.91 233.112 154.953C233.155 154.996 233.195 155.042 233.238 155.086C233.281 155.129 233.327 155.169 233.37 155.212C233.414 155.255 233.454 155.302 233.498 155.345C233.541 155.388 233.587 155.429 233.63 155.472C233.673 155.515 233.714 155.561 233.757 155.605C233.8 155.648 233.846 155.688 233.89 155.731C233.933 155.775 233.973 155.821 234.017 155.864C234.06 155.908 234.106 155.948 234.15 155.991C234.193 156.034 234.233 156.08 234.276 156.124C234.319 156.167 234.365 156.207 234.408 156.25C234.452 156.293 234.492 156.34 234.536 156.383C234.579 156.426 234.625 156.467 234.668 156.51C234.711 156.553 234.752 156.599 234.795 156.643C234.838 156.686 234.884 156.726 234.928 156.769C234.971 156.813 235.011 156.859 235.055 156.902C235.098 156.945 235.144 156.986 235.188 157.029C235.231 157.072 235.271 157.118 235.314 157.162C235.357 157.205 235.403 157.245 235.446 157.288C235.49 157.331 235.53 157.378 235.574 157.421C235.617 157.464 235.663 157.504 235.706 157.548C235.749 157.591 235.79 157.637 235.833 157.681C235.876 157.724 235.922 157.764 235.966 157.807C236.009 157.851 236.049 157.897 236.093 157.94C236.136 157.983 236.182 158.024 236.226 158.067C236.269 158.11 236.309 158.156 236.352 158.2C236.395 158.243 236.441 158.283 236.485 158.326C236.528 158.37 236.568 158.416 236.612 158.459C236.655 158.502 236.701 158.542 236.744 158.585C236.787 158.629 236.828 158.675 236.871 158.719C236.914 158.762 236.96 158.802 237.004 158.845C237.047 158.889 237.087 158.935 237.131 158.978C237.174 159.021 237.22 159.062 237.264 159.105C237.307 159.148 237.347 159.194 237.39 159.238C237.433 159.281 237.479 159.321 237.523 159.364C237.566 159.407 237.606 159.454 237.65 159.497C237.693 159.54 237.739 159.58 237.782 159.623C237.825 159.667 237.865 159.713 237.909 159.757C237.952 159.8 237.998 159.84 238.042 159.883C238.085 159.926 238.125 159.973 238.168 160.016C238.212 160.059 238.258 160.099 238.301 160.142C238.344 160.186 238.385 160.232 238.428 160.275C238.471 160.319 238.518 160.359 238.561 160.402C238.604 160.446 238.644 160.492 238.688 160.535C238.731 160.578 238.776 160.618 238.82 160.661C238.863 160.705 238.903 160.751 238.947 160.794C238.99 160.838 239.036 160.878 239.08 160.921C239.123 160.964 239.163 161.011 239.206 161.054C239.25 161.097 239.296 161.137 239.339 161.18C239.382 161.224 239.423 161.27 239.466 161.313C239.509 161.357 239.556 161.397 239.599 161.44C239.642 161.484 239.682 161.53 239.726 161.573C239.769 161.616 239.814 161.656 239.858 161.699C239.901 161.743 239.941 161.789 239.985 161.832C240.028 161.876 240.074 161.916 240.118 161.959C240.161 162.002 240.201 162.049 240.245 162.092C240.288 162.135 240.334 162.175 240.377 162.218C240.42 162.262 240.461 162.308 240.504 162.351C240.547 162.395 240.593 162.435 240.637 162.478C240.68 162.522 240.72 162.568 240.763 162.611C240.807 162.654 240.852 162.694 240.896 162.737C240.939 162.781 240.979 162.827 241.023 162.87C241.066 162.914 241.112 162.954 241.156 162.997C241.199 163.04 241.239 163.087 241.282 163.13C241.326 163.173 241.372 163.213 241.415 163.256C241.458 163.3 241.499 163.346 241.542 163.389C241.585 163.433 241.632 163.473 241.675 163.516C241.718 163.56 241.758 163.606 241.801 163.649C241.845 163.692 241.89 163.732 241.934 163.775C241.977 163.819 242.017 163.865 242.061 163.908C242.104 163.952 242.15 163.992 242.193 164.035C242.237 164.078 242.277 164.125 242.32 164.168C242.364 164.211 242.41 164.251 242.453 164.294C242.496 164.338 242.536 164.384 242.58 164.427C242.623 164.471 242.67 164.511 242.713 164.554C242.756 164.598 242.796 164.644 242.839 164.687C242.883 164.73 242.929 164.77 242.972 164.813C243.015 164.857 243.056 164.903 243.099 164.946C243.142 164.989 243.188 165.029 243.231 165.072C243.274 165.116 243.315 165.162 243.358 165.206C243.402 165.249 243.448 165.289 243.491 165.332C243.534 165.376 243.574 165.422 243.618 165.465C243.661 165.509 243.707 165.549 243.751 165.592C243.794 165.636 243.834 165.682 243.877 165.725C243.921 165.768 243.967 165.808 244.01 165.851C244.053 165.895 244.094 165.941 244.137 165.984C244.18 166.027 244.226 166.067 244.269 166.11C244.312 166.154 244.353 166.2 244.396 166.244C244.44 166.287 244.486 166.327 244.529 166.37C244.572 166.414 244.613 166.46 244.656 166.503C244.699 166.547 244.745 166.587 244.788 166.63C244.832 166.673 244.872 166.719 244.915 166.763C244.959 166.806 245.005 166.846 245.048 166.89C245.092 166.933 245.132 166.979 245.175 167.022C245.218 167.065 245.264 167.105 245.307 167.148C245.35 167.192 245.391 167.238 245.434 167.282C245.478 167.325 245.524 167.365 245.567 167.408C245.61 167.452 245.65 167.498 245.694 167.541C245.737 167.585 245.783 167.625 245.826 167.668C245.87 167.711 245.91 167.757 245.953 167.801C245.997 167.844 246.043 167.884 246.086 167.928C246.129 167.971 246.17 168.017 246.213 168.06C246.256 168.103 246.302 168.143 246.345 168.186C246.388 168.23 246.429 168.276 246.472 168.32C246.516 168.363 246.561 168.403 246.605 168.446C246.648 168.49 246.688 168.536 246.732 168.579C246.775 168.622 246.821 168.663 246.864 168.706C246.908 168.749 246.948 168.795 246.991 168.839C247.035 168.882 247.081 168.922 247.124 168.966C247.167 169.009 247.207 169.055 247.251 169.098C247.294 169.141 247.34 169.181 247.383 169.224C247.426 169.268 247.467 169.314 247.51 169.358C247.553 169.401 247.599 169.441 247.643 169.484C247.686 169.528 247.726 169.574 247.77 169.617C247.813 169.66 247.859 169.701 247.902 169.744C247.946 169.787 247.986 169.833 248.029 169.877C248.073 169.92 248.119 169.96 248.162 170.004C248.205 170.047 248.245 170.093 248.289 170.136C248.332 170.179 248.378 170.219 248.421 170.262C248.464 170.306 248.505 170.352 248.548 170.396C248.591 170.439 248.637 170.479 248.681 170.522C248.724 170.566 248.764 170.612 248.808 170.655C248.851 170.698 248.897 170.739 248.94 170.782C248.983 170.825 249.024 170.871 249.067 170.915C249.111 170.958 249.157 170.998 249.2 171.042C249.243 171.085 249.284 171.131 249.327 171.174C249.37 171.217 249.416 171.258 249.459 171.301C249.503 171.344 249.543 171.39 249.586 171.434C249.629 171.477 249.675 171.517 249.718 171.56C249.762 171.603 249.802 171.65 249.846 171.693C249.889 171.736 249.935 171.777 249.978 171.82C250.021 171.863 250.062 171.909 250.105 171.953C250.149 171.996 250.195 172.036 250.238 172.08C250.281 172.123 250.321 172.169 250.365 172.212C250.408 172.255 250.454 172.296 250.497 172.339C250.541 172.382 250.581 172.428 250.624 172.472C250.667 172.515 250.713 172.555 250.756 172.598C250.8 172.641 250.84 172.688 250.884 172.731C250.927 172.774 250.973 172.815 251.016 172.858C251.06 172.901 251.1 172.947 251.143 172.991C251.186 173.034 251.232 173.074 251.276 173.117C251.319 173.161 251.359 173.207 251.403 173.25C251.446 173.294 251.492 173.334 251.536 173.377C251.579 173.42 251.619 173.466 251.662 173.51C251.705 173.553 251.751 173.593 251.794 173.636C251.838 173.679 251.878 173.726 251.922 173.769C251.965 173.812 252.011 173.853 252.054 173.896C252.097 173.939 252.138 173.985 252.181 174.029C252.224 174.072 252.27 174.112 252.314 174.155C252.357 174.199 252.397 174.245 252.441 174.288C252.484 174.331 252.53 174.372 252.574 174.415C252.617 174.458 252.657 174.504 252.7 174.548C252.743 174.591 252.789 174.631 252.832 174.674C252.876 174.717 252.916 174.764 252.96 174.807C253.003 174.85 253.049 174.89 253.092 174.934C253.135 174.977 253.176 175.023 253.219 175.067C253.262 175.11 253.308 175.15 253.352 175.193C253.395 175.237 253.435 175.283 253.479 175.326C253.522 175.369 253.568 175.41 253.612 175.453C253.655 175.496 253.695 175.542 253.738 175.586C253.781 175.629 253.827 175.669 253.87 175.712C253.914 175.755 253.954 175.802 253.998 175.845C254.041 175.888 254.087 175.928 254.13 175.972C254.173 176.015 254.214 176.061 254.257 176.105C254.3 176.148 254.346 176.188 254.39 176.231C254.433 176.275 254.473 176.321 254.517 176.364C254.56 176.407 254.606 176.448 254.65 176.491C254.693 176.534 254.733 176.58 254.776 176.623C254.819 176.667 254.865 176.707 254.908 176.75C254.952 176.793 254.992 176.839 255.036 176.883C255.079 176.926 255.125 176.966 255.168 177.009C255.211 177.053 255.252 177.099 255.295 177.143C255.338 177.186 255.384 177.226 255.428 177.269C255.471 177.312 255.511 177.359 255.555 177.402C255.598 177.445 255.644 177.486 255.688 177.529C255.731 177.572 255.771 177.618 255.814 177.661C255.857 177.705 255.903 177.745 255.947 177.788C255.99 177.831 256.03 177.878 256.074 177.921C256.117 177.964 256.162 178.004 256.206 178.047C256.249 178.091 256.289 178.137 256.333 178.18C256.376 178.224 256.422 178.264 256.466 178.307C256.509 178.35 256.549 178.397 256.592 178.44C256.636 178.483 256.682 178.524 256.726 178.567C256.769 178.61 256.809 178.656 256.852 178.699C256.895 178.743 256.941 178.783 256.985 178.826C257.028 178.869 257.068 178.916 257.111 178.959C257.155 179.002 257.2 179.042 257.244 179.085C257.287 179.129 257.327 179.175 257.371 179.218C257.414 179.262 257.46 179.302 257.504 179.345C257.547 179.388 257.587 179.435 257.63 179.478C257.674 179.521 257.72 179.561 257.763 179.604C257.806 179.648 257.847 179.694 257.89 179.737C257.933 179.781 257.98 179.821 258.023 179.864C258.066 179.908 258.106 179.954 258.149 179.997C258.192 180.04 258.238 180.08 258.282 180.123C258.325 180.167 258.365 180.213 258.409 180.256C258.452 180.3 258.498 180.34 258.542 180.383C258.585 180.426 258.625 180.473 258.668 180.516C258.712 180.559 258.758 180.599 258.801 180.642C258.844 180.686 258.885 180.732 258.928 180.775C258.971 180.819 259.017 180.859 259.061 180.902C259.104 180.946 259.144 180.992 259.187 181.035C259.23 181.078 259.276 181.118 259.32 181.161C259.363 181.205 259.403 181.251 259.447 181.294C259.49 181.338 259.536 181.378 259.58 181.421C259.623 181.464 259.663 181.511 259.706 181.554C259.75 181.597 259.796 181.637 259.839 181.68C259.882 181.724 259.923 181.77 259.966 181.813C260.009 181.857 260.055 181.897 260.099 181.94C260.142 181.984 260.182 182.03 260.225 182.073C260.269 182.116 260.314 182.156 260.358 182.199C260.401 182.243 260.441 182.289 260.485 182.332C260.528 182.376 260.574 182.416 260.617 182.459C260.661 182.502 260.701 182.548 260.744 182.592C260.788 182.635 260.834 182.675 260.877 182.718C260.92 182.762 260.96 182.808 261.004 182.851C261.047 182.895 261.093 182.935 261.137 182.978C261.18 183.022 261.22 183.068 261.263 183.111C261.306 183.154 261.352 183.194 261.395 183.237C261.439 183.28 261.479 183.327 261.523 183.37C261.566 183.414 261.612 183.454 261.655 183.497C261.699 183.54 261.739 183.586 261.782 183.63C261.826 183.673 261.871 183.713 261.915 183.756C261.958 183.8 261.998 183.846 262.042 183.889C262.085 183.933 262.131 183.973 262.175 184.016C262.218 184.06 262.258 184.106 262.301 184.149C262.345 184.192 262.391 184.232 262.434 184.275C262.477 184.319 262.517 184.365 262.561 184.408C262.604 184.451 262.65 184.491 262.693 184.534C262.736 184.578 262.777 184.624 262.82 184.668C262.864 184.711 262.91 184.751 262.953 184.794C262.996 184.838 263.036 184.884 263.08 184.927C263.123 184.971 263.169 185.011 263.213 185.054C263.256 185.098 263.296 185.144 263.339 185.187C263.382 185.23 263.429 185.27 263.472 185.313C263.515 185.357 263.555 185.403 263.599 185.446C263.642 185.489 263.688 185.529 263.731 185.572C263.774 185.616 263.815 185.662 263.858 185.706C263.901 185.749 263.948 185.789 263.991 185.832C264.034 185.876 264.074 185.922 264.118 185.965C264.161 186.008 264.207 186.049 264.25 186.092C264.294 186.135 264.334 186.181 264.377 186.225C264.421 186.268 264.467 186.308 264.51 186.352C264.553 186.395 264.594 186.441 264.637 186.484C264.68 186.527 264.726 186.567 264.769 186.61C264.812 186.654 264.853 186.7 264.896 186.744C264.939 186.787 264.985 186.827 265.029 186.87C265.072 186.914 265.112 186.96 265.156 187.003C265.199 187.046 265.245 187.087 265.288 187.13C265.332 187.173 265.372 187.219 265.415 187.263C265.459 187.306 265.505 187.346 265.548 187.39C265.591 187.433 265.632 187.479 265.675 187.522C265.718 187.565 265.764 187.605 265.807 187.648C265.85 187.692 265.891 187.738 265.934 187.782C265.977 187.825 266.023 187.865 266.067 187.908C266.11 187.952 266.15 187.998 266.194 188.041C266.237 188.084 266.283 188.125 266.326 188.168C266.37 188.211 266.41 188.257 266.453 188.301C266.497 188.344 266.543 188.384 266.586 188.428C266.629 188.471 266.669 188.517 266.713 188.56C266.756 188.603 266.802 188.643 266.845 188.686C266.888 188.73 266.929 188.776 266.972 188.82C267.015 188.863 267.061 188.903 267.105 188.946C267.148 188.99 267.188 189.036 267.232 189.079C267.275 189.122 267.321 189.163 267.364 189.206C267.407 189.249 267.448 189.295 267.491 189.339C267.535 189.382 267.581 189.422 267.624 189.466C267.667 189.509 267.707 189.555 267.751 189.598C267.794 189.641 267.84 189.681 267.883 189.724C267.926 189.768 267.967 189.814 268.01 189.858C268.053 189.901 268.099 189.941 268.143 189.984C268.186 190.028 268.226 190.074 268.27 190.117C268.313 190.16 268.359 190.201 268.402 190.244C268.445 190.287 268.486 190.333 268.529 190.377C268.572 190.42 268.619 190.46 268.662 190.504C268.705 190.547 268.745 190.593 268.789 190.636C268.832 190.679 268.878 190.719 268.921 190.763C268.964 190.806 269.005 190.852 269.048 190.896C269.091 190.939 269.137 190.979 269.18 191.022C269.224 191.065 269.264 191.112 269.308 191.155C269.351 191.198 269.397 191.238 269.44 191.282C269.483 191.325 269.524 191.371 269.567 191.415C269.61 191.458 269.657 191.498 269.7 191.541C269.743 191.585 269.783 191.631 269.827 191.674C269.87 191.717 269.916 191.757 269.959 191.801C270.002 191.844 270.043 191.89 270.086 191.934C270.129 191.977 270.175 192.017 270.218 192.06C270.262 192.103 270.302 192.15 270.346 192.193C270.389 192.236 270.435 192.276 270.478 192.32C270.521 192.363 270.562 192.409 270.605 192.453C270.648 192.496 270.694 192.536 270.738 192.579C270.781 192.623 270.821 192.669 270.865 192.712C270.908 192.755 270.954 192.796 270.998 192.839C271.041 192.882 271.081 192.928 271.124 192.971C271.167 193.015 271.213 193.055 271.256 193.098C271.3 193.141 271.34 193.188 271.384 193.231C271.427 193.274 271.473 193.314 271.516 193.357C271.559 193.401 271.6 193.447 271.643 193.49C271.686 193.534 271.732 193.574 271.776 193.617C271.819 193.66 271.859 193.707 271.903 193.75C271.946 193.793 271.992 193.834 272.036 193.877C272.079 193.92 272.119 193.966 272.162 194.009C272.205 194.053 272.251 194.093 272.294 194.136C272.338 194.179 272.378 194.225 272.421 194.269C272.465 194.312 272.511 194.352 272.554 194.395C272.597 194.439 272.638 194.485 272.681 194.528C272.724 194.572 272.77 194.612 272.814 194.655C272.857 194.698 272.897 194.745 272.94 194.788C272.984 194.831 273.03 194.872 273.074 194.915C273.117 194.958 273.157 195.004 273.2 195.047C273.243 195.091 273.289 195.131 273.332 195.173C273.376 195.217 273.416 195.263 273.459 195.307C273.503 195.35 273.549 195.39 273.592 195.433C273.635 195.477 273.676 195.523 273.719 195.566C273.762 195.61 273.808 195.65 273.852 195.693C273.895 195.736 273.935 195.783 273.978 195.826C274.022 195.869 274.068 195.91 274.112 195.953C274.155 195.996 274.195 196.042 274.238 196.085C274.281 196.129 274.327 196.169 274.37 196.211C274.414 196.255 274.454 196.301 274.497 196.345C274.541 196.388 274.587 196.428 274.63 196.471C274.673 196.515 274.714 196.561 274.757 196.604C274.8 196.648 274.846 196.688 274.89 196.731C274.933 196.774 274.973 196.821 275.016 196.864C275.06 196.907 275.106 196.948 275.149 196.991C275.193 197.034 275.233 197.08 275.276 197.123C275.319 197.167 275.365 197.207 275.409 197.25C275.452 197.293 275.492 197.34 275.535 197.383C275.579 197.426 275.624 197.466 275.668 197.509C275.711 197.553 275.751 197.599 275.795 197.642C275.838 197.686 275.884 197.726 275.928 197.769C275.971 197.812 276.011 197.859 276.054 197.902C276.098 197.945 276.144 197.986 276.187 198.029C276.231 198.072 276.271 198.118 276.314 198.161C276.357 198.205 276.403 198.245 276.446 198.288C276.49 198.331 276.53 198.378 276.573 198.421C276.616 198.464 276.662 198.504 276.706 198.547C276.749 198.591 276.789 198.637 276.833 198.68C276.876 198.724 276.922 198.764 276.965 198.807C277.009 198.85 277.049 198.896 277.092 198.94C277.136 198.983 277.182 199.023 277.225 199.066C277.268 199.11 277.308 199.156 277.352 199.199C277.395 199.243 277.441 199.283 277.485 199.326C277.528 199.37 277.568 199.416 277.611 199.459C277.654 199.502 277.7 199.542 277.744 199.585C277.787 199.629 277.827 199.675 277.871 199.718C277.914 199.762 277.96 199.802 278.003 199.845C278.047 199.888 278.087 199.934 278.13 199.978C278.174 200.021 278.22 200.061 278.263 200.104C278.306 200.148 278.346 200.194 278.39 200.237C278.433 200.281 278.479 200.321 278.523 200.364C278.566 200.408 278.606 200.454 278.649 200.497C278.692 200.54 278.738 200.58 278.782 200.623C278.825 200.666 278.865 200.713 278.909 200.756C278.952 200.8 278.998 200.84 279.041 200.883C279.085 200.926 279.125 200.972 279.168 201.016C279.211 201.059 279.258 201.099 279.301 201.142C279.344 201.186 279.384 201.232 279.428 201.275C279.471 201.319 279.517 201.359 279.561 201.402C279.604 201.446 279.644 201.492 279.687 201.535C279.73 201.578 279.776 201.618 279.82 201.661C279.863 201.704 279.903 201.751 279.947 201.794C279.99 201.838 280.036 201.878 280.079 201.921C280.123 201.964 280.163 202.01 280.206 202.054C280.25 202.097 280.296 202.137 280.339 202.18C280.382 202.224 280.422 202.27 280.466 202.313C280.509 202.357 280.555 202.397 280.599 202.44C280.642 202.483 280.682 202.53 280.725 202.573C280.768 202.616 280.814 202.656 280.857 202.699C280.901 202.742 280.941 202.789 280.985 202.832C281.028 202.876 281.074 202.916 281.117 202.959C281.161 203.002 281.201 203.048 281.244 203.092C281.288 203.135 281.333 203.175 281.377 203.218C281.42 203.262 281.46 203.308 281.504 203.351C281.547 203.395 281.593 203.435 281.637 203.478C281.68 203.521 281.72 203.567 281.763 203.611C281.806 203.654 281.852 203.694 281.896 203.737C281.939 203.781 281.979 203.827 282.023 203.87C282.066 203.913 282.112 203.953 282.155 203.996C282.198 204.04 282.239 204.086 282.282 204.13C282.325 204.173 282.371 204.213 282.415 204.256C282.458 204.3 282.498 204.346 282.542 204.389C282.585 204.433 282.631 204.473 282.675 204.516C282.718 204.559 282.758 204.605 282.801 204.649C282.844 204.692 282.89 204.732 282.934 204.775C282.977 204.819 283.017 204.865 283.061 204.908C283.104 204.951 283.15 204.991 283.193 205.034C283.236 205.078 283.277 205.124 283.32 205.168C283.363 205.211 283.409 205.251 283.453 205.294C283.496 205.338 283.536 205.384 283.58 205.427C283.623 205.47 283.669 205.511 283.712 205.554C283.755 205.597 283.796 205.643 283.839 205.687C283.883 205.73 283.929 205.77 283.972 205.814C284.015 205.857 284.056 205.903 284.099 205.946C284.142 205.989 284.188 206.029 284.231 206.072C284.274 206.116 284.315 206.162 284.358 206.206C284.401 206.249 284.447 206.289 284.491 206.332C284.534 206.376 284.574 206.422 284.618 206.465C284.661 206.508 284.707 206.549 284.75 206.592C284.793 206.635 284.834 206.681 284.877 206.725C284.921 206.768 284.967 206.808 285.01 206.852C285.053 206.895 285.093 206.941 285.137 206.984C285.18 207.027 285.226 207.067 285.269 207.11C285.312 207.154 285.353 207.2 285.396 207.244C285.439 207.287 285.485 207.327 285.529 207.37C285.572 207.414 285.612 207.46 285.656 207.503C285.699 207.546 285.745 207.587 285.788 207.63C285.831 207.673 285.872 207.719 285.915 207.763C285.959 207.806 286.005 207.846 286.048 207.889C286.091 207.933 286.131 207.979 286.175 208.022C286.218 208.065 286.264 208.105 286.307 208.148C286.35 208.192 286.391 208.238 286.434 208.282C286.477 208.325 286.523 208.365 286.567 208.408C286.61 208.452 286.65 208.498 286.694 208.541C286.737 208.584 286.783 208.624 286.826 208.668C286.869 208.711 286.91 208.757 286.953 208.801C286.996 208.844 287.043 208.884 287.086 208.927C287.129 208.971 287.169 209.017 287.213 209.06C287.256 209.103 287.302 209.143 287.345 209.186C287.388 209.23 287.428 209.276 287.472 209.32C287.515 209.363 287.561 209.403 287.605 209.446C287.648 209.49 287.688 209.536 287.732 209.579C287.775 209.622 287.821 209.662 287.864 209.706C287.907 209.749 287.948 209.795 287.991 209.839C288.034 209.882 288.081 209.922 288.124 209.965C288.167 210.009 288.207 210.055 288.251 210.098C288.294 210.141 288.34 210.181 288.383 210.225C288.426 210.268 288.467 210.314 288.51 210.357C288.553 210.401 288.599 210.441 288.642 210.484C288.686 210.527 288.726 210.574 288.77 210.617C288.813 210.66 288.859 210.7 288.902 210.743C288.945 210.787 288.986 210.833 289.029 210.876C289.072 210.92 289.119 210.96 289.162 211.003C289.205 211.047 289.245 211.093 289.289 211.136C289.332 211.179 289.378 211.219 289.421 211.262C289.464 211.306 289.505 211.352 289.548 211.395C289.591 211.439 289.637 211.479 289.68 211.521C289.724 211.565 289.764 211.611 289.808 211.655C289.851 211.698 289.897 211.738 289.94 211.781C289.983 211.825 290.024 211.871 290.067 211.914C290.11 211.958 290.156 211.998 290.2 212.041C290.243 212.084 290.283 212.131 290.327 212.174C290.37 212.217 290.416 212.258 290.46 212.301C290.503 212.344 290.543 212.39 290.586 212.433C290.629 212.477 290.675 212.517 290.718 212.559C290.762 212.603 290.802 212.649 290.845 212.693C290.889 212.736 290.935 212.776 290.978 212.819C291.021 212.863 291.062 212.909 291.105 212.952C291.148 212.996 291.194 213.036 291.238 213.079C291.281 213.122 291.321 213.169 291.364 213.212C291.408 213.255 291.454 213.296 291.497 213.339C291.541 213.382 291.581 213.428 291.624 213.471C291.667 213.514 291.713 213.555 291.756 213.597C291.799 213.641 291.84 213.687 291.883 213.731C291.927 213.774 291.973 213.814 292.016 213.857C292.059 213.901 292.099 213.947 292.143 213.99C296.358 218.209 301.355 221.58 306.996 224.009C312.637 226.443 318.708 227.677 325.038 227.677C331.448 227.677 337.536 226.443 343.135 224.01C348.74 221.581 353.718 218.209 357.933 213.99C362.153 209.775 365.523 204.778 367.952 199.136C370.385 193.495 371.619 187.426 371.619 181.095C371.619 174.685 370.386 168.596 367.953 162.998L367.952 162.998Z" fill="url(#paint0_linear_574_212)"/>
</g>
</g>
</g>
</g>
<path d="M217 113.95C239.401 113.95 257.56 95.7902 257.56 73.3895C257.56 50.9887 239.401 32.8293 217 32.8293C194.599 32.8293 176.44 50.9887 176.44 73.3895C176.44 95.7902 194.599 113.95 217 113.95Z" fill="#1443B5"/>
<path d="M188.038 97.1044C191.972 94.0819 196.368 91.7011 201.228 89.9527C206.087 88.2136 211.178 87.3394 216.5 87.3394C221.822 87.3394 226.913 88.2136 231.772 89.9527C236.632 91.7011 241.028 94.0819 244.962 97.1044C247.66 93.9285 249.766 90.3247 251.27 86.2931C252.774 82.2616 253.524 77.9604 253.524 73.3894C253.524 63.0804 249.919 54.3058 242.708 47.0611C235.493 39.8118 226.76 36.1894 216.5 36.1894C206.24 36.1894 197.507 39.8118 190.296 47.0611C183.081 54.3058 179.476 63.0804 179.476 73.3894C179.476 77.9604 180.226 82.2616 181.73 86.2931C183.234 90.3247 185.34 93.9285 188.038 97.1044ZM216.5 78.0394C211.951 78.0394 208.114 76.4723 204.99 73.3336C201.866 70.1902 200.302 66.3354 200.302 61.7644C200.302 57.1934 201.866 53.3386 204.99 50.1999C208.114 47.0611 211.951 45.4894 216.5 45.4894C221.049 45.4894 224.886 47.0611 228.014 50.1999C231.138 53.3386 232.698 57.1934 232.698 61.7644C232.698 66.3354 231.138 70.1902 228.014 73.3336C224.886 76.4723 221.049 78.0394 216.5 78.0394ZM216.5 119.889C210.1 119.889 204.083 118.666 198.451 116.225C192.819 113.789 187.922 110.473 183.757 106.288C179.592 102.103 176.292 97.1835 173.867 91.5244C171.433 85.8653 170.22 79.8203 170.22 73.3894C170.22 66.9585 171.433 60.9135 173.867 55.2544C176.292 49.5953 179.592 44.6756 183.757 40.4907C187.922 36.3056 192.819 32.9902 198.451 30.5536C204.083 28.1077 210.1 26.8894 216.5 26.8894C222.9 26.8894 228.917 28.1077 234.549 30.5536C240.181 32.9902 245.078 36.3056 249.243 40.4907C253.408 44.6756 256.708 49.5953 259.133 55.2544C261.563 60.9135 262.78 66.9585 262.78 73.3894C262.78 79.8203 261.563 85.8653 259.133 91.5244C256.708 97.1835 253.408 102.103 249.243 106.288C245.078 110.473 240.181 113.789 234.549 116.225C228.917 118.666 222.9 119.889 216.5 119.889Z" fill="#5187DF"/>
<defs>
<linearGradient id="paint0_linear_574_212" x1="151.16" y1="41.5002" x2="297" y2="148" gradientUnits="userSpaceOnUse">
<stop stop-color="#7AA5E7"/>
<stop offset="1" stop-color="#003BA1"/>
</linearGradient>
</defs>
</svg>
