<svg width="272" height="150" viewBox="0 0 272 150" fill="none" xmlns="http://www.w3.org/2000/svg">
<rect width="272" height="150" fill="#EDEDED"/>
<path fill-rule="evenodd" clip-rule="evenodd" d="M61.8555 78.3898L54.3343 87.36C51.6638 83.9546 50.0715 79.6632 50.0715 75C50.0715 63.9286 59.0467 54.9534 70.1182 54.9534C81.1896 54.9534 90.1648 63.9286 90.1648 75C90.1648 79.4211 88.7336 83.5079 86.3093 86.8224L76.3152 75.6356L67.6182 85L61.8555 78.3898ZM70.1182 100C83.9253 100 95.1182 88.8071 95.1182 75C95.1182 61.1929 83.9253 50 70.1182 50C56.311 50 45.1182 61.1929 45.1182 75C45.1182 88.8071 56.311 100 70.1182 100ZM66.1182 68.5C65.3148 69.3033 64.3394 69.705 63.1918 69.705C62.0442 69.705 61.0687 69.3033 60.2654 68.5C59.4621 67.6967 59.0604 66.7212 59.0604 65.5736C59.0604 64.426 59.4621 63.4506 60.2654 62.6472C61.0687 61.8439 62.0442 61.4423 63.1918 61.4423C64.3394 61.4423 65.3148 61.8439 66.1182 62.6472C66.9215 63.4506 67.3231 64.426 67.3231 65.5736C67.3231 66.7212 66.9215 67.6967 66.1182 68.5Z" fill="#457AA5"/>
<circle cx="136.118" cy="75" r="22.5233" stroke="#457AA5" stroke-width="4.95337"/>
<path d="M136.367 83H133.216L125.902 72.995V83H122.636V67.659H125.994L133.101 77.296V67.659H136.367V83ZM146.016 83H142.75V76.721L136.862 67.659H140.588L144.383 73.8L148.178 67.659H151.881L146.016 76.721V83Z" fill="#457AA5"/>
<path d="M186.698 87.75C188.813 86.125 191.176 84.845 193.789 83.905C196.401 82.97 199.138 82.5 202 82.5C204.861 82.5 207.598 82.97 210.211 83.905C212.823 84.845 215.187 86.125 217.302 87.75C218.753 86.0425 219.885 84.105 220.693 81.9375C221.502 79.77 221.905 77.4575 221.905 75C221.905 69.4575 219.967 64.74 216.09 60.845C212.211 56.9475 207.516 55 202 55C196.484 55 191.788 56.9475 187.912 60.845C184.033 64.74 182.094 69.4575 182.094 75C182.094 77.4575 182.498 79.77 183.306 81.9375C184.115 84.105 185.247 86.0425 186.698 87.75ZM202 77.5C199.554 77.5 197.491 76.6575 195.812 74.97C194.132 73.28 193.291 71.2075 193.291 68.75C193.291 66.2925 194.132 64.22 195.812 62.5325C197.491 60.845 199.554 60 202 60C204.446 60 206.508 60.845 208.19 62.5325C209.87 64.22 210.708 66.2925 210.708 68.75C210.708 71.2075 209.87 73.28 208.19 74.97C206.508 76.6575 204.446 77.5 202 77.5ZM202 100C198.559 100 195.324 99.3425 192.296 98.03C189.268 96.72 186.635 94.9375 184.396 92.6875C182.157 90.4375 180.383 87.7925 179.079 84.75C177.77 81.7075 177.118 78.4575 177.118 75C177.118 71.5425 177.77 68.2925 179.079 65.25C180.383 62.2075 182.157 59.5625 184.396 57.3125C186.635 55.0625 189.268 53.28 192.296 51.97C195.324 50.655 198.559 50 202 50C205.441 50 208.676 50.655 211.704 51.97C214.732 53.28 217.364 55.0625 219.604 57.3125C221.843 59.5625 223.617 62.2075 224.921 65.25C226.227 68.2925 226.881 71.5425 226.881 75C226.881 78.4575 226.227 81.7075 224.921 84.75C223.617 87.7925 221.843 90.4375 219.604 92.6875C217.364 94.9375 214.732 96.72 211.704 98.03C208.676 99.3425 205.441 100 202 100Z" fill="#457AA5"/>
</svg>
