<svg width="272" height="142" viewBox="0 0 272 142" fill="none" xmlns="http://www.w3.org/2000/svg">
<g id="Global-footer-art">
<path id="190x100 top rounded rectangle" d="M0 8C0 3.58172 3.58172 0 8 0H264C268.418 0 272 3.58172 272 8V44H0V8Z" fill="#EFF6FB"/>
<path id="Vector" d="M272 47H0V96H272V47Z" fill="#457AA5"/>
<path id="Vector_2" d="M84.6787 81H61.1784C59.8714 81 59 80.2 59 79C59 77.8 59.8714 77 61.1784 77H84.6787C85.9858 77 86.8572 77.8 86.8572 79C86.8572 80.2 85.9858 81 84.6787 81Z" fill="#0E324F"/>
<path id="Vector_3" d="M123.679 81H100.178C98.8714 81 98 80.2 98 79C98 77.8 98.8714 77 100.178 77H123.679C124.986 77 125.857 77.8 125.857 79C125.857 80.2 124.986 81 123.679 81Z" fill="#0E324F"/>
<path id="Vector_4" d="M162.679 81H139.178C137.871 81 137 80.2 137 79C137 77.8 137.871 77 139.178 77H162.679C163.986 77 164.857 77.8 164.857 79C164.857 80.2 163.986 81 162.679 81Z" fill="#0E324F"/>
<path id="Vector_5" d="M201.679 81H178.178C176.871 81 176 80.2 176 79C176 77.8 176.871 77 178.178 77H201.679C202.986 77 203.857 77.8 203.857 79C203.857 80.2 202.986 81 201.679 81Z" fill="#0E324F"/>
<path id="Vector_6" d="M96.1297 68H22.8703C21.1481 68 20 66.7994 20 64.9984C20 63.1973 21.1481 62 22.8703 62H96.1297C97.8519 62 99 63.1973 99 64.9984C99 66.7994 97.8519 68 96.1297 68Z" fill="#0E324F"/>
<path id="Rectangle 13" d="M0 91H272V134C272 138.418 268.418 142 264 142H8.00001C3.58173 142 0 138.418 0 134V91Z" fill="#EDEDED"/>
<g id="Group 93">
<path id="Vector_7" d="M130.681 107.507C130.327 107.415 130.01 107.155 129.628 107.155C129.087 107.093 128.261 107.118 127.68 107.234C127.266 107.323 126.935 107.399 126.922 107.863C126.918 108.274 127.437 108.691 127.352 109.11C127.165 109.852 126.226 110.309 125.626 110.676C125.472 110.758 125.221 110.88 125.116 111.027C124.943 111.273 124.981 112.026 125.116 112.028C127.257 112.034 133.694 112.037 136.667 112.036C137.057 112.069 137.313 112.343 137.497 112.703C137.687 113.03 137.709 113.461 137.865 113.789C138.066 114.133 138.577 114.277 138.896 114.49C139.311 114.738 139.698 115.014 140.149 115.219C140.399 115.333 140.718 115.456 140.869 115.701L140.956 116.042C140.946 116.2 140.736 116.321 140.624 116.403C140.451 116.534 140.302 116.678 140.204 116.877L140.181 117.191C140.32 117.412 140.877 117.197 141.066 117.136C141.328 117.048 141.594 116.929 141.867 116.882C143.03 116.675 144.22 116.5 145.264 115.947C145.412 115.868 145.747 115.744 145.788 115.581C145.89 115.177 144.692 115.564 144.547 115.609C144.288 115.701 144.01 115.695 143.74 115.734C143.142 115.837 142.31 116.007 141.72 116.026C141.423 116.058 141.279 115.83 141.349 115.537C141.431 115.169 141.772 114.943 141.748 114.558C141.701 113.774 141.95 112.902 141.936 112.11C141.894 111.122 142.307 110.181 142.337 109.202C142.364 108.362 142.484 107.522 142.381 106.687C142.291 105.949 142.009 105.069 142.067 104.324C142.081 104.143 142.11 104.031 142.16 103.858C142.367 103.285 142.171 102.682 142.173 102.117C142.175 101.41 142.301 101.113 141.848 101.03C141.395 100.946 140.124 101.069 139.635 101.038C138.948 101.056 138.249 101.022 137.625 101.315C136.85 101.685 136.244 102.354 135.734 103.019C135.456 103.462 134.893 103.601 134.608 104.034C134.32 104.433 134.556 104.877 134.572 105.314C134.591 106.664 134.122 106.463 133.256 107.161C132.881 107.462 132.379 107.521 131.915 107.53C131.548 107.54 131.038 107.6 130.681 107.507Z" fill="#F6F6F6"/>
<path id="Vector_8" d="M95.6787 133H72.1784C70.8714 133 70 132.2 70 131C70 129.8 70.8714 129 72.1784 129H95.6787C96.9858 129 97.8572 129.8 97.8572 131C97.8572 132.2 96.9858 133 95.6787 133Z" fill="#F6F6F6"/>
<path id="Vector_9" d="M131.679 133H108.178C106.871 133 106 132.2 106 131C106 129.8 106.871 129 108.178 129H131.679C132.986 129 133.857 129.8 133.857 131C133.857 132.2 132.986 133 131.679 133Z" fill="#F6F6F6"/>
<path id="Vector_10" d="M167.679 133H144.178C142.871 133 142 132.2 142 131C142 129.8 142.871 129 144.178 129H167.679C168.986 129 169.857 129.8 169.857 131C169.857 132.2 168.986 133 167.679 133Z" fill="#F6F6F6"/>
<path id="Vector_11" d="M203.679 133H180.178C178.871 133 178 132.2 178 131C178 129.8 178.871 129 180.178 129H203.679C204.986 129 205.857 129.8 205.857 131C205.857 132.2 204.986 133 203.679 133Z" fill="#F6F6F6"/>
</g>
<path id="Vector_12" d="M45.6787 81H22.1784C20.8714 81 20 80.2 20 79C20 77.8 20.8714 77 22.1784 77H45.6787C46.9858 77 47.8572 77.8 47.8572 79C47.8572 80.2 46.9858 81 45.6787 81Z" fill="#0E324F"/>
</g>
</svg>
