<svg width="272" height="143" viewBox="0 0 272 143" fill="none" xmlns="http://www.w3.org/2000/svg">
<g id="Global-header-art">
<path id="190x100 top rounded rectangle" d="M0 96H272V135C272 139.418 268.418 143 264 143H8.00001C3.58173 143 0 139.418 0 135V96Z" fill="#EFF6FB"/>
<path id="Rectangle 10" d="M0 8C0 3.58172 3.58172 0 8 0H264C268.418 0 272 3.58172 272 8V46H0V8Z" fill="#EDEDED"/>
<g id="Group 92">
<circle id="Ellipse 9" cx="221.5" cy="26.5" r="5.5" fill="#BEC0C1"/>
<circle id="Ellipse 10" cx="244.5" cy="26.5" r="5.5" fill="#BEC0C1"/>
</g>
<g id="Group 91">
<path id="Vector" d="M110.5 29H49.3942C47.9576 29 47 27.9995 47 26.4987C47 24.9978 47.9577 24 49.3942 24H110.5C111.936 24 112.894 24.9978 112.894 26.4987C112.894 27.9995 111.936 29 110.5 29Z" fill="#D0D0CE"/>
<g id="Group 90">
<path id="Vector_2" d="M171.5 29L123.658 28.999C122.063 28.999 121 27.9987 121 26.4982C121 24.9976 122.063 24 123.658 24L171.5 24.001C173.094 24.001 174.158 24.9986 174.158 26.4992C174.158 27.9997 173.094 29 171.5 29Z" fill="#D0D0CE"/>
<path id="Vector_3" d="M184.5 27.5399L186.948 25.1673C187.064 25.0558 187.21 25 187.388 25C187.566 25 187.712 25.0558 187.827 25.1673C187.942 25.2788 188 25.4208 188 25.5932C188 25.7655 187.942 25.9075 187.827 26.019L184.939 28.8175C184.814 28.9392 184.667 29 184.5 29C184.333 29 184.186 28.9392 184.061 28.8175L181.173 26.019C181.058 25.9075 181 25.7655 181 25.5932C181 25.4208 181.058 25.2788 181.173 25.1673C181.288 25.0558 181.434 25 181.612 25C181.79 25 181.936 25.0558 182.052 25.1673L184.5 27.5399Z" fill="#D0D0CE"/>
</g>
</g>
<path id="Vector_4" d="M22.6809 25.5065C22.3273 25.415 22.01 25.1545 21.628 25.1545C21.0865 25.0929 20.2609 25.1182 19.68 25.2334C19.2665 25.3234 18.935 25.3992 18.9223 25.8633C18.9176 26.2737 19.4369 26.6904 19.3517 27.1104C19.1654 27.8523 18.2262 28.3085 17.6263 28.6763C17.4716 28.7584 17.2206 28.8799 17.1165 29.0267C16.9428 29.273 16.9807 30.0259 17.1165 30.0275C19.257 30.0338 25.6944 30.037 28.6668 30.0354C29.0567 30.0686 29.3124 30.3432 29.4971 30.7031C29.6865 31.0299 29.7086 31.4608 29.8649 31.7892C30.0654 32.1333 30.5768 32.2769 30.8957 32.49C31.3109 32.7379 31.6976 33.0125 32.1491 33.2194C32.3985 33.333 32.7174 33.4561 32.8689 33.7008L32.9557 34.0418C32.9462 34.1996 32.7363 34.3212 32.6242 34.4033C32.4506 34.5343 32.3022 34.6779 32.2043 34.8768L32.1806 35.191C32.3196 35.412 32.8768 35.1973 33.0662 35.1357C33.3283 35.0473 33.5935 34.929 33.8666 34.8816C35.0299 34.6748 36.2202 34.4996 37.2636 33.9471C37.412 33.8682 37.7467 33.7434 37.7877 33.5809C37.8903 33.1767 36.6922 33.5635 36.5469 33.6093C36.2881 33.7008 36.0102 33.6945 35.7403 33.734C35.142 33.8366 34.3101 34.0071 33.7197 34.026C33.423 34.0576 33.2793 33.8303 33.3488 33.5366C33.4309 33.1688 33.7718 32.9431 33.7482 32.5579C33.7008 31.7734 33.9502 30.9021 33.936 30.1096C33.8934 29.1214 34.307 28.1806 34.337 27.2019C34.3638 26.3621 34.4838 25.5223 34.3812 24.6873C34.2912 23.9485 34.0086 23.0692 34.067 22.3241C34.0812 22.1426 34.1096 22.0305 34.1602 21.8585C34.367 21.2855 34.1712 20.6824 34.1728 20.1173C34.1744 19.4101 34.3007 19.1133 33.8476 19.0297C33.3946 18.946 32.1238 19.0692 31.6345 19.0376C30.9478 19.0565 30.2485 19.0218 29.625 19.3154C28.8499 19.6848 28.2437 20.3541 27.7338 21.0186C27.456 21.4622 26.8925 21.6011 26.6083 22.0337C26.3194 22.433 26.5562 22.8766 26.572 23.3139C26.591 24.6635 26.1221 24.4631 25.2555 25.1608C24.8814 25.4623 24.3794 25.5207 23.9153 25.5302C23.5475 25.5397 23.0376 25.5997 22.6809 25.5065Z" fill="#D0D0CE"/>
<rect id="Rectangle 27" y="49" width="272" height="44" fill="#154973"/>
<path id="Vector_5" d="M93.1297 66H19.8703C18.1481 66 17 64.7994 17 62.9984C17 61.1973 18.1481 60 19.8703 60H93.1297C94.8519 60 96 61.1973 96 62.9984C96 64.7994 94.8519 66 93.1297 66Z" fill="white"/>
<path id="Vector_6" d="M56 81L19.6575 80.999C18.063 80.999 17 79.9987 17 78.4982C17 76.9976 18.063 76 19.6575 76L56 76.001C57.5945 76.001 58.6575 76.9986 58.6575 78.4992C58.6575 79.9997 57.5945 81 56 81Z" fill="white"/>
<path id="Vector_7" d="M142.5 76L115.658 75.999C114.063 75.999 113 74.9987 113 73.4982C113 71.9976 114.063 71 115.658 71L142.5 71.001C144.094 71.001 145.158 71.9986 145.158 73.4992C145.158 74.9997 144.094 76 142.5 76Z" fill="#D0D0CE"/>
<path id="Vector_8" d="M182.5 76L155.658 75.999C154.063 75.999 153 74.9987 153 73.4982C153 71.9976 154.063 71 155.658 71L182.5 71.001C184.094 71.001 185.158 71.9986 185.158 73.4992C185.158 74.9997 184.094 76 182.5 76Z" fill="#D0D0CE"/>
<path id="Vector_9" d="M222.5 76L195.658 75.999C194.063 75.999 193 74.9987 193 73.4982C193 71.9976 194.063 71 195.658 71L222.5 71.001C224.094 71.001 225.158 71.9986 225.158 73.4992C225.158 74.9997 224.094 76 222.5 76Z" fill="#D0D0CE"/>
</g>
</svg>
