<svg width="573" height="145" viewBox="0 0 573 145" fill="none" xmlns="http://www.w3.org/2000/svg">
<path d="M144 0C224.021 0 288.89 64.9062 288.89 144.972L289 145H144V0Z" fill="#286AD8"/>
<path d="M72.5 145C112.541 145 145 112.541 145 72.5C145 32.4594 112.541 0 72.5 0C32.4593 0 0 32.4594 0 72.5C0 112.541 32.4593 145 72.5 145Z" fill="#286AD8"/>
<g style="mix-blend-mode:multiply" opacity="0.78">
<mask id="mask0_607_357" style="mask-type:alpha" maskUnits="userSpaceOnUse" x="0" y="0" width="145" height="145">
<g style="mix-blend-mode:multiply">
<path d="M72.5 145C112.541 145 145 112.541 145 72.5C145 32.4594 112.541 0 72.5 0C32.4593 0 0 32.4594 0 72.5C0 112.541 32.4593 145 72.5 145Z" fill="#286AD8"/>
</g>
</mask>
<g mask="url(#mask0_607_357)">
<g style="mix-blend-mode:multiply">
<path d="M113.777 156.962L125.665 166.223H151.281C152.509 166.223 153.683 165.85 154.803 165.103C155.924 164.356 156.725 163.448 157.205 162.381L166.811 139.807C166.971 139.433 167.091 139.033 167.171 138.606C167.251 138.179 167.291 137.779 167.291 137.405V131.001C167.291 129.293 166.651 127.799 165.37 126.518C165.259 126.407 165.145 126.308 165.031 126.207L147.468 108.644C147.367 108.53 147.268 108.416 147.157 108.305C147.105 107.832 146.976 107.366 146.758 106.905C146.458 106.27 143.056 108.754 142.51 108.305L81.0789 40.8893C80.6624 40.3833 80.1478 39.9521 79.5086 39.6158C78.4945 39.0821 77.4407 38.8953 76.3465 39.0554C75.2524 39.2155 74.3053 39.6691 73.5047 40.4163L56.1336 57.7074C55.5465 58.2944 55.0795 58.9749 54.7327 59.7487C54.3858 60.5226 54.2124 61.3364 54.2124 62.1902V69.7298L45.927 61.4298C44.6729 60.1757 43.1652 59.5485 41.4041 59.5485C39.643 59.5485 38.1354 60.1757 36.8812 61.4298C35.6271 62.6839 35 64.1916 35 65.9526V94.7711C35 96.5323 35.6271 98.0398 36.8812 99.294L101.93 164.342C103.184 165.597 104.691 166.223 106.452 166.223C108.214 166.223 109.721 165.597 110.975 164.342C112.229 163.088 112.857 161.581 112.857 159.819V156.042C112.912 156.095 112.968 156.147 113.025 156.197C113.126 156.311 113.226 156.426 113.336 156.537C113.447 156.647 113.561 156.747 113.676 156.847" fill="url(#paint0_linear_607_357)" fill-opacity="0.87"/>
</g>
</g>
</g>
<path d="M323.875 0C301.853 0 284 17.8525 284 39.8751V145H429V0H323.875Z" fill="#286AD8"/>
<path d="M533.125 145H428C428 64.9187 492.919 0 573 0V105.125C573 127.147 555.147 145 533.125 145Z" fill="#286AD8"/>
<path d="M95.6191 59.4907C97.3206 59.4907 98.8096 60.1293 100.086 61.4065C101.362 62.6837 102 64.1737 102 65.8767V72.2628C102 72.6354 101.96 73.0346 101.88 73.4601C101.801 73.8858 101.681 74.2849 101.521 74.6575L91.95 97.1684C91.4715 98.2326 90.6738 99.1376 89.5571 99.8824C88.4405 100.627 87.2706 101 86.0476 101H60.5239C58.769 101 57.2669 100.375 56.0173 99.1241C54.7676 97.8734 54.1429 96.3702 54.1429 94.614V62.1249C54.1429 61.2735 54.3157 60.4619 54.6613 59.6902C55.0069 58.9186 55.4722 58.24 56.0572 57.6547L73.3655 40.4123C74.1631 39.6673 75.1069 39.2149 76.197 39.0553C77.2872 38.8956 78.3372 39.0819 79.3476 39.614C80.3581 40.1462 81.0889 40.8913 81.5411 41.8492C81.9932 42.8071 82.086 43.7916 81.8203 44.8027L78.231 59.4907H95.6191ZM41.381 101C39.6262 101 38.124 100.375 36.8744 99.1241C35.6248 97.8734 35 96.3702 35 94.614V65.8767C35 64.1206 35.6248 62.6172 36.8744 61.3666C38.124 60.116 39.6262 59.4907 41.381 59.4907C43.1357 59.4907 44.6379 60.116 45.8875 61.3666C47.1372 62.6172 47.7619 64.1206 47.7619 65.8767V94.614C47.7619 96.3702 47.1372 97.8734 45.8875 99.1241C44.6379 100.375 43.1357 101 41.381 101Z" fill="#5187DF"/>
<path d="M531.698 119.395C518.61 119.395 508 108.785 508 95.6976C508 82.6098 518.61 72 531.698 72C544.785 72 555.395 82.6098 555.395 95.6976C555.395 108.785 544.785 119.395 531.698 119.395Z" fill="#004DD1"/>
<defs>
<linearGradient id="paint0_linear_607_357" x1="51.7138" y1="48.0345" x2="124.441" y2="140.186" gradientUnits="userSpaceOnUse">
<stop stop-color="#7AA5E7"/>
<stop offset="1" stop-color="#003BA1"/>
</linearGradient>
</defs>
</svg>
