<svg width="272" height="143" viewBox="0 0 272 143" fill="none" xmlns="http://www.w3.org/2000/svg">
<rect width="272" height="143" rx="8" fill="#EDEDED"/>
<mask id="path-2-inside-1_121_1253" fill="white">
<path d="M88 105.2C88 98.1309 93.7307 92.4001 100.8 92.4001V92.4001C107.869 92.4001 113.6 98.1309 113.6 105.2V105.2C113.6 112.269 107.869 118 100.8 118V118C93.7307 118 88 112.269 88 105.2V105.2Z"/>
</mask>
<path d="M88 105.2C88 98.1309 93.7307 92.4001 100.8 92.4001V92.4001C107.869 92.4001 113.6 98.1309 113.6 105.2V105.2C113.6 112.269 107.869 118 100.8 118V118C93.7307 118 88 112.269 88 105.2V105.2Z" fill="white"/>
<path d="M100.8 115.867C94.9089 115.867 90.1333 111.091 90.1333 105.2H85.8667C85.8667 113.447 92.5525 120.133 100.8 120.133V115.867ZM111.467 105.2C111.467 111.091 106.691 115.867 100.8 115.867V120.133C109.047 120.133 115.733 113.447 115.733 105.2H111.467ZM100.8 94.5335C106.691 94.5335 111.467 99.3091 111.467 105.2H115.733C115.733 96.9527 109.047 90.2668 100.8 90.2668V94.5335ZM100.8 90.2668C92.5525 90.2668 85.8667 96.9527 85.8667 105.2H90.1333C90.1333 99.3091 94.9089 94.5335 100.8 94.5335V90.2668Z" fill="#62666A" mask="url(#path-2-inside-1_121_1253)"/>
<circle cx="100.8" cy="105.2" r="7.46662" fill="#154973"/>
<mask id="path-5-inside-2_121_1253" fill="white">
<path d="M26 46.0666C26 36.641 33.641 29 43.0666 29V29C52.4922 29 60.1331 36.641 60.1331 46.0666V46.0666C60.1331 55.4922 52.4922 63.1331 43.0666 63.1331V63.1331C33.641 63.1331 26 55.4922 26 46.0666V46.0666Z"/>
</mask>
<path d="M26 46.0666C26 36.641 33.641 29 43.0666 29V29C52.4922 29 60.1331 36.641 60.1331 46.0666V46.0666C60.1331 55.4922 52.4922 63.1331 43.0666 63.1331V63.1331C33.641 63.1331 26 55.4922 26 46.0666V46.0666Z" fill="white"/>
<path d="M43.0666 60.9998C34.8192 60.9998 28.1333 54.314 28.1333 46.0666H23.8667C23.8667 56.6704 32.4628 65.2665 43.0666 65.2665V60.9998ZM57.9998 46.0666C57.9998 54.314 51.314 60.9998 43.0666 60.9998V65.2665C53.6704 65.2665 62.2665 56.6704 62.2665 46.0666H57.9998ZM43.0666 31.1333C51.314 31.1333 57.9998 37.8192 57.9998 46.0666H62.2665C62.2665 35.4628 53.6704 26.8667 43.0666 26.8667V31.1333ZM43.0666 26.8667C32.4628 26.8667 23.8667 35.4628 23.8667 46.0666H28.1333C28.1333 37.8192 34.8192 31.1333 43.0666 31.1333V26.8667Z" fill="#62666A" mask="url(#path-5-inside-2_121_1253)"/>
<mask id="path-7-inside-3_121_1253" fill="white">
<path d="M88 46.0666C88 36.641 95.641 29 105.067 29V29C114.492 29 122.133 36.641 122.133 46.0666V46.0666C122.133 55.4922 114.492 63.1331 105.067 63.1331V63.1331C95.641 63.1331 88 55.4922 88 46.0666V46.0666Z"/>
</mask>
<path d="M88 46.0666C88 36.641 95.641 29 105.067 29V29C114.492 29 122.133 36.641 122.133 46.0666V46.0666C122.133 55.4922 114.492 63.1331 105.067 63.1331V63.1331C95.641 63.1331 88 55.4922 88 46.0666V46.0666Z" fill="white"/>
<path d="M105.067 60.9998C96.8192 60.9998 90.1333 54.314 90.1333 46.0666H85.8667C85.8667 56.6704 94.4628 65.2665 105.067 65.2665V60.9998ZM120 46.0666C120 54.314 113.314 60.9998 105.067 60.9998V65.2665C115.67 65.2665 124.266 56.6704 124.266 46.0666H120ZM105.067 31.1333C113.314 31.1333 120 37.8192 120 46.0666H124.266C124.266 35.4628 115.67 26.8667 105.067 26.8667V31.1333ZM105.067 26.8667C94.4628 26.8667 85.8667 35.4628 85.8667 46.0666H90.1333C90.1333 37.8192 96.8192 31.1333 105.067 31.1333V26.8667Z" fill="#62666A" mask="url(#path-7-inside-3_121_1253)"/>
<circle cx="105.066" cy="46.0666" r="9.99994" fill="#154973"/>
<mask id="path-10-inside-4_121_1253" fill="white">
<path d="M149.999 46.0666C149.999 36.641 157.64 29 167.066 29V29C176.491 29 184.132 36.641 184.132 46.0666V46.0666C184.132 55.4922 176.491 63.1331 167.066 63.1331V63.1331C157.64 63.1331 149.999 55.4922 149.999 46.0666V46.0666Z"/>
</mask>
<path d="M149.999 46.0666C149.999 36.641 157.64 29 167.066 29V29C176.491 29 184.132 36.641 184.132 46.0666V46.0666C184.132 55.4922 176.491 63.1331 167.066 63.1331V63.1331C157.64 63.1331 149.999 55.4922 149.999 46.0666V46.0666Z" fill="white"/>
<path d="M167.066 60.9998C158.818 60.9998 152.132 54.314 152.132 46.0666H147.866C147.866 56.6704 156.462 65.2665 167.066 65.2665V60.9998ZM181.999 46.0666C181.999 54.314 175.313 60.9998 167.066 60.9998V65.2665C177.669 65.2665 186.265 56.6704 186.265 46.0666H181.999ZM167.066 31.1333C175.313 31.1333 181.999 37.8192 181.999 46.0666H186.265C186.265 35.4628 177.669 26.8667 167.066 26.8667V31.1333ZM167.066 26.8667C156.462 26.8667 147.866 35.4628 147.866 46.0666H152.132C152.132 37.8192 158.818 31.1333 167.066 31.1333V26.8667Z" fill="#BEC0C1" mask="url(#path-10-inside-4_121_1253)"/>
<mask id="path-12-inside-5_121_1253" fill="white">
<path d="M211.999 46.0666C211.999 36.641 219.64 29 229.066 29V29C238.491 29 246.132 36.641 246.132 46.0666V46.0666C246.132 55.4922 238.491 63.1331 229.066 63.1331V63.1331C219.64 63.1331 211.999 55.4922 211.999 46.0666V46.0666Z"/>
</mask>
<path d="M211.999 46.0666C211.999 36.641 219.64 29 229.066 29V29C238.491 29 246.132 36.641 246.132 46.0666V46.0666C246.132 55.4922 238.491 63.1331 229.066 63.1331V63.1331C219.64 63.1331 211.999 55.4922 211.999 46.0666V46.0666Z" fill="white"/>
<path d="M229.066 60.9998C220.818 60.9998 214.132 54.314 214.132 46.0666H209.866C209.866 56.6704 218.462 65.2665 229.066 65.2665V60.9998ZM243.999 46.0666C243.999 54.314 237.313 60.9998 229.066 60.9998V65.2665C239.669 65.2665 248.265 56.6704 248.265 46.0666H243.999ZM229.066 31.1333C237.313 31.1333 243.999 37.8192 243.999 46.0666H248.265C248.265 35.4628 239.669 26.8667 229.066 26.8667V31.1333ZM229.066 26.8667C218.462 26.8667 209.866 35.4628 209.866 46.0666H214.132C214.132 37.8192 220.818 31.1333 229.066 31.1333V26.8667Z" fill="#BEC0C1" mask="url(#path-12-inside-5_121_1253)"/>
<circle cx="229.065" cy="46.0666" r="9.99994" fill="#BEC0C1"/>
<mask id="path-15-inside-6_121_1253" fill="white">
<path d="M26 105.2C26 98.1309 31.7307 92.4001 38.7999 92.4001V92.4001C45.8691 92.4001 51.5998 98.1309 51.5998 105.2V105.2C51.5998 112.269 45.8691 118 38.7999 118V118C31.7307 118 26 112.269 26 105.2V105.2Z"/>
</mask>
<path d="M26 105.2C26 98.1309 31.7307 92.4001 38.7999 92.4001V92.4001C45.8691 92.4001 51.5998 98.1309 51.5998 105.2V105.2C51.5998 112.269 45.8691 118 38.7999 118V118C31.7307 118 26 112.269 26 105.2V105.2Z" fill="white"/>
<path d="M38.7999 115.867C32.9089 115.867 28.1333 111.091 28.1333 105.2H23.8667C23.8667 113.447 30.5525 120.133 38.7999 120.133V115.867ZM49.4665 105.2C49.4665 111.091 44.6909 115.867 38.7999 115.867V120.133C47.0473 120.133 53.7332 113.447 53.7332 105.2H49.4665ZM38.7999 94.5335C44.6909 94.5335 49.4665 99.3091 49.4665 105.2H53.7332C53.7332 96.9527 47.0473 90.2668 38.7999 90.2668V94.5335ZM38.7999 90.2668C30.5525 90.2668 23.8667 96.9527 23.8667 105.2H28.1333C28.1333 99.3091 32.9089 94.5335 38.7999 94.5335V90.2668Z" fill="#62666A" mask="url(#path-15-inside-6_121_1253)"/>
<mask id="path-17-inside-7_121_1253" fill="white">
<path d="M149.999 105.2C149.999 98.1309 155.73 92.4001 162.799 92.4001V92.4001C169.868 92.4001 175.599 98.1309 175.599 105.2V105.2C175.599 112.269 169.868 118 162.799 118V118C155.73 118 149.999 112.269 149.999 105.2V105.2Z"/>
</mask>
<path d="M149.999 105.2C149.999 98.1309 155.73 92.4001 162.799 92.4001V92.4001C169.868 92.4001 175.599 98.1309 175.599 105.2V105.2C175.599 112.269 169.868 118 162.799 118V118C155.73 118 149.999 112.269 149.999 105.2V105.2Z" fill="white"/>
<path d="M162.799 115.867C156.908 115.867 152.132 111.091 152.132 105.2H147.866C147.866 113.447 154.552 120.133 162.799 120.133V115.867ZM173.466 105.2C173.466 111.091 168.69 115.867 162.799 115.867V120.133C171.046 120.133 177.732 113.447 177.732 105.2H173.466ZM162.799 94.5335C168.69 94.5335 173.466 99.3091 173.466 105.2H177.732C177.732 96.9527 171.046 90.2668 162.799 90.2668V94.5335ZM162.799 90.2668C154.552 90.2668 147.866 96.9527 147.866 105.2H152.132C152.132 99.3091 156.908 94.5335 162.799 94.5335V90.2668Z" fill="#BEC0C1" mask="url(#path-17-inside-7_121_1253)"/>
<mask id="path-19-inside-8_121_1253" fill="white">
<path d="M211.999 105.2C211.999 98.1309 217.73 92.4001 224.799 92.4001V92.4001C231.868 92.4001 237.599 98.1309 237.599 105.2V105.2C237.599 112.269 231.868 118 224.799 118V118C217.73 118 211.999 112.269 211.999 105.2V105.2Z"/>
</mask>
<path d="M211.999 105.2C211.999 98.1309 217.73 92.4001 224.799 92.4001V92.4001C231.868 92.4001 237.599 98.1309 237.599 105.2V105.2C237.599 112.269 231.868 118 224.799 118V118C217.73 118 211.999 112.269 211.999 105.2V105.2Z" fill="white"/>
<path d="M224.799 115.867C218.908 115.867 214.132 111.091 214.132 105.2H209.866C209.866 113.447 216.552 120.133 224.799 120.133V115.867ZM235.466 105.2C235.466 111.091 230.69 115.867 224.799 115.867V120.133C233.046 120.133 239.732 113.447 239.732 105.2H235.466ZM224.799 94.5335C230.69 94.5335 235.466 99.3091 235.466 105.2H239.732C239.732 96.9527 233.046 90.2668 224.799 90.2668V94.5335ZM224.799 90.2668C216.552 90.2668 209.866 96.9527 209.866 105.2H214.132C214.132 99.3091 218.908 94.5335 224.799 94.5335V90.2668Z" fill="#BEC0C1" mask="url(#path-19-inside-8_121_1253)"/>
<circle cx="224.799" cy="105.2" r="7.46662" fill="#BEC0C1"/>
</svg>
