<svg width="578" height="145" viewBox="0 0 578 145" fill="none" xmlns="http://www.w3.org/2000/svg">
<path d="M72.5 145C112.541 145 145 112.541 145 72.5C145 32.4594 112.541 0 72.5 0C32.4593 0 0 32.4594 0 72.5C0 112.541 32.4593 145 72.5 145Z" fill="#286AD8"/>
<path d="M183.424 145C161.651 145 144 127.148 144 105.125V0H434V145H183.424Z" fill="#286AD8"/>
<path d="M578 0C497.979 0 433.11 64.9062 433.11 144.972L433 145H578V0Z" fill="#286AD8"/>
<g style="mix-blend-mode:multiply" opacity="0.75">
<mask id="mask0_616_717" style="mask-type:alpha" maskUnits="userSpaceOnUse" x="144" y="0" width="290" height="145">
<path d="M183.424 145C161.651 145 144 127.148 144 105.125V0H434V145H183.424Z" fill="#286AD8"/>
</mask>
<g mask="url(#mask0_616_717)">
<g style="mix-blend-mode:multiply">
<path d="M251.275 200.471L172.498 121.643C171.593 120.934 171 119.828 171 118.572V106.154C171 104.01 172.697 102.273 174.79 102.273H179.512L173.547 96.2433C172.908 95.814 172.48 95.0627 172.48 94.2014C172.48 92.8639 173.504 91.7799 174.767 91.7799C174.767 91.7799 185.311 91.6944 185.265 91.6364L172.498 78.8632C171.593 78.154 171 77.0485 171 75.7918V63.3738C171 61.2306 172.697 59.4932 174.79 59.4932H179.512L173.547 53.4634C172.908 53.0341 172.48 52.2828 172.48 51.4215C172.48 50.0841 173.504 49 174.767 49H225.08C225.847 49 226.522 49.4033 226.937 50.0169L236.432 59.4932H341.558C342.746 59.4932 343.793 60.0641 344.488 60.9397C344.488 60.9397 393.301 108.455 423.502 139.954C440.105 157.27 465.5 183.525 465.5 184.782L425 198.223C425 200.366 423.303 202.104 421.209 202.104H254.442C253.254 202.104 252.207 201.533 251.512 200.657" fill="url(#paint0_linear_616_717)" fill-opacity="0.78"/>
</g>
</g>
</g>
<path d="M341.558 59.4932H174.79C172.697 59.4932 171 61.2306 171 63.3738V75.7918C171 77.935 172.697 79.6724 174.79 79.6724H341.558C343.651 79.6724 345.348 77.935 345.348 75.7918V63.3738C345.348 61.2306 343.651 59.4932 341.558 59.4932Z" fill="#5187DF"/>
<path d="M172.48 51.4215C172.48 50.0841 173.504 49 174.767 49H225.08C226.343 49 227.367 50.0841 227.367 51.4215C227.367 52.7589 226.343 53.843 225.08 53.843H174.767C173.504 53.843 172.48 52.7589 172.48 51.4215Z" fill="#5187DF"/>
<path d="M341.558 102.273H174.79C172.697 102.273 171 104.01 171 106.154V118.572C171 120.715 172.697 122.452 174.79 122.452H341.558C343.651 122.452 345.348 120.715 345.348 118.572V106.154C345.348 104.01 343.651 102.273 341.558 102.273Z" fill="#5187DF"/>
<path d="M172.48 94.2013C172.48 92.8638 173.504 91.7798 174.767 91.7798H246.669C247.932 91.7798 248.956 92.8638 248.956 94.2013C248.956 95.5387 247.932 96.6228 246.669 96.6228H174.767C173.504 96.6228 172.48 95.5387 172.48 94.2013Z" fill="#5187DF"/>
<defs>
<linearGradient id="paint0_linear_616_717" x1="217.021" y1="42.8049" x2="455.854" y2="129.389" gradientUnits="userSpaceOnUse">
<stop stop-color="#7AA5E7"/>
<stop offset="1" stop-color="#003BA1"/>
</linearGradient>
</defs>
</svg>
