<svg width="272" height="143" viewBox="0 0 272 143" fill="none" xmlns="http://www.w3.org/2000/svg">
<rect width="272" height="143" rx="8" fill="#EDEDED"/>
<path d="M22 37C22 34.7909 23.7909 33 26 33H246C248.209 33 250 34.7909 250 37V114C250 116.209 248.209 118 246 118H26C23.7909 118 22 116.209 22 114V37Z" fill="white" stroke="#BEC0C1" stroke-width="2"/>
<g clip-path="url(#clip0_248_125)">
<path d="M28.8333 52.1474C28.5972 52.1474 28.3993 52.0742 28.2396 51.928C28.0799 51.7817 28 51.6004 28 51.3842C28 51.168 28.0799 50.9867 28.2396 50.8405C28.3993 50.6942 28.5972 50.621 28.8333 50.621H29.6667V39.9368H28.8333C28.5972 39.9368 28.3993 39.8637 28.2396 39.7174C28.0799 39.5712 28 39.3899 28 39.1737C28 38.9575 28.0799 38.7762 28.2396 38.6299C28.3993 38.4837 28.5972 38.4105 28.8333 38.4105H32.1667C32.4028 38.4105 32.6007 38.4837 32.7604 38.6299C32.9201 38.7762 33 38.9575 33 39.1737C33 39.3899 32.9201 39.5712 32.7604 39.7174C32.6007 39.8637 32.4028 39.9368 32.1667 39.9368H31.3333V50.621H32.1667C32.4028 50.621 32.6007 50.6942 32.7604 50.8405C32.9201 50.9867 33 51.168 33 51.3842C33 51.6004 32.9201 51.7817 32.7604 51.928C32.6007 52.0742 32.4028 52.1474 32.1667 52.1474H28.8333Z" fill="#BEC0C1"/>
</g>
<path d="M23 23C23 21.3431 24.3431 20 26 20H98C99.6569 20 101 21.3431 101 23C101 24.6569 99.6569 26 98 26H26C24.3431 26 23 24.6569 23 23Z" fill="#457AA5"/>
<path d="M237 118L250 105" stroke="#BEC0C1" stroke-width="2"/>
<path d="M242 118L250 110" stroke="#BEC0C1" stroke-width="2"/>
<defs>
<clipPath id="clip0_248_125">
<rect width="5" height="13.7368" fill="white" transform="translate(28 38.4105)"/>
</clipPath>
</defs>
</svg>
