<svg width="578" height="145" viewBox="0 0 578 145" fill="none" xmlns="http://www.w3.org/2000/svg">
<path d="M538.125 145H433C433 64.9187 497.919 0 578 0V105.125C578 127.147 560.147 145 538.125 145Z" fill="#286AD8"/>
<path d="M289 0C289 91 343.5 145 434 145C434 52.5 382 0 289 0Z" fill="#286AD8"/>
<path d="M39.4242 145C17.6508 145 0 127.148 0 105.125V0H290V145H39.4242Z" fill="#286AD8"/>
<g style="mix-blend-mode:multiply">
<mask id="mask0_652_713" style="mask-type:alpha" maskUnits="userSpaceOnUse" x="0" y="0" width="290" height="145">
<path d="M39.4242 145C17.6508 145 0 127.148 0 105.125V0H290V145H39.4242Z" fill="#286AD8"/>
</mask>
<g mask="url(#mask0_652_713)">
<g style="mix-blend-mode:multiply">
<path d="M228.423 51.0638C222.656 44.8859 214.462 41 205.339 41H159.589C142.143 41 128 55.1293 128 72.5588C128 81.6729 131.89 89.8602 138.075 95.6211L332.576 289.935C338.343 296.114 346.538 300 355.661 300H401.411C418.857 300 433 285.871 433 268.441C433 259.328 429.11 251.141 422.927 245.38L228.423 51.0638Z" fill="url(#paint0_linear_652_713)" fill-opacity="0.78"/>
</g>
</g>
</g>
<path fill-rule="evenodd" clip-rule="evenodd" d="M159.559 41H205.265C222.694 41 236.824 55.1294 236.824 72.5588C236.824 89.9883 222.694 104.118 205.265 104.118H159.559C142.129 104.118 128 89.9883 128 72.5588C128 55.1294 142.129 41 159.559 41ZM179.353 72.1471C179.353 86.0354 190.612 97.2941 204.5 97.2941C218.388 97.2941 229.647 86.0354 229.647 72.1471C229.647 58.2587 218.388 47 204.5 47C190.612 47 179.353 58.2587 179.353 72.1471Z" fill="#5187DF"/>
<path d="M218.954 62C218.07 62 217.339 62.2877 216.767 62.8635L201.303 78.4056L194.586 71.655C194.014 71.0794 193.283 70.7914 192.399 70.7914C191.515 70.7914 190.783 71.0794 190.212 71.655C189.64 72.2305 189.353 72.9634 189.353 73.8529C189.353 74.7424 189.64 75.4752 190.212 76.0506L199.116 84.9992C199.741 85.6272 200.469 85.9412 201.303 85.9412C202.137 85.9412 202.865 85.6272 203.489 84.9992L221.141 67.2592C221.713 66.6837 222 65.951 222 65.0615C222 64.1717 221.713 63.4391 221.141 62.8635C220.569 62.2877 219.838 62 218.954 62Z" fill="#5187DF"/>
<defs>
<linearGradient id="paint0_linear_652_713" x1="168.874" y1="68.4219" x2="419.67" y2="106.03" gradientUnits="userSpaceOnUse">
<stop stop-color="#7AA5E7"/>
<stop offset="1" stop-color="#003BA1"/>
</linearGradient>
</defs>
</svg>
