<svg width="578" height="145" viewBox="0 0 578 145" fill="none" xmlns="http://www.w3.org/2000/svg">
<path d="M433 145V-0.000152588L505.335 -0.000152588C545.467 -0.000152588 578 32.4592 578 72.4999C578 112.541 545.467 145 505.335 145L433 145Z" fill="#286AD8"/>
<path d="M434 145C434 64.9792 369.094 0.109528 289.028 0.109528L289 0V145L434 145Z" fill="#286AD8"/>
<path d="M183.424 145C161.651 145 144 127.148 144 105.125V0H289V145H183.424Z" fill="#286AD8"/>
<path d="M72.5 145C112.541 145 145 112.541 145 72.5C145 32.4594 112.541 0 72.5 0C32.4593 0 0 32.4594 0 72.5C0 112.541 32.4593 145 72.5 145Z" fill="#286AD8"/>
<path d="M310.041 119H264.275C261.729 119 260.032 120.558 260.032 122.895C260.032 125.232 261.729 126.79 264.275 126.79H310.041C312.586 126.79 314.284 125.232 314.284 122.895C314.284 120.558 312.586 119 310.041 119Z" fill="#5187DF"/>
<path d="M386.074 119H340.307C337.762 119 336.064 120.558 336.064 122.895C336.064 125.232 337.762 126.79 340.307 126.79H386.074C388.619 126.79 390.316 125.232 390.316 122.895C390.316 120.558 388.619 119 386.074 119Z" fill="#5187DF"/>
<path d="M234.009 119H188.242C185.697 119 184 120.558 184 122.895C184 125.232 185.697 126.79 188.242 126.79H234.009C236.555 126.79 238.252 125.232 238.252 122.895C238.252 120.558 236.555 119 234.009 119Z" fill="#5187DF"/>
<path d="M264.242 90.017C268.668 90.0321 281.98 90.0386 288.127 90.0336C288.931 90.1046 289.459 90.6764 289.844 91.4276C290.233 92.1121 290.279 93.011 290.603 93.6942C291.016 94.4146 292.077 94.7136 292.735 95.1603C293.592 95.6758 294.392 96.2509 295.328 96.6825C295.843 96.9197 296.503 97.1758 296.817 97.6845C296.963 97.9208 297.008 98.1588 296.994 98.3973C296.974 98.7273 296.54 98.9798 296.31 99.1535C295.949 99.4266 295.644 99.7255 295.441 100.14C295.339 100.345 295.27 100.602 295.391 100.796C295.679 101.257 296.832 100.811 297.223 100.68C297.765 100.498 298.315 100.25 298.88 100.149C301.285 99.7176 303.744 99.3537 305.903 98.1992C306.209 98.0356 306.902 97.7736 306.987 97.4351C307.199 96.5928 304.72 97.3978 304.421 97.4957C303.886 97.6854 303.31 97.6736 302.752 97.755C301.517 97.9694 299.795 98.3249 298.575 98.3659C297.96 98.4303 297.665 97.9556 297.808 97.3434C297.976 96.5758 298.682 96.1055 298.632 95.299C298.537 93.6627 299.05 91.8435 299.021 90.1904C298.934 88.126 299.79 86.1616 299.852 84.1212C299.906 82.3667 300.154 80.6125 299.943 78.8724C299.756 77.3275 299.17 75.4933 299.292 73.9374C299.321 73.5597 299.381 73.3269 299.484 72.9663C299.912 71.7708 299.507 70.5121 299.512 69.3321C299.516 67.8539 299.776 67.2365 298.839 67.0619C297.902 66.8872 295.275 67.1448 294.262 67.0776C292.844 67.1161 291.398 67.0459 290.107 67.6584C288.503 68.4298 287.251 69.8264 286.196 71.2141C285.623 72.1404 284.458 72.4281 283.869 73.3318C283.273 74.1643 283.761 75.0911 283.795 76.0048C283.832 78.8223 282.863 78.4033 281.072 79.8602C280.298 80.4892 279.259 80.6097 278.3 80.6319C277.539 80.6495 276.484 80.7747 275.747 80.5812C275.015 80.3889 274.359 79.8467 273.571 79.8467C272.45 79.7167 270.744 79.771 269.54 80.012C268.688 80.1994 268.002 80.3585 267.975 81.3268C267.965 82.1814 269.038 83.0535 268.863 83.9298C268.479 85.4781 266.536 86.4312 265.295 87.1982C264.974 87.3705 264.457 87.6217 264.241 87.9304C263.881 88.4446 263.961 90.0142 264.242 90.017Z" fill="#5187DF"/>
</svg>
