<svg width="272" height="148" viewBox="0 0 272 148" fill="none" xmlns="http://www.w3.org/2000/svg">
<rect width="272" height="148" fill="#EDEDED"/>
<rect x="21" y="16" width="235" height="50" fill="white"/>
<mask id="mask0_208_1035" style="mask-type:alpha" maskUnits="userSpaceOnUse" x="26" y="28" width="18" height="18">
<path d="M43.6573 28.1001H26.0996V45.6578H43.6573V28.1001Z" fill="#D9D9D9"/>
</mask>
<g mask="url(#mask0_208_1035)">
<path d="M34.8782 40.5368C35.0854 40.5368 35.2592 40.4667 35.3994 40.3265C35.5397 40.1862 35.6098 40.0125 35.6098 39.8052V36.879C35.6098 36.6717 35.5397 36.498 35.3994 36.3577C35.2592 36.2175 35.0854 36.1474 34.8782 36.1474C34.6709 36.1474 34.4972 36.2175 34.3569 36.3577C34.2167 36.498 34.1466 36.6717 34.1466 36.879V39.8052C34.1466 40.0125 34.2167 40.1862 34.3569 40.3265C34.4972 40.4667 34.6709 40.5368 34.8782 40.5368ZM34.8782 34.6842C35.0854 34.6842 35.2592 34.6142 35.3994 34.4739C35.5397 34.3337 35.6098 34.1599 35.6098 33.9527C35.6098 33.7454 35.5397 33.5717 35.3994 33.4314C35.2592 33.2912 35.0854 33.2211 34.8782 33.2211C34.6709 33.2211 34.4972 33.2912 34.3569 33.4314C34.2167 33.5717 34.1466 33.7454 34.1466 33.9527C34.1466 34.1599 34.2167 34.3337 34.3569 34.4739C34.4972 34.6142 34.6709 34.6842 34.8782 34.6842ZM34.8782 44.1946C33.8662 44.1946 32.9152 44.0026 32.0251 43.6185C31.135 43.2345 30.3608 42.7132 29.7023 42.0548C29.0439 41.3964 28.5227 40.6222 28.1386 39.7321C27.7545 38.842 27.5625 37.8909 27.5625 36.879C27.5625 35.867 27.7545 34.9159 28.1386 34.0258C28.5227 33.1357 29.0439 32.3615 29.7023 31.7031C30.3608 31.0447 31.135 30.5234 32.0251 30.1394C32.9152 29.7553 33.8662 29.5633 34.8782 29.5633C35.8902 29.5633 36.8412 29.7553 37.7313 30.1394C38.6214 30.5234 39.3956 31.0447 40.054 31.7031C40.7125 32.3615 41.2337 33.1357 41.6178 34.0258C42.0018 34.9159 42.1939 35.867 42.1939 36.879C42.1939 37.8909 42.0018 38.842 41.6178 39.7321C41.2337 40.6222 40.7125 41.3964 40.054 42.0548C39.3956 42.7132 38.6214 43.2345 37.7313 43.6185C36.8412 44.0026 35.8902 44.1946 34.8782 44.1946ZM34.8782 42.7315C36.512 42.7315 37.8959 42.1645 39.0298 41.0306C40.1638 39.8967 40.7307 38.5128 40.7307 36.879C40.7307 35.2451 40.1638 33.8612 39.0298 32.7273C37.8959 31.5934 36.512 31.0264 34.8782 31.0264C33.2444 31.0264 31.8605 31.5934 30.7265 32.7273C29.5926 33.8612 29.0256 35.2451 29.0256 36.879C29.0256 38.5128 29.5926 39.8967 30.7265 41.0306C31.8605 42.1645 33.2444 42.7315 34.8782 42.7315Z" fill="#154973"/>
</g>
<rect x="51" y="34.0249" width="112" height="6" rx="3" fill="#5C8AB0"/>
<path d="M20.8399 66C18.1669 66 16 63.9649 16 61.4545V20.5455C16 18.0351 18.1669 16 20.8399 16C20.8399 16 20.84 17.0175 20.84 18.2727V63.7273C20.84 64.9824 20.8399 66 20.8399 66Z" fill="#154973"/>
<rect x="51" y="52.1631" width="36" height="4" rx="2" fill="#BEC0C1"/>
<rect x="21" y="82" width="235" height="50" fill="white"/>
<path d="M20.8399 132C18.1669 132 16 129.965 16 127.455V86.5455C16 84.0351 18.1669 82 20.8399 82C20.8399 82 20.84 83.0175 20.84 84.2727V129.727C20.84 130.982 20.8399 132 20.8399 132Z" fill="#457AA5"/>
<rect x="51" y="102" width="166" height="6" rx="3" fill="#5C8AB0"/>
<rect x="51" y="117" width="62" height="4" rx="2" fill="#BEC0C1"/>
<path d="M28.0441 111.75C27.9066 111.75 27.7816 111.716 27.6691 111.647C27.5566 111.578 27.4691 111.488 27.4066 111.375C27.3441 111.262 27.3097 111.141 27.3035 111.009C27.2972 110.878 27.3316 110.75 27.4066 110.625L34.3441 98.625C34.4191 98.5 34.516 98.4062 34.6347 98.3438C34.7535 98.2812 34.8753 98.25 35.0003 98.25C35.1253 98.25 35.2472 98.2812 35.366 98.3438C35.4847 98.4062 35.5816 98.5 35.6566 98.625L42.5941 110.625C42.6691 110.75 42.7035 110.878 42.6972 111.009C42.691 111.141 42.6566 111.262 42.5941 111.375C42.5316 111.488 42.4441 111.578 42.3316 111.647C42.2191 111.716 42.0941 111.75 41.9566 111.75H28.0441ZM29.3378 110.25H40.6628L35.0003 100.5L29.3378 110.25ZM35.0003 109.5C35.2128 109.5 35.391 109.428 35.5347 109.284C35.6785 109.141 35.7503 108.963 35.7503 108.75C35.7503 108.537 35.6785 108.359 35.5347 108.216C35.391 108.072 35.2128 108 35.0003 108C34.7878 108 34.6097 108.072 34.466 108.216C34.3222 108.359 34.2503 108.537 34.2503 108.75C34.2503 108.963 34.3222 109.141 34.466 109.284C34.6097 109.428 34.7878 109.5 35.0003 109.5ZM35.0003 107.25C35.2128 107.25 35.391 107.178 35.5347 107.034C35.6785 106.891 35.7503 106.713 35.7503 106.5V104.25C35.7503 104.037 35.6785 103.859 35.5347 103.716C35.391 103.572 35.2128 103.5 35.0003 103.5C34.7878 103.5 34.6097 103.572 34.466 103.716C34.3222 103.859 34.2503 104.037 34.2503 104.25V106.5C34.2503 106.713 34.3222 106.891 34.466 107.034C34.6097 107.178 34.7878 107.25 35.0003 107.25Z" fill="#1B1B1B"/>
</svg>
