<svg width="577" height="145" viewBox="0 0 577 145" fill="none" xmlns="http://www.w3.org/2000/svg">
<path d="M182.166 0.000244141C160.662 0.000244141 143.23 17.8527 143.23 39.8753V145H288.23V0.000244141H182.166Z" fill="#286AD8"/>
<path d="M182.166 0.000244141C160.662 0.000244141 143.23 17.8527 143.23 39.8753V145H288.23V0.000244141H182.166Z" fill="#286AD8"/>
<g style="mix-blend-mode:multiply" opacity="0.76">
<mask id="mask0_575_108" style="mask-type:alpha" maskUnits="userSpaceOnUse" x="143" y="0" width="146" height="146">
<path d="M182.166 0.000244141C160.662 0.000244141 143.23 17.8527 143.23 39.8753V145H288.23V0.000244141H182.166Z" fill="#286AD8"/>
</mask>
<g mask="url(#mask0_575_108)">
<path d="M184.355 59.3887C182.659 57.8733 181.585 55.6663 181.585 53.201V45.4816C181.585 40.9138 185.253 37.2107 189.779 37.2107H241.68C244.091 37.2107 246.252 38.2676 247.752 39.9406L376.498 168.687C378.194 170.202 379.268 172.409 379.268 174.874V182.594C379.268 187.162 375.599 190.865 371.073 190.865H351.954L376.498 215.412C378.194 216.928 379.268 219.135 379.268 221.599V229.319C379.268 233.887 375.599 237.59 371.073 237.59H319.172C316.761 237.59 314.6 236.533 313.101 234.86L184.355 106.114C182.659 104.599 181.585 102.392 181.585 99.9263V92.2069C181.585 87.639 185.253 83.936 189.779 83.936H208.899L184.355 59.3887Z" fill="url(#paint0_linear_575_108)" fill-opacity="0.89"/>
</g>
</g>
<path d="M432.23 0.000244141V145H359.895C319.763 145 287.23 112.541 287.23 72.5002C287.23 32.4596 319.763 0.000266444 359.895 0.000266444L432.23 0.000244141Z" fill="#286AD8"/>
<path d="M39.875 145H145C145 64.9188 80.0813 0 0 0V105.125C0 127.148 17.8527 145 39.875 145Z" fill="#286AD8"/>
<path d="M503.73 145C543.771 145 576.23 112.541 576.23 72.5002C576.23 32.4596 543.771 0.000244141 503.73 0.000244141C463.689 0.000244141 431.23 32.4596 431.23 72.5002C431.23 112.541 463.689 145 503.73 145Z" fill="#286AD8"/>
<path d="M241.68 83.9607H189.779C185.254 83.9607 181.585 87.6637 181.585 92.2316V99.9511C181.585 104.519 185.254 108.222 189.779 108.222H241.68C246.206 108.222 249.875 104.519 249.875 99.9511V92.2316C249.875 87.6637 246.206 83.9607 241.68 83.9607ZM197.194 96.0913C197.194 94.7514 198.286 93.6652 199.633 93.6652H230.852C232.198 93.6652 233.291 94.7514 233.291 96.0913C233.291 97.4311 232.198 98.5174 230.852 98.5174H199.633C198.286 98.5174 197.194 97.4311 197.194 96.0913Z" fill="#5187DF"/>
<path d="M241.68 37.2107H189.779C185.254 37.2107 181.585 40.9137 181.585 45.4816V53.2011C181.585 57.7689 185.254 61.4719 189.779 61.4719H241.68C246.206 61.4719 249.875 57.7689 249.875 53.2011V45.4816C249.875 40.9137 246.206 37.2107 241.68 37.2107ZM197.194 49.3413C197.194 48.0014 198.286 46.9152 199.633 46.9152H230.852C232.198 46.9152 233.291 48.0014 233.291 49.3413C233.291 50.6811 232.198 51.7674 230.852 51.7674H199.633C198.286 51.7674 197.194 50.6811 197.194 49.3413Z" fill="#5187DF"/>
<defs>
<linearGradient id="paint0_linear_575_108" x1="192.046" y1="48.0002" x2="303.546" y2="158" gradientUnits="userSpaceOnUse">
<stop stop-color="#7AA5E7"/>
<stop offset="1" stop-color="#003BA1"/>
</linearGradient>
</defs>
</svg>
