<svg width="272" height="143" viewBox="0 0 272 143" fill="none" xmlns="http://www.w3.org/2000/svg">
<g id="Button-card-art">
<rect id="190x100 top rounded rectangle" width="272" height="143" rx="8" fill="#EFF6FB"/>
<path id="Vector" d="M80.6 35H27.4C22.7608 35 19 38.8158 19 43.5227V51.4773C19 56.1842 22.7608 60 27.4 60H80.6C85.2392 60 89 56.1842 89 51.4773V43.5227C89 38.8158 85.2392 35 80.6 35Z" fill="#154973"/>
<path id="Vector_2" d="M162.48 35H108.52C103.815 35 100 38.8158 100 43.5227V51.4773C100 56.1842 103.815 60 108.52 60H162.48C167.185 60 171 56.1842 171 51.4773V43.5227C171 38.8158 167.185 35 162.48 35Z" fill="#0E324F"/>
<path id="Vector_3" d="M243.6 35H190.4C185.761 35 182 38.8158 182 43.5227V51.4773C182 56.1842 185.761 60 190.4 60H243.6C248.239 60 252 56.1842 252 51.4773V43.5227C252 38.8158 248.239 35 243.6 35Z" fill="#081B2B"/>
<g id="Vector_4">
<mask id="path-5-inside-1_319_221" fill="white">
<path d="M80.6 81H27.4C22.7608 81 19 84.8158 19 89.5227V97.4773C19 102.184 22.7608 106 27.4 106H80.6C85.2392 106 89 102.184 89 97.4773V89.5227C89 84.8158 85.2392 81 80.6 81Z"/>
</mask>
<path d="M80.6 81H27.4C22.7608 81 19 84.8158 19 89.5227V97.4773C19 102.184 22.7608 106 27.4 106H80.6C85.2392 106 89 102.184 89 97.4773V89.5227C89 84.8158 85.2392 81 80.6 81Z" fill="white" stroke="#154973" stroke-width="2" mask="url(#path-5-inside-1_319_221)"/>
</g>
<g id="Vector_5">
<mask id="path-6-inside-2_319_221" fill="white">
<path d="M162.48 81H108.52C103.815 81 100 84.8158 100 89.5227V97.4773C100 102.184 103.815 106 108.52 106H162.48C167.185 106 171 102.184 171 97.4773V89.5227C171 84.8158 167.185 81 162.48 81Z"/>
</mask>
<path d="M162.48 81H108.52C103.815 81 100 84.8158 100 89.5227V97.4773C100 102.184 103.815 106 108.52 106H162.48C167.185 106 171 102.184 171 97.4773V89.5227C171 84.8158 167.185 81 162.48 81Z" fill="#EFF6FB" stroke="#0E324F" stroke-width="2" mask="url(#path-6-inside-2_319_221)"/>
</g>
<g id="Vector_6">
<mask id="path-7-inside-3_319_221" fill="white">
<path d="M243.6 81H190.4C185.761 81 182 84.8158 182 89.5227V97.4773C182 102.184 185.761 106 190.4 106H243.6C248.239 106 252 102.184 252 97.4773V89.5227C252 84.8158 248.239 81 243.6 81Z"/>
</mask>
<path d="M243.6 81H190.4C185.761 81 182 84.8158 182 89.5227V97.4773C182 102.184 185.761 106 190.4 106H243.6C248.239 106 252 102.184 252 97.4773V89.5227C252 84.8158 248.239 81 243.6 81Z" fill="#EDEDED" stroke="#A7A9AB" stroke-width="2" mask="url(#path-7-inside-3_319_221)"/>
</g>
<path id="Rectangle 21" d="M35 47.5C35 46.1193 36.1193 45 37.5 45H69.5C70.8807 45 72 46.1193 72 47.5V47.5C72 48.8807 70.8807 50 69.5 50H37.5C36.1193 50 35 48.8807 35 47.5V47.5Z" fill="white"/>
<path id="Rectangle 22" d="M117 47.5C117 46.1193 118.119 45 119.5 45H151.5C152.881 45 154 46.1193 154 47.5V47.5C154 48.8807 152.881 50 151.5 50H119.5C118.119 50 117 48.8807 117 47.5V47.5Z" fill="white"/>
<path id="Rectangle 23" d="M199 47.5C199 46.1193 200.119 45 201.5 45H233.5C234.881 45 236 46.1193 236 47.5V47.5C236 48.8807 234.881 50 233.5 50H201.5C200.119 50 199 48.8807 199 47.5V47.5Z" fill="white"/>
<path id="Rectangle 24" d="M35 93.5C35 92.1193 36.1193 91 37.5 91H69.5C70.8807 91 72 92.1193 72 93.5V93.5C72 94.8807 70.8807 96 69.5 96H37.5C36.1193 96 35 94.8807 35 93.5V93.5Z" fill="#154973"/>
<path id="Rectangle 25" d="M117 93.5C117 92.1193 118.119 91 119.5 91H151.5C152.881 91 154 92.1193 154 93.5V93.5C154 94.8807 152.881 96 151.5 96H119.5C118.119 96 117 94.8807 117 93.5V93.5Z" fill="#0E324F"/>
<path id="Rectangle 26" d="M199 93.5C199 92.1193 200.119 91 201.5 91H233.5C234.881 91 236 92.1193 236 93.5V93.5C236 94.8807 234.881 96 233.5 96H201.5C200.119 96 199 94.8807 199 93.5V93.5Z" fill="#A7A9AB"/>
</g>
</svg>
