<svg width="578" height="145" viewBox="0 0 578 145" fill="none" xmlns="http://www.w3.org/2000/svg">
<path d="M434 145H289V72.6646C289 32.5331 321.459 0 361.5 0C401.541 0 434 32.5331 434 72.6646L434 145Z" fill="#286AD8"/>
<path d="M433 145V0H505.335C545.467 0 578 32.4594 578 72.5C578 112.541 545.467 145 505.335 145L433 145Z" fill="#286AD8"/>
<path d="M289 0H144V145H289V0Z" fill="#286AD8"/>
<g style="mix-blend-mode:multiply" opacity="0.5">
<path d="M287.581 71.2569C287.349 71.0091 287.109 70.7697 286.862 70.5375C286.629 70.2893 286.389 70.0495 286.141 69.8169C285.909 69.5691 285.669 69.3297 285.422 69.0975C285.189 68.8493 284.949 68.6095 284.701 68.3769C284.469 68.1291 284.229 67.8897 283.982 67.6575C283.749 67.4093 283.509 67.1695 283.261 66.9369C283.029 66.6891 282.789 66.4497 282.542 66.2175C282.309 65.9693 282.069 65.7295 281.821 65.4969C281.589 65.2491 281.349 65.0097 281.102 64.7775C280.869 64.5293 280.629 64.2895 280.381 64.0569C280.149 63.8091 279.909 63.5696 279.661 63.3372C279.429 63.0893 279.189 62.8497 278.941 62.6172C278.709 62.3693 278.469 62.1297 278.221 61.8972C277.989 61.6493 277.749 61.4097 277.501 61.1772C277.269 60.9293 277.029 60.6897 276.781 60.4572C276.549 60.2093 276.309 59.9697 276.061 59.7372C275.829 59.4893 275.589 59.2497 275.341 59.0172C275.109 58.7693 274.869 58.5297 274.621 58.2972C274.389 58.0493 274.149 57.8097 273.901 57.5772C273.669 57.3293 273.429 57.0897 273.181 56.8572C272.949 56.6093 272.709 56.3697 272.461 56.1372C272.229 55.8893 271.989 55.6497 271.741 55.4172C271.509 55.1693 271.269 54.9297 271.021 54.6972C270.789 54.4494 270.549 54.2099 270.302 53.9775C270.069 53.7293 269.829 53.4895 269.581 53.2569C269.349 53.0091 269.109 52.7698 268.862 52.5375C268.629 52.2893 268.389 52.0495 268.141 51.8169C267.909 51.5691 267.669 51.3298 267.422 51.0975C267.189 50.8493 266.949 50.6095 266.701 50.3769C266.469 50.1291 266.229 49.8898 265.982 49.6575C265.749 49.4093 265.509 49.1695 265.261 48.9369C265.029 48.6891 264.789 48.4498 264.542 48.2175C264.309 47.9693 264.069 47.7295 263.821 47.4969C263.589 47.2491 263.349 47.0098 263.102 46.7775C262.869 46.5293 262.629 46.2895 262.381 46.0569C262.149 45.8091 261.909 45.5696 261.661 45.3372C261.429 45.0893 261.189 44.8497 260.941 44.6172C260.709 44.3693 260.469 44.1297 260.221 43.8972C259.989 43.6493 259.749 43.4097 259.501 43.1772C259.269 42.9293 259.029 42.6897 258.781 42.4572C258.549 42.2093 258.309 41.9697 258.061 41.7372C257.829 41.4893 257.589 41.2497 257.341 41.0172C257.109 40.7693 256.869 40.5297 256.621 40.2972C256.389 40.0493 256.149 39.8097 255.901 39.5772C255.669 39.3293 255.429 39.0897 255.181 38.8572C254.949 38.6093 254.709 38.3697 254.461 38.1372C254.229 37.8893 253.989 37.6497 253.741 37.4172C253.509 37.1693 253.269 36.9297 253.021 36.6972C250.157 33.6428 246.1 31.7208 241.593 31.7208H191.403C182.755 31.7208 175.72 38.7572 175.72 47.4059V97.5942C175.72 102.102 177.642 106.16 180.696 109.023C180.929 109.271 181.168 109.511 181.416 109.743C181.649 109.991 181.888 110.231 182.136 110.463C182.369 110.711 182.608 110.951 182.856 111.183C183.089 111.431 183.328 111.671 183.576 111.903C183.809 112.151 184.048 112.391 184.296 112.623C184.529 112.871 184.768 113.111 185.016 113.343C185.249 113.591 185.488 113.831 185.736 114.063C185.969 114.311 186.208 114.551 186.456 114.783C186.689 115.031 186.928 115.271 187.176 115.503C187.409 115.751 187.648 115.991 187.896 116.223C188.129 116.471 188.368 116.711 188.616 116.943C188.849 117.191 189.088 117.431 189.336 117.663C189.569 117.911 189.809 118.151 190.057 118.384C190.289 118.631 190.528 118.871 190.776 119.103C191.009 119.351 191.248 119.591 191.497 119.824C191.729 120.071 191.968 120.311 192.216 120.543C192.449 120.791 192.688 121.031 192.937 121.264C193.169 121.511 193.408 121.751 193.656 121.983C193.889 122.231 194.128 122.471 194.377 122.704C194.609 122.951 194.848 123.191 195.096 123.423C195.329 123.671 195.568 123.911 195.817 124.144C196.049 124.391 196.288 124.631 196.536 124.863C196.769 125.111 197.008 125.351 197.257 125.584C197.489 125.831 197.728 126.071 197.976 126.303C198.208 126.551 198.448 126.791 198.696 127.023C198.929 127.271 199.168 127.511 199.416 127.743C199.649 127.991 199.888 128.231 200.136 128.463C200.369 128.711 200.608 128.951 200.856 129.183C201.089 129.431 201.328 129.671 201.576 129.903C201.809 130.151 202.048 130.391 202.296 130.623C202.529 130.871 202.768 131.111 203.016 131.343C203.249 131.591 203.488 131.831 203.736 132.063C203.969 132.311 204.208 132.551 204.456 132.783C204.689 133.031 204.928 133.271 205.176 133.503C205.409 133.751 205.648 133.991 205.896 134.223C206.129 134.471 206.368 134.711 206.616 134.943C206.849 135.191 207.088 135.431 207.336 135.663C207.569 135.911 207.808 136.151 208.057 136.384C208.289 136.631 208.528 136.871 208.776 137.103C209.009 137.351 209.248 137.591 209.497 137.824C209.729 138.071 209.968 138.311 210.216 138.543C210.449 138.791 210.688 139.031 210.937 139.264C211.169 139.511 211.408 139.751 211.656 139.983C211.889 140.231 212.128 140.471 212.377 140.704C212.609 140.951 212.848 141.191 213.096 141.423C213.329 141.671 213.568 141.911 213.817 142.144C214.049 142.391 214.288 142.631 214.536 142.863C214.769 143.111 215.008 143.351 215.257 143.584C215.489 143.831 215.728 144.071 215.976 144.303C216.201 144.543 216.433 144.774 216.673 145H288.999V72.6747C288.773 72.4352 288.542 72.2026 288.302 71.9775C288.069 71.7293 287.829 71.4895 287.581 71.2569Z" fill="url(#paint0_linear_571_776)"/>
</g>
<path d="M241.594 36.4268H191.405C185.341 36.4268 180.426 41.3422 180.426 47.4057V97.5947C180.426 103.658 185.341 108.574 191.405 108.574H241.594C247.657 108.574 252.573 103.658 252.573 97.5947V47.4057C252.573 41.3422 247.657 36.4268 241.594 36.4268Z" fill="#1443B5"/>
<path d="M241.593 113.279H191.404C182.756 113.279 175.721 106.243 175.721 97.5942V47.4058C175.721 38.7571 182.756 31.7207 191.404 31.7207H241.593C250.242 31.7207 257.279 38.7571 257.279 47.4058V97.5942C257.279 106.243 250.242 113.279 241.593 113.279ZM191.404 41.1321C187.945 41.1321 185.131 43.9461 185.131 47.4058V97.5942C185.131 101.054 187.945 103.868 191.404 103.868H241.593C245.053 103.868 247.867 101.054 247.867 97.5942V47.4058C247.867 43.946 245.053 41.1321 241.593 41.1321H191.404Z" fill="#5187DF"/>
<path d="M211.977 80.5222L203.261 71.7627C202.519 71.0157 201.571 70.642 200.423 70.642C199.276 70.642 198.327 71.0157 197.585 71.7627C196.844 72.5094 196.471 73.4603 196.471 74.6145C196.471 75.7688 196.844 76.7197 197.585 77.4664L209.139 89.0782C209.95 89.8929 210.895 90.3005 211.977 90.3005C213.059 90.3005 214.004 89.893 214.814 89.0782L237.719 66.0586C238.461 65.3119 238.834 64.361 238.834 63.2066C238.834 62.0522 238.461 61.1016 237.719 60.3546C236.977 59.6077 236.029 59.2342 234.881 59.2342C233.734 59.2342 232.785 59.6077 232.044 60.3546L211.977 80.5222Z" fill="#5187DF"/>
<path d="M0 0H145C145 80.0813 80.0813 145 0 145V0Z" fill="#286AD8"/>
<path d="M529.3 97.6C542.721 97.6 553.6 86.7205 553.6 73.3C553.6 59.8795 542.721 49 529.3 49C515.879 49 505 59.8795 505 73.3C505 86.7205 515.879 97.6 529.3 97.6Z" fill="#004DD1"/>
<defs>
<linearGradient id="paint0_linear_571_776" x1="175.72" y1="101" x2="313.5" y2="137" gradientUnits="userSpaceOnUse">
<stop stop-color="#7AA5E7"/>
<stop offset="0.70427" stop-color="#003BA1"/>
</linearGradient>
</defs>
</svg>
