<svg width="272" height="148" viewBox="0 0 272 148" fill="none" xmlns="http://www.w3.org/2000/svg">
<rect width="272" height="148" fill="#EFF6FB"/>
<rect x="24" y="33" width="28.9412" height="28.9412" rx="4.82353" fill="#154973"/>
<path d="M86.2549 48.0391C86.2549 46.3822 87.598 45.0391 89.2549 45.0391H173.294C174.951 45.0391 176.294 46.3822 176.294 48.0391V48.0391C176.294 49.6959 174.951 51.0391 173.294 51.0391H89.2549C87.598 51.0391 86.2549 49.6959 86.2549 48.0391V48.0391Z" fill="#457AA5"/>
<path d="M184.333 48.0391C184.333 46.3822 185.676 45.0391 187.333 45.0391H244.039C245.696 45.0391 247.039 46.3822 247.039 48.0391V48.0391C247.039 49.6959 245.696 51.0391 244.039 51.0391H187.333C185.676 51.0391 184.333 49.6959 184.333 48.0391V48.0391Z" fill="#457AA5"/>
<rect x="25.6078" y="87.6664" width="25.7255" height="25.7255" rx="3.21569" fill="white" stroke="#BEC0C1" stroke-width="3.21569"/>
<rect x="85.2051" y="98.9214" width="136.458" height="6" rx="3" fill="#BEC0C1"/>
<path d="M36.4886 50.9082L32.8414 47.2426C32.531 46.9301 32.1341 46.7738 31.6539 46.7738C31.1738 46.7738 30.7769 46.9301 30.4664 47.2426C30.156 47.5551 30 47.9531 30 48.4361C30 48.9191 30.156 49.317 30.4664 49.6295L35.3012 54.4885C35.6404 54.8295 36.0358 55 36.4886 55C36.9416 55 37.3368 54.8295 37.6761 54.4885L47.2608 44.8557C47.5712 44.5432 47.7273 44.1453 47.7273 43.6623C47.7273 43.1792 47.5712 42.7814 47.2608 42.4689C46.9504 42.1563 46.5534 42 46.0733 42C45.5932 42 45.1962 42.1563 44.8858 42.4689L36.4886 50.9082Z" fill="white"/>
</svg>
