<svg width="579" height="145" viewBox="0 0 579 145" fill="none" xmlns="http://www.w3.org/2000/svg">
<path fill-rule="evenodd" clip-rule="evenodd" d="M291 39.8751C291 17.8524 273.349 0 251.576 0H180.969L169.697 0H40.4242C18.6508 0 1 17.8524 1 39.8751V145H169.697L180.969 145H291V39.8751Z" fill="#286AD8"/>
<path d="M362.5 145C402.541 145 435 112.541 435 72.5C435 32.4594 402.541 0 362.5 0C322.459 0 290 32.4594 290 72.5C290 112.541 322.459 145 362.5 145Z" fill="#286AD8"/>
<path d="M534.344 74.2497C552.362 74.2497 566.969 59.643 566.969 41.6247C566.969 23.6065 552.362 8.99976 534.344 8.99976C516.325 8.99976 501.719 23.6065 501.719 41.6247C501.719 59.643 516.325 74.2497 534.344 74.2497Z" fill="#286AD8"/>
<path d="M579 145H434V0L579 145Z" fill="#286AD8"/>
<mask id="mask0_634_1108" style="mask-type:alpha" maskUnits="userSpaceOnUse" x="2" y="0" width="290" height="145">
<path d="M41.4242 145C19.6508 145 2 127.148 2 105.125V0H292V145H41.4242Z" fill="#286AD8"/>
</mask>
<g mask="url(#mask0_634_1108)">
</g>
<path d="M145.847 40.7753H36.1596C33.0638 40.7753 31 38.6192 31 35.3848C31 32.1502 33.0638 30 36.1596 30H145.847C148.942 30 151.006 32.1502 151.006 35.3848C151.006 38.6192 148.942 40.7753 145.847 40.7753Z" fill="#5187DF"/>
<path d="M101.072 63.7311L35.7748 63.7293C32.9099 63.7293 31 61.9321 31 59.236C31 56.5399 32.9099 54.7476 35.7748 54.7476L101.072 54.7494C103.937 54.7494 105.847 56.5417 105.847 59.2379C105.847 61.9339 103.937 63.7311 101.072 63.7311Z" fill="#5187DF"/>
<path d="M175.12 63.7312L126.892 63.7294C124.027 63.7294 122.117 61.9321 122.117 59.2361C122.117 56.5401 124.027 54.7476 126.892 54.7476L175.12 54.7494C177.985 54.7494 179.895 56.5418 179.895 59.2379C179.895 61.934 177.985 63.7312 175.12 63.7312Z" fill="#5187DF"/>
</svg>
