<svg width="580" height="145" viewBox="0 0 580 145" fill="none" xmlns="http://www.w3.org/2000/svg">
<path d="M329.875 145H435C435 64.9187 370.081 0 290 0V105.125C290 127.147 307.853 145 329.875 145Z" fill="#286AD8"/>
<path d="M435 145C526 145 580 90.5 580 0C487.5 0 435 52 435 145Z" fill="#286AD8"/>
<path d="M329.875 145H435C435 64.9187 370.081 0 290 0V105.125C290 127.147 307.853 145 329.875 145Z" fill="#286AD8"/>
<path d="M435 145C526 145 580 90.5 580 0C487.5 0 435 52 435 145Z" fill="#286AD8"/>
<path fill-rule="evenodd" clip-rule="evenodd" d="M0 105.125C0 127.148 17.6508 145 39.4242 145H110.031H121.303H250.576C272.349 145 290 127.148 290 105.125V0H121.303H110.031H0V105.125Z" fill="#286AD8"/>
<path d="M329.875 145H435C435 64.9187 370.081 0 290 0V105.125C290 127.147 307.853 145 329.875 145Z" fill="#286AD8"/>
<path d="M434 145C525 145 579 90.5 579 0C486.5 0 434 52 434 145Z" fill="#286AD8"/>
<path d="M161.658 121.746H114.142C111.499 121.746 109.738 120.129 109.738 117.703C109.738 115.276 111.499 113.659 114.142 113.659H161.658C164.3 113.659 166.062 115.276 166.062 117.703C166.062 120.129 164.3 121.746 161.658 121.746Z" fill="#5187DF"/>
<path d="M240.595 121.746H193.08C190.437 121.746 188.675 120.129 188.675 117.703C188.675 115.276 190.437 113.659 193.08 113.659H240.595C243.238 113.659 245 115.276 245 117.703C245 120.129 243.238 121.746 240.595 121.746Z" fill="#5187DF"/>
<path d="M184.965 95.456H36.7725C33.2887 95.456 30.9663 93.0295 30.9663 89.3898C30.9663 85.7498 33.2888 83.3301 36.7725 83.3301H184.965C188.448 83.3301 190.771 85.7498 190.771 89.3898C190.771 93.0295 188.448 95.456 184.965 95.456Z" fill="#5187DF"/>
<path d="M82.7201 121.746H35.2046C32.5618 121.746 30.8 120.129 30.8 117.703C30.8 115.276 32.5618 113.659 35.2046 113.659H82.7201C85.3628 113.659 87.1247 115.276 87.1247 117.703C87.1247 120.129 85.3628 121.746 82.7201 121.746Z" fill="#5187DF"/>
</svg>
