<svg width="272" height="143" fill="none" xmlns="http://www.w3.org/2000/svg"><path d="M0 8c0-4.41827 3.58172-8 8-8h256c4.418 0 8 3.58172 8 8v127c0 4.418-3.582 8-8 8H8.00001C3.58173 143 0 139.418 0 135V8Z" fill="#EDEDED"/><path d="M226.993 112.143c.619 0 1.143-.215 1.571-.645.428-.43.642-.956.642-1.579 0-.622-.214-1.149-.642-1.579-.428-.43-.952-.645-1.571-.645-.62 0-1.144.215-1.572.645-.428.43-.641.957-.641 1.579 0 .623.213 1.149.641 1.579.428.43.952.645 1.572.645Zm.088 7.116c-2.449 0-4.751-.467-6.905-1.401-2.154-.934-4.028-2.202-5.621-3.803-1.594-1.601-2.855-3.483-3.785-5.648-.929-2.164-1.394-4.477-1.394-6.938 0-2.4607.465-4.7734 1.394-6.9379.93-2.1644 2.191-4.0471 3.785-5.6482 1.593-1.601 3.467-2.8686 5.621-3.8025 2.154-.934 4.456-1.4009 6.905-1.4009s4.751.4669 6.905 1.4009c2.155.9339 4.028 2.2015 5.622 3.8025 1.593 1.6011 2.855 3.4838 3.784 5.6482.93 2.1645 1.395 4.4772 1.395 6.9379 0 2.461-.465 4.774-1.395 6.938-.929 2.165-2.191 4.047-3.784 5.648-1.594 1.601-3.467 2.869-5.622 3.803-2.154.934-4.456 1.401-6.905 1.401Zm0-3.558c3.954 0 7.304-1.379 10.048-4.136 2.744-2.758 4.117-6.123 4.117-10.096 0-3.9729-1.373-7.3381-4.117-10.0955-2.744-2.7574-6.094-4.1361-10.048-4.1361-3.954 0-7.303 1.3787-10.048 4.1361-2.744 2.7574-4.116 6.1226-4.116 10.0955 0 3.973 1.372 7.338 4.116 10.096 2.745 2.757 6.094 4.136 10.048 4.136Zm.177-21.8814c.738 0 1.38.2371 1.926.7115.546.4745.819 1.0674.819 1.779 0 .6523-.2 1.2305-.598 1.7345-.398.504-.848.9784-1.35 1.4232-.679.5932-1.276 1.2452-1.793 1.9572-.516.711-.774 1.512-.774 2.401 0 .415.155.764.465 1.045.309.282.671.423 1.084.423.443 0 .819-.148 1.129-.445.31-.296.509-.667.597-1.112.118-.622.384-1.178.797-1.667.413-.49.856-.957 1.328-1.401.679-.653 1.261-1.3644 1.748-2.1352.487-.7708.731-1.6308.731-2.5795 0-1.5121-.613-2.7499-1.837-3.7136-1.225-.9636-2.649-1.4454-4.272-1.4454-1.121 0-2.191.2371-3.209.7116-1.018.4744-1.792 1.2008-2.324 2.1792-.206.3558-.273.7338-.199 1.1341.074.4003.273.7041.598.9117.413.2372.841.3114 1.283.2224.443-.0889.812-.341 1.107-.7561.325-.4447.73-.7857 1.217-1.0228.487-.2372.996-.3558 1.527-.3558ZM149.113 57.3556c-1.065 0-1.977-.381-2.735-1.1431-.759-.7622-1.138-1.6782-1.138-2.7484V30.1152c0-1.0702.379-1.9862 1.138-2.7484.758-.7621 1.67-1.1431 2.735-1.1431h10.022c.516 0 1.008.0973 1.476.2919.468.1945.88.4702 1.235.8269l2.759 2.7727h15.493c1.065 0 1.976.381 2.735 1.1431.759.7622 1.138 1.6782 1.138 2.7484v19.4574c0 1.0702-.379 1.9862-1.138 2.7484-.759.7621-1.67 1.1431-2.735 1.1431h-30.985Zm0-3.8915h30.985V34.0067h-17.09l-3.873-3.8915h-10.022v23.3489Zm15.492-1.9457c.549 0 1.009-.1864 1.38-.5594s.557-.8351.557-1.3864v-6.2263l1.743 1.7511c.355.3567.807.5351 1.355.5351.549 0 1.001-.1784 1.356-.5351.355-.3566.532-.8108.532-1.362 0-.5512-.177-1.0054-.532-1.362l-5.035-5.059c-.387-.3891-.839-.5837-1.356-.5837-.516 0-.968.1946-1.355.5837l-5.035 5.059c-.355.3566-.533.8108-.533 1.362 0 .5512.178 1.0054.533 1.362.355.3567.807.5351 1.355.5351.549 0 1.001-.1784 1.356-.5351l1.743-1.7511v6.2263c0 .5513.185 1.0134.557 1.3864.371.373.831.5594 1.379.5594ZM90.3518 120c-1.0144 0-1.8831-.363-2.6042-1.089-.723-.726-1.0845-1.598-1.0845-2.617V90.3506c0-1.0192.3615-1.8917 1.0845-2.6175.7211-.7259 1.5898-1.0887 2.6042-1.0887h1.8443v-1.8531c0-.525.177-.9651.5311-1.3203.3523-.3553.7912-.5328 1.3132-.5328.5219 0 .9609.1775 1.315.5328.3522.3552.5293.7953.5293 1.3203v1.8531h14.7543v-1.8531c0-.525.177-.9651.531-1.3203.353-.3553.792-.5328 1.314-.5328.521 0 .96.1775 1.315.5328.352.3552.529.7953.529 1.3203v1.8531h1.844c1.015 0 1.883.3628 2.606 1.0887.721.7258 1.083 1.5983 1.083 2.6175v25.9434c0 1.019-.362 1.891-1.083 2.617-.723.726-1.591 1.089-2.606 1.089H90.3518Zm0-3.706h25.8202V97.7629H90.3518v18.5311Zm0-22.2373h25.8202v-3.7061H90.3518v3.7061Zm12.9102 11.1183c-.522 0-.961-.177-1.313-.532-.354-.356-.531-.796-.531-1.321 0-.525.177-.965.531-1.32.352-.355.791-.533 1.313-.533.522 0 .961.178 1.315.533.352.355.529.795.529 1.32s-.177.965-.529 1.321c-.354.355-.793.532-1.315.532Zm-7.3773 0c-.522 0-.9609-.177-1.315-.532-.3523-.356-.5293-.796-.5293-1.321 0-.525.177-.965.5293-1.32.3541-.355.793-.533 1.315-.533.5219 0 .9609.178 1.315.533.3523.355.5293.795.5293 1.32s-.177.965-.5293 1.321c-.3541.355-.7931.532-1.315.532Zm14.7543 0c-.522 0-.961-.177-1.313-.532-.354-.356-.531-.796-.531-1.321 0-.525.177-.965.531-1.32.352-.355.791-.533 1.313-.533.522 0 .961.178 1.315.533.352.355.53.795.53 1.32s-.178.965-.53 1.321c-.354.355-.793.532-1.315.532Zm-7.377 7.413c-.522 0-.961-.178-1.313-.533-.354-.355-.531-.795-.531-1.32s.177-.966.531-1.321c.352-.355.791-.533 1.313-.533.522 0 .961.178 1.315.533.352.355.529.796.529 1.321 0 .525-.177.965-.529 1.32-.354.355-.793.533-1.315.533Zm-7.3773 0c-.522 0-.9609-.178-1.315-.533-.3523-.355-.5293-.795-.5293-1.32s.177-.966.5293-1.321c.3541-.355.793-.533 1.315-.533.5219 0 .9609.178 1.315.533.3523.355.5293.796.5293 1.321 0 .525-.177.965-.5293 1.32-.3541.355-.7931.533-1.315.533Zm14.7543 0c-.522 0-.961-.178-1.313-.533-.354-.355-.531-.795-.531-1.32s.177-.966.531-1.321c.352-.355.791-.533 1.313-.533.522 0 .961.178 1.315.533.352.355.53.796.53 1.321 0 .525-.178.965-.53 1.32-.354.355-.793.533-1.315.533ZM41.7054 119.259c-2.4203 0-4.7061-.468-6.8608-1.402-2.1548-.932-4.0351-2.208-5.6427-3.825-1.6095-1.615-2.879-3.504-3.8067-5.669-.9313-2.165-1.3952-4.462-1.3952-6.894 0-2.4602.4639-4.7657 1.3952-6.9147.9277-2.1508 2.1972-4.0329 3.8067-5.6482 1.6076-1.6171 3.4879-2.8927 5.6427-3.8248 2.1547-.9358 4.4405-1.4018 6.8608-1.4018 2.4487 0 4.7433.466 6.8821 1.4018 2.1406.9321 4.0139 2.2077 5.6215 3.8248 1.6094 1.6153 2.8789 3.4974 3.8067 5.6482.9295 2.149 1.3952 4.4545 1.3952 6.9147 0 2.432-.4657 4.729-1.3952 6.894-.9278 2.165-2.1973 4.054-3.8067 5.669-1.6076 1.617-3.4809 2.893-5.6215 3.825-2.1388.934-4.4334 1.402-6.8821 1.402Zm0-3.647c.7667-1.067 1.4306-2.179 1.9919-3.336.5612-1.156 1.018-2.387 1.3722-3.691h-6.7281c.3541 1.304.8109 2.535 1.3722 3.691.5612 1.157 1.2252 2.269 1.9918 3.336Zm-4.6034-.712c-.5312-.978-.995-1.994-1.3934-3.045-.3984-1.053-.7312-2.144-.9968-3.27h-5.2231c.8552 1.482 1.9263 2.772 3.2082 3.869 1.2836 1.098 2.7532 1.913 4.4051 2.446Zm9.2068 0c1.6519-.533 3.1215-1.348 4.4051-2.446 1.2837-1.097 2.3531-2.387 3.2083-3.869h-5.2231c-.2656 1.126-.5967 2.217-.9968 3.27-.3984 1.051-.8623 2.067-1.3935 3.045Zm-18.3251-9.873h6.0199c-.0886-.592-.1559-1.179-.2001-1.758-.0443-.576-.0655-1.177-.0655-1.8s.0212-1.224.0655-1.8002c.0443-.5782.1115-1.1652.2001-1.7576h-6.0199c-.1469.5924-.2585 1.1794-.3329 1.7576-.0725.5762-.1097 1.1772-.1097 1.8002s.0372 1.224.1097 1.8c.0744.579.186 1.166.3329 1.758Zm9.561 0h8.3215c.0885-.592.1558-1.179.2001-1.758.0442-.576.0655-1.177.0655-1.8s-.0213-1.224-.0655-1.8002c-.0443-.5782-.1116-1.1652-.2001-1.7576h-8.3215c-.0886.5924-.1559 1.1794-.2001 1.7576-.0443.5762-.0655 1.1772-.0655 1.8002s.0212 1.224.0655 1.8c.0442.579.1115 1.166.2001 1.758Zm11.8626 0h6.0198c.147-.592.2585-1.179.3329-1.758.0726-.576.1098-1.177.1098-1.8s-.0372-1.224-.1098-1.8002c-.0744-.5782-.1859-1.1652-.3329-1.7576h-6.0198c.0885.5924.1558 1.1794.2001 1.7576.0442.5762.0655 1.1772.0655 1.8002s-.0213 1.224-.0655 1.8c-.0443.579-.1116 1.166-.2001 1.758Zm-.7082-10.6738h5.2231c-.8552-1.4818-1.9246-2.7716-3.2083-3.8692-1.2836-1.0976-2.7531-1.9124-4.4051-2.4461.5312.9784.9951 1.9942 1.3935 3.0456.4001 1.0532.7312 2.1436.9968 3.2697Zm-10.3577 0h6.7281c-.3542-1.3039-.811-2.535-1.3722-3.6913-.5613-1.1563-1.2252-2.2682-1.9919-3.3356-.7666 1.0674-1.4306 2.1793-1.9918 3.3356-.5613 1.1563-1.0181 2.3874-1.3722 3.6913Zm-8.8527 0h5.2231c.2656-1.1261.5984-2.2165.9968-3.2697.3984-1.0514.8622-2.0672 1.3934-3.0456-1.6519.5337-3.1215 1.3485-4.4051 2.4461-1.2819 1.0976-2.353 2.3874-3.2082 3.8692ZM148.375 113.699c-.574 0-1.057-.195-1.446-.585-.388-.391-.582-.876-.582-1.453 0-.577.194-1.062.582-1.451.389-.392.872-.587 1.446-.587h32.46c.575 0 1.057.195 1.445.587.389.389.584.874.584 1.451 0 .577-.195 1.062-.584 1.453-.388.39-.87.585-1.445.585h-32.46Zm0-10.192c-.574 0-1.057-.195-1.446-.585-.388-.391-.582-.876-.582-1.453 0-.577.194-1.062.582-1.453.389-.3896.872-.5853 1.446-.5853h32.46c.575 0 1.057.1957 1.445.5853.389.391.584.876.584 1.453 0 .577-.195 1.062-.584 1.453-.388.39-.87.585-1.445.585h-32.46Zm0-10.1915c-.574 0-1.057-.1957-1.446-.5871-.388-.3893-.582-.8744-.582-1.4513 0-.5769.194-1.062.582-1.4534.389-.3893.872-.585 1.446-.585h32.46c.575 0 1.057.1957 1.445.585.389.3914.584.8765.584 1.4534 0 .5769-.195 1.062-.584 1.4513-.388.3914-.87.5871-1.445.5871h-32.46ZM227.081 50.444c2.322 0 4.295-.8173 5.92-2.4482 1.625-1.6347 2.438-3.6164 2.438-5.949 0-2.3325-.813-4.3143-2.438-5.949-1.625-1.6309-3.598-2.4482-5.92-2.4482-2.321 0-4.295.8173-5.92 2.4482-1.625 1.6347-2.437 3.6165-2.437 5.949 0 2.3326.812 4.3143 2.437 5.949 1.625 1.6309 3.599 2.4482 5.92 2.4482Zm0-3.3589c-1.393 0-2.577-.4888-3.552-1.4685-.975-.9797-1.462-2.1702-1.462-3.5698 0-1.3995.487-2.5882 1.462-3.5679.975-.9815 2.159-1.4704 3.552-1.4704 1.393 0 2.577.4889 3.552 1.4704.975.9797 1.463 2.1684 1.463 3.5679 0 1.3996-.488 2.5901-1.463 3.5698-.975.9797-2.159 1.4685-3.552 1.4685Zm0 8.9571c-4.148 0-7.932-1.1197-11.352-3.3589-3.42-2.2393-6.121-5.1932-8.102-8.8637-.155-.2799-.271-.5673-.348-.8621-.078-.2968-.116-.599-.116-.9107 0-.3116.038-.6139.116-.9087.077-.2967.193-.5841.348-.864 1.981-3.6706 4.682-6.6245 8.102-8.8638 3.42-2.2392 7.204-3.3589 11.352-3.3589 4.148 0 7.932 1.1197 11.352 3.3589 3.421 2.2393 6.122 5.1932 8.102 8.8638.155.2799.271.5673.349.864.077.2948.116.5971.116.9087 0 .3117-.039.6139-.116.9107-.078.2948-.194.5822-.349.8621-1.98 3.6705-4.681 6.6244-8.102 8.8637-3.42 2.2392-7.204 3.3589-11.352 3.3589Zm0-3.7321c3.498 0 6.709-.9256 9.634-2.7767 2.926-1.8493 5.162-4.346 6.71-7.4866-1.548-3.1405-3.784-5.6373-6.71-7.4884-2.925-1.8493-6.136-2.7749-9.634-2.7749s-6.709.9256-9.634 2.7749c-2.925 1.8511-5.162 4.3479-6.709 7.4884 1.547 3.1406 3.784 5.6373 6.709 7.4866 2.925 1.8511 6.136 2.7767 9.634 2.7767ZM92.3732 50.8624c1.505-1.1564 3.187-2.0672 5.0461-2.7361 1.8591-.6653 3.8067-.9997 5.8427-.9997 2.036 0 3.984.3344 5.843.9997 1.859.6689 3.541 1.5797 5.046 2.7361 1.032-1.215 1.838-2.5938 2.413-4.1361.576-1.5424.862-3.1879.862-4.9366 0-3.944-1.379-7.3009-4.137-10.0726-2.761-2.7733-6.102-4.1592-10.027-4.1592-3.9252 0-7.2662 1.3859-10.0248 4.1592-2.7602 2.7717-4.1395 6.1286-4.1395 10.0726 0 1.7487.2869 3.3942.8623 4.9366.5754 1.5423 1.381 2.9211 2.4132 4.1361Zm10.8888-7.2938c-1.74 0-3.208-.5995-4.4033-1.8003-1.1951-1.2026-1.7935-2.6773-1.7935-4.4261 0-1.7487.5984-3.2234 1.7935-4.4242 1.1953-1.2009 2.6633-1.8021 4.4033-1.8021 1.741 0 3.208.6012 4.405 1.8021 1.195 1.2008 1.792 2.6755 1.792 4.4242 0 1.7488-.597 3.2235-1.792 4.4261-1.197 1.2008-2.664 1.8003-4.405 1.8003Zm0 16.0107c-2.449 0-4.7503-.4678-6.905-1.4018-2.1548-.9322-4.028-2.2006-5.6215-3.8017-1.5935-1.601-2.8559-3.4832-3.7837-5.6482-.9313-2.165-1.3952-4.4776-1.3952-6.9379s.4639-4.773 1.3952-6.938c.9278-2.165 2.1902-4.0472 3.7837-5.6482 1.5935-1.6011 3.4667-2.8695 5.6215-3.8017C98.5117 24.4661 100.813 24 103.262 24s4.75.4661 6.905 1.4018c2.155.9322 4.028 2.2006 5.622 3.8017 1.593 1.601 2.856 3.4832 3.783 5.6482.93 2.165 1.395 4.4777 1.395 6.938s-.465 4.7729-1.395 6.9379c-.927 2.165-2.19 4.0472-3.783 5.6482-1.594 1.6011-3.467 2.8695-5.622 3.8017-2.155.934-4.456 1.4018-6.905 1.4018ZM39.2266 44.9918 35.42 41.167c-.324-.3261-.7383-.4892-1.2394-.4892-.5011 0-.9154.1631-1.2394.4892-.324.3261-.4868.7413-.4868 1.2453 0 .504.1628.9192.4868 1.2453l5.0461 5.07c.354.3558.7666.5337 1.2393.5337.4728 0 .8853-.1779 1.2394-.5337l10.0036-10.0511c.324-.3261.4869-.7413.4869-1.2453 0-.504-.1629-.9191-.4869-1.2453-.3239-.3261-.7383-.4892-1.2394-.4892-.5011 0-.9154.1631-1.2394.4892l-8.7642 8.8059Zm2.4788 14.5875c-2.4486 0-4.7503-.467-6.9051-1.4009-2.1548-.934-4.028-2.2015-5.6215-3.8026-1.5934-1.601-2.8558-3.4837-3.7836-5.6482C24.4639 46.5632 24 44.2505 24 41.7897c0-2.4609.4639-4.7736 1.3952-6.938.9278-2.1644 2.1902-4.0472 3.7836-5.6482 1.5935-1.6011 3.4668-2.8686 5.6215-3.8026C36.9551 24.467 39.2568 24 41.7054 24c2.4487 0 4.7504.467 6.9052 1.4009 2.1547.934 4.0279 2.2015 5.6214 3.8026 1.5935 1.601 2.8559 3.4838 3.7836 5.6482.9296 2.1644 1.3953 4.4771 1.3953 6.938 0 2.4608-.4657 4.7735-1.3953 6.9379-.9277 2.1645-2.1901 4.0472-3.7836 5.6482-1.5935 1.6011-3.4667 2.8686-5.6214 3.8026-2.1548.9339-4.4565 1.4009-6.9052 1.4009Zm0-3.5579c3.9536 0 7.3035-1.3787 10.0478-4.1361 2.7444-2.7574 4.1166-6.1227 4.1166-10.0956 0-3.973-1.3722-7.3383-4.1166-10.0957-2.7443-2.7574-6.0942-4.1361-10.0478-4.1361-3.9535 0-7.3035 1.3787-10.0478 4.1361-2.7443 2.7574-4.1165 6.1226-4.1165 10.0957 0 3.973 1.3722 7.3382 4.1165 10.0956 2.7443 2.7574 6.0943 4.1361 10.0478 4.1361Z" fill="#457AA5"/></svg>