<svg width="272" height="148" viewBox="0 0 272 148" fill="none" xmlns="http://www.w3.org/2000/svg">
<rect width="272" height="148" fill="#EDEDED"/>
<path d="M136 29.7324C112.252 29.7324 93 49.5517 93 74C93 83.9678 96.2019 93.1647 101.602 100.564L139.14 61.9195H111.18V49.3631H159.967V99.5885H147.77V70.7926L110.23 109.439C117.412 114.983 126.333 118.268 136 118.268C159.748 118.268 179 98.4483 179 74C179 49.5516 159.748 29.7324 136 29.7324Z" fill="#BEC0C1"/>
<path d="M111.179 61.9194H139.14L125.159 76.3118L111.179 61.9194ZM159.966 49.3631V99.5884H147.769V70.7926L110.229 109.439C117.411 114.982 126.332 118.268 135.999 118.268C159.748 118.268 179 98.4482 179 73.9999C179 72.2276 178.887 70.4833 178.69 68.7654L159.966 49.3631Z" fill="#797C7F"/>
</svg>
