<svg width="577" height="146" viewBox="0 0 577 146" fill="none" xmlns="http://www.w3.org/2000/svg">
<path d="M249.125 145H144C144 64.9187 208.919 0 289 0V105.125C289 127.147 271.147 145 249.125 145Z" fill="#286AD8"/>
<path d="M39.875 0C17.8526 0 0 17.8525 0 39.8751V145H145V0H39.875Z" fill="#286AD8"/>
<path d="M360.34 145.117C400.381 145.117 432.84 112.658 432.84 72.6169C432.84 32.5763 400.381 0.116943 360.34 0.116943C320.299 0.116943 287.84 32.5763 287.84 72.6169C287.84 112.658 320.299 145.117 360.34 145.117Z" fill="#286AD8"/>
<path d="M431.5 145C511.521 145 576.39 80.0938 576.39 0.0279083L576.5 0H431.5V145Z" fill="#286AD8"/>
<g style="mix-blend-mode:multiply" opacity="0.79">
<mask id="mask0_617_869" style="mask-type:luminance" maskUnits="userSpaceOnUse" x="287" y="0" width="146" height="146">
<path d="M360.34 145.094C400.381 145.094 432.84 112.634 432.84 72.5937C432.84 32.5531 400.381 0.09375 360.34 0.09375C320.299 0.09375 287.84 32.5531 287.84 72.5937C287.84 112.634 320.299 145.094 360.34 145.094Z" fill="white"/>
</mask>
<g mask="url(#mask0_617_869)">
<g style="mix-blend-mode:multiply">
<path d="M432.82 88.37L424.671 110.157L412.348 126.348L395.707 138.492L382.574 143.529L376.663 145.113L334.595 103.045C334.497 102.948 334.399 102.85 334.302 102.752C334.205 102.656 334.108 102.559 334.011 102.461C333.913 102.364 333.816 102.267 333.719 102.169C333.621 102.072 333.523 101.975 333.426 101.876C333.328 101.779 333.231 101.682 333.134 101.584C333.036 101.487 332.939 101.39 332.842 101.292C325.532 94.0566 321 84.0193 321 72.9211C321 50.8733 338.873 33 360.921 33C372.019 33 382.057 37.5318 389.292 44.8422C389.39 44.939 389.487 45.0364 389.584 45.1342C389.682 45.2313 389.78 45.3288 389.877 45.4269L432.528 88.0783C432.626 88.1751 432.723 88.2722 432.82 88.37Z" fill="url(#paint0_linear_617_869)" fill-opacity="0.7"/>
</g>
</g>
</g>
<path d="M364.101 112.22C386.038 110.014 402.033 90.4422 399.827 68.5052C397.62 46.5681 378.048 30.5731 356.111 32.7793C334.174 34.9855 318.179 54.5574 320.386 76.4945C322.592 98.4315 342.164 114.427 364.101 112.22Z" fill="#388ACC"/>
<path d="M360.105 96.9471C373.614 96.9471 384.565 85.9958 384.565 72.4867C384.565 58.9776 373.614 48.0264 360.105 48.0264C346.596 48.0264 335.645 58.9776 335.645 72.4867C335.645 85.9958 346.596 96.9471 360.105 96.9471Z" fill="#0C508D"/>
<path d="M360.105 96.9471C373.614 96.9471 384.565 85.9958 384.565 72.4867C384.565 58.9776 373.614 48.0264 360.105 48.0264C346.596 48.0264 335.645 58.9776 335.645 72.4867C335.645 85.9958 346.596 96.9471 360.105 96.9471Z" fill="#1443B5"/>
<defs>
<linearGradient id="paint0_linear_617_869" x1="321" y1="45.7485" x2="440.05" y2="133.749" gradientUnits="userSpaceOnUse">
<stop stop-color="#7AA5E7"/>
<stop offset="1" stop-color="#003BA1"/>
</linearGradient>
</defs>
</svg>
