<svg width="578" height="146" viewBox="0 0 578 146" fill="none" xmlns="http://www.w3.org/2000/svg">
<path d="M183.424 145.105C161.651 145.105 144 127.253 144 105.23V0.10498H434V145.105H183.424Z" fill="#286AD8"/>
<g style="mix-blend-mode:multiply" opacity="0.82">
<mask id="mask0_743_715" style="mask-type:alpha" maskUnits="userSpaceOnUse" x="144" y="0" width="290" height="146">
<path d="M183.424 145.105C161.651 145.105 144 127.253 144 105.23V0.10498H434V145.105H183.424Z" fill="#286AD8"/>
</mask>
<g mask="url(#mask0_743_715)">
<path d="M202 121.803L252 171.113C242.635 171.113 272.111 172.241 272.977 172.241H331.266C332.729 172.241 333.915 170.985 333.915 169.436C333.915 168.449 403.795 160.803 378 160.803L316.5 99.3027C316.017 98.6217 264.805 99.3025 263.938 99.3025H205.649C204.186 99.3025 203 100.558 203 102.108C203 103.095 203.483 103.958 204.211 104.459" fill="url(#paint0_linear_743_715)" fill-opacity="0.73"/>
</g>
</g>
<path d="M145 39.98V145.105C64.9187 145.105 0 80.1863 0 0.10498H105.125C127.147 0.10498 145 17.9576 145 39.98Z" fill="#286AD8"/>
<path d="M505.5 145C545.541 145 578 112.541 578 72.5C578 32.4594 545.541 0 505.5 0C465.459 0 433 32.4594 433 72.5C433 112.541 465.459 145 505.5 145Z" fill="#286AD8"/>
<rect x="201" y="98.105" width="116.421" height="24.529" rx="3" fill="#5187DF"/>
<path d="M229.109 113.369H213.39C211.954 113.369 210.996 112.369 210.996 110.868C210.996 109.367 211.954 108.369 213.39 108.369H229.109C230.545 108.369 231.503 109.367 231.503 110.868C231.503 112.369 230.545 113.369 229.109 113.369Z" fill="#1545BB"/>
<path d="M241.949 113.369H237.418C235.981 113.369 235.024 112.369 235.024 110.868C235.024 109.367 235.981 108.369 237.418 108.369H241.949C243.385 108.369 244.343 109.367 244.343 110.868C244.343 112.369 243.385 113.369 241.949 113.369Z" fill="#1545BB"/>
<path d="M266.914 113.369H250.258C248.822 113.369 247.864 112.369 247.864 110.868C247.864 109.367 248.822 108.369 250.258 108.369H266.914C268.35 108.369 269.308 109.367 269.308 110.868C269.308 112.369 268.35 113.369 266.914 113.369Z" fill="#1545BB"/>
<path d="M305.506 113.369H275.223C273.787 113.369 272.829 112.369 272.829 110.868C272.829 109.367 273.787 108.369 275.223 108.369H305.506C306.942 108.369 307.9 109.367 307.9 110.868C307.9 112.369 306.942 113.369 305.506 113.369Z" fill="#1545BB"/>
<defs>
<linearGradient id="paint0_linear_743_715" x1="206.352" y1="101.114" x2="308.075" y2="154.656" gradientUnits="userSpaceOnUse">
<stop stop-color="#7AA5E7"/>
<stop offset="1" stop-color="#003BA1"/>
</linearGradient>
</defs>
</svg>
