<svg width="272" height="136" viewBox="0 0 272 136" fill="none" xmlns="http://www.w3.org/2000/svg">
<path d="M0 49H272V128C272 132.418 268.418 136 264 136H8.00001C3.58173 136 0 132.418 0 128V49Z" fill="#EFF6FB"/>
<path d="M0 8C0 3.58172 3.58172 0 8 0H264C268.418 0 272 3.58172 272 8V46H0V8Z" fill="#EDEDED"/>
<path d="M110.5 29H49.3942C47.9576 29 47 27.9995 47 26.4987C47 24.9978 47.9577 24 49.3942 24H110.5C111.936 24 112.894 24.9978 112.894 26.4987C112.894 27.9995 111.936 29 110.5 29Z" fill="#D0D0CE"/>
<path d="M171.5 29L123.658 28.999C122.063 28.999 121 27.9987 121 26.4982C121 24.9976 122.063 24 123.658 24L171.5 24.001C173.094 24.001 174.158 24.9986 174.158 26.4992C174.158 27.9997 173.094 29 171.5 29Z" fill="#D0D0CE"/>
<path d="M184.5 27.5399L186.948 25.1673C187.064 25.0558 187.21 25 187.388 25C187.566 25 187.712 25.0558 187.827 25.1673C187.942 25.2788 188 25.4208 188 25.5932C188 25.7655 187.942 25.9075 187.827 26.019L184.939 28.8175C184.814 28.9392 184.667 29 184.5 29C184.333 29 184.186 28.9392 184.061 28.8175L181.173 26.019C181.058 25.9075 181 25.7655 181 25.5932C181 25.4208 181.058 25.2788 181.173 25.1673C181.288 25.0558 181.434 25 181.612 25C181.79 25 181.936 25.0558 182.052 25.1673L184.5 27.5399Z" fill="#D0D0CE"/>
<circle cx="221.5" cy="26.5" r="5.5" fill="#D0D0CE"/>
<circle cx="244.5" cy="26.5" r="5.5" fill="#D0D0CE"/>
<rect x="7.57886" y="7.7356" width="114.421" height="22.529" rx="3" fill="white" stroke="#457AA5" stroke-width="2"/>
<path d="M34.6875 22H18.9691C17.5326 22 16.575 20.9995 16.575 19.4987C16.575 17.9978 17.5326 17 18.9691 17H34.6875C36.124 17 37.0816 17.9978 37.0816 19.4987C37.0816 20.9995 36.124 22 34.6875 22Z" fill="#457AA5"/>
<path d="M47.5276 22H42.9967C41.5602 22 40.6025 20.9995 40.6025 19.4987C40.6025 17.9978 41.5602 17 42.9967 17H47.5276C48.9641 17 49.9217 17.9978 49.9217 19.4987C49.9217 20.9995 48.9641 22 47.5276 22Z" fill="#457AA5"/>
<path d="M72.4927 22H55.8368C54.4003 22 53.4426 20.9995 53.4426 19.4987C53.4426 17.9978 54.4003 17 55.8368 17H72.4927C73.9291 17 74.8868 17.9978 74.8868 19.4987C74.8868 20.9995 73.9291 22 72.4927 22Z" fill="#457AA5"/>
<path d="M111.085 22H80.8021C79.3656 22 78.408 20.9995 78.408 19.4987C78.408 17.9978 79.3656 17 80.8021 17H111.085C112.521 17 113.479 17.9978 113.479 19.4987C113.479 20.9995 112.521 22 111.085 22Z" fill="#457AA5"/>
</svg>
