<svg width="272" height="143" viewBox="0 0 272 143" fill="none" xmlns="http://www.w3.org/2000/svg">
<rect width="272" height="143" rx="8" fill="#EFF6FB"/>
<rect x="22" y="36" width="228" height="24" rx="4" fill="white" stroke="#BEC0C1" stroke-width="2"/>
<path d="M23 26C23 24.3431 24.3431 23 26 23H82.7059C84.3627 23 85.7059 24.3431 85.7059 26C85.7059 27.6569 84.3627 29 82.7059 29H26C24.3431 29 23 27.6569 23 26Z" fill="#457AA5"/>
<rect x="22" y="94" width="228" height="24" rx="4" fill="white" stroke="#BEC0C1" stroke-width="2"/>
<g clip-path="url(#clip0_248_126)">
<path d="M28.8333 56C28.5972 56 28.3993 55.9201 28.2396 55.7604C28.0799 55.6007 28 55.4028 28 55.1667C28 54.9306 28.0799 54.7326 28.2396 54.5729C28.3993 54.4132 28.5972 54.3333 28.8333 54.3333H29.6667V42.6667H28.8333C28.5972 42.6667 28.3993 42.5868 28.2396 42.4271C28.0799 42.2674 28 42.0694 28 41.8333C28 41.5972 28.0799 41.3993 28.2396 41.2396C28.3993 41.0799 28.5972 41 28.8333 41H32.1667C32.4028 41 32.6007 41.0799 32.7604 41.2396C32.9201 41.3993 33 41.5972 33 41.8333C33 42.0694 32.9201 42.2674 32.7604 42.4271C32.6007 42.5868 32.4028 42.6667 32.1667 42.6667H31.3333V54.3333H32.1667C32.4028 54.3333 32.6007 54.4132 32.7604 54.5729C32.9201 54.7326 33 54.9306 33 55.1667C33 55.4028 32.9201 55.6007 32.7604 55.7604C32.6007 55.9201 32.4028 56 32.1667 56H28.8333Z" fill="#BEC0C1"/>
</g>
<path d="M23 84C23 82.3431 24.3431 81 26 81H127C128.657 81 130 82.3431 130 84C130 85.6569 128.657 87 127 87H26C24.3431 87 23 85.6569 23 84Z" fill="#BEC0C1"/>
<g clip-path="url(#clip1_248_126)">
<path d="M28.8333 114C28.5972 114 28.3993 113.92 28.2396 113.76C28.0799 113.601 28 113.403 28 113.167C28 112.931 28.0799 112.733 28.2396 112.573C28.3993 112.413 28.5972 112.333 28.8333 112.333H29.6667V100.667H28.8333C28.5972 100.667 28.3993 100.587 28.2396 100.427C28.0799 100.267 28 100.069 28 99.8333C28 99.5972 28.0799 99.3993 28.2396 99.2396C28.3993 99.0799 28.5972 99 28.8333 99H32.1667C32.4028 99 32.6007 99.0799 32.7604 99.2396C32.9201 99.3993 33 99.5972 33 99.8333C33 100.069 32.9201 100.267 32.7604 100.427C32.6007 100.587 32.4028 100.667 32.1667 100.667H31.3333V112.333H32.1667C32.4028 112.333 32.6007 112.413 32.7604 112.573C32.9201 112.733 33 112.931 33 113.167C33 113.403 32.9201 113.601 32.7604 113.76C32.6007 113.92 32.4028 114 32.1667 114H28.8333Z" fill="#BEC0C1"/>
</g>
<defs>
<clipPath id="clip0_248_126">
<rect width="5" height="15" fill="white" transform="translate(28 41)"/>
</clipPath>
<clipPath id="clip1_248_126">
<rect width="5" height="15" fill="white" transform="translate(28 99)"/>
</clipPath>
</defs>
</svg>
