<svg width="577" height="145" viewBox="0 0 577 145" fill="none" xmlns="http://www.w3.org/2000/svg">
<path d="M99.3438 74.2495C117.362 74.2495 131.969 59.6428 131.969 41.6245C131.969 23.6062 117.362 8.99951 99.3438 8.99951C81.3255 8.99951 66.7188 23.6062 66.7188 41.6245C66.7188 59.6428 81.3255 74.2495 99.3438 74.2495Z" fill="#286AD8"/>
<path d="M145 145H0V0L145 145Z" fill="#286AD8"/>
<path d="M326.424 0C304.651 0 287 17.8525 287 39.8751V145H577V0H326.424Z" fill="#286AD8"/>
<path d="M288 105.125V0C207.919 0 143 64.9187 143 145H248.125C270.147 145 288 127.147 288 105.125Z" fill="#286AD8"/>
<g style="mix-blend-mode:multiply">
<mask id="mask0_610_461" style="mask-type:alpha" maskUnits="userSpaceOnUse" x="287" y="0" width="290" height="145">
<path d="M326.424 0C304.651 0 287 17.8525 287 39.8751V145H577V0H326.424Z" fill="#286AD8"/>
</mask>
<g mask="url(#mask0_610_461)">
<g style="mix-blend-mode:multiply">
<path d="M627.187 150.039C628.283 150.919 629 152.271 629 153.808V206.692C629 209.348 626.897 211.5 624.304 211.5H417.696C416.24 211.5 414.955 210.807 414.093 209.742L324.813 120.462C323.717 119.582 323 118.229 323 116.692V63.8077C323 61.1525 325.102 59 327.696 59H333.551L326.128 51.5138C325.35 50.979 324.833 50.0551 324.833 49C324.833 47.3431 326.102 46 327.667 46H390C390.927 46 391.742 46.4779 392.259 47.2063L404.108 59H534.304C535.76 59 537.045 59.6932 537.907 60.7585L627.187 150.039Z" fill="url(#paint0_linear_610_461)" fill-opacity="0.77"/>
</g>
</g>
</g>
<path d="M534.304 59H327.696C325.102 59 323 61.1525 323 63.8077V116.692C323 119.348 325.102 121.5 327.696 121.5H534.304C536.897 121.5 539 119.348 539 116.692V63.8077C539 61.1525 536.897 59 534.304 59Z" fill="#5187DF"/>
<path d="M324.833 49C324.833 47.3431 326.102 46 327.667 46H390C391.565 46 392.833 47.3431 392.833 49C392.833 50.6569 391.565 52 390 52H327.667C326.102 52 324.833 50.6569 324.833 49Z" fill="#5187DF"/>
<defs>
<linearGradient id="paint0_linear_610_461" x1="348.5" y1="35" x2="568.5" y2="213.5" gradientUnits="userSpaceOnUse">
<stop stop-color="#7AA5E7"/>
<stop offset="1" stop-color="#003BA1"/>
</linearGradient>
</defs>
</svg>
