<svg width="272" height="142" viewBox="0 0 272 142" fill="none" xmlns="http://www.w3.org/2000/svg">
<g id="UNav-Footer-art">
<path id="190x100 top rounded rectangle" d="M0 8C0 3.58172 3.58172 0 8 0H264C268.418 0 272 3.58172 272 8V39H0V8Z" fill="#EFF6FB"/>
<path id="Rectangle 12" d="M0 91H272V134C272 138.418 268.418 142 264 142H8.00001C3.58173 142 0 138.418 0 134V91Z" fill="#0E324F"/>
<path id="Vector" d="M128.681 106.507C128.327 106.415 128.01 106.155 127.628 106.155C127.087 106.093 126.261 106.118 125.68 106.234C125.266 106.323 124.935 106.399 124.922 106.863C124.918 107.274 125.437 107.691 125.352 108.11C125.165 108.852 124.226 109.309 123.626 109.676C123.472 109.758 123.221 109.88 123.116 110.027C122.943 110.273 122.981 111.026 123.116 111.028C125.257 111.034 131.694 111.037 134.667 111.036C135.057 111.069 135.313 111.343 135.497 111.703C135.687 112.03 135.709 112.461 135.865 112.789C136.066 113.133 136.577 113.277 136.896 113.49C137.311 113.738 137.698 114.014 138.149 114.219C138.399 114.333 138.718 114.456 138.869 114.701L138.956 115.042C138.946 115.2 138.736 115.321 138.624 115.403C138.451 115.534 138.302 115.678 138.204 115.877L138.181 116.191C138.32 116.412 138.877 116.197 139.066 116.136C139.328 116.048 139.594 115.929 139.867 115.882C141.03 115.675 142.22 115.5 143.264 114.947C143.412 114.868 143.747 114.744 143.788 114.581C143.89 114.177 142.692 114.564 142.547 114.609C142.288 114.701 142.01 114.695 141.74 114.734C141.142 114.837 140.31 115.007 139.72 115.026C139.423 115.058 139.279 114.83 139.349 114.537C139.431 114.169 139.772 113.943 139.748 113.558C139.701 112.774 139.95 111.902 139.936 111.11C139.894 110.122 140.307 109.181 140.337 108.202C140.364 107.362 140.484 106.522 140.381 105.687C140.291 104.949 140.009 104.069 140.067 103.324C140.081 103.143 140.11 103.031 140.16 102.858C140.367 102.285 140.171 101.682 140.173 101.117C140.175 100.41 140.301 100.113 139.848 100.03C139.395 99.946 138.124 100.069 137.635 100.038C136.948 100.056 136.249 100.022 135.625 100.315C134.85 100.685 134.244 101.354 133.734 102.019C133.456 102.462 132.893 102.601 132.608 103.034C132.32 103.433 132.556 103.877 132.572 104.314C132.591 105.664 132.122 105.463 131.256 106.161C130.881 106.462 130.379 106.521 129.915 106.53C129.548 106.54 129.038 106.6 128.681 106.507Z" fill="#88AAC6"/>
<path id="Vector_2" d="M93.6787 132H70.1784C68.8714 132 68 131.2 68 130C68 128.8 68.8714 128 70.1784 128H93.6787C94.9858 128 95.8572 128.8 95.8572 130C95.8572 131.2 94.9858 132 93.6787 132Z" fill="#88AAC6"/>
<path id="Vector_3" d="M129.679 132H106.178C104.871 132 104 131.2 104 130C104 128.8 104.871 128 106.178 128H129.679C130.986 128 131.857 128.8 131.857 130C131.857 131.2 130.986 132 129.679 132Z" fill="#88AAC6"/>
<path id="Vector_4" d="M165.679 132H142.178C140.871 132 140 131.2 140 130C140 128.8 140.871 128 142.178 128H165.679C166.986 128 167.857 128.8 167.857 130C167.857 131.2 166.986 132 165.679 132Z" fill="#88AAC6"/>
<path id="Vector_5" d="M201.679 132H178.178C176.871 132 176 131.2 176 130C176 128.8 176.871 128 178.178 128H201.679C202.986 128 203.857 128.8 203.857 130C203.857 131.2 202.986 132 201.679 132Z" fill="#88AAC6"/>
<path id="Vector_6" d="M272 42H0V91H272V42Z" fill="#EDEDED"/>
<path id="Vector_7" d="M84.6787 76H61.1784C59.8714 76 59 75.2 59 74C59 72.8 59.8714 72 61.1784 72H84.6787C85.9858 72 86.8572 72.8 86.8572 74C86.8572 75.2 85.9858 76 84.6787 76Z" fill="#D0D0CE"/>
<path id="Vector_8" d="M123.679 76H100.178C98.8714 76 98 75.2 98 74C98 72.8 98.8714 72 100.178 72H123.679C124.986 72 125.857 72.8 125.857 74C125.857 75.2 124.986 76 123.679 76Z" fill="#D0D0CE"/>
<path id="Vector_9" d="M162.679 76H139.178C137.871 76 137 75.2 137 74C137 72.8 137.871 72 139.178 72H162.679C163.986 72 164.857 72.8 164.857 74C164.857 75.2 163.986 76 162.679 76Z" fill="#D0D0CE"/>
<path id="Vector_10" d="M201.679 76H178.178C176.871 76 176 75.2 176 74C176 72.8 176.871 72 178.178 72H201.679C202.986 72 203.857 72.8 203.857 74C203.857 75.2 202.986 76 201.679 76Z" fill="#D0D0CE"/>
<path id="Vector_11" d="M96.1297 63H22.8703C21.1481 63 20 61.7994 20 59.9984C20 58.1973 21.1481 57 22.8703 57H96.1297C97.8519 57 99 58.1973 99 59.9984C99 61.7994 97.8519 63 96.1297 63Z" fill="#D0D0CE"/>
<path id="Vector_12" d="M45.6787 76H22.1784C20.8714 76 20 75.2 20 74C20 72.8 20.8714 72 22.1784 72H45.6787C46.9858 72 47.8572 72.8 47.8572 74C47.8572 75.2 46.9858 76 45.6787 76Z" fill="#D0D0CE"/>
</g>
</svg>
